<svg id="Layer_1" xmlns="http://www.w3.org/2000/svg" viewBox="0 0 243.4 847.2"><style>.st0{fill:none}.st1{fill:#3f51b5}.st2{font-family:&apos;Roboto-Regular&apos;}.st3{font-size:8px}.st4{font-family:&apos;RobotoSlab-Light&apos;}.st5{letter-spacing:5}.st6{letter-spacing:6}.st7{letter-spacing:10}.st8{letter-spacing:1}.st14{fill:#e91e63}.st15{font-size:16px}.st16{fill:#009688}.st17{letter-spacing:2}.st18{letter-spacing:7}</style><path class="st0" d="M10 59.1h227v160H10z"/><text transform="translate(10 65.21)"><tspan x="0" y="0" class="st1 st2 st3">※</tspan><tspan x="5.1" y="0" class="st1 st4 st3 st5"> </tspan><tspan x="12.3" y="0" class="st1 st4 st3">List token on Exchanges after ICO Ends</tspan><tspan x="0" y="10" class="st1 st2 st3">※</tspan><tspan x="5.1" y="10" class="st1 st4 st3 st5"> </tspan><tspan x="12.3" y="10" class="st1 st4 st3">Debit Card spending with Ethereum (ETH)</tspan><tspan x="0" y="20" class="st1 st2 st3">※</tspan><tspan x="5.1" y="20" class="st1 st4 st3 st5"> </tspan><tspan x="12.3" y="20" class="st1 st4 st3">Debit Card spending with Social (SCL)</tspan><tspan x="0" y="30" class="st1 st2 st3">※</tspan><tspan x="5.1" y="30" class="st1 st4 st3 st5"> </tspan><tspan x="12.3" y="30" class="st1 st4 st3">Debit Card spending with Partner’s tokens</tspan><tspan x="0" y="40" class="st1 st2 st3">※</tspan><tspan x="5.1" y="40" class="st1 st4 st3 st5"> </tspan><tspan x="12.3" y="40" class="st1 st4 st3">MoxyOne wallet support for ETH and Partner’s </tspan><tspan x="200.1" y="40" class="st1 st4 st3 st6"> </tspan><tspan x="208.4" y="40" class="st1 st4 st3 st7"> </tspan><tspan x="0" y="50" class="st1 st4 st3 st7"> </tspan><tspan x="12.3" y="50" class="st1 st4 st3">Tokens (SPD, SCL)</tspan><tspan x="0" y="60" class="st1 st2 st3">※</tspan><tspan x="5.1" y="60" class="st1 st4 st3 st5"> </tspan><tspan x="12.3" y="60" class="st1 st4 st3">Dashboard credit card transactions, history and </tspan><tspan x="205.3" y="60" class="st1 st4 st3 st8"> </tspan><tspan x="208.4" y="60" class="st1 st4 st3 st7"> </tspan><tspan x="0" y="70" class="st1 st4 st3 st7"> </tspan><tspan x="12.3" y="70" class="st1 st4 st3">statements</tspan><tspan x="0" y="80" class="st1 st2 st3">※</tspan><tspan x="5.1" y="80" class="st1 st4 st3 st5"> </tspan><tspan x="12.3" y="80" class="st1 st4 st3">Mobile App (Hybrid)</tspan><tspan x="0" y="90" class="st1 st2 st3">※</tspan><tspan x="5.1" y="90" class="st1 st4 st3 st5"> </tspan><tspan x="12.3" y="90" class="st1 st4 st3">Payment channel - Raiden Network</tspan><tspan x="0" y="100" class="st1 st2 st3">※</tspan><tspan x="5.1" y="100" class="st1 st4 st3 st5"> </tspan><tspan x="12.3" y="100" class="st1 st4 st3">Digital ID verification</tspan><tspan x="0" y="110" class="st1 st2 st3">※</tspan><tspan x="5.1" y="110" class="st1 st4 st3 st5"> </tspan><tspan x="12.3" y="110" class="st1 st4 st3">Sanctions/PEP checks</tspan><tspan x="0" y="120" class="st1 st2 st3">※</tspan><tspan x="5.1" y="120" class="st1 st4 st3 st5"> </tspan><tspan x="12.3" y="120" class="st1 st4 st3">Notifications for spending limits</tspan><tspan x="0" y="130" class="st1 st2 st3">※</tspan><tspan x="5.1" y="130" class="st1 st4 st3 st5"> </tspan><tspan x="12.3" y="130" class="st1 st4 st3">Security Level 1 (SSL Encryption)</tspan><tspan x="0" y="140" class="st1 st2 st3">※</tspan><tspan x="5.1" y="140" class="st1 st4 st3 st5"> </tspan><tspan x="12.3" y="140" class="st1 st4 st3">Security Level 1 (temporary card freeze - misplaced </tspan><tspan x="220" y="140" class="st1 st4 st3" letter-spacing="-1"> </tspan><tspan x="220.6" y="140" class="st1 st4 st3 st7"> </tspan><tspan x="0" y="150" class="st1 st4 st3 st7"> </tspan><tspan x="12.3" y="150" class="st1 st4 st3">card - app controlled)</tspan></text><path class="st0" d="M9.1 282.1H235v89H9.1z"/><text transform="translate(9.084 288.15)"><tspan x="0" y="0" class="st1 st2 st3">※</tspan><tspan x="5.1" y="0" class="st1 st4 st3 st6"> </tspan><tspan x="13.7" y="0" class="st1 st4 st3">Decentralised wallet</tspan><tspan x="0" y="10" class="st1 st2 st3">※</tspan><tspan x="5.1" y="10" class="st1 st4 st3 st6"> </tspan><tspan x="13.7" y="10" class="st1 st4 st3">Debit card spending with MoxyOne</tspan><tspan x="0" y="20" class="st1 st2 st3">※</tspan><tspan x="5.1" y="20" class="st1 st4 st3 st6"> </tspan><tspan x="13.7" y="20" class="st1 st4 st3">MoxyOne buffer account</tspan><tspan x="0" y="30" class="st1 st2 st3">※</tspan><tspan x="5.1" y="30" class="st1 st4 st3 st6"> </tspan><tspan x="13.7" y="30" class="st1 st4 st3">MoxyOne Vault - store cryptos securely</tspan><tspan x="0" y="40" class="st1 st2 st3">※</tspan><tspan x="5.1" y="40" class="st1 st4 st3 st6"> </tspan><tspan x="13.7" y="40" class="st1 st4 st3">Add card to Apple Pay and Google Pay</tspan><tspan x="0" y="50" class="st1 st2 st3">※</tspan><tspan x="5.1" y="50" class="st1 st4 st3 st6"> </tspan><tspan x="13.7" y="50" class="st1 st4 st3">Security Level 2 (2 Factor Authentication)</tspan><tspan x="0" y="60" class="st1 st2 st3">※</tspan><tspan x="5.1" y="60" class="st1 st4 st3 st6"> </tspan><tspan x="13.7" y="60" class="st1 st4 st3">Geographical security</tspan><tspan x="0" y="70" class="st1 st2 st3">※</tspan><tspan x="5.1" y="70" class="st1 st4 st3 st6"> </tspan><tspan x="13.7" y="70" class="st1 st4 st3">User Ratings</tspan><tspan x="0" y="80" class="st1 st2 st3">※</tspan><tspan x="5.1" y="80" class="st1 st4 st3 st6"> </tspan><tspan x="13.7" y="80" class="st1 st4 st3">User spending habit tracking</tspan></text><linearGradient id="SVGID_1_" gradientUnits="userSpaceOnUse" x1="231" y1="180.332" x2="231.5" y2="180.332" gradientTransform="rotate(-90 200 258.832)"><stop offset="0" stop-color="#3f51b5"/><stop offset=".224" stop-color="#365aaf"/><stop offset=".596" stop-color="#1f749e"/><stop offset=".994" stop-color="#009688"/></linearGradient><path fill="none" stroke="url(#SVGID_1_)" stroke-width=".5" stroke-miterlimit="10" stroke-dasharray="1,2" d="M5 227.6h233"/><linearGradient id="SVGID_2_" gradientUnits="userSpaceOnUse" x1="77" y1="179.332" x2="77.5" y2="179.332" gradientTransform="rotate(-90 200 258.832)"><stop offset="0" stop-color="#3f51b5"/><stop offset=".224" stop-color="#365aaf"/><stop offset=".596" stop-color="#1f749e"/><stop offset=".994" stop-color="#009688"/></linearGradient><path fill="none" stroke="url(#SVGID_2_)" stroke-width=".5" stroke-miterlimit="10" stroke-dasharray="1,2" d="M4 381.6h233"/><path class="st0" d="M10 437.1h225v50H10z"/><text transform="translate(10.005 443.21)"><tspan x="0" y="0" class="st1 st2 st3">※</tspan><tspan x="5.1" y="0" class="st1 st4 st3 st8"> </tspan><tspan x="8.7" y="0" class="st1 st4 st3">ERC20 / ERC223 Token support</tspan><tspan x="0" y="10" class="st1 st2 st3">※</tspan><tspan x="5.1" y="10" class="st1 st4 st3 st8"> </tspan><tspan x="8.7" y="10" class="st1 st4 st3">White label wallet and debit cards for ICO</tspan><tspan x="0" y="20" class="st1 st2 st3">※</tspan><tspan x="5.1" y="20" class="st1 st4 st3 st8"> </tspan><tspan x="8.7" y="20" class="st1 st4 st3">Integration of debit card API by other ICOs </tspan><tspan x="0" y="30" class="st1 st2 st3">※</tspan><tspan x="5.1" y="30" class="st1 st4 st3 st8"> </tspan><tspan x="8.7" y="30" class="st1 st4 st3">Management Dashboard </tspan><tspan x="0" y="40" class="st1 st2 st3">※</tspan><tspan x="5.1" y="40" class="st1 st4 st3 st8"> </tspan><tspan x="8.7" y="40" class="st1 st4 st3">Security Level 3 (DDoS Protection)</tspan></text><linearGradient id="SVGID_3_" gradientUnits="userSpaceOnUse" x1="-36" y1="181.332" x2="-35.5" y2="181.332" gradientTransform="rotate(-90 200 258.832)"><stop offset="0" stop-color="#3f51b5"/><stop offset=".224" stop-color="#365aaf"/><stop offset=".596" stop-color="#1f749e"/><stop offset=".994" stop-color="#009688"/></linearGradient><path fill="none" stroke="url(#SVGID_3_)" stroke-width=".5" stroke-miterlimit="10" stroke-dasharray="1,2" d="M6 494.6h233"/><linearGradient id="SVGID_4_" gradientUnits="userSpaceOnUse" x1="-187" y1="182.332" x2="-186.5" y2="182.332" gradientTransform="rotate(-90 200 258.832)"><stop offset="0" stop-color="#3f51b5"/><stop offset=".224" stop-color="#365aaf"/><stop offset=".596" stop-color="#1f749e"/><stop offset=".994" stop-color="#009688"/></linearGradient><path fill="none" stroke="url(#SVGID_4_)" stroke-width=".5" stroke-miterlimit="10" stroke-dasharray="1,2" d="M7 645.6h233"/><path class="st0" d="M10 11.1h93v35H10z"/><text transform="translate(10 23.304)"><tspan x="0" y="0" class="st14 st4 st15">TIER 1</tspan><tspan x="0" y="19" class="st16 st4 st15">10, 000 ETH</tspan></text><path class="st0" d="M10 238.1h93v35H10z"/><text transform="translate(10 250.304)"><tspan x="0" y="0" class="st14 st4 st15">TIER 2</tspan><tspan x="0" y="19" class="st16 st4 st15">17, 000 ETH</tspan></text><path class="st0" d="M9 391.1h93v35H9z"/><text transform="translate(9 403.304)"><tspan x="0" y="0" class="st14 st4 st15">TIER 3</tspan><tspan x="0" y="19" class="st16 st4 st15">27, 000 ETH</tspan></text><path class="st0" d="M9.2 549H232v89.1H9.2z"/><text transform="translate(9.2 555.08)"><tspan x="0" y="0" class="st1 st2 st3">※</tspan><tspan x="5.1" y="0" class="st1 st4 st3 st17"> </tspan><tspan x="9.7" y="0" class="st1 st4 st3">3rd Party Services API</tspan><tspan x="0" y="10" class="st1 st2 st3">※</tspan><tspan x="5.1" y="10" class="st1 st4 st3 st17"> </tspan><tspan x="9.7" y="10" class="st1 st4 st3">Companion cards (multiple cards, same wallet)</tspan><tspan x="0" y="20" class="st1 st2 st3">※</tspan><tspan x="5.1" y="20" class="st1 st4 st3 st17"> </tspan><tspan x="9.7" y="20" class="st1 st4 st3">Debit card JIT spending with tokens supported by </tspan><tspan x="210.7" y="20" class="st1 st4 st3"> </tspan><tspan x="212.3" y="20" class="st1 st4 st3 st18"> </tspan><tspan x="0" y="30" class="st1 st4 st3 st18"> </tspan><tspan x="9.7" y="30" class="st1 st4 st3">Shapeshift or Changelly</tspan><tspan x="0" y="40" class="st1 st2 st3">※</tspan><tspan x="5.1" y="40" class="st1 st4 st3 st17"> </tspan><tspan x="9.7" y="40" class="st1 st4 st3">Multi-sig technology</tspan><tspan x="0" y="50" class="st1 st2 st3">※</tspan><tspan x="5.1" y="50" class="st1 st4 st3 st17"> </tspan><tspan x="9.7" y="50" class="st1 st4 st3">Monthly reward points system</tspan><tspan x="0" y="60" class="st1 st2 st3">※</tspan><tspan x="5.1" y="60" class="st1 st4 st3 st17"> </tspan><tspan x="9.7" y="60" class="st1 st4 st3">Integration of debit card API by other ICOs</tspan><tspan x="0" y="70" class="st1 st2 st3">※</tspan><tspan x="5.1" y="70" class="st1 st4 st3 st17"> </tspan><tspan x="9.7" y="70" class="st1 st4 st3">Multi-asset debit card</tspan><tspan x="0" y="80" class="st1 st2 st3">※</tspan><tspan x="5.1" y="80" class="st1 st4 st3 st17"> </tspan><tspan x="9.7" y="80" class="st1 st4 st3">Security Level 4</tspan></text><path class="st0" d="M9 504.1h100v35H9z"/><text transform="translate(9 516.304)"><tspan x="0" y="0" class="st14 st4 st15">TIER 4</tspan><tspan x="0" y="19" class="st16 st4 st15">40, 000 ETH</tspan></text><path class="st0" d="M10 655.1h96v35H10z"/><text transform="translate(10 667.304)"><tspan x="0" y="0" class="st14 st4 st15">TIER 5</tspan><tspan x="0" y="19" class="st16 st4 st15">54, 000 ETH</tspan></text><path class="st0" d="M9.3 700.3H233v29.8H9.3z"/><text transform="translate(9.326 706.41)"><tspan x="0" y="0" class="st1 st2 st3">※</tspan><tspan x="5.1" y="0" class="st1 st4 st3 st5"> </tspan><tspan x="13" y="0" class="st1 st4 st3">COMIT network cross</tspan><tspan x="0" y="10" class="st1 st2 st3">※</tspan><tspan x="5.1" y="10" class="st1 st4 st3 st5"> </tspan><tspan x="13" y="10" class="st1 st4 st3">Maps - locations that accept MoxyOne</tspan><tspan x="0" y="20" class="st1 st2 st3">※</tspan><tspan x="5.1" y="20" class="st1 st4 st3 st5"> </tspan><tspan x="13" y="20" class="st1 st4 st3">Security Level 5</tspan></text><path class="st0" d="M10 746.1h93v35H10z"/><text transform="translate(10 758.304)"><tspan x="0" y="0" class="st14 st4 st15">TIER 6</tspan><tspan x="0" y="19" class="st16 st4 st15">67, 000 ETH</tspan></text><linearGradient id="SVGID_5_" gradientUnits="userSpaceOnUse" x1="-278" y1="181.332" x2="-277.5" y2="181.332" gradientTransform="rotate(-90 200 258.832)"><stop offset="0" stop-color="#3f51b5"/><stop offset=".224" stop-color="#365aaf"/><stop offset=".596" stop-color="#1f749e"/><stop offset=".994" stop-color="#009688"/></linearGradient><path fill="none" stroke="url(#SVGID_5_)" stroke-width=".5" stroke-miterlimit="10" stroke-dasharray="1,2" d="M6 736.6h233"/><path class="st0" d="M9.5 791.4H234v49.7H9.5z"/><text transform="translate(9.47 797.503)"><tspan x="0" y="0" class="st1 st2 st3">※</tspan><tspan x="5.1" y="0" class="st1 st4 st3 st8"> </tspan><tspan x="8.4" y="0" class="st1 st4 st3">Customer service (IVR: Interactive Voice </tspan><tspan x="172.2" y="0" class="st1 st4 st3 st8"> </tspan><tspan x="175.4" y="0" class="st1 st4 st3 st6"> </tspan><tspan x="0" y="10" class="st1 st4 st3 st6"> </tspan><tspan x="8.4" y="10" class="st1 st4 st3">Response/Customer Service Call Centre)</tspan><tspan x="0" y="20" class="st1 st2 st3">※</tspan><tspan x="5.1" y="20" class="st1 st4 st3 st8"> </tspan><tspan x="8.4" y="20" class="st1 st4 st3">Liquidity providers (lenders/investors)</tspan><tspan x="0" y="30" class="st1 st2 st3">※</tspan><tspan x="5.1" y="30" class="st1 st4 st3 st8"> </tspan><tspan x="8.4" y="30" class="st1 st4 st3">Security level 6</tspan><tspan x="0" y="40" class="st1 st2 st3">※</tspan><tspan x="5.1" y="40" class="st1 st4 st3 st8"> </tspan><tspan x="8.4" y="40" class="st1 st4 st3">Legals and licensing for LPs</tspan></text></svg>