<svg id="Layer_1" data-name="Layer 1" xmlns="http://www.w3.org/2000/svg" xmlns:xlink="http://www.w3.org/1999/xlink" viewBox="0 0 60.5 60.25"><defs><style>.cls-1,.cls-12,.cls-13,.cls-14,.cls-15,.cls-16,.cls-17,.cls-18,.cls-2,.cls-20,.cls-22,.cls-3,.cls-4,.cls-5,.cls-6,.cls-7,.cls-8,.cls-9{fill:none;}.cls-1,.cls-10,.cls-12,.cls-13,.cls-14,.cls-15,.cls-16,.cls-17,.cls-18,.cls-2,.cls-20,.cls-22,.cls-3,.cls-4,.cls-5,.cls-6,.cls-7,.cls-8,.cls-9{stroke-miterlimit:10;stroke-width:0.5px;}.cls-1{stroke:url(#New_Gradient_Swatch_8);}.cls-2{stroke:url(#New_Gradient_Swatch_8-2);}.cls-3{stroke:url(#New_Gradient_Swatch_8-3);}.cls-4{stroke:url(#New_Gradient_Swatch_8-4);}.cls-5{stroke:url(#New_Gradient_Swatch_8-5);}.cls-6{stroke:url(#New_Gradient_Swatch_8-6);}.cls-7{stroke:url(#New_Gradient_Swatch_8-7);}.cls-8{stroke:url(#New_Gradient_Swatch_8-8);}.cls-9{stroke:url(#New_Gradient_Swatch_8-9);}.cls-10{fill:#fff;stroke:url(#New_Gradient_Swatch_8-10);}.cls-11{fill:url(#New_Gradient_Swatch_3);}.cls-12{stroke:url(#New_Gradient_Swatch_8-11);}.cls-13{stroke:url(#New_Gradient_Swatch_8-12);}.cls-14{stroke:url(#New_Gradient_Swatch_8-13);}.cls-15{stroke:url(#New_Gradient_Swatch_8-14);}.cls-16{stroke:url(#New_Gradient_Swatch_8-15);}.cls-17{stroke:url(#New_Gradient_Swatch_8-16);}.cls-18{stroke:url(#New_Gradient_Swatch_8-17);}.cls-19{fill:url(#New_Gradient_Swatch_8-18);}.cls-20{stroke:url(#New_Gradient_Swatch_8-19);}.cls-21{fill:url(#New_Gradient_Swatch_8-20);}.cls-22{stroke:url(#New_Gradient_Swatch_8-21);}</style><linearGradient id="New_Gradient_Swatch_8" x1="19.16" y1="46.33" x2="19.66" y2="46.33" gradientUnits="userSpaceOnUse"><stop offset="0.01" stop-color="#3f51b5"/><stop offset="1" stop-color="#009688"/></linearGradient><linearGradient id="New_Gradient_Swatch_8-2" x1="28.69" y1="47.1" x2="36.15" y2="47.1" xlink:href="#New_Gradient_Swatch_8"/><linearGradient id="New_Gradient_Swatch_8-3" x1="53.48" y1="43.72" x2="53.98" y2="43.72" xlink:href="#New_Gradient_Swatch_8"/><linearGradient id="New_Gradient_Swatch_8-4" x1="40.02" y1="54.98" x2="54.93" y2="54.98" xlink:href="#New_Gradient_Swatch_8"/><linearGradient id="New_Gradient_Swatch_8-5" x1="46.2" y1="43.27" x2="56.74" y2="43.27" xlink:href="#New_Gradient_Swatch_8"/><linearGradient id="New_Gradient_Swatch_8-6" x1="25.61" y1="34.62" x2="33.75" y2="34.62" xlink:href="#New_Gradient_Swatch_8"/><linearGradient id="New_Gradient_Swatch_8-7" x1="41.38" y1="21.27" x2="50.98" y2="21.27" xlink:href="#New_Gradient_Swatch_8"/><linearGradient id="New_Gradient_Swatch_8-8" x1="47.99" y1="24.75" x2="48.49" y2="24.75" xlink:href="#New_Gradient_Swatch_8"/><linearGradient id="New_Gradient_Swatch_8-9" x1="34.09" y1="21.39" x2="61.45" y2="21.39" xlink:href="#New_Gradient_Swatch_8"/><linearGradient id="New_Gradient_Swatch_8-10" x1="28.43" y1="34.49" x2="28.93" y2="34.49" xlink:href="#New_Gradient_Swatch_8"/><linearGradient id="New_Gradient_Swatch_3" x1="5.82" y1="25.97" x2="14.64" y2="25.97" gradientUnits="userSpaceOnUse"><stop offset="0" stop-color="#009688"/><stop offset="0.99" stop-color="#3f51b5"/></linearGradient><linearGradient id="New_Gradient_Swatch_8-11" x1="5.81" y1="25.97" x2="14.64" y2="25.97" xlink:href="#New_Gradient_Swatch_8"/><linearGradient id="New_Gradient_Swatch_8-12" x1="22.94" y1="5.27" x2="31.51" y2="5.27" xlink:href="#New_Gradient_Swatch_8"/><linearGradient id="New_Gradient_Swatch_8-13" x1="22.7" y1="5.7" x2="31.29" y2="5.7" xlink:href="#New_Gradient_Swatch_8"/><linearGradient id="New_Gradient_Swatch_8-14" x1="5.43" y1="25.49" x2="14.31" y2="25.49" xlink:href="#New_Gradient_Swatch_8"/><linearGradient id="New_Gradient_Swatch_8-15" x1="10.14" y1="14.91" x2="25" y2="14.91" xlink:href="#New_Gradient_Swatch_8"/><linearGradient id="New_Gradient_Swatch_8-16" x1="11.78" y1="5.25" x2="23.23" y2="5.25" xlink:href="#New_Gradient_Swatch_8"/><linearGradient id="New_Gradient_Swatch_8-17" x1="13.93" y1="25.12" x2="25.39" y2="25.12" xlink:href="#New_Gradient_Swatch_8"/><linearGradient id="New_Gradient_Swatch_8-18" x1="1.2" y1="15.05" x2="12.16" y2="15.05" xlink:href="#New_Gradient_Swatch_8"/><linearGradient id="New_Gradient_Swatch_8-19" x1="0.95" y1="15.05" x2="12.41" y2="15.05" xlink:href="#New_Gradient_Swatch_8"/><linearGradient id="New_Gradient_Swatch_8-20" x1="24.93" y1="15.05" x2="35.89" y2="15.05" xlink:href="#New_Gradient_Swatch_8"/><linearGradient id="New_Gradient_Swatch_8-21" x1="24.68" y1="15.05" x2="36.14" y2="15.05" xlink:href="#New_Gradient_Swatch_8"/></defs><title>moxyai</title><line class="cls-1" x1="19.41" y1="32.4" x2="19.41" y2="60.25"/><path class="cls-2" d="M36.15,53.76H32.54a3.77,3.77,0,0,1-3.6-3.83V40.19" transform="translate(-0.95 -0.13)"/><line class="cls-3" x1="53.73" y1="37.62" x2="53.73" y2="49.81"/><path class="cls-4" d="M54.68,49.59v.62a3.64,3.64,0,0,1-3.49,3.55H42.84a2.44,2.44,0,0,0-2.57,2.38v4.24" transform="translate(-0.95 -0.13)"/><path class="cls-5" d="M56.74,44.71H49a2.41,2.41,0,0,1-2.51-2.4v-.73" transform="translate(-0.95 -0.13)"/><path class="cls-6" d="M32.06,31.23a2.25,2.25,0,0,0-2.31-2.18H28.08a2.23,2.23,0,0,0-2.22,2.24v6.78a2.12,2.12,0,0,0,2.22,2.12h5.67" transform="translate(-0.95 -0.13)"/><line class="cls-7" x1="50.98" y1="21.27" x2="41.38" y2="21.27"/><line class="cls-8" x1="48.24" y1="21.27" x2="48.24" y2="28.23"/><path class="cls-9" d="M51.25,35v1.39a1.38,1.38,0,0,0,1.37,1.39h8a.53.53,0,0,0,.55-.53v-2a1.74,1.74,0,0,0-.28-1l-6.24-7.47v-4A17.68,17.68,0,0,0,37.13,5h-3" transform="translate(-0.95 -0.13)"/><line class="cls-10" x1="28.68" y1="33.1" x2="28.68" y2="35.88"/><path class="cls-11" d="M14.64,26l-8.82-.11Z" transform="translate(-0.95 -0.13)"/><path class="cls-12" d="M14.64,26l-8.82-.11Z" transform="translate(-0.95 -0.13)"/><path class="cls-13" d="M31.3,5.7,30.84,5h-7.9" transform="translate(-0.95 -0.13)"/><path class="cls-14" d="M22.7,5.7h0Z" transform="translate(-0.95 -0.13)"/><path class="cls-15" d="M5.64,25.91l.48-.73h8.19" transform="translate(-0.95 -0.13)"/><line class="cls-16" x1="10.14" y1="14.91" x2="25" y2="14.91"/><path class="cls-17" d="M20.31.43a.12.12,0,0,0-.09,0H14.78a.1.1,0,0,0-.08,0L12,5.2a.09.09,0,0,0,0,.1l2.66,4.78a.1.1,0,0,0,.08.05h5.44a.12.12,0,0,0,.09-.05L23,5.3a.17.17,0,0,0,0-.1Z" transform="translate(-0.95 -0.13)"/><path class="cls-18" d="M16.86,20.29a.11.11,0,0,1,.08-.05h5.44a.16.16,0,0,1,.09.05l2.66,4.78a.09.09,0,0,1,0,.1L22.47,30a.11.11,0,0,1-.09.05H16.94a.09.09,0,0,1-.08-.05l-2.67-4.78a.17.17,0,0,1,0-.1Z" transform="translate(-0.95 -0.13)"/><path class="cls-19" d="M9.48,10.22a.09.09,0,0,0-.08-.05H4a.09.09,0,0,0-.08.05L1.21,15a.17.17,0,0,0,0,.1l2.67,4.78a.09.09,0,0,0,.08.05H9.4a.11.11,0,0,0,.08-.05l2.67-4.78a.17.17,0,0,0,0-.1Z" transform="translate(-0.95 -0.13)"/><path class="cls-20" d="M9.48,10.22a.09.09,0,0,0-.08-.05H4a.09.09,0,0,0-.08.05L1.21,15a.17.17,0,0,0,0,.1l2.67,4.78a.09.09,0,0,0,.08.05H9.4a.11.11,0,0,0,.08-.05l2.67-4.78a.17.17,0,0,0,0-.1Z" transform="translate(-0.95 -0.13)"/><path class="cls-21" d="M33.21,10.22a.09.09,0,0,0-.08-.05H27.69a.12.12,0,0,0-.09.05L24.94,15a.17.17,0,0,0,0,.1l2.67,4.78a.11.11,0,0,0,.08.05h5.44a.11.11,0,0,0,.08-.05l2.67-4.78a.17.17,0,0,0,0-.1Z" transform="translate(-0.95 -0.13)"/><path class="cls-22" d="M33.21,10.22a.09.09,0,0,0-.08-.05H27.69a.12.12,0,0,0-.09.05L24.94,15a.17.17,0,0,0,0,.1l2.67,4.78a.11.11,0,0,0,.08.05h5.44a.11.11,0,0,0,.08-.05l2.67-4.78a.17.17,0,0,0,0-.1Z" transform="translate(-0.95 -0.13)"/></svg>