<svg id="Layer_1" xmlns="http://www.w3.org/2000/svg" viewBox="0 0 1193.4 1867.4"><style>.st1{stroke:#e91e63;stroke-miterlimit:10}.st1,.st2{fill:none}.st3{fill:#3f51b5}.st4{font-family:&apos;Roboto-Regular&apos;}.st5{font-size:18px}.st6{font-family:&apos;RobotoSlab-Light&apos;}.st7{letter-spacing:20}.st9{letter-spacing:31}.st12{fill:#fff}.st13{font-size:22px}.st21{font-family:&apos;Roboto-Light&apos;}.st22{letter-spacing:21}</style><path class="st1" d="M7.9 166.5v-3.2h23.4v3.2h-9.6V196h-4.3v-29.5H7.9zM40.1 196H36v-32.7h4.1V196zM48.1 163.3h18.6v3.2H52.4v26.2h15v3.2H48.1v-32.6zm17.1 14v3.2H54.1c.3-.9.8-1.6 1.4-2.2.6-.6 1.4-.9 2.5-.9h7.2zM95.2 172.4c0 1.8-.5 3.4-1.5 4.7-1 1.4-2.3 2.4-3.8 3.2l-1.1.4.9.4c1.1.7 2 1.7 2.5 2.7s1.1 2.3 1.5 3.6c.4 1.3.8 2.7 1.2 4.1.4 1.5.9 2.9 1.6 4.5H92c-.6-1.3-1.1-2.7-1.4-4.1-.3-1.5-.7-2.9-1.1-4.2-.4-1.4-1-2.5-1.6-3.6-.6-1-1.6-1.8-2.7-2.2h-.4c-.7.1-1.4.1-2.1 0-.8 0-1.5-.2-2.4-.4.3-.8.8-1.4 1.5-1.9s1.5-.8 2.5-.8c.8 0 1.6-.2 2.3-.5.8-.3 1.5-.8 2.1-1.3.6-.6 1.1-1.2 1.5-2 .4-.8.6-1.6.6-2.6 0-.9-.2-1.7-.6-2.5-.4-.8-.9-1.4-1.6-2-.7-.6-1.4-1-2.3-1.4-.9-.3-1.8-.5-2.9-.5h-2.3c-.7 0-1.6.2-2.7.4V196h-4.3v-32.3c1.7-.3 3.2-.6 4.6-.8 1.4-.2 2.9-.3 4.6-.3 1.8 0 3.4.3 4.9.8 1.5.5 2.7 1.2 3.8 2.1 1 .9 1.8 1.9 2.4 3.1.5 1.2.8 2.4.8 3.8zM117.3 196v-26.4l-5.1 2.7-1.6-2.8 9.4-5h1.7V196h-4.4z"/><path class="st2" d="M432.9 10.7h579v325.9h-579z"/><text transform="translate(432.92 24.373)"><tspan x="0" y="0" class="st3 st4 st5">※</tspan><tspan x="11.5" y="0" class="st3 st6 st5 st7"> </tspan><tspan x="36" y="0" class="st3 st6 st5">List token on Exchanges after ICO Ends</tspan><tspan x="0" y="22" class="st3 st4 st5">※</tspan><tspan x="11.5" y="22" class="st3 st6 st5 st7"> </tspan><tspan x="36" y="22" class="st3 st6 st5">Debit Card spending with Ethereum (ETH)</tspan><tspan x="0" y="44" class="st3 st4 st5">※</tspan><tspan x="11.5" y="44" class="st3 st6 st5 st7"> </tspan><tspan x="36" y="44" class="st3 st6 st5">Debit Card spending with Social (SCL)</tspan><tspan x="0" y="66" class="st3 st4 st5">※</tspan><tspan x="11.5" y="66" class="st3 st6 st5 st7"> </tspan><tspan x="36" y="66" class="st3 st6 st5">Debit Card spending with Partner’s tokens</tspan><tspan x="0" y="88" class="st3 st4 st5">※</tspan><tspan x="11.5" y="88" class="st3 st6 st5 st7"> </tspan><tspan x="36" y="88" class="st3 st6 st5">MoxyOne wallet support for ETH and Partner’s Tokens </tspan><tspan x="498.5" y="88" class="st3 st6 st5" letter-spacing="1"> </tspan><tspan x="504" y="88" class="st3 st6 st5 st9"> </tspan><tspan x="0" y="109.6" class="st3 st6 st5 st9"> </tspan><tspan x="36" y="109.6" class="st3 st6 st5">(SPD, SCL)</tspan><tspan x="0" y="131.6" class="st3 st4 st5">※</tspan><tspan x="11.5" y="131.6" class="st3 st6 st5 st7"> </tspan><tspan x="36" y="131.6" class="st3 st6 st5">Dashboard credit card transactions, history and statements</tspan><tspan x="0" y="153.6" class="st3 st4 st5">※</tspan><tspan x="11.5" y="153.6" class="st3 st6 st5 st7"> </tspan><tspan x="36" y="153.6" class="st3 st6 st5">Mobile App (Hybrid)</tspan><tspan x="0" y="175.6" class="st3 st4 st5">※</tspan><tspan x="11.5" y="175.6" class="st3 st6 st5 st7"> </tspan><tspan x="36" y="175.6" class="st3 st6 st5">Payment channel - Raiden Network</tspan><tspan x="0" y="197.6" class="st3 st4 st5">※</tspan><tspan x="11.5" y="197.6" class="st3 st6 st5 st7"> </tspan><tspan x="36" y="197.6" class="st3 st6 st5">Digital ID verification</tspan><tspan x="0" y="219.6" class="st3 st4 st5">※</tspan><tspan x="11.5" y="219.6" class="st3 st6 st5 st7"> </tspan><tspan x="36" y="219.6" class="st3 st6 st5">Sanctions/PEP checks</tspan><tspan x="0" y="241.6" class="st3 st4 st5">※</tspan><tspan x="11.5" y="241.6" class="st3 st6 st5 st7"> </tspan><tspan x="36" y="241.6" class="st3 st6 st5">Notifications for spending limits</tspan><tspan x="0" y="263.6" class="st3 st4 st5">※</tspan><tspan x="11.5" y="263.6" class="st3 st6 st5 st7"> </tspan><tspan x="36" y="263.6" class="st3 st6 st5">Security Level 1 (SSL Encryption)</tspan><tspan x="0" y="285.6" class="st3 st4 st5">※</tspan><tspan x="11.5" y="285.6" class="st3 st6 st5 st7"> </tspan><tspan x="36" y="285.6" class="st3 st6 st5">Security Level 1 (temporary card freeze - misplaced card - </tspan><tspan x="525.7" y="285.6" class="st3 st6 st5" letter-spacing="9"> </tspan><tspan x="540" y="285.6" class="st3 st6 st5 st9"> </tspan><tspan x="0" y="307.2" class="st3 st6 st5 st9"> </tspan><tspan x="36" y="307.2" class="st3 st6 st5">app controlled)</tspan></text><linearGradient id="SVGID_1_" gradientUnits="userSpaceOnUse" x1="212.908" y1="173.91" x2="359.908" y2="173.91"><stop offset="0" stop-color="#3f51b5"/><stop offset=".224" stop-color="#365aaf"/><stop offset=".596" stop-color="#1f749e"/><stop offset=".994" stop-color="#009688"/></linearGradient><circle cx="286.4" cy="173.9" r="73.5" fill="url(#SVGID_1_)"/><path class="st2" d="M234.4 153.9h105.7v50.7H234.4z"/><text transform="translate(250.955 170.648)"><tspan x="0" y="0" class="st12 st6 st13">10, 000 </tspan><tspan x="13.5" y="30" class="st12 st6 st13">ETH</tspan></text><path class="st1" d="M284.8 822.5v-3.2h23.4v3.2h-9.6V852h-4.3v-29.5h-9.5zM316.9 852h-4.1v-32.7h4.1V852zM324.9 819.3h18.6v3.2h-14.4v26.2h15v3.2h-19.3v-32.6zm17.1 14v3.2h-11.1c.3-.9.8-1.6 1.4-2.2.6-.6 1.4-.9 2.5-.9h7.2zM372 828.4c0 1.8-.5 3.4-1.5 4.7-1 1.4-2.3 2.4-3.8 3.2l-1.1.4.9.4c1.1.7 2 1.7 2.5 2.7s1.1 2.3 1.5 3.6c.4 1.3.8 2.7 1.2 4.1.4 1.5.9 2.9 1.6 4.5h-4.5c-.6-1.3-1.1-2.7-1.4-4.1-.3-1.5-.7-2.9-1.1-4.2-.4-1.4-1-2.5-1.6-3.6-.6-1-1.6-1.8-2.7-2.2h-.4c-.7.1-1.4.1-2.1 0-.8 0-1.5-.2-2.4-.4.3-.8.8-1.4 1.5-1.9s1.5-.8 2.5-.8c.8 0 1.6-.2 2.3-.5.8-.3 1.5-.8 2.1-1.3.6-.6 1.1-1.2 1.5-2 .4-.8.6-1.6.6-2.6 0-.9-.2-1.7-.6-2.5-.4-.8-.9-1.4-1.6-2-.7-.6-1.4-1-2.3-1.4-.9-.3-1.8-.5-2.9-.5h-2.3c-.7 0-1.6.2-2.7.4V852h-4.3v-32.3c1.7-.3 3.2-.6 4.6-.8 1.4-.2 2.9-.3 4.6-.3 1.8 0 3.4.3 4.9.8 1.5.5 2.7 1.2 3.8 2.1 1 .9 1.8 1.9 2.4 3.1.5 1.2.8 2.4.8 3.8zM406.8 827.1c0 1.4-.4 2.8-1.2 4-.8 1.2-1.9 2.3-3.4 3l-1.1.4 1 .2c.7.3 1.4.6 2.1 1.1s1.3 1.1 1.8 1.7c.5.7 1 1.4 1.3 2.3.3.9.5 1.8.5 2.8 0 1.3-.3 2.5-.8 3.7-.6 1.2-1.3 2.2-2.3 3.1s-2.2 1.6-3.5 2.2c-1.4.5-2.9.8-4.5.8-1.7 0-3.2-.2-4.6-.7-1.3-.5-2.4-.9-3.1-1.4l1-2.9c.6.4 1.5.8 2.7 1.2 1.2.4 2.5.6 3.9.6 1.1 0 2.1-.2 3-.6.8-.4 1.5-1 2.1-1.6.6-.7 1-1.4 1.3-2.1.3-.8.4-1.5.4-2.2 0-1.1-.2-2-.7-2.8-.4-.8-1-1.4-1.8-1.8-.8-.5-1.7-.8-2.8-.9-1.1-.2-2.2-.3-3.5-.3l-.4-2.4 2.3-.9c.7-.3 1.3-.6 2-.9.7-.3 1.3-.7 1.9-1.1.6-.4 1-.9 1.3-1.5.3-.6.5-1.3.5-2.1 0-1.4-.4-2.5-1.3-3.3-.9-.8-2-1.2-3.4-1.2-.9 0-1.8.1-2.9.3-1 .2-2.2.6-3.4 1.3l-1.1-3c1.4-.7 2.7-1.2 4-1.5 1.3-.3 2.6-.4 3.8-.4 1.3 0 2.5.2 3.6.5 1.1.4 2 .9 2.8 1.5.8.6 1.4 1.4 1.8 2.2.5.7.7 1.7.7 2.7z"/><path class="st2" d="M696.9 784.7h399v109.9h-399z"/><text transform="translate(696.92 798.373)"><tspan x="0" y="0" class="st3 st4 st5">※</tspan><tspan x="11.5" y="0" class="st3 st6 st5 st7"> </tspan><tspan x="36" y="0" class="st3 st6 st5">ERC20 / ERC223 Token support</tspan><tspan x="0" y="22" class="st3 st4 st5">※</tspan><tspan x="11.5" y="22" class="st3 st6 st5 st7"> </tspan><tspan x="36" y="22" class="st3 st6 st5">White label wallet and debit cards for ICO</tspan><tspan x="0" y="44" class="st3 st4 st5">※</tspan><tspan x="11.5" y="44" class="st3 st6 st5 st7"> </tspan><tspan x="36" y="44" class="st3 st6 st5">Integration of debit card API by other ICOs </tspan><tspan x="0" y="66" class="st3 st4 st5">※</tspan><tspan x="11.5" y="66" class="st3 st6 st5 st7"> </tspan><tspan x="36" y="66" class="st3 st6 st5">Management Dashboard </tspan><tspan x="0" y="88" class="st3 st4 st5">※</tspan><tspan x="11.5" y="88" class="st3 st6 st5 st7"> </tspan><tspan x="36" y="88" class="st3 st6 st5">Security Level 3 (DDoS Protection)</tspan></text><linearGradient id="SVGID_2_" gradientUnits="userSpaceOnUse" x1="471.68" y1="834.91" x2="626.908" y2="834.91"><stop offset="0" stop-color="#3f51b5"/><stop offset=".224" stop-color="#365aaf"/><stop offset=".596" stop-color="#1f749e"/><stop offset=".994" stop-color="#009688"/></linearGradient><path d="M626.9 784.2c0-8.2-6.8-15-15-15H486.7c-8.2 0-15 6.8-15 15v101.5c0 8.2 6.8 15 15 15h125.2c8.2 0 15-6.8 15-15V784.2z" fill="url(#SVGID_2_)"/><path class="st1" d="M273.7 1118.5v-3.2h23.4v3.2h-9.6v29.5h-4.3v-29.5h-9.5zM305.8 1148h-4.1v-32.7h4.1v32.7zM313.8 1115.3h18.6v3.2H318v26.2h15v3.2h-19.3v-32.6zm17.1 14v3.2h-11.1c.3-.9.8-1.6 1.4-2.2.6-.6 1.4-.9 2.5-.9h7.2zM360.9 1124.4c0 1.8-.5 3.4-1.5 4.7-1 1.4-2.3 2.4-3.8 3.2l-1.1.4.9.4c1.1.7 2 1.7 2.5 2.7.6 1.1 1.1 2.3 1.5 3.6.4 1.3.8 2.7 1.2 4.1s.9 2.9 1.6 4.5h-4.5c-.6-1.3-1.1-2.7-1.4-4.1-.3-1.5-.7-2.9-1.1-4.2-.4-1.4-1-2.5-1.6-3.6-.6-1-1.6-1.8-2.7-2.2h-.4c-.7.1-1.4.1-2.1 0-.8 0-1.5-.2-2.4-.4.3-.8.8-1.4 1.5-1.9s1.5-.8 2.5-.8c.8 0 1.6-.2 2.3-.5.8-.3 1.5-.8 2.1-1.3.6-.6 1.1-1.2 1.5-2 .4-.8.6-1.6.6-2.6 0-.9-.2-1.7-.6-2.5-.4-.8-.9-1.4-1.6-2-.7-.6-1.4-1-2.3-1.4-.9-.3-1.8-.5-2.9-.5h-2.3c-.7 0-1.6.2-2.7.4v29.7h-4.3v-32.3c1.7-.3 3.2-.6 4.6-.8 1.4-.2 2.9-.3 4.6-.3 1.8 0 3.4.3 4.9.8 1.5.5 2.7 1.2 3.8 2.1 1 .9 1.8 1.9 2.4 3.1.5 1.1.8 2.3.8 3.7zM393.3 1116.4h3.9v21.3h3.6v3.2h-3.6v7h-3.9v-24.6l.1-1.2-.7 1.1-9.7 14-.5.5.7-.1h4.1c.6 0 1.1.1 1.6.4.5.2.9.5 1.3.9.4.3.7.7.9 1.1.2.4.4.7.5.9h-13.1v-2.7l14.8-21.8z"/><path class="st2" d="M698.5 1048.5h452.4v174.1H698.5z"/><text transform="translate(698.548 1062.173)"><tspan x="0" y="0" class="st3 st4 st5">※</tspan><tspan x="11.5" y="0" class="st3 st6 st5 st7"> </tspan><tspan x="36" y="0" class="st3 st6 st5">3rd Party Services API</tspan><tspan x="0" y="22" class="st3 st4 st5">※</tspan><tspan x="11.5" y="22" class="st3 st6 st5 st7"> </tspan><tspan x="36" y="22" class="st3 st6 st5">Companion cards (multiple cards, same wallet)</tspan><tspan x="0" y="44" class="st3 st4 st5">※</tspan><tspan x="11.5" y="44" class="st3 st6 st5 st7"> </tspan><tspan x="36" y="44" class="st3 st6 st5">Debit card JIT spending with tokens supported </tspan><tspan x="434.5" y="44" class="st3 st6 st5" letter-spacing="29"> </tspan><tspan x="0" y="65.6" class="st3 st6 st5 st9"> </tspan><tspan x="36" y="65.6" class="st3 st6 st5">by Shapeshift or Changelly</tspan><tspan x="0" y="87.6" class="st3 st4 st5">※</tspan><tspan x="11.5" y="87.6" class="st3 st6 st5 st7"> </tspan><tspan x="36" y="87.6" class="st3 st6 st5">Multi-sig technology</tspan><tspan x="0" y="109.6" class="st3 st4 st5">※</tspan><tspan x="11.5" y="109.6" class="st3 st6 st5 st7"> </tspan><tspan x="36" y="109.6" class="st3 st6 st5">Monthly reward points system</tspan><tspan x="0" y="131.6" class="st3 st4 st5">※</tspan><tspan x="11.5" y="131.6" class="st3 st6 st5 st7"> </tspan><tspan x="36" y="131.6" class="st3 st6 st5">Multi-asset debit card</tspan><tspan x="0" y="153.6" class="st3 st4 st5">※</tspan><tspan x="11.5" y="153.6" class="st3 st6 st5 st7"> </tspan><tspan x="36" y="153.6" class="st3 st6 st5">Security Level 4</tspan></text><linearGradient id="SVGID_3_" gradientUnits="userSpaceOnUse" x1="465.417" y1="1132.424" x2="634.657" y2="1132.424"><stop offset="0" stop-color="#3f51b5"/><stop offset=".224" stop-color="#365aaf"/><stop offset=".596" stop-color="#1f749e"/><stop offset=".994" stop-color="#009688"/></linearGradient><path d="M562.2 1054.6c-6.7-4.8-17.6-4.8-24.3 0l-64.1 46.6c-6.7 4.8-10 15.2-7.5 23.1l24.5 75.4c2.5 7.8 11.4 14.3 19.6 14.3h79.3c8.2 0 17.1-6.4 19.6-14.3l24.5-75.4c2.5-7.8-.8-18.2-7.5-23.1l-64.1-46.6z" fill="url(#SVGID_3_)"/><path class="st1" d="M156.9 1430.5v-3.2h23.4v3.2h-9.6v29.5h-4.3v-29.5h-9.5zM189.1 1460H185v-32.7h4.1v32.7zM197.1 1427.3h18.6v3.2h-14.4v26.2h15v3.2H197v-32.6zm17.1 14v3.2h-11.1c.3-.9.8-1.6 1.4-2.2s1.4-.9 2.5-.9h7.2zM244.2 1436.4c0 1.8-.5 3.4-1.5 4.7-1 1.4-2.3 2.4-3.8 3.2l-1.1.4.9.4c1.1.8 2 1.7 2.5 2.7.6 1.1 1.1 2.3 1.5 3.6.4 1.3.8 2.7 1.2 4.1.4 1.5.9 2.9 1.6 4.5H241c-.6-1.3-1.1-2.7-1.4-4.1-.3-1.5-.7-2.9-1.1-4.2-.4-1.4-1-2.5-1.6-3.6-.6-1-1.6-1.8-2.7-2.2h-.4c-.7.1-1.4.1-2.1 0-.8 0-1.5-.2-2.4-.4.3-.8.8-1.4 1.5-1.9s1.5-.8 2.5-.8c.8 0 1.6-.2 2.3-.5.8-.3 1.5-.8 2.1-1.3.6-.6 1.1-1.2 1.5-2 .4-.8.6-1.6.6-2.6 0-.9-.2-1.7-.6-2.5-.4-.8-.9-1.4-1.6-2-.7-.6-1.4-1-2.3-1.3-.9-.3-1.8-.5-2.9-.5h-2.3c-.7 0-1.6.2-2.7.4v29.7h-4.3v-32.3c1.7-.3 3.2-.6 4.6-.8 1.4-.2 2.9-.3 4.6-.3 1.8 0 3.4.3 4.9.8 1.5.5 2.7 1.2 3.8 2.1 1 .9 1.8 1.9 2.4 3.1.5 1 .8 2.2.8 3.6zM266.7 1441.4c.5-.1 1.1-.1 1.6-.2s1-.1 1.6-.1c1.9 0 3.5.3 4.8.8 1.4.5 2.5 1.3 3.4 2.2.9.9 1.6 1.9 2 3.1s.7 2.3.7 3.5c0 1.3-.3 2.5-.8 3.7-.5 1.2-1.2 2.2-2.2 3.1-1 .9-2.1 1.6-3.5 2.2-1.4.5-3 .8-4.8.8-.6 0-1.2-.1-1.9-.2s-1.4-.3-2.1-.4c-.7-.2-1.4-.4-2-.7-.7-.3-1.2-.6-1.7-.9l1-2.9c1.2.7 2.4 1.2 3.6 1.4 1.2.3 2.2.4 3.1.4 1.3 0 2.4-.2 3.3-.6.9-.4 1.6-1 2.1-1.6.5-.7.9-1.4 1.1-2.1.2-.8.3-1.5.3-2.2 0-1.1-.2-2-.5-2.8-.4-.8-.9-1.4-1.5-2-.7-.5-1.4-.9-2.3-1.2-.9-.2-1.9-.4-2.9-.4-.4 0-.8 0-1.3.1-.5 0-1 .1-1.5.2l-1.5.3c-.5.1-1 .2-1.4.4l1.2-16.8h15v3.6h-12l-.9 9.3z"/><path class="st2" d="M590.9 1409.7h361v66.9h-361z"/><text transform="translate(590.92 1423.373)"><tspan x="0" y="0" class="st3 st4 st5">※</tspan><tspan x="11.5" y="0" class="st3 st6 st5 st7"> </tspan><tspan x="36" y="0" class="st3 st6 st5">COMIT network cross</tspan><tspan x="0" y="22" class="st3 st4 st5">※</tspan><tspan x="11.5" y="22" class="st3 st6 st5 st7"> </tspan><tspan x="36" y="22" class="st3 st6 st5">Maps - locations that accept MoxyOne</tspan><tspan x="0" y="44" class="st3 st4 st5">※</tspan><tspan x="11.5" y="44" class="st3 st6 st5 st7"> </tspan><tspan x="36" y="44" class="st3 st6 st5">Security level 5</tspan></text><linearGradient id="SVGID_4_" gradientUnits="userSpaceOnUse" x1="345.861" y1="1441.91" x2="522.956" y2="1441.91"><stop offset="0" stop-color="#3f51b5"/><stop offset=".224" stop-color="#365aaf"/><stop offset=".596" stop-color="#1f749e"/><stop offset=".994" stop-color="#009688"/></linearGradient><path d="M488.4 1374.4c-4.1-7.1-14.2-13-22.5-13h-63c-8.2 0-18.4 5.8-22.5 13l-31.5 54.5c-4.1 7.1-4.1 18.8 0 26l31.5 54.5c4.1 7.1 14.2 13 22.5 13h63c8.2 0 18.4-5.8 22.5-13l31.5-54.5c4.1-7.1 4.1-18.8 0-26l-31.5-54.5z" fill="url(#SVGID_4_)"/><path class="st1" d="M10.7 1763.1v-3.2h23.4v3.2h-9.6v29.5h-4.3v-29.5h-9.5zM42.8 1792.6h-4.1v-32.7h4.1v32.7zM50.8 1759.9h18.6v3.2H55.1v26.2h15v3.2H50.8v-32.6zm17.1 14v3.2H56.8c.3-.9.8-1.6 1.4-2.2s1.4-.9 2.5-.9h7.2zM97.9 1769c0 1.8-.5 3.4-1.5 4.7-1 1.4-2.3 2.4-3.8 3.2l-1.1.4.9.4c1.1.8 2 1.7 2.5 2.7.6 1.1 1.1 2.3 1.5 3.6.4 1.3.8 2.7 1.2 4.1.4 1.5.9 2.9 1.6 4.5h-4.5c-.6-1.3-1.1-2.7-1.4-4.1-.3-1.5-.7-2.9-1.1-4.2-.4-1.4-1-2.5-1.6-3.6-.6-1-1.6-1.8-2.7-2.2h-.4c-.7.1-1.4.1-2.1 0-.8 0-1.5-.2-2.4-.4.3-.8.8-1.4 1.5-1.9s1.5-.8 2.5-.8c.8 0 1.6-.2 2.3-.5.8-.3 1.5-.8 2.1-1.3.6-.6 1.1-1.2 1.5-2 .4-.8.6-1.6.6-2.6 0-.9-.2-1.7-.6-2.5-.4-.8-.9-1.4-1.6-2-.7-.6-1.4-1-2.3-1.3s-1.8-.5-2.9-.5h-2.3c-.7 0-1.6.2-2.7.4v29.7h-4.3v-32.3c1.7-.3 3.2-.6 4.6-.8 1.4-.2 2.9-.3 4.6-.3 1.8 0 3.4.3 4.9.8 1.5.5 2.7 1.2 3.8 2.1 1 .9 1.8 1.9 2.4 3.1.5 1 .8 2.2.8 3.6zM132.2 1764.1c-1.6 0-3 .3-4.3 1-1.3.7-2.4 1.6-3.4 2.8-.9 1.2-1.7 2.7-2.2 4.4-.5 1.7-.8 3.5-.8 5.6 0 1.2.1 2.5.3 4 .2 1.4.6 2.7 1.1 3.9.5 1.2 1.3 2.2 2.2 3s2.2 1.2 3.7 1.2c.9 0 1.7-.2 2.4-.5s1.3-.8 1.9-1.5c.5-.6.9-1.4 1.2-2.2.3-.9.4-1.8.4-2.9 0-2.1-.5-3.6-1.4-4.7-1-1-2.1-1.6-3.5-1.6h-.7c-.2 0-.5.1-.9.2-.6.2-1.1.2-1.6.1s-1-.2-1.4-.3-.8-.3-1.1-.6-.6-.4-.8-.6l2-1c.6-.3 1.1-.5 1.6-.7.5-.1 1-.3 1.4-.3.5-.1 1-.1 1.5-.1 1.4 0 2.6.2 3.7.6 1.1.4 2.1 1 3 1.8.8.8 1.5 1.8 1.9 3 .5 1.2.7 2.5.7 4.1 0 1.3-.2 2.6-.7 3.8-.5 1.2-1.2 2.3-2.1 3.3-.9 1-2 1.7-3.2 2.3-1.3.6-2.7.9-4.2.9-2.3 0-4.1-.5-5.7-1.4-1.5-.9-2.7-2.1-3.7-3.5s-1.6-3.1-1.9-4.9c-.4-1.8-.6-3.7-.6-5.5 0-2.1.3-4.1 1-6.2.7-2 1.6-3.9 2.9-5.5s2.9-2.9 4.8-3.9 4.1-1.5 6.5-1.5c.7 0 1.5.1 2.3.2s1.6.4 2.4.8l-1 3c-.7-.3-1.3-.5-1.9-.6h-1.8z"/><path class="st2" d="M455.9 1705.7h570v112.9h-570z"/><text transform="translate(455.92 1719.373)"><tspan x="0" y="0" class="st3 st4 st5">※</tspan><tspan x="11.5" y="0" class="st3 st6 st5 st7"> </tspan><tspan x="36" y="0" class="st3 st6 st5">Customer service (IVR: Interactive Voice Response/Customer </tspan><tspan x="555.9" y="0" class="st3 st6 st5" letter-spacing="15"> </tspan><tspan x="0" y="21.6" class="st3 st6 st5 st9"> </tspan><tspan x="36" y="21.6" class="st3 st6 st5">Service Call Centre)</tspan><tspan x="0" y="43.6" class="st3 st4 st5">※</tspan><tspan x="11.5" y="43.6" class="st3 st6 st5 st7"> </tspan><tspan x="36" y="43.6" class="st3 st6 st5">Liquidity providers (lenders/investors)</tspan><tspan x="0" y="65.6" class="st3 st4 st5">※</tspan><tspan x="11.5" y="65.6" class="st3 st6 st5 st7"> </tspan><tspan x="36" y="65.6" class="st3 st6 st5">Legals and licensing for LPs</tspan><tspan x="0" y="87.6" class="st3 st4 st5">※</tspan><tspan x="11.5" y="87.6" class="st3 st6 st5 st7"> </tspan><tspan x="36" y="87.6" class="st3 st6 st5">Security level 6</tspan></text><linearGradient id="SVGID_5_" gradientUnits="userSpaceOnUse" x1="203.618" y1="1755.965" x2="379.338" y2="1755.965"><stop offset="0" stop-color="#3f51b5"/><stop offset=".224" stop-color="#365aaf"/><stop offset=".596" stop-color="#1f749e"/><stop offset=".994" stop-color="#009688"/></linearGradient><path d="M305 1672.2c-7.4-3.6-19.6-3.6-27 0l-45.6 22c-7.4 3.6-15 13.1-16.9 21.1l-11.3 49.4c-1.8 8 .9 19.9 6 26.4l31.6 39.6c5.1 6.5 16.1 11.7 24.4 11.7h50.7c8.2 0 19.2-5.3 24.4-11.7l31.6-39.6c5.1-6.5 7.9-18.3 6-26.4l-11.3-49.4c-1.8-8-9.4-17.6-16.9-21.1l-45.7-22z" fill="url(#SVGID_5_)"/><g><path class="st1" d="M172.2 539.4v-3.2h23.4v3.2H186v29.5h-4.3v-29.5h-9.5zM204.4 568.9h-4.1v-32.7h4.1v32.7zM212.4 536.2H231v3.2h-14.4v26.2h15v3.2h-19.3v-32.6zm17.1 14v3.2h-11.1c.3-.9.8-1.6 1.4-2.2.6-.6 1.4-.9 2.5-.9h7.2zM259.5 545.3c0 1.8-.5 3.4-1.5 4.7-1 1.4-2.3 2.4-3.8 3.2l-1.1.4.9.4c1.1.7 2 1.7 2.5 2.7.6 1.1 1.1 2.3 1.5 3.6.4 1.3.8 2.7 1.2 4.1s.9 2.9 1.6 4.5h-4.5c-.6-1.3-1.1-2.7-1.4-4.1-.3-1.5-.7-2.9-1.1-4.2-.4-1.4-1-2.5-1.6-3.6-.6-1-1.6-1.8-2.7-2.2h-.4c-.7.1-1.4.1-2.1 0-.8 0-1.5-.2-2.4-.4.3-.8.8-1.4 1.5-1.9s1.5-.8 2.5-.8c.8 0 1.6-.2 2.3-.5.8-.3 1.5-.8 2.1-1.3.6-.6 1.1-1.2 1.5-2 .4-.8.6-1.6.6-2.6 0-.9-.2-1.7-.6-2.5-.4-.8-.9-1.4-1.6-2-.7-.6-1.4-1-2.3-1.4-.9-.3-1.8-.5-2.9-.5h-2.3c-.7 0-1.6.2-2.7.4V569h-4.3v-32.3c1.7-.3 3.2-.6 4.6-.8 1.4-.2 2.9-.3 4.6-.3 1.8 0 3.4.3 4.9.8 1.5.5 2.7 1.2 3.8 2.1 1 .9 1.8 1.9 2.4 3.1.5 1.1.8 2.3.8 3.7zM296.3 545.1c0 1.2-.2 2.4-.7 3.6-.5 1.2-1.1 2.3-1.8 3.4-.8 1.1-1.6 2.2-2.6 3.3-.9 1.1-1.9 2.2-2.8 3.2-.9 1.1-1.9 2.1-2.7 3.1-.9 1-1.6 2-2.2 3l-.7.8 1-.2h13.1v3.6h-19.1v-1.7c1.5-2.4 3-4.6 4.7-6.6 1.7-2 3.2-3.9 4.6-5.6 1.4-1.7 2.6-3.4 3.5-4.9.9-1.5 1.4-3 1.4-4.5 0-.8-.2-1.6-.5-2.2-.3-.7-.7-1.2-1.3-1.7-.5-.5-1.2-.8-1.9-1.1-.7-.2-1.4-.4-2.2-.4-.8 0-1.7.1-2.7.3-1 .2-2.1.6-3.3 1.3l-1.1-3c1.4-.7 2.7-1.2 3.9-1.5 1.2-.2 2.5-.4 3.7-.4 1.3 0 2.6.2 3.8.5 1.2.4 2.2.9 3.1 1.6.9.7 1.6 1.5 2.1 2.5.4 1.1.7 2.3.7 3.6z"/></g><g><linearGradient id="SVGID_6_" gradientUnits="userSpaceOnUse" x1="358.645" y1="552.427" x2="508.166" y2="552.427"><stop offset="0" stop-color="#3f51b5"/><stop offset=".224" stop-color="#365aaf"/><stop offset=".596" stop-color="#1f749e"/><stop offset=".994" stop-color="#009688"/></linearGradient><path d="M440.9 491.9c-4.1-7.1-10.9-7.1-15 0l-65.5 113.4c-4.1 7.1-.8 13 7.5 13h131c8.2 0 11.6-5.8 7.5-13l-65.5-113.4z" fill="url(#SVGID_6_)"/></g><path class="st2" d="M575.9 456.6h526v197.7h-526z"/><text transform="translate(575.917 470.312)"><tspan x="0" y="0" class="st3 st21 st5">※</tspan><tspan x="10.6" y="0" class="st3 st6 st5 st22"> </tspan><tspan x="36" y="0" class="st3 st6 st5">Decentralised wallet</tspan><tspan x="0" y="22" class="st3 st21 st5">※</tspan><tspan x="10.6" y="22" class="st3 st6 st5 st22"> </tspan><tspan x="36" y="22" class="st3 st6 st5">Debit card spending with MoxyOne</tspan><tspan x="0" y="44" class="st3 st21 st5">※</tspan><tspan x="10.6" y="44" class="st3 st6 st5 st22"> </tspan><tspan x="36" y="44" class="st3 st6 st5">MoxyOne buffer account</tspan><tspan x="0" y="66" class="st3 st21 st5">※</tspan><tspan x="10.6" y="66" class="st3 st6 st5 st22"> </tspan><tspan x="36" y="66" class="st3 st6 st5">MoxyOne Vault - store cryptos securely</tspan><tspan x="0" y="88" class="st3 st21 st5">※</tspan><tspan x="10.6" y="88" class="st3 st6 st5 st22"> </tspan><tspan x="36" y="88" class="st3 st6 st5">Add card to Apple Pay and Google Pay</tspan><tspan x="0" y="110" class="st3 st21 st5">※</tspan><tspan x="10.6" y="110" class="st3 st6 st5 st22"> </tspan><tspan x="36" y="110" class="st3 st6 st5">Security Level 2 (2 Factor Authentication)</tspan><tspan x="0" y="132" class="st3 st21 st5">※</tspan><tspan x="10.6" y="132" class="st3 st6 st5 st22"> </tspan><tspan x="36" y="132" class="st3 st6 st5">Geographical security</tspan><tspan x="0" y="154" class="st3 st21 st5">※</tspan><tspan x="10.6" y="154" class="st3 st6 st5 st22"> </tspan><tspan x="36" y="154" class="st3 st6 st5">User Ratings</tspan><tspan x="0" y="176" class="st3 st21 st5">※</tspan><tspan x="10.6" y="176" class="st3 st6 st5 st22"> </tspan><tspan x="36" y="176" class="st3 st6 st5">User spending habit tracking</tspan></text><g><linearGradient id="SVGID_7_" gradientUnits="userSpaceOnUse" x1="268.028" y1="331.339" x2="268.028" y2="331.339"><stop offset="0" stop-color="#3f51b5"/><stop offset=".224" stop-color="#365aaf"/><stop offset=".596" stop-color="#1f749e"/><stop offset=".994" stop-color="#009688"/></linearGradient></g><g><linearGradient id="SVGID_8_" gradientUnits="userSpaceOnUse" x1="288.464" y1="251.61" x2="294.214" y2="251.61"><stop offset="0" stop-color="#3f51b5"/><stop offset=".224" stop-color="#365aaf"/><stop offset=".596" stop-color="#1f749e"/><stop offset=".994" stop-color="#009688"/></linearGradient><path d="M291.3 254.6c3.8 0 3.8-6 0-6s-3.8 6 0 6z" fill="url(#SVGID_8_)"/></g><g><linearGradient id="SVGID_9_" gradientUnits="userSpaceOnUse" x1="290.839" y1="367.132" x2="433.978" y2="367.132"><stop offset="0" stop-color="#3f51b5"/><stop offset=".224" stop-color="#365aaf"/><stop offset=".596" stop-color="#1f749e"/><stop offset=".994" stop-color="#009688"/></linearGradient><path fill="none" stroke="url(#SVGID_9_)" stroke-miterlimit="10" stroke-dasharray="1,2" d="M291.3 251.6v109.7h142.2v121.4"/><linearGradient id="SVGID_10_" gradientUnits="userSpaceOnUse" x1="430.596" y1="480.886" x2="436.347" y2="480.886"><stop offset="0" stop-color="#3f51b5"/><stop offset=".224" stop-color="#365aaf"/><stop offset=".596" stop-color="#1f749e"/><stop offset=".994" stop-color="#009688"/></linearGradient><path d="M433.5 483.9c3.8 0 3.8-6 0-6-3.9 0-3.9 6 0 6z" fill="url(#SVGID_10_)"/></g><g><linearGradient id="SVGID_11_" gradientUnits="userSpaceOnUse" x1="432.087" y1="692.73" x2="548.391" y2="692.73"><stop offset="0" stop-color="#3f51b5"/><stop offset=".224" stop-color="#365aaf"/><stop offset=".596" stop-color="#1f749e"/><stop offset=".994" stop-color="#009688"/></linearGradient><path fill="none" stroke="url(#SVGID_11_)" stroke-miterlimit="10" stroke-dasharray="1,2" d="M432.6 621.1v68h115.3v75.3"/><linearGradient id="SVGID_12_" gradientUnits="userSpaceOnUse" x1="429.678" y1="623.434" x2="435.429" y2="623.434"><stop offset="0" stop-color="#3f51b5"/><stop offset=".224" stop-color="#365aaf"/><stop offset=".596" stop-color="#1f749e"/><stop offset=".994" stop-color="#009688"/></linearGradient><path d="M432.6 626.4c3.8 0 3.8-6 0-6-3.9.1-3.9 6 0 6z" fill="url(#SVGID_12_)"/><g><linearGradient id="SVGID_13_" gradientUnits="userSpaceOnUse" x1="545.06" y1="762.696" x2="550.81" y2="762.696"><stop offset="0" stop-color="#3f51b5"/><stop offset=".224" stop-color="#365aaf"/><stop offset=".596" stop-color="#1f749e"/><stop offset=".994" stop-color="#009688"/></linearGradient><path d="M547.9 765.7c3.8 0 3.8-6 0-6s-3.8 6 0 6z" fill="url(#SVGID_13_)"/></g></g><g><linearGradient id="SVGID_14_" gradientUnits="userSpaceOnUse" x1="547.967" y1="905.476" x2="553.717" y2="905.476"><stop offset="0" stop-color="#3f51b5"/><stop offset=".224" stop-color="#365aaf"/><stop offset=".596" stop-color="#1f749e"/><stop offset=".994" stop-color="#009688"/></linearGradient><path d="M550.8 908.5c3.8 0 3.8-6 0-6s-3.8 6 0 6z" fill="url(#SVGID_14_)"/></g><g><linearGradient id="SVGID_15_" gradientUnits="userSpaceOnUse" x1="547.203" y1="1046.733" x2="552.954" y2="1046.733"><stop offset="0" stop-color="#3f51b5"/><stop offset=".224" stop-color="#365aaf"/><stop offset=".596" stop-color="#1f749e"/><stop offset=".994" stop-color="#009688"/></linearGradient><path d="M550.1 1049.7c3.8 0 3.8-6 0-6-3.9.1-3.9 6 0 6z" fill="url(#SVGID_15_)"/></g><path class="st2" d="M381.4 561.9h105.7v50.7H381.4z"/><text transform="translate(398.186 578.648)"><tspan x="0" y="0" class="st12 st6 st13">17, 000 </tspan><tspan x="13.3" y="30" class="st12 st6 st13">ETH</tspan></text><path class="st2" d="M498.4 811.9h105.7v50.7H498.4z"/><text transform="translate(513.655 828.648)"><tspan x="0" y="0" class="st12 st6 st13">27, 000 </tspan><tspan x="14.8" y="30" class="st12 st6 st13">ETH</tspan></text><path class="st2" d="M494.4 1119.9h105.7v50.7H494.4z"/><text transform="translate(509.091 1136.648)"><tspan x="0" y="0" class="st12 st6 st13">40, 000 </tspan><tspan x="15.4" y="30" class="st12 st6 st13">ETH</tspan></text><path class="st2" d="M383.4 1423.9h105.7v50.7H383.4z"/><text transform="translate(398.564 1440.648)"><tspan x="0" y="0" class="st12 st6 st13">54, 000 </tspan><tspan x="14.9" y="30" class="st12 st6 st13">ETH</tspan></text><path class="st2" d="M240.4 1741.9h105.7v50.7H240.4z"/><text transform="translate(255.612 1758.648)"><tspan x="0" y="0" class="st12 st6 st13">67, 000 </tspan><tspan x="14.9" y="30" class="st12 st6 st13">ETH</tspan></text><path class="st2" d="M1229 1358.4h764.9v314.2H1229z"/><g><linearGradient id="SVGID_16_" gradientUnits="userSpaceOnUse" x1="324.839" y1="1597.655" x2="467.977" y2="1597.655" gradientTransform="matrix(-1 0 0 1 758.817 0)"><stop offset="0" stop-color="#3f51b5"/><stop offset=".224" stop-color="#365aaf"/><stop offset=".596" stop-color="#1f749e"/><stop offset=".994" stop-color="#009688"/></linearGradient><path fill="none" stroke="url(#SVGID_16_)" stroke-miterlimit="10" stroke-dasharray="1,2" d="M433.5 1530.2v64H291.3v70.9"/><linearGradient id="SVGID_17_" gradientUnits="userSpaceOnUse" x1="288.47" y1="1664.075" x2="294.221" y2="1664.075"><stop offset="0" stop-color="#3f51b5"/><stop offset=".224" stop-color="#365aaf"/><stop offset=".596" stop-color="#1f749e"/><stop offset=".994" stop-color="#009688"/></linearGradient><path d="M291.3 1667.1c3.8 0 3.8-6 0-6s-3.8 6 0 6z" fill="url(#SVGID_17_)"/><g><linearGradient id="SVGID_18_" gradientUnits="userSpaceOnUse" x1="430.603" y1="1530.204" x2="436.353" y2="1530.204"><stop offset="0" stop-color="#3f51b5"/><stop offset=".224" stop-color="#365aaf"/><stop offset=".596" stop-color="#1f749e"/><stop offset=".994" stop-color="#009688"/></linearGradient><path d="M433.5 1533.2c3.8 0 3.8-6 0-6-3.9 0-3.9 6 0 6z" fill="url(#SVGID_18_)"/></g></g><g><linearGradient id="SVGID_19_" gradientUnits="userSpaceOnUse" x1="873.776" y1="1287.707" x2="990.08" y2="1287.707" gradientTransform="matrix(-1 0 0 1 1422.489 0)"><stop offset="0" stop-color="#3f51b5"/><stop offset=".224" stop-color="#365aaf"/><stop offset=".596" stop-color="#1f749e"/><stop offset=".994" stop-color="#009688"/></linearGradient><path fill="none" stroke="url(#SVGID_19_)" stroke-miterlimit="10" stroke-dasharray="1,2" d="M548.2 1217.3v66.8H432.9v74"/><linearGradient id="SVGID_20_" gradientUnits="userSpaceOnUse" x1="545.37" y1="1219.647" x2="551.121" y2="1219.647"><stop offset="0" stop-color="#3f51b5"/><stop offset=".224" stop-color="#365aaf"/><stop offset=".596" stop-color="#1f749e"/><stop offset=".994" stop-color="#009688"/></linearGradient><path d="M548.2 1222.6c3.8 0 3.8-6 0-6-3.8.1-3.8 6 0 6z" fill="url(#SVGID_20_)"/><g><linearGradient id="SVGID_21_" gradientUnits="userSpaceOnUse" x1="429.989" y1="1356.426" x2="435.74" y2="1356.426"><stop offset="0" stop-color="#3f51b5"/><stop offset=".224" stop-color="#365aaf"/><stop offset=".596" stop-color="#1f749e"/><stop offset=".994" stop-color="#009688"/></linearGradient><path d="M432.9 1359.4c3.8 0 3.8-6 0-6-3.9 0-3.9 6 0 6z" fill="url(#SVGID_21_)"/></g></g><linearGradient id="SVGID_22_" gradientUnits="userSpaceOnUse" x1="549.908" y1="975.61" x2="550.908" y2="975.61"><stop offset="0" stop-color="#3f51b5"/><stop offset=".224" stop-color="#365aaf"/><stop offset=".596" stop-color="#1f749e"/><stop offset=".994" stop-color="#009688"/></linearGradient><path fill="none" stroke="url(#SVGID_22_)" stroke-miterlimit="10" stroke-dasharray="1,2" d="M550.4 908.6v134"/></svg>