<?xml version="1.0" encoding="utf-8"?>
<!-- Generator: Adobe Illustrator 22.0.0, SVG Export Plug-In . SVG Version: 6.00 Build 0)  -->
<svg version="1.1" id="Layer_1" xmlns="http://www.w3.org/2000/svg" xmlns:xlink="http://www.w3.org/1999/xlink" x="0px" y="0px"
	 viewBox="0 0 60 60" style="enable-background:new 0 0 60 60;" xml:space="preserve">
<style type="text/css">
	.st0{fill:none;stroke:url(#SVGID_1_);stroke-width:0.25;stroke-miterlimit:10;stroke-dasharray:1,0.5;}
	.st1{fill:url(#SVGID_2_);}
	.st2{fill:url(#SVGID_3_);}
	.st3{fill:#FFFFFF;}
	.st4{fill:url(#SVGID_4_);}
	.st5{fill:url(#SVGID_5_);}
	.st6{fill:url(#SVGID_6_);}
	.st7{fill:url(#SVGID_7_);}
	.st8{fill:none;stroke:url(#SVGID_8_);stroke-width:0.25;stroke-miterlimit:10;stroke-dasharray:1,0.5;}
	.st9{fill:url(#SVGID_9_);}
	.st10{fill:none;stroke:url(#SVGID_10_);stroke-width:0.25;stroke-miterlimit:10;stroke-dasharray:1,0.5;}
	.st11{fill:url(#SVGID_11_);}
	.st12{fill:url(#SVGID_12_);}
	.st13{fill:url(#SVGID_13_);}
	.st14{fill:none;stroke:url(#SVGID_14_);stroke-width:0.25;stroke-miterlimit:10;stroke-dasharray:1,0.5;}
	.st15{fill:none;stroke:url(#SVGID_15_);stroke-width:0.25;stroke-miterlimit:10;stroke-dasharray:1,0.5;}
	.st16{fill:none;stroke:url(#SVGID_16_);stroke-width:0.25;stroke-miterlimit:10;stroke-dasharray:1,0.5;}
	.st17{fill:none;stroke:url(#SVGID_17_);stroke-width:0.25;stroke-miterlimit:10;stroke-dasharray:1,0.5;}
	.st18{fill:none;stroke:url(#SVGID_18_);stroke-width:0.25;stroke-miterlimit:10;stroke-dasharray:1,0.5;}
	.st19{fill:none;}
	.st20{fill:url(#SVGID_19_);}
	.st21{fill:url(#SVGID_20_);}
</style>
<g>
	<linearGradient id="SVGID_1_" gradientUnits="userSpaceOnUse" x1="11.403" y1="32.2924" x2="13.8439" y2="32.2924">
		<stop  offset="5.618000e-03" style="stop-color:#3F51B5"/>
		<stop  offset="1" style="stop-color:#009688"/>
	</linearGradient>
	<line class="st0" x1="11.5" y1="31.7" x2="13.8" y2="32.9"/>
	<linearGradient id="SVGID_2_" gradientUnits="userSpaceOnUse" x1="2.728484e-12" y1="25.8554" x2="14.3333" y2="25.8554">
		<stop  offset="0" style="stop-color:#009688"/>
		<stop  offset="0.9944" style="stop-color:#3F51B5"/>
	</linearGradient>
	<polygon class="st1" points="14.3,30 14.3,21.7 7.2,17.6 0,21.7 0,30 7.2,34.1 	"/>
	<radialGradient id="SVGID_3_" cx="3.6949" cy="27.9493" r="4.5193" gradientUnits="userSpaceOnUse">
		<stop  offset="0" style="stop-color:#3FA9F5"/>
		<stop  offset="1" style="stop-color:#E91E63"/>
	</radialGradient>
	<path class="st2" d="M0.4,29.7c2.2,1.2,4.4,2.5,6.6,3.7c0-2.5,0-5,0-7.5c-2.2-1.2-4.3-2.3-6.5-3.5C0.4,24.9,0.4,27.3,0.4,29.7z"/>
	<path class="st3" d="M0.4,29.7c2.2,1.2,4.4,2.5,6.6,3.7c0-2.5,0-5,0-7.5c-2.2-1.2-4.3-2.3-6.5-3.5C0.4,24.9,0.4,27.3,0.4,29.7z"/>
	<radialGradient id="SVGID_4_" cx="10.7138" cy="27.9554" r="4.5066" gradientUnits="userSpaceOnUse">
		<stop  offset="0" style="stop-color:#3FA9F5"/>
		<stop  offset="1" style="stop-color:#E91E63"/>
	</radialGradient>
	<path class="st4" d="M14,29.7c-2.2,1.2-4.4,2.5-6.5,3.7c0-2.5,0-5,0-7.5c2.2-1.2,4.4-2.3,6.5-3.5C14,24.9,14,27.3,14,29.7z"/>
	<path class="st3" d="M14,29.7c-2.2,1.2-4.4,2.5-6.5,3.7c0-2.5,0-5,0-7.5c2.2-1.2,4.4-2.3,6.5-3.5C14,24.9,14,27.3,14,29.7z"/>
	<linearGradient id="SVGID_5_" gradientUnits="userSpaceOnUse" x1="22.8332" y1="25.8751" x2="37.1667" y2="25.8751">
		<stop  offset="0" style="stop-color:#009688"/>
		<stop  offset="0.9944" style="stop-color:#3F51B5"/>
	</linearGradient>
	<polygon class="st5" points="37.2,30 37.2,21.7 30,17.6 22.8,21.7 22.8,30 30,34.1 	"/>
	<radialGradient id="SVGID_6_" cx="26.5282" cy="27.9691" r="4.5194" gradientUnits="userSpaceOnUse">
		<stop  offset="0" style="stop-color:#3FA9F5"/>
		<stop  offset="1" style="stop-color:#E91E63"/>
	</radialGradient>
	<path class="st6" d="M23.2,29.7c2.2,1.2,4.4,2.5,6.6,3.7c0-2.5,0-5,0-7.5c-2.2-1.2-4.3-2.3-6.5-3.5C23.3,24.9,23.3,27.3,23.2,29.7z
		"/>
	<path class="st3" d="M23.2,29.7c2.2,1.2,4.4,2.5,6.6,3.7c0-2.5,0-5,0-7.5c-2.2-1.2-4.3-2.3-6.5-3.5C23.3,24.9,23.3,27.3,23.2,29.7z
		"/>
	<radialGradient id="SVGID_7_" cx="33.5471" cy="27.9751" r="4.5066" gradientUnits="userSpaceOnUse">
		<stop  offset="0" style="stop-color:#3FA9F5"/>
		<stop  offset="1" style="stop-color:#E91E63"/>
	</radialGradient>
	<path class="st7" d="M36.8,29.7c-2.2,1.2-4.4,2.5-6.5,3.7c0-2.5,0-5,0-7.5c2.2-1.2,4.4-2.3,6.5-3.5C36.8,24.9,36.8,27.3,36.8,29.7z
		"/>
	<path class="st3" d="M36.8,29.7c-2.2,1.2-4.4,2.5-6.5,3.7c0-2.5,0-5,0-7.5c2.2-1.2,4.4-2.3,6.5-3.5C36.8,24.9,36.8,27.3,36.8,29.7z
		"/>
	<linearGradient id="SVGID_8_" gradientUnits="userSpaceOnUse" x1="14.4433" y1="25.9816" x2="22.7145" y2="25.9816">
		<stop  offset="5.618000e-03" style="stop-color:#3F51B5"/>
		<stop  offset="1" style="stop-color:#009688"/>
	</linearGradient>
	<line class="st8" x1="14.4" y1="26" x2="22.7" y2="26"/>
	<g>
		<linearGradient id="SVGID_9_" gradientUnits="userSpaceOnUse" x1="45.6666" y1="25.7819" x2="60" y2="25.7819">
			<stop  offset="0" style="stop-color:#009688"/>
			<stop  offset="0.9944" style="stop-color:#3F51B5"/>
		</linearGradient>
		<polygon class="st9" points="60,29.9 60,21.7 52.8,17.5 45.7,21.6 45.7,29.9 52.8,34.1 		"/>
		<path class="st3" d="M46.1,29.6c2.2,1.2,4.4,2.5,6.6,3.7c0-2.5,0-5,0-7.5c-2.2-1.2-4.3-2.3-6.5-3.5C46.1,24.8,46.1,27.2,46.1,29.6
			z"/>
		<path class="st3" d="M59.6,29.6c-2.2,1.2-4.4,2.5-6.5,3.7c0-2.5,0-5,0-7.5c2.2-1.2,4.4-2.3,6.5-3.5C59.6,24.8,59.6,27.2,59.6,29.6
			z"/>
	</g>
	<linearGradient id="SVGID_10_" gradientUnits="userSpaceOnUse" x1="37.2766" y1="26.0014" x2="45.4604" y2="26.0014">
		<stop  offset="5.618000e-03" style="stop-color:#3F51B5"/>
		<stop  offset="1" style="stop-color:#009688"/>
	</linearGradient>
	<line class="st10" x1="37.3" y1="26" x2="45.5" y2="26"/>
	<linearGradient id="SVGID_11_" gradientUnits="userSpaceOnUse" x1="11.4057" y1="38.4469" x2="25.7391" y2="38.4469">
		<stop  offset="0" style="stop-color:#009688"/>
		<stop  offset="0.9944" style="stop-color:#3F51B5"/>
	</linearGradient>
	<polygon class="st11" points="25.7,42.6 25.7,34.3 18.6,30.2 11.4,34.3 11.4,42.6 18.6,46.7 	"/>
	<radialGradient id="SVGID_12_" cx="15.1006" cy="40.5408" r="4.5194" gradientUnits="userSpaceOnUse">
		<stop  offset="0" style="stop-color:#3FA9F5"/>
		<stop  offset="1" style="stop-color:#E91E63"/>
	</radialGradient>
	<path class="st12" d="M11.8,42.3c2.2,1.2,4.4,2.5,6.6,3.7c0-2.5,0-5,0-7.5c-2.2-1.2-4.3-2.3-6.5-3.5C11.9,37.5,11.8,39.9,11.8,42.3
		z"/>
	<path class="st3" d="M11.8,42.3c2.2,1.2,4.4,2.5,6.6,3.7c0-2.5,0-5,0-7.5c-2.2-1.2-4.3-2.3-6.5-3.5C11.9,37.5,11.8,39.9,11.8,42.3z
		"/>
	<radialGradient id="SVGID_13_" cx="22.1195" cy="40.5469" r="4.5066" gradientUnits="userSpaceOnUse">
		<stop  offset="0" style="stop-color:#3FA9F5"/>
		<stop  offset="1" style="stop-color:#E91E63"/>
	</radialGradient>
	<path class="st13" d="M25.4,42.3c-2.2,1.2-4.4,2.5-6.5,3.7c0-2.5,0-5,0-7.5c2.2-1.2,4.4-2.3,6.5-3.5C25.4,37.5,25.4,39.9,25.4,42.3
		z"/>
	<path class="st3" d="M25.4,42.3c-2.2,1.2-4.4,2.5-6.5,3.7c0-2.5,0-5,0-7.5c2.2-1.2,4.4-2.3,6.5-3.5C25.4,37.5,25.4,39.9,25.4,42.3z
		"/>
	<linearGradient id="SVGID_14_" gradientUnits="userSpaceOnUse" x1="25.8326" y1="38.4816" x2="34.1792" y2="38.4816">
		<stop  offset="5.618000e-03" style="stop-color:#3F51B5"/>
		<stop  offset="1" style="stop-color:#009688"/>
	</linearGradient>
	<line class="st14" x1="25.8" y1="38.5" x2="34.2" y2="38.5"/>
	<linearGradient id="SVGID_15_" gradientUnits="userSpaceOnUse" x1="45.79" y1="32.0568" x2="48.1772" y2="32.0568">
		<stop  offset="5.618000e-03" style="stop-color:#3F51B5"/>
		<stop  offset="1" style="stop-color:#009688"/>
	</linearGradient>
	<line class="st15" x1="48.1" y1="31.6" x2="45.8" y2="32.5"/>
	<linearGradient id="SVGID_16_" gradientUnits="userSpaceOnUse" x1="33.7718" y1="44.5216" x2="36.6114" y2="44.5216">
		<stop  offset="5.618000e-03" style="stop-color:#3F51B5"/>
		<stop  offset="1" style="stop-color:#009688"/>
	</linearGradient>
	<line class="st16" x1="36.6" y1="43.9" x2="33.8" y2="45.1"/>
	<linearGradient id="SVGID_17_" gradientUnits="userSpaceOnUse" x1="23.699" y1="44.5106" x2="26.1399" y2="44.5106">
		<stop  offset="5.618000e-03" style="stop-color:#3F51B5"/>
		<stop  offset="1" style="stop-color:#009688"/>
	</linearGradient>
	<line class="st17" x1="23.8" y1="43.9" x2="26.1" y2="45.1"/>
	<linearGradient id="SVGID_18_" gradientUnits="userSpaceOnUse" x1="29.9141" y1="38.5688" x2="30.1719" y2="38.5688">
		<stop  offset="5.618000e-03" style="stop-color:#3F51B5"/>
		<stop  offset="1" style="stop-color:#009688"/>
	</linearGradient>
	<line class="st18" x1="30" y1="34.2" x2="30" y2="42.9"/>
	<line class="st19" x1="24.9" y1="31.3" x2="22.6" y2="32.3"/>
	<line class="st19" x1="34.7" y1="31.8" x2="36.3" y2="32.8"/>
	<g>
		<linearGradient id="SVGID_19_" gradientUnits="userSpaceOnUse" x1="34.2241" y1="38.262" x2="48.5575" y2="38.262">
			<stop  offset="0" style="stop-color:#009688"/>
			<stop  offset="0.9944" style="stop-color:#3F51B5"/>
		</linearGradient>
		<polygon class="st20" points="48.6,42.4 48.6,34.1 41.4,30 34.2,34.1 34.2,42.4 41.4,46.5 		"/>
		<path class="st3" d="M34.6,42.1c2.2,1.2,4.4,2.5,6.6,3.7c0-2.5,0-5,0-7.5c-2.2-1.2-4.3-2.3-6.5-3.5C34.7,37.3,34.6,39.7,34.6,42.1
			z"/>
		<path class="st3" d="M48.2,42.1c-2.2,1.2-4.4,2.5-6.5,3.7c0-2.5,0-5,0-7.5c2.2-1.2,4.4-2.3,6.5-3.5C48.2,37.3,48.2,39.7,48.2,42.1
			z"/>
	</g>
	<g>
		<linearGradient id="SVGID_20_" gradientUnits="userSpaceOnUse" x1="22.8973" y1="51.207" x2="37.2307" y2="51.207">
			<stop  offset="0" style="stop-color:#009688"/>
			<stop  offset="0.9944" style="stop-color:#3F51B5"/>
		</linearGradient>
		<polygon class="st21" points="37.2,55.3 37.2,47.1 30.1,42.9 22.9,47.1 22.9,55.3 30.1,59.5 		"/>
		<path class="st3" d="M23.3,55c2.2,1.2,4.4,2.5,6.6,3.7c0-2.5,0-5,0-7.5c-2.2-1.2-4.3-2.3-6.5-3.5C23.3,50.2,23.3,52.6,23.3,55z"/>
		<path class="st3" d="M36.9,55.1c-2.2,1.2-4.4,2.5-6.5,3.7c0-2.5,0-5,0-7.5c2.2-1.2,4.4-2.3,6.5-3.5C36.9,50.2,36.9,52.6,36.9,55.1
			z"/>
	</g>
</g>
</svg>
