<?xml version="1.0" encoding="utf-8"?>
<!-- Generator: Adobe Illustrator 22.0.0, SVG Export Plug-In . SVG Version: 6.00 Build 0)  -->
<svg version="1.1" id="Layer_1" xmlns="http://www.w3.org/2000/svg" xmlns:xlink="http://www.w3.org/1999/xlink" x="0px" y="0px"
	 viewBox="0 0 60 42" style="enable-background:new 0 0 60 42;" xml:space="preserve">
<style type="text/css">
	.st0{fill:none;stroke:#FFFFFF;stroke-width:0.25;stroke-miterlimit:10;stroke-dasharray:1,0.5;}
	.st1{fill:url(#SVGID_1_);}
	.st2{fill:url(#SVGID_2_);}
	.st3{fill:#FFFFFF;}
	.st4{fill:url(#SVGID_3_);}
	.st5{fill:url(#SVGID_4_);}
	.st6{fill:url(#SVGID_5_);}
	.st7{fill:url(#SVGID_6_);}
	.st8{fill:url(#SVGID_7_);}
	.st9{fill:url(#SVGID_8_);}
	.st10{fill:url(#SVGID_9_);}
	.st11{fill:url(#SVGID_10_);}
	.st12{fill:none;}
	.st13{fill:url(#SVGID_11_);}
	.st14{fill:url(#SVGID_12_);}
</style>
<line class="st0" x1="11.5" y1="14.2" x2="13.8" y2="15.4"/>
<linearGradient id="SVGID_1_" gradientUnits="userSpaceOnUse" x1="0" y1="8.3448" x2="14.3333" y2="8.3448">
	<stop  offset="0" style="stop-color:#009688"/>
	<stop  offset="0.9944" style="stop-color:#3F51B5"/>
</linearGradient>
<polygon class="st1" points="14.3,12.5 14.3,4.2 7.2,0.1 0,4.2 0,12.5 7.2,16.6 "/>
<radialGradient id="SVGID_2_" cx="3.6949" cy="10.4388" r="4.5193" gradientUnits="userSpaceOnUse">
	<stop  offset="0" style="stop-color:#3FA9F5"/>
	<stop  offset="1" style="stop-color:#E91E63"/>
</radialGradient>
<path class="st2" d="M0.4,12.2c2.2,1.2,4.4,2.5,6.6,3.7c0-2.5,0-5,0-7.5C4.8,7.3,2.6,6.1,0.5,5C0.4,7.4,0.4,9.8,0.4,12.2z"/>
<path class="st3" d="M0.4,12.2c2.2,1.2,4.4,2.5,6.6,3.7c0-2.5,0-5,0-7.5C4.8,7.3,2.6,6.1,0.5,5C0.4,7.4,0.4,9.8,0.4,12.2z"/>
<radialGradient id="SVGID_3_" cx="10.7138" cy="10.4448" r="4.5066" gradientUnits="userSpaceOnUse">
	<stop  offset="0" style="stop-color:#3FA9F5"/>
	<stop  offset="1" style="stop-color:#E91E63"/>
</radialGradient>
<path class="st4" d="M14,12.2c-2.2,1.2-4.4,2.5-6.5,3.7c0-2.5,0-5,0-7.5C9.6,7.3,11.8,6.1,14,5C14,7.4,14,9.8,14,12.2z"/>
<path class="st3" d="M14,12.2c-2.2,1.2-4.4,2.5-6.5,3.7c0-2.5,0-5,0-7.5C9.6,7.3,11.8,6.1,14,5C14,7.4,14,9.8,14,12.2z"/>
<linearGradient id="SVGID_4_" gradientUnits="userSpaceOnUse" x1="22.8332" y1="8.3646" x2="37.1667" y2="8.3646">
	<stop  offset="0" style="stop-color:#009688"/>
	<stop  offset="0.9944" style="stop-color:#3F51B5"/>
</linearGradient>
<polygon class="st5" points="37.2,12.5 37.2,4.2 30,0.1 22.8,4.2 22.8,12.5 30,16.6 "/>
<radialGradient id="SVGID_5_" cx="26.5282" cy="10.4586" r="4.5194" gradientUnits="userSpaceOnUse">
	<stop  offset="0" style="stop-color:#3FA9F5"/>
	<stop  offset="1" style="stop-color:#E91E63"/>
</radialGradient>
<path class="st6" d="M23.2,12.2c2.2,1.2,4.4,2.5,6.6,3.7c0-2.5,0-5,0-7.5c-2.2-1.2-4.3-2.3-6.5-3.5C23.3,7.4,23.3,9.8,23.2,12.2z"/>
<path class="st3" d="M23.2,12.2c2.2,1.2,4.4,2.5,6.6,3.7c0-2.5,0-5,0-7.5c-2.2-1.2-4.3-2.3-6.5-3.5C23.3,7.4,23.3,9.8,23.2,12.2z"/>
<radialGradient id="SVGID_6_" cx="33.5471" cy="10.4646" r="4.5066" gradientUnits="userSpaceOnUse">
	<stop  offset="0" style="stop-color:#3FA9F5"/>
	<stop  offset="1" style="stop-color:#E91E63"/>
</radialGradient>
<path class="st7" d="M36.8,12.2c-2.2,1.2-4.4,2.5-6.5,3.7c0-2.5,0-5,0-7.5c2.2-1.2,4.4-2.3,6.5-3.5C36.8,7.4,36.8,9.8,36.8,12.2z"/>
<path class="st3" d="M36.8,12.2c-2.2,1.2-4.4,2.5-6.5,3.7c0-2.5,0-5,0-7.5c2.2-1.2,4.4-2.3,6.5-3.5C36.8,7.4,36.8,9.8,36.8,12.2z"/>
<line class="st0" x1="14.4" y1="8.5" x2="22.7" y2="8.5"/>
<g>
	<linearGradient id="SVGID_7_" gradientUnits="userSpaceOnUse" x1="45.6666" y1="8.2713" x2="60" y2="8.2713">
		<stop  offset="0" style="stop-color:#009688"/>
		<stop  offset="0.9944" style="stop-color:#3F51B5"/>
	</linearGradient>
	<polygon class="st8" points="60,12.4 60,4.1 52.8,0 45.7,4.1 45.7,12.4 52.8,16.5 	"/>
	<path class="st3" d="M46.1,12.1c2.2,1.2,4.4,2.5,6.6,3.7c0-2.5,0-5,0-7.5c-2.2-1.2-4.3-2.3-6.5-3.5C46.1,7.3,46.1,9.7,46.1,12.1z"
		/>
	<path class="st3" d="M59.6,12.1c-2.2,1.2-4.4,2.5-6.5,3.7c0-2.5,0-5,0-7.5c2.2-1.2,4.4-2.3,6.5-3.5C59.6,7.3,59.6,9.7,59.6,12.1z"
		/>
</g>
<line class="st0" x1="37.3" y1="8.5" x2="45.5" y2="8.5"/>
<linearGradient id="SVGID_8_" gradientUnits="userSpaceOnUse" x1="11.4057" y1="20.9363" x2="25.7391" y2="20.9363">
	<stop  offset="0" style="stop-color:#009688"/>
	<stop  offset="0.9944" style="stop-color:#3F51B5"/>
</linearGradient>
<polygon class="st9" points="25.7,25.1 25.7,16.8 18.6,12.7 11.4,16.8 11.4,25.1 18.6,29.2 "/>
<radialGradient id="SVGID_9_" cx="15.1006" cy="23.0303" r="4.5194" gradientUnits="userSpaceOnUse">
	<stop  offset="0" style="stop-color:#3FA9F5"/>
	<stop  offset="1" style="stop-color:#E91E63"/>
</radialGradient>
<path class="st10" d="M11.8,24.8c2.2,1.2,4.4,2.5,6.6,3.7c0-2.5,0-5,0-7.5c-2.2-1.2-4.3-2.3-6.5-3.5C11.9,20,11.8,22.4,11.8,24.8z"
	/>
<path class="st3" d="M11.8,24.8c2.2,1.2,4.4,2.5,6.6,3.7c0-2.5,0-5,0-7.5c-2.2-1.2-4.3-2.3-6.5-3.5C11.9,20,11.8,22.4,11.8,24.8z"/>
<radialGradient id="SVGID_10_" cx="22.1195" cy="23.0363" r="4.5066" gradientUnits="userSpaceOnUse">
	<stop  offset="0" style="stop-color:#3FA9F5"/>
	<stop  offset="1" style="stop-color:#E91E63"/>
</radialGradient>
<path class="st11" d="M25.4,24.8c-2.2,1.2-4.4,2.5-6.5,3.7c0-2.5,0-5,0-7.5c2.2-1.2,4.4-2.3,6.5-3.5C25.4,20,25.4,22.4,25.4,24.8z"
	/>
<path class="st3" d="M25.4,24.8c-2.2,1.2-4.4,2.5-6.5,3.7c0-2.5,0-5,0-7.5c2.2-1.2,4.4-2.3,6.5-3.5C25.4,20,25.4,22.4,25.4,24.8z"/>
<line class="st0" x1="25.8" y1="21" x2="34.2" y2="21"/>
<line class="st0" x1="48.1" y1="14.1" x2="45.8" y2="15"/>
<line class="st0" x1="36.6" y1="26.4" x2="33.8" y2="27.6"/>
<line class="st0" x1="23.8" y1="26.4" x2="26.1" y2="27.6"/>
<line class="st0" x1="30" y1="16.7" x2="30" y2="25.4"/>
<line class="st12" x1="24.9" y1="13.8" x2="22.6" y2="14.8"/>
<line class="st12" x1="34.7" y1="14.3" x2="36.3" y2="15.2"/>
<g>
	<linearGradient id="SVGID_11_" gradientUnits="userSpaceOnUse" x1="34.2241" y1="20.7514" x2="48.5575" y2="20.7514">
		<stop  offset="0" style="stop-color:#009688"/>
		<stop  offset="0.9944" style="stop-color:#3F51B5"/>
	</linearGradient>
	<polygon class="st13" points="48.6,24.9 48.6,16.6 41.4,12.5 34.2,16.6 34.2,24.9 41.4,29 	"/>
	<path class="st3" d="M34.6,24.6c2.2,1.2,4.4,2.5,6.6,3.7c0-2.5,0-5,0-7.5c-2.2-1.2-4.3-2.3-6.5-3.5C34.7,19.8,34.6,22.2,34.6,24.6z
		"/>
	<path class="st3" d="M48.2,24.6c-2.2,1.2-4.4,2.5-6.5,3.7c0-2.5,0-5,0-7.5c2.2-1.2,4.4-2.3,6.5-3.5C48.2,19.8,48.2,22.2,48.2,24.6z
		"/>
</g>
<g>
	<linearGradient id="SVGID_12_" gradientUnits="userSpaceOnUse" x1="22.8973" y1="33.6965" x2="37.2307" y2="33.6965">
		<stop  offset="0" style="stop-color:#009688"/>
		<stop  offset="0.9944" style="stop-color:#3F51B5"/>
	</linearGradient>
	<polygon class="st14" points="37.2,37.8 37.2,29.6 30.1,25.4 22.9,29.6 22.9,37.8 30.1,42 	"/>
	<path class="st3" d="M23.3,37.5c2.2,1.2,4.4,2.5,6.6,3.7c0-2.5,0-5,0-7.5c-2.2-1.2-4.3-2.3-6.5-3.5C23.3,32.7,23.3,35.1,23.3,37.5z
		"/>
	<path class="st3" d="M36.9,37.5c-2.2,1.2-4.4,2.5-6.5,3.7c0-2.5,0-5,0-7.5c2.2-1.2,4.4-2.3,6.5-3.5C36.9,32.7,36.9,35.1,36.9,37.5z
		"/>
</g>
</svg>
