<?xml version="1.0" encoding="utf-8"?>
<!-- Generator: Adobe Illustrator 22.0.0, SVG Export Plug-In . SVG Version: 6.00 Build 0)  -->
<svg version="1.1" id="Layer_1" xmlns="http://www.w3.org/2000/svg" xmlns:xlink="http://www.w3.org/1999/xlink" x="0px" y="0px"
	 viewBox="0 0 60 60" style="enable-background:new 0 0 60 60;" xml:space="preserve">
<style type="text/css">
	.st0{fill:url(#SVGID_1_);}
	.st1{fill:url(#SVGID_2_);}
	.st2{fill:url(#SVGID_3_);}
	.st3{fill:url(#SVGID_4_);}
	.st4{fill:url(#SVGID_5_);}
</style>
<g>
	<g>
		<linearGradient id="SVGID_1_" gradientUnits="userSpaceOnUse" x1="16.6545" y1="14.4682" x2="44.164" y2="14.4682">
			<stop  offset="0" style="stop-color:#009688"/>
			<stop  offset="0.9944" style="stop-color:#3F51B5"/>
		</linearGradient>
		<path class="st0" d="M30.4,1c-7.6,0-13.8,6-13.8,13.5c0,7.4,6.2,13.5,13.8,13.5s13.8-6,13.8-13.5C44.2,7,38,1,30.4,1z"/>
		<linearGradient id="SVGID_2_" gradientUnits="userSpaceOnUse" x1="29.2635" y1="44.2705" x2="32.7012" y2="44.2705">
			<stop  offset="0" style="stop-color:#009688"/>
			<stop  offset="0.9944" style="stop-color:#3F51B5"/>
		</linearGradient>
		<polygon class="st1" points="32.7,32.5 32.7,32.5 31.6,56 31.5,56 30.4,56 30.4,56 29.3,32.5 29.3,32.5 		"/>
		<linearGradient id="SVGID_3_" gradientUnits="userSpaceOnUse" x1="29.2635" y1="44.2705" x2="32.7012" y2="44.2705">
			<stop  offset="0" style="stop-color:#009688"/>
			<stop  offset="0.9944" style="stop-color:#3F51B5"/>
		</linearGradient>
		<polygon class="st2" points="32.7,32.5 32.7,32.5 31.6,56 31.5,56 30.4,56 30.4,56 29.3,32.5 29.3,32.5 		"/>
		<linearGradient id="SVGID_4_" gradientUnits="userSpaceOnUse" x1="38.0058" y1="44.1233" x2="55.5851" y2="44.1233">
			<stop  offset="0" style="stop-color:#009688"/>
			<stop  offset="0.9944" style="stop-color:#3F51B5"/>
		</linearGradient>
		<path class="st3" d="M38.1,58.6c-0.3,0.5,0,0.8,0.5,0.8h16.1c0.5,0,0.9-0.4,0.9-0.9c0,0-1-21.7-1-22.5c0,0,0-1.7,0-1.9
			c0-0.3,0-0.3,0-0.3c0-0.3-0.4-0.8-0.9-1l-10.5-4c-0.5-0.2-0.8,0.1-0.7,0.6c0,0,1.6,7.7,0.8,14.1C42.4,50.8,38.1,58.6,38.1,58.6z"
			/>
		<linearGradient id="SVGID_5_" gradientUnits="userSpaceOnUse" x1="7.075" y1="43.5502" x2="24.6543" y2="43.5502">
			<stop  offset="0" style="stop-color:#009688"/>
			<stop  offset="0.9944" style="stop-color:#3F51B5"/>
		</linearGradient>
		<path class="st4" d="M24.6,58.1c0.3,0.5,0,0.8-0.5,0.8H8c-0.5,0-0.9-0.4-0.9-0.9c0,0,1-21.7,1-22.5c0,0,0-1.7,0-1.9
			c0-0.3,0-0.3,0-0.3c0-0.3,0.4-0.8,0.9-1l10.5-4c0.5-0.2,0.8,0.1,0.7,0.6c0,0-1.6,7.7-0.8,14.1C20.3,50.2,24.6,58.1,24.6,58.1z"/>
	</g>
</g>
</svg>
