<?xml version="1.0" encoding="utf-8"?>
<!-- Generator: Adobe Illustrator 22.0.0, SVG Export Plug-In . SVG Version: 6.00 Build 0)  -->
<svg version="1.1" id="Layer_1" xmlns="http://www.w3.org/2000/svg" xmlns:xlink="http://www.w3.org/1999/xlink" x="0px" y="0px"
	 viewBox="0 0 60 60" style="enable-background:new 0 0 60 60;" xml:space="preserve">
<style type="text/css">
	.st0{enable-background:new    ;}
	.st1{fill:#160C0C;}
	.st2{clip-path:url(#SVGID_2_);}
	.st3{fill:url(#SVGID_3_);}
	.st4{fill:url(#SVGID_4_);}
	.st5{fill:url(#SVGID_5_);}
	.st6{fill:url(#SVGID_6_);}
	.st7{fill:none;}
	.st8{fill:#FFFFFF;}
	.st9{clip-path:url(#XMLID_4_);}
	.st10{fill:url(#SVGID_7_);}
	.st11{fill:url(#SVGID_8_);}
	.st12{fill:url(#SVGID_9_);}
	.st13{opacity:5.000000e-02;fill:url(#SVGID_10_);}
	.st14{opacity:5.000000e-02;fill:url(#SVGID_11_);}
	.st15{opacity:5.000000e-02;fill:url(#SVGID_12_);}
	.st16{fill:url(#SVGID_13_);}
	.st17{fill:url(#SVGID_14_);}
	.st18{fill:#FFFFFF;stroke:#FFFFFF;stroke-miterlimit:10;}
</style>
<g>
	<g class="st0">
		<g>
			<path class="st1" d="M2.1,19.6C1.3,20,1,21.2,1.3,22.1l7.9,23.3c0.3,1,1.2,1.4,2,1l27.3-15.7c0.8-0.4,1.1-1.6,0.8-2.5L31.3,4.8
				c-0.3-1-1.2-1.4-2-1L2.1,19.6z"/>
			<g class="st0">
				<defs>
					<path id="SVGID_1_" class="st0" d="M2.1,19.6C1.3,20,1,21.2,1.3,22.1l7.9,23.3c0.3,1,1.2,1.4,2,1l27.3-15.7
						c0.8-0.4,1.1-1.6,0.8-2.5L31.3,4.8c-0.3-1-1.2-1.4-2-1L2.1,19.6z"/>
				</defs>
				<clipPath id="SVGID_2_">
					<use xlink:href="#SVGID_1_"  style="overflow:visible;"/>
				</clipPath>
				<g class="st2">
					<linearGradient id="SVGID_3_" gradientUnits="userSpaceOnUse" x1="4.0368" y1="15.7929" x2="36.4542" y2="34.5091">
						<stop  offset="0" style="stop-color:#5D278F"/>
						<stop  offset="1" style="stop-color:#292376"/>
					</linearGradient>
					<path class="st3" d="M2.1,19.6C1.3,20,1,21.2,1.3,22.1l7.9,23.3c0.3,1,1.2,1.4,2,1l27.3-15.7c0.8-0.4,1.1-1.6,0.8-2.5L31.3,4.8
						c-0.3-1-1.2-1.4-2-1L2.1,19.6"/>
				</g>
			</g>
		</g>
		<linearGradient id="SVGID_4_" gradientUnits="userSpaceOnUse" x1="30.789" y1="25.14" x2="-1.3405" y2="25.14">
			<stop  offset="0" style="stop-color:#DBF9EA"/>
			<stop  offset="1" style="stop-color:#C0DDE2"/>
		</linearGradient>
		<path class="st4" d="M2.1,19.6L29.3,3.9c0.2-0.1,0.4-0.2,0.6-0.2l-1,0c-0.2,0-0.4,0-0.6,0.2L1.1,19.6C0.3,20,0,21.2,0.3,22.1
			l7.9,23.3c0.2,0.7,0.8,1.1,1.3,1.1l1,0c-0.6,0-1.1-0.4-1.3-1.1L1.3,22.1C1,21.2,1.3,20,2.1,19.6z"/>
	</g>
	<linearGradient id="SVGID_5_" gradientUnits="userSpaceOnUse" x1="2.6644" y1="25.1511" x2="37.8261" y2="25.1511">
		<stop  offset="0" style="stop-color:#009688"/>
		<stop  offset="0.9944" style="stop-color:#3F51B5"/>
	</linearGradient>
	<polyline class="st5" points="2.7,21.6 30,5.8 37.8,28.7 10.5,44.5 2.7,21.6 	"/>
	<linearGradient id="SVGID_6_" gradientUnits="userSpaceOnUse" x1="10.7249" y1="44.2891" x2="59.8306" y2="44.2891">
		<stop  offset="0" style="stop-color:#DBF9EA"/>
		<stop  offset="1" style="stop-color:#C0DDE2"/>
	</linearGradient>
	<path class="st6" d="M11.3,46.1c-0.8,0.4-0.8,1.1,0,1.6l18,10.5c0.7,0.4,2,0.4,2.7,0l27.3-15.7c0.8-0.4,0.8-1.1,0-1.6l-18-10.5
		c-0.7-0.4-2-0.4-2.7,0L11.3,46.1z"/>
	<path class="st7" d="M11.3,46.1c-0.8,0.4-0.8,1.1,0,1.6l18,10.5c0.7,0.4,2,0.4,2.7,0l27.3-15.7c0.8-0.4,0.8-1.1,0-1.6l-18-10.5
		c-0.7-0.4-2-0.4-2.7,0L11.3,46.1z"/>
	<path class="st8" d="M11.3,46.1c-0.8,0.4-0.8,1.1,0,1.6l18,10.5c0.7,0.4,2,0.4,2.7,0l27.3-15.7c0.8-0.4,0.8-1.1,0-1.6l-18-10.5
		c-0.7-0.4-2-0.4-2.7,0L11.3,46.1"/>
	<g>
		<defs>
			<path id="XMLID_3_" d="M23.3,52.5l-8-4.7c-0.1-0.1-0.2-0.2-0.2-0.3c0-0.1,0.1-0.2,0.2-0.3l25.2-14.6c0.2-0.1,0.5-0.1,0.7,0l8,4.7
				c0.1,0.1,0.2,0.2,0.2,0.3c0,0.1-0.1,0.2-0.2,0.3L24,52.5c-0.1,0.1-0.2,0.1-0.4,0.1S23.4,52.6,23.3,52.5z"/>
		</defs>
		<linearGradient id="XMLID_2_" gradientUnits="userSpaceOnUse" x1="49.4797" y1="40.8954" x2="12.597" y2="44.524">
			<stop  offset="0" style="stop-color:#009688"/>
			<stop  offset="0.9944" style="stop-color:#3F51B5"/>
		</linearGradient>
		<use xlink:href="#XMLID_3_"  style="overflow:visible;fill:url(#XMLID_2_);"/>
		<clipPath id="XMLID_4_">
			<use xlink:href="#XMLID_3_"  style="overflow:visible;"/>
		</clipPath>
		<g class="st9">
			<g class="st0">
				<g>
					<linearGradient id="SVGID_7_" gradientUnits="userSpaceOnUse" x1="15.2776" y1="42.3565" x2="49.2505" y2="42.3565">
						<stop  offset="0" style="stop-color:#009688"/>
						<stop  offset="0.9944" style="stop-color:#3F51B5"/>
					</linearGradient>
					<path class="st10" d="M15.4,47.1c-0.1,0.1-0.1,0.2,0,0.3l8,4.7c0.1,0.1,0.4,0.1,0.5,0l25.2-14.6c0.1-0.1,0.1-0.2,0-0.3l-8-4.7
						c-0.1-0.1-0.4-0.1-0.5,0L15.4,47.1z"/>
				</g>
				<linearGradient id="SVGID_8_" gradientUnits="userSpaceOnUse" x1="49.5754" y1="40.9564" x2="18.3728" y2="50.3876">
					<stop  offset="0" style="stop-color:#009688"/>
					<stop  offset="0.9944" style="stop-color:#3F51B5"/>
				</linearGradient>
				<path class="st11" d="M49.3,37.4c0,0.1,0,0.1-0.1,0.2L23.9,52.1c-0.1,0.1-0.4,0.1-0.5,0l-8-4.7c-0.1,0-0.1-0.1-0.1-0.1l0,0.6
					c0,0.1,0,0.1,0.1,0.1l8,4.7c0.1,0.1,0.4,0.1,0.5,0l25.2-14.6c0.1,0,0.1-0.1,0.1-0.2L49.3,37.4z"/>
			</g>
		</g>
	</g>
	<linearGradient id="SVGID_9_" gradientUnits="userSpaceOnUse" x1="58.0721" y1="50.8252" x2="11.2165" y2="50.8252">
		<stop  offset="0" style="stop-color:#DBF9EA"/>
		<stop  offset="1" style="stop-color:#C0DDE2"/>
	</linearGradient>
	<path class="st12" d="M11.3,47.7l18,10.5c0.7,0.4,2,0.4,2.7,0l27.3-15.7c0.4-0.2,0.6-0.5,0.6-0.8l0,1.5c0,0.3-0.2,0.6-0.6,0.8
		L32,59.7c-0.8,0.4-2,0.4-2.7,0l-18-10.5c-0.4-0.2-0.6-0.5-0.6-0.8l0-1.5C10.7,47.2,10.9,47.5,11.3,47.7z"/>
	<linearGradient id="SVGID_10_" gradientUnits="userSpaceOnUse" x1="31.1731" y1="47.717" x2="51.1521" y2="47.717">
		<stop  offset="0" style="stop-color:#5D278F"/>
		<stop  offset="1" style="stop-color:#292376"/>
	</linearGradient>
	<path class="st13" d="M31.4,49.1l12.2-7.1c0.3-0.2,0.8-0.2,1,0l6.3,3.6c0.3,0.2,0.3,0.4,0,0.6l-12.2,7.1c-0.3,0.2-0.8,0.2-1,0
		l-6.3-3.6C31.1,49.6,31.1,49.3,31.4,49.1"/>
	<linearGradient id="SVGID_11_" gradientUnits="userSpaceOnUse" x1="24.9383" y1="23.7398" x2="43.5558" y2="33.171">
		<stop  offset="0" style="stop-color:#5D278F"/>
		<stop  offset="1" style="stop-color:#292376"/>
	</linearGradient>
	<path class="st14" d="M50.7,36.9l-0.5,0.3c-0.1,0.1-0.4,0.1-0.5,0l-9.5-5.5c-0.1-0.1-0.1-0.2,0-0.3l0.5-0.3c0.1-0.1,0.4-0.1,0.5,0
		l9.5,5.5C50.9,36.7,50.9,36.8,50.7,36.9"/>
	<linearGradient id="SVGID_12_" gradientUnits="userSpaceOnUse" x1="12.7829" y1="47.735" x2="31.4003" y2="57.1662">
		<stop  offset="0" style="stop-color:#5D278F"/>
		<stop  offset="1" style="stop-color:#292376"/>
	</linearGradient>
	<path class="st15" d="M12.3,47.4l0.5-0.3c0.1-0.1,0.4-0.1,0.5,0l9.5,5.5c0.1,0.1,0.1,0.2,0,0.3l-0.5,0.3c-0.1,0.1-0.4,0.1-0.5,0
		l-9.5-5.5C12.2,47.6,12.2,47.5,12.3,47.4"/>
	<linearGradient id="SVGID_13_" gradientUnits="userSpaceOnUse" x1="13.771" y1="39.529" x2="40.232" y2="39.529">
		<stop  offset="0" style="stop-color:#009688"/>
		<stop  offset="0.9944" style="stop-color:#3F51B5"/>
	</linearGradient>
	<path class="st16" d="M13.9,46.5L39.1,32c0.1-0.1,0.4-0.1,0.5,0l0.5,0.3c0.1,0.1,0.1,0.2,0,0.3L14.9,47.1c-0.1,0.1-0.4,0.1-0.5,0
		l-0.5-0.3C13.7,46.7,13.7,46.6,13.9,46.5"/>
	<g>
		<linearGradient id="SVGID_14_" gradientUnits="userSpaceOnUse" x1="4.0012" y1="15.8546" x2="20.7284" y2="25.512">
			<stop  offset="0" style="stop-color:#FFFFFF;stop-opacity:0.25"/>
			<stop  offset="1" style="stop-color:#DBF9EA;stop-opacity:0"/>
		</linearGradient>
		<path class="st17" d="M29.3,3.9L2.1,19.6C1.3,20,1,21.2,1.3,22.1l7.9,23.3L29.3,3.9z"/>
	</g>
	<path class="st18" d="M13,34.8c-0.2-3.3,0-6.8,1.8-7.6c1.7-0.7,3.8,1.6,4.9,0.7c1.7-1.2-1.3-7.6-0.3-8.2c0.9-0.5,4.3,5.8,6.5,5.2
		c2-0.5,1.6-6.1,3.1-6.4c0.8-0.1,1.9,1.1,3.6,5.3L13,34.8z"/>
</g>
</svg>
