<?xml version="1.0" encoding="utf-8"?>
<!-- Generator: Adobe Illustrator 22.0.0, SVG Export Plug-In . SVG Version: 6.00 Build 0)  -->
<svg version="1.1" id="Layer_1" xmlns="http://www.w3.org/2000/svg" xmlns:xlink="http://www.w3.org/1999/xlink" x="0px" y="0px"
	 viewBox="0 0 60 60" style="enable-background:new 0 0 60 60;" xml:space="preserve">
<style type="text/css">
	.st0{fill:url(#SVGID_1_);}
	.st1{fill:url(#SVGID_2_);}
	.st2{fill:#F2F2F2;}
	.st3{enable-background:new    ;}
	.st4{clip-path:url(#SVGID_4_);}
	.st5{fill:#FFFFFF;}
</style>
<g>
	<g>
		<linearGradient id="SVGID_1_" gradientUnits="userSpaceOnUse" x1="1.506860e-03" y1="41.4299" x2="60" y2="41.4299">
			<stop  offset="0" style="stop-color:#009688"/>
			<stop  offset="0.9944" style="stop-color:#3F51B5"/>
		</linearGradient>
		<path class="st0" d="M59.4,38.6c0.8,0.4,0.8,1.1,0,1.6L27.9,58.5c-0.8,0.4-2,0.4-2.7,0L0.6,44.3c-0.8-0.4-0.8-1.1,0-1.6l31.5-18.3
			c0.8-0.4,2-0.4,2.7,0L59.4,38.6z"/>
	</g>
	<linearGradient id="SVGID_2_" gradientUnits="userSpaceOnUse" x1="9.094947e-13" y1="49.3577" x2="60" y2="49.3577">
		<stop  offset="0" style="stop-color:#C0DDE2"/>
		<stop  offset="1" style="stop-color:#DBF9EA"/>
	</linearGradient>
	<path class="st1" d="M59.4,40.2L27.9,58.5c-0.8,0.4-2,0.4-2.7,0L0.6,44.3C0.2,44.1,0,43.8,0,43.5L0,44c0,0.3,0.2,0.6,0.6,0.8
		L25.2,59c0.8,0.4,2,0.4,2.7,0l31.5-18.3c0.4-0.2,0.6-0.5,0.6-0.8l0-0.5C60,39.7,59.8,39.9,59.4,40.2z"/>
	<g>
		<path class="st2" d="M21.4,43.3c0.2,0.1,0.2,0.3,0,0.4l-7.5,4.4c-0.2,0.1-0.5,0.1-0.7,0l-5.9-3.4c-0.2-0.1-0.2-0.3,0-0.4l7.5-4.4
			c0.2-0.1,0.5-0.1,0.7,0L21.4,43.3z"/>
	</g>
	<g>
		<g>
			<g class="st3">
				<defs>
					<polygon id="SVGID_3_" class="st3" points="19.7,51.8 19.7,37.9 47.7,33.9 47.7,47.9 					"/>
				</defs>
				<clipPath id="SVGID_4_">
					<use xlink:href="#SVGID_3_"  style="overflow:visible;"/>
				</clipPath>
				<g class="st4">
					<g>
						<g>
							<g>
								<path class="st5" d="M47,34l-0.3,0.2l-0.1,0.5c0,0.1,0,0.3-0.1,0.4l0,0c-0.1-0.1-0.2-0.1-0.3-0.2l-0.4-0.2l-0.3,0.2l0.9,0.5
									l-0.2,1.1l0.3-0.2l0.1-0.5c0-0.1,0-0.2,0.1-0.4l0,0c0.1,0.1,0.2,0.1,0.3,0.2l0.4,0.2l0.3-0.2l-0.9-0.5L47,34"/>
								<path class="st5" d="M45.4,34.9l-0.3,0.2L45,35.7c0,0.1,0,0.3-0.1,0.4c-0.1-0.1-0.2-0.1-0.3-0.2l-0.4-0.2l-0.3,0.2l0.9,0.5
									l-0.2,1.1l0.3-0.2l0.1-0.5c0-0.1,0-0.2,0.1-0.4l0,0c0.1,0.1,0.2,0.1,0.3,0.2l0.4,0.2l0.3-0.2l-0.9-0.5L45.4,34.9"/>
								<path class="st5" d="M43.9,35.9l-0.3,0.2l-0.1,0.5c0,0.1,0,0.3-0.1,0.4l0,0c-0.1-0.1-0.2-0.1-0.3-0.2l-0.4-0.2l-0.3,0.2
									l0.9,0.5l-0.2,1.1l0.3-0.2l0.1-0.5c0-0.1,0-0.2,0.1-0.4l0,0c0.1,0.1,0.2,0.1,0.3,0.2l0.4,0.2l0.3-0.2l-0.9-0.5L43.9,35.9"/>
								<path class="st5" d="M42.3,36.8L42,37l-0.1,0.5c0,0.1,0,0.3-0.1,0.4l0,0c-0.1-0.1-0.2-0.1-0.3-0.2l-0.4-0.2l-0.3,0.2
									l0.9,0.5l-0.2,1.1l0.3-0.2l0.1-0.5c0-0.1,0-0.2,0.1-0.4l0,0c0.1,0.1,0.2,0.1,0.3,0.2l0.4,0.2l0.3-0.2L42.1,38L42.3,36.8"/>
								<path class="st5" d="M40,38.1l-0.3,0.2l-0.1,0.5c0,0.1,0,0.3-0.1,0.4l0,0c-0.1-0.1-0.2-0.1-0.3-0.2l-0.4-0.2L38.5,39
									l0.9,0.5l-0.2,1.1l0.3-0.2l0.1-0.5c0-0.1,0-0.2,0.1-0.4l0,0c0.1,0.1,0.2,0.1,0.3,0.2l0.4,0.2l0.3-0.2l-0.9-0.5L40,38.1"/>
								<path class="st5" d="M38.4,39.1l-0.3,0.2L38,39.8c0,0.1,0,0.3-0.1,0.4l0,0c-0.1-0.1-0.2-0.1-0.3-0.2l-0.4-0.2l-0.3,0.2
									l0.9,0.5l-0.2,1.1l0.3-0.2l0.1-0.5c0-0.1,0-0.2,0.1-0.4l0,0c0.1,0.1,0.2,0.1,0.3,0.2l0.4,0.2l0.3-0.2l-0.9-0.5L38.4,39.1"/>
								<path class="st5" d="M36.8,40l-0.3,0.2l-0.1,0.5c0,0.1,0,0.3-0.1,0.4l0,0c-0.1-0.1-0.2-0.1-0.3-0.2l-0.4-0.2l-0.3,0.2
									l0.9,0.5L36,42.5l0.3-0.2l0.1-0.5c0-0.1,0-0.2,0-0.4l0,0c0.1,0.1,0.2,0.1,0.3,0.2l0.4,0.2l0.3-0.2l-0.9-0.5L36.8,40"/>
								<path class="st5" d="M35.3,40.9l-0.3,0.2l-0.1,0.5c0,0.1,0,0.3-0.1,0.4l0,0c-0.1-0.1-0.2-0.1-0.3-0.2l-0.4-0.2l-0.3,0.2
									l0.9,0.5l-0.2,1.1l0.3-0.2l0.1-0.5c0-0.1,0-0.2,0-0.4l0,0c0.1,0.1,0.2,0.1,0.3,0.2l0.4,0.2l0.3-0.2L35,42.1L35.3,40.9"/>
								<path class="st5" d="M33,42.3l-0.3,0.2L32.5,43c0,0.1,0,0.3-0.1,0.4l0,0c-0.1-0.1-0.2-0.1-0.3-0.2l-0.4-0.2l-0.3,0.2
									l0.9,0.5l-0.2,1.1l0.3-0.2l0.1-0.5c0-0.1,0-0.2,0-0.4l0,0c0.1,0.1,0.2,0.1,0.3,0.2l0.4,0.2l0.3-0.2l-0.9-0.5L33,42.3"/>
								<path class="st5" d="M31.4,43.2L31,43.4L31,43.9c0,0.1,0,0.3-0.1,0.4l0,0c-0.1-0.1-0.2-0.1-0.3-0.2l-0.4-0.2l-0.3,0.2
									l0.9,0.5l-0.2,1.1l0.3-0.2L31,45c0-0.1,0-0.2,0-0.4l0,0c0.1,0.1,0.2,0.1,0.3,0.2l0.4,0.2l0.3-0.2l-0.9-0.5L31.4,43.2"/>
								<path class="st5" d="M29.8,44.1l-0.3,0.2l-0.1,0.5c0,0.1,0,0.3-0.1,0.4l0,0c-0.1-0.1-0.2-0.1-0.3-0.2l-0.4-0.2L28.3,45
									l0.9,0.5L29,46.7l0.3-0.2l0.1-0.5c0-0.1,0-0.2,0-0.4l0,0c0.1,0.1,0.2,0.1,0.3,0.2l0.4,0.2l0.3-0.2l-0.9-0.5L29.8,44.1"/>
								<path class="st5" d="M28.2,45l-0.3,0.2l-0.1,0.5c0,0.1,0,0.3-0.1,0.4l0,0c-0.1-0.1-0.2-0.1-0.3-0.2L27,45.7l-0.3,0.2
									l0.9,0.5l-0.2,1.1l0.3-0.2l0.1-0.5c0-0.1,0-0.2,0-0.4l0,0c0.1,0.1,0.2,0.1,0.3,0.2l0.4,0.2l0.3-0.2L28,46.2L28.2,45"/>
								<path class="st5" d="M25.9,46.4l-0.3,0.2l-0.1,0.5c0,0.1,0,0.3-0.1,0.4l0,0c-0.1-0.1-0.2-0.1-0.3-0.2l-0.4-0.2l-0.3,0.2
									l0.9,0.5l-0.2,1.1l0.3-0.2l0.1-0.5c0-0.1,0-0.2,0-0.4l0,0c0.1,0.1,0.2,0.1,0.3,0.2l0.4,0.2l0.3-0.2l-0.9-0.5L25.9,46.4"/>
								<path class="st5" d="M24.3,47.3L24,47.5L23.9,48c0,0.1,0,0.3-0.1,0.4l0,0c-0.1-0.1-0.2-0.1-0.3-0.2L23.2,48l-0.3,0.2
									l0.9,0.5l-0.2,1.1l0.3-0.2l0.1-0.5c0-0.1,0-0.2,0-0.4l0,0c0.1,0.1,0.2,0.1,0.3,0.2l0.4,0.2L25,49l-0.9-0.5L24.3,47.3"/>
								<path class="st5" d="M22.8,48.2l-0.3,0.2l-0.1,0.5c0,0.1,0,0.3-0.1,0.4l0,0c-0.1-0.1-0.2-0.1-0.3-0.2l-0.4-0.2l-0.3,0.2
									l0.9,0.5l-0.2,1.1l0.3-0.2l0.1-0.5c0-0.1,0-0.2,0.1-0.4l0,0c0.1,0.1,0.2,0.1,0.3,0.2l0.4,0.2l0.3-0.2l-0.9-0.5L22.8,48.2"/>
								<path class="st5" d="M21.2,49.1l-0.3,0.2l-0.1,0.5c0,0.1,0,0.3-0.1,0.4l0,0c-0.1-0.1-0.2-0.1-0.3-0.2L20,49.8L19.7,50
									l0.9,0.5l-0.2,1.1l0.3-0.2l0.1-0.5c0-0.1,0-0.2,0.1-0.4l0,0c0.1,0.1,0.2,0.1,0.3,0.2l0.4,0.2l0.3-0.2l-0.9-0.5L21.2,49.1"/>
							</g>
						</g>
					</g>
				</g>
			</g>
		</g>
	</g>
	<g>
		<path class="st5" d="M22.9,34.9c-0.5,0.3-0.5,0.7,0,0.9l0.2,0.1c0.5,0.3,1.3,0.3,1.8,0l9.5-5.1c0.5-0.3,0.5-0.7,0-1l0,0
			c-0.5-0.3-1.2-0.3-1.7-0.1L22.9,34.9z"/>
	</g>
	<g>
		<path class="st5" d="M28,35.9c-0.5,0.3-0.5,0.7,0,0.9c0.5,0.3,1.2,0.2,1.7,0l7.7-4.2c0.5-0.3,0.5-0.7,0.1-0.9
			c-0.4-0.3-1.1-0.2-1.6,0L28,35.9z"/>
	</g>
	<g>
		<path class="st5" d="M29.9,51.3c-0.5,0.3-0.5,0.7,0,0.9l0.2,0.1c0.5,0.3,1.3,0.3,1.8,0l9.5-5.1c0.5-0.3,0.5-0.7,0-1l0,0
			c-0.5-0.3-1.2-0.3-1.7-0.1L29.9,51.3z"/>
	</g>
	<g>
		<path class="st5" d="M43,43.9c-0.5,0.3-0.5,0.7,0,0.9c0.5,0.3,1.2,0.2,1.7,0l7.7-4.2c0.5-0.3,0.5-0.7,0.1-0.9
			c-0.4-0.3-1.1-0.2-1.6,0L43,43.9z"/>
	</g>
</g>
</svg>
