<?xml version="1.0" encoding="utf-8"?>
<!-- Generator: Adobe Illustrator 22.0.0, SVG Export Plug-In . SVG Version: 6.00 Build 0)  -->
<svg version="1.1" id="Layer_1" xmlns="http://www.w3.org/2000/svg" xmlns:xlink="http://www.w3.org/1999/xlink" x="0px" y="0px"
	 viewBox="0 0 60 60" style="enable-background:new 0 0 60 60;" xml:space="preserve">
<style type="text/css">
	.st0{fill:none;stroke:url(#SVGID_1_);stroke-miterlimit:10;}
	.st1{fill:none;stroke:url(#SVGID_2_);stroke-miterlimit:10;}
	.st2{fill:none;stroke:url(#SVGID_3_);stroke-miterlimit:10;}
	.st3{fill:none;stroke:url(#SVGID_4_);stroke-miterlimit:10;}
	.st4{fill:none;stroke:url(#SVGID_5_);stroke-miterlimit:10;}
	.st5{fill:none;stroke:url(#SVGID_6_);stroke-miterlimit:10;}
	.st6{fill:none;stroke:url(#SVGID_7_);stroke-miterlimit:10;}
	.st7{fill:url(#SVGID_8_);}
	.st8{fill:url(#SVGID_9_);}
	.st9{fill:url(#SVGID_10_);}
	.st10{fill:url(#SVGID_11_);}
	.st11{fill:url(#SVGID_12_);}
	.st12{fill:url(#SVGID_13_);}
	.st13{fill:url(#SVGID_14_);}
	.st14{fill:url(#SVGID_15_);}
	.st15{fill:url(#SVGID_16_);}
	.st16{fill:url(#SVGID_17_);}
	.st17{fill:url(#SVGID_18_);}
	.st18{fill:url(#SVGID_19_);}
	.st19{fill:url(#SVGID_20_);}
	.st20{fill:url(#SVGID_21_);}
</style>
<g>
	<g>
		<linearGradient id="SVGID_1_" gradientUnits="userSpaceOnUse" x1="4.1977" y1="29.4206" x2="11.4436" y2="29.4206">
			<stop  offset="5.618000e-03" style="stop-color:#3F51B5"/>
			<stop  offset="1" style="stop-color:#009688"/>
		</linearGradient>
		<path class="st0" d="M11.1,33.5l-6.5-8.1L11.1,33.5z"/>
	</g>
	<g>
		<linearGradient id="SVGID_2_" gradientUnits="userSpaceOnUse" x1="40.2557" y1="50.1749" x2="57.2168" y2="50.1749">
			<stop  offset="5.618000e-03" style="stop-color:#3F51B5"/>
			<stop  offset="1" style="stop-color:#009688"/>
		</linearGradient>
		<polyline class="st1" points="45,57.7 41,43.2 57.1,46.4 		"/>
	</g>
	<g>
		<linearGradient id="SVGID_3_" gradientUnits="userSpaceOnUse" x1="2.7194" y1="41.7183" x2="19.5761" y2="41.7183">
			<stop  offset="5.618000e-03" style="stop-color:#3F51B5"/>
			<stop  offset="1" style="stop-color:#009688"/>
		</linearGradient>
		<polyline class="st2" points="19.1,48 12.7,35.9 3,41.5 		"/>
	</g>
	<g>
		<linearGradient id="SVGID_4_" gradientUnits="userSpaceOnUse" x1="28.6352" y1="20.488" x2="38.5083" y2="20.488">
			<stop  offset="5.618000e-03" style="stop-color:#3F51B5"/>
			<stop  offset="1" style="stop-color:#009688"/>
		</linearGradient>
		<polyline class="st3" points="34.9,31 29.2,20.5 38.1,10 		"/>
	</g>
	<g>
		<linearGradient id="SVGID_5_" gradientUnits="userSpaceOnUse" x1="18.0492" y1="16.9362" x2="44.5921" y2="16.9362">
			<stop  offset="0" style="stop-color:#009688"/>
			<stop  offset="0.9944" style="stop-color:#3F51B5"/>
		</linearGradient>
		<polyline class="st4" points="44.6,20.5 29.2,20.5 18.3,13.3 		"/>
	</g>
	<g>
		<linearGradient id="SVGID_6_" gradientUnits="userSpaceOnUse" x1="11.5957" y1="35.0032" x2="41.7925" y2="35.0032">
			<stop  offset="5.618000e-03" style="stop-color:#3F51B5"/>
			<stop  offset="1" style="stop-color:#009688"/>
		</linearGradient>
		<path class="st5" d="M29.6,21.2c-5.6,4.9-11.3,9.8-16.9,14.7c9.4,2.1,18.8,4.2,28.1,6.4c-2.1,2.2-4.2,4.4-6.3,6.6"/>
	</g>
	<g>
		<linearGradient id="SVGID_7_" gradientUnits="userSpaceOnUse" x1="40.2337" y1="40.8026" x2="46.9299" y2="40.8026">
			<stop  offset="0" style="stop-color:#009688"/>
			<stop  offset="0.9944" style="stop-color:#3F51B5"/>
		</linearGradient>
		<line class="st6" x1="40.6" y1="43.3" x2="46.6" y2="38.3"/>
	</g>
	<g>
		<linearGradient id="SVGID_8_" gradientUnits="userSpaceOnUse" x1="8.4521" y1="35.7511" x2="17.6954" y2="35.7511">
			<stop  offset="0" style="stop-color:#009688"/>
			<stop  offset="0.9944" style="stop-color:#3F51B5"/>
		</linearGradient>
		<path class="st7" d="M13.1,40.5c6.2,0,6.2-9.6,0-9.6C6.9,31,6.9,40.5,13.1,40.5z"/>
	</g>
	<g>
		<linearGradient id="SVGID_9_" gradientUnits="userSpaceOnUse" x1="24.7502" y1="20.6654" x2="33.9933" y2="20.6654">
			<stop  offset="0" style="stop-color:#009688"/>
			<stop  offset="0.9944" style="stop-color:#3F51B5"/>
		</linearGradient>
		<path class="st8" d="M29.4,25.4c6.2,0,6.2-9.6,0-9.6C23.2,15.9,23.2,25.4,29.4,25.4z"/>
	</g>
	<g>
		<linearGradient id="SVGID_10_" gradientUnits="userSpaceOnUse" x1="35.9297" y1="43.2945" x2="45.173" y2="43.2945">
			<stop  offset="0" style="stop-color:#009688"/>
			<stop  offset="0.9944" style="stop-color:#3F51B5"/>
		</linearGradient>
		<path class="st9" d="M40.6,48.1c6.2,0,6.2-9.6,0-9.6C34.4,38.5,34.4,48.1,40.6,48.1z"/>
	</g>
	<g>
		<linearGradient id="SVGID_11_" gradientUnits="userSpaceOnUse" x1="54.4163" y1="46.2575" x2="59.5515" y2="46.2575">
			<stop  offset="0" style="stop-color:#009688"/>
			<stop  offset="0.9944" style="stop-color:#3F51B5"/>
		</linearGradient>
		<path class="st10" d="M57,48.9c3.4,0,3.4-5.3,0-5.3C53.6,43.6,53.6,48.9,57,48.9z"/>
	</g>
	<g>
		<linearGradient id="SVGID_12_" gradientUnits="userSpaceOnUse" x1="15.7591" y1="12.8787" x2="20.8944" y2="12.8787">
			<stop  offset="0" style="stop-color:#009688"/>
			<stop  offset="0.9944" style="stop-color:#3F51B5"/>
		</linearGradient>
		<path class="st11" d="M18.3,15.5c3.4,0,3.4-5.3,0-5.3C14.9,10.2,14.9,15.5,18.3,15.5z"/>
	</g>
	<g>
		<linearGradient id="SVGID_13_" gradientUnits="userSpaceOnUse" x1="1.8857" y1="24.9757" x2="7.0207" y2="24.9757">
			<stop  offset="0" style="stop-color:#009688"/>
			<stop  offset="0.9944" style="stop-color:#3F51B5"/>
		</linearGradient>
		<path class="st12" d="M4.5,27.6c3.4,0,3.4-5.3,0-5.3C1,22.3,1,27.6,4.5,27.6z"/>
	</g>
	<g>
		<linearGradient id="SVGID_14_" gradientUnits="userSpaceOnUse" x1="0" y1="41.6777" x2="5.135" y2="41.6777">
			<stop  offset="0" style="stop-color:#009688"/>
			<stop  offset="0.9944" style="stop-color:#3F51B5"/>
		</linearGradient>
		<path class="st13" d="M2.6,44.3C6,44.3,6,39,2.6,39C-0.9,39-0.9,44.3,2.6,44.3z"/>
	</g>
	<g>
		<linearGradient id="SVGID_15_" gradientUnits="userSpaceOnUse" x1="42.0755" y1="57.3024" x2="47.2108" y2="57.3024">
			<stop  offset="0" style="stop-color:#009688"/>
			<stop  offset="0.9944" style="stop-color:#3F51B5"/>
		</linearGradient>
		<path class="st14" d="M44.6,60c3.4,0,3.4-5.3,0-5.3C41.2,54.6,41.2,60,44.6,60z"/>
	</g>
	<g>
		<linearGradient id="SVGID_16_" gradientUnits="userSpaceOnUse" x1="43.9104" y1="37.9063" x2="49.0452" y2="37.9063">
			<stop  offset="0" style="stop-color:#009688"/>
			<stop  offset="0.9944" style="stop-color:#3F51B5"/>
		</linearGradient>
		<path class="st15" d="M46.5,40.6c3.4,0,3.4-5.3,0-5.3C43.1,35.2,43.1,40.6,46.5,40.6z"/>
	</g>
	<g>
		<linearGradient id="SVGID_17_" gradientUnits="userSpaceOnUse" x1="35.1552" y1="10.1595" x2="40.2902" y2="10.1595">
			<stop  offset="0" style="stop-color:#009688"/>
			<stop  offset="0.9944" style="stop-color:#3F51B5"/>
		</linearGradient>
		<path class="st16" d="M37.7,12.8c3.4,0,3.4-5.3,0-5.3C34.3,7.5,34.3,12.8,37.7,12.8z"/>
	</g>
	<g>
		<linearGradient id="SVGID_18_" gradientUnits="userSpaceOnUse" x1="16.529" y1="48.1433" x2="21.6642" y2="48.1433">
			<stop  offset="0" style="stop-color:#009688"/>
			<stop  offset="0.9944" style="stop-color:#3F51B5"/>
		</linearGradient>
		<path class="st17" d="M19.1,50.8c3.4,0,3.4-5.3,0-5.3C15.7,45.5,15.7,50.8,19.1,50.8z"/>
	</g>
	<g>
		<linearGradient id="SVGID_19_" gradientUnits="userSpaceOnUse" x1="42.1592" y1="20.6654" x2="47.2944" y2="20.6654">
			<stop  offset="0" style="stop-color:#009688"/>
			<stop  offset="0.9944" style="stop-color:#3F51B5"/>
		</linearGradient>
		<path class="st18" d="M44.7,23.3c3.4,0,3.4-5.3,0-5.3C41.3,18,41.3,23.3,44.7,23.3z"/>
	</g>
	<g>
		<linearGradient id="SVGID_20_" gradientUnits="userSpaceOnUse" x1="32.4102" y1="30.9024" x2="37.5452" y2="30.9024">
			<stop  offset="0" style="stop-color:#009688"/>
			<stop  offset="0.9944" style="stop-color:#3F51B5"/>
		</linearGradient>
		<path class="st19" d="M35,33.6c3.4,0,3.4-5.3,0-5.3C31.6,28.2,31.6,33.6,35,33.6z"/>
	</g>
	<g>
		<linearGradient id="SVGID_21_" gradientUnits="userSpaceOnUse" x1="31.5184" y1="49.2206" x2="36.6536" y2="49.2206">
			<stop  offset="0" style="stop-color:#009688"/>
			<stop  offset="0.9944" style="stop-color:#3F51B5"/>
		</linearGradient>
		<path class="st20" d="M34.1,51.9c3.4,0,3.4-5.3,0-5.3C30.7,46.6,30.7,51.9,34.1,51.9z"/>
	</g>
</g>
</svg>
