<?xml version="1.0" encoding="utf-8"?>
<!-- Generator: Adobe Illustrator 22.0.0, SVG Export Plug-In . SVG Version: 6.00 Build 0)  -->
<svg version="1.1" id="Layer_1" xmlns="http://www.w3.org/2000/svg" xmlns:xlink="http://www.w3.org/1999/xlink" x="0px" y="0px"
	 viewBox="0 0 170 385" style="enable-background:new 0 0 170 385;" xml:space="preserve">
<style type="text/css">
	.st0{fill:url(#SVGID_1_);}
	.st1{fill:none;stroke:#FFFFFF;stroke-width:0.75;stroke-miterlimit:10;}
	.st2{fill:url(#SVGID_2_);}
	.st3{fill:none;stroke:#FFFFFF;stroke-miterlimit:10;}
	.st4{fill:#FFFFFF;}
	.st5{fill:none;stroke:#FFFFFF;stroke-width:0.5;stroke-miterlimit:10;}
</style>
<g>
	<g>
		<linearGradient id="SVGID_1_" gradientUnits="userSpaceOnUse" x1="0.2424" y1="202.0802" x2="169.7813" y2="202.0802">
			<stop  offset="0" style="stop-color:#3F51B5"/>
			<stop  offset="0.5934" style="stop-color:#177D99"/>
			<stop  offset="1" style="stop-color:#009688"/>
		</linearGradient>
		<path class="st0" d="M57,280l-18.6-0.2c0.2-2.6,0.3-5.5,0.4-8.8c0.1-3.3,0.1-8.1,0.1-14.4c0-9.5-0.2-19.1-0.6-29
			c-0.4-9.9-1-19.9-1.8-30.2c31.5-7.5,56-19.1,73.6-34.7s26.4-33.7,26.4-54.1c0-16-5.5-29.2-16.6-39.8C108.8,58.2,94.8,53,78,53
			C66.3,53,54,56.7,41.1,64.2c-12.9,7.5-20.8,11.3-23.7,11.3c-4.9,0-9-1.8-12.2-5.3c-3.3-3.5-4.9-8-4.9-13.3
			c0-10.8,5.2-19.6,15.7-26.5c10.4-6.9,24-10.4,40.6-10.4c32.3,0,59.2,9.7,80.9,29c21.6,19.3,32.4,43.4,32.4,72.3
			c0,22.3-6.3,41.2-18.8,56.6c-12.6,15.4-35.5,31.2-68.7,47.3c-1,0.5-2.4,1.1-4.2,2c-14,6.5-21,20.3-21,41.3V280z M48.4,316.9
			l17.1,13.2c4.6,3.4,7.9,6.8,9.9,10c2,3.3,3.1,6.8,3.1,10.5c0,3.8-0.8,7-2.4,9.8c-1.6,2.8-4.6,5.8-9.1,9.1l-18.6,14.7l-17.6-13.5
			c-4.6-3.6-7.9-7-9.9-10.3c-2-3.3-3.1-6.7-3.1-10.3c0-3.7,0.8-7,2.4-9.8c1.6-2.8,4.8-5.9,9.5-9.3L48.4,316.9z"/>
	</g>
	<g>
		<g>
			<path class="st1" d="M61,341c-0.2-0.2-0.3-0.5-0.5-0.7c-2.6,0-5.3,0-7.9,0"/>
		</g>
		<g>
			<linearGradient id="SVGID_2_" gradientUnits="userSpaceOnUse" x1="35.5847" y1="360.8886" x2="44.388" y2="360.8886">
				<stop  offset="0" style="stop-color:#009688"/>
				<stop  offset="0.9944" style="stop-color:#3F51B5"/>
			</linearGradient>
			<path class="st2" d="M44.4,360.9c-2.9,0-5.9-0.1-8.8-0.1C38.5,360.9,41.5,360.9,44.4,360.9z"/>
			<path class="st1" d="M44.4,360.9c-2.9,0-5.9-0.1-8.8-0.1C38.5,360.9,41.5,360.9,44.4,360.9z"/>
		</g>
		<g>
			<path class="st1" d="M35.4,360.8c0.2-0.2,0.3-0.5,0.5-0.7c2.7,0,5.4,0,8.2,0"/>
		</g>
		<line class="st3" x1="40.8" y1="350.1" x2="55.7" y2="350.1"/>
		<g>
			<path class="st1" d="M50,335.8C50,335.7,50,335.7,50,335.8l-5.5,0c0,0-0.1,0-0.1,0l-2.7,4.7c0,0,0,0.1,0,0.1l2.7,4.7
				c0,0,0.1,0,0.1,0l5.4,0c0,0,0.1,0,0.1,0l2.7-4.7c0,0,0-0.1,0-0.1L50,335.8z"/>
		</g>
		<g>
			<path class="st1" d="M52.4,341l8.6,0L52.4,341z"/>
		</g>
		<g>
			<path class="st1" d="M46.6,355.3C46.6,355.3,46.7,355.3,46.6,355.3l5.5,0c0,0,0.1,0,0.1,0l2.7,4.7c0,0,0,0.1,0,0.1l-2.7,4.7
				c0,0-0.1,0-0.1,0l-5.4,0c0,0-0.1,0-0.1,0l-2.7-4.7c0,0,0-0.1,0-0.1L46.6,355.3z"/>
		</g>
		<g>
			<path class="st4" d="M39.2,345.4C39.2,345.4,39.2,345.4,39.2,345.4l-5.5,0c0,0-0.1,0-0.1,0l-2.7,4.7c0,0,0,0.1,0,0.1l2.7,4.7
				c0,0,0.1,0,0.1,0l5.4,0c0,0,0.1,0,0.1,0l2.7-4.7c0,0,0-0.1,0-0.1L39.2,345.4z"/>
			<path class="st3" d="M39.2,345.4C39.2,345.4,39.2,345.4,39.2,345.4l-5.5,0c0,0-0.1,0-0.1,0l-2.7,4.7c0,0,0,0.1,0,0.1l2.7,4.7
				c0,0,0.1,0,0.1,0l5.4,0c0,0,0.1,0,0.1,0l2.7-4.7c0,0,0-0.1,0-0.1L39.2,345.4z"/>
		</g>
		<g>
			<path class="st4" d="M62.9,345.4C62.9,345.4,62.9,345.4,62.9,345.4l-5.5,0c0,0-0.1,0-0.1,0l-2.7,4.7c0,0,0,0.1,0,0.1l2.7,4.7
				c0,0,0.1,0,0.1,0l5.4,0c0,0,0.1,0,0.1,0l2.7-4.7c0,0,0-0.1,0-0.1L62.9,345.4z"/>
			<path class="st3" d="M62.9,345.4C62.9,345.4,62.9,345.4,62.9,345.4l-5.5,0c0,0-0.1,0-0.1,0l-2.7,4.7c0,0,0,0.1,0,0.1l2.7,4.7
				c0,0,0.1,0,0.1,0l5.4,0c0,0,0.1,0,0.1,0l2.7-4.7c0,0,0-0.1,0-0.1L62.9,345.4z"/>
		</g>
	</g>
	<path class="st5" d="M30.4,321.8c0.6,0,1-0.5,1-1c0-0.6-0.5-1-1-1s-1,0.5-1,1C29.4,321.4,29.9,321.8,30.4,321.8z"/>
</g>
</svg>
