<?xml version="1.0" encoding="utf-8"?>
<!-- Generator: Adobe Illustrator 22.0.0, SVG Export Plug-In . SVG Version: 6.00 Build 0)  -->
<svg version="1.1" id="Layer_1" xmlns="http://www.w3.org/2000/svg" xmlns:xlink="http://www.w3.org/1999/xlink" x="0px" y="0px"
	 viewBox="0 0 170 385" style="enable-background:new 0 0 170 385;" xml:space="preserve">
<style type="text/css">
	.st0{fill:none;stroke:url(#SVGID_1_);stroke-width:0.5;stroke-linecap:round;stroke-linejoin:round;}
	.st1{fill:none;stroke:url(#SVGID_2_);stroke-width:0.5;stroke-linecap:round;stroke-linejoin:round;}
	.st2{fill:url(#SVGID_3_);stroke:url(#SVGID_4_);stroke-width:0.5;stroke-linecap:round;stroke-linejoin:round;}
	.st3{fill:none;stroke:url(#SVGID_5_);stroke-width:0.5;stroke-linecap:round;stroke-linejoin:round;}
	.st4{fill:#3F51B5;stroke:url(#SVGID_6_);stroke-miterlimit:10;}
	.st5{fill:url(#SVGID_7_);stroke:url(#SVGID_8_);stroke-width:0.5;stroke-linecap:round;stroke-linejoin:round;}
	.st6{enable-background:new    ;}
	.st7{clip-path:url(#SVGID_10_);}
	.st8{fill:#FFFFFF;}
	.st9{fill:none;stroke:url(#SVGID_11_);stroke-width:0.5;stroke-linecap:round;stroke-linejoin:round;}
	.st10{fill:none;stroke:url(#SVGID_12_);stroke-width:0.5;stroke-linecap:round;stroke-linejoin:round;}
	.st11{fill:url(#SVGID_13_);stroke:url(#SVGID_14_);stroke-width:0.5;stroke-linecap:round;stroke-linejoin:round;}
	.st12{fill:none;stroke:url(#SVGID_15_);stroke-width:0.5;stroke-linecap:round;stroke-linejoin:round;}
	.st13{fill:#3F51B5;stroke:url(#SVGID_16_);stroke-miterlimit:10;}
	.st14{fill:url(#SVGID_17_);stroke:url(#SVGID_18_);stroke-width:0.5;stroke-linecap:round;stroke-linejoin:round;}
	.st15{fill:none;stroke:url(#SVGID_19_);stroke-width:0.5;stroke-linecap:round;stroke-linejoin:round;}
	.st16{fill:none;stroke:url(#SVGID_20_);stroke-width:0.5;stroke-linecap:round;stroke-linejoin:round;}
	.st17{fill:url(#SVGID_21_);stroke:url(#SVGID_22_);stroke-width:0.5;stroke-linecap:round;stroke-linejoin:round;}
	.st18{fill:none;stroke:url(#SVGID_23_);stroke-width:0.5;stroke-linecap:round;stroke-linejoin:round;}
	.st19{fill:#3F51B5;stroke:url(#SVGID_24_);stroke-miterlimit:10;}
	.st20{fill:url(#SVGID_25_);stroke:url(#SVGID_26_);stroke-width:0.5;stroke-linecap:round;stroke-linejoin:round;}
	.st21{clip-path:url(#SVGID_28_);}
	.st22{clip-path:url(#SVGID_30_);}
	.st23{fill:#3F51B5;}
	.st24{fill:none;stroke:url(#SVGID_31_);stroke-width:0.5;stroke-linecap:round;stroke-linejoin:round;}
	.st25{fill:none;stroke:url(#SVGID_32_);stroke-width:0.5;stroke-linecap:round;stroke-linejoin:round;}
	.st26{fill:url(#SVGID_33_);stroke:url(#SVGID_34_);stroke-width:0.5;stroke-linecap:round;stroke-linejoin:round;}
	.st27{fill:none;stroke:url(#SVGID_35_);stroke-width:0.5;stroke-linecap:round;stroke-linejoin:round;}
	.st28{fill:#3F51B5;stroke:url(#SVGID_36_);stroke-miterlimit:10;}
	.st29{fill:url(#SVGID_37_);stroke:url(#SVGID_38_);stroke-width:0.5;stroke-linecap:round;stroke-linejoin:round;}
	.st30{clip-path:url(#SVGID_40_);}
</style>
<g>
	<linearGradient id="SVGID_1_" gradientUnits="userSpaceOnUse" x1="2.199" y1="141.5183" x2="167.9712" y2="141.5183">
		<stop  offset="5.618000e-03" style="stop-color:#3F51B5"/>
		<stop  offset="1" style="stop-color:#009688"/>
	</linearGradient>
	<path class="st0" d="M4.8,160.6c-3.2-1.8-3.2-4.8,0-6.6l102.5-57.6c3.2-1.8,8.5-1.8,11.7-0.1l46.3,25.4c3.2,1.8,3.2,4.7,0,6.5
		L61.9,186.7c-3.2,1.8-8.4,1.8-11.6,0L4.8,160.6z"/>
	<linearGradient id="SVGID_2_" gradientUnits="userSpaceOnUse" x1="2.195" y1="158.3134" x2="168.0015" y2="158.3134">
		<stop  offset="5.618000e-03" style="stop-color:#3F51B5"/>
		<stop  offset="1" style="stop-color:#009688"/>
	</linearGradient>
	<path class="st1" d="M2.4,158.1c0,0,0,1.2,0,2.6c0,1.4,2.6,4.1,5.8,5.9L50.6,191c3.2,1.8,8.4,1.9,11.6,0.1l99.7-56.3
		c3.2-1.8,5.8-4.9,5.8-6.9c0-2,0-3.6,0-3.6"/>
	<linearGradient id="SVGID_3_" gradientUnits="userSpaceOnUse" x1="30.8968" y1="167.2282" x2="48.4191" y2="167.2282">
		<stop  offset="5.618000e-03" style="stop-color:#3F51B5"/>
		<stop  offset="1" style="stop-color:#009688"/>
	</linearGradient>
	<linearGradient id="SVGID_4_" gradientUnits="userSpaceOnUse" x1="30.6468" y1="167.2282" x2="48.6691" y2="167.2282">
		<stop  offset="5.618000e-03" style="stop-color:#3F51B5"/>
		<stop  offset="1" style="stop-color:#009688"/>
	</linearGradient>
	<ellipse class="st2" cx="39.7" cy="167.2" rx="8.8" ry="3.6"/>
	
		<linearGradient id="SVGID_5_" gradientUnits="userSpaceOnUse" x1="124.2338" y1="113.6989" x2="140.4594" y2="113.6989" gradientTransform="matrix(0.9995 -3.221055e-02 3.221055e-02 0.9995 -3.4719 4.5493)">
		<stop  offset="5.618000e-03" style="stop-color:#3F51B5"/>
		<stop  offset="1" style="stop-color:#009688"/>
	</linearGradient>
	<line class="st3" x1="124.5" y1="109.5" x2="140.5" y2="118.3"/>
	<linearGradient id="SVGID_6_" gradientUnits="userSpaceOnUse" x1="141.811" y1="119.6879" x2="143.8941" y2="119.6879">
		<stop  offset="5.618000e-03" style="stop-color:#3F51B5"/>
		<stop  offset="1" style="stop-color:#009688"/>
	</linearGradient>
	<path class="st4" d="M142.9,120.2c0.7,0,0.7-1.1,0-1.1C142.1,119.1,142.1,120.2,142.9,120.2z"/>
	<linearGradient id="SVGID_7_" gradientUnits="userSpaceOnUse" x1="23.9972" y1="139.607" x2="152.8942" y2="139.607">
		<stop  offset="5.618000e-03" style="stop-color:#3F51B5"/>
		<stop  offset="1" style="stop-color:#009688"/>
	</linearGradient>
	<linearGradient id="SVGID_8_" gradientUnits="userSpaceOnUse" x1="23.7472" y1="139.607" x2="153.1442" y2="139.607">
		<stop  offset="5.618000e-03" style="stop-color:#3F51B5"/>
		<stop  offset="1" style="stop-color:#009688"/>
	</linearGradient>
	<path class="st5" d="M24,144.1c18.3,10.7,36.6,21.3,55,32c24.6-14,49.3-28,73.9-42c-18.7-10.3-37.3-20.7-56-31
		C72.6,116.8,48.3,130.4,24,144.1z"/>
	<g>
		<g>
			<g class="st6">
				<defs>
					<polygon id="SVGID_9_" class="st6" points="60.5,136.2 81.7,123.9 112.1,141.4 90.8,153.7 					"/>
				</defs>
				<clipPath id="SVGID_10_">
					<use xlink:href="#SVGID_9_"  style="overflow:visible;"/>
				</clipPath>
				<g class="st7">
					<g>
						<g>
							<g>
								<path class="st8" d="M68.2,132.1l12.6-7.3c0.5-0.3,1.4-0.3,1.9,0l27.7,16c0.5,0.3,0.5,0.8,0,1.1l-12.6,7.3l0.2,0.1l-2.8,1.6
									l-0.2-0.1l-3.2,1.9c-0.5,0.3-1.4,0.3-1.9,0l-27.7-16c-0.5-0.3-0.5-0.8,0-1.1l3.2-1.9l-0.2-0.1L68,132L68.2,132.1
									 M110.7,140.6l-27.7-16c-0.7-0.4-1.9-0.4-2.6,0l-18.6,10.8c-0.7,0.4-0.7,1.1,0,1.5l27.7,16c0.7,0.4,1.9,0.4,2.6,0l18.6-10.8
									C111.5,141.7,111.5,141,110.7,140.6"/>
								<polyline class="st8" points="98,149.3 97.8,149.2 68.2,132.1 68,132 65.2,133.7 65.4,133.8 95,150.9 95.2,151 98,149.3 
																	"/>
							</g>
						</g>
					</g>
				</g>
			</g>
		</g>
	</g>
</g>
<g>
	<linearGradient id="SVGID_11_" gradientUnits="userSpaceOnUse" x1="2.1973" y1="239.1218" x2="166.9656" y2="239.1218">
		<stop  offset="5.618000e-03" style="stop-color:#3F51B5"/>
		<stop  offset="1" style="stop-color:#009688"/>
	</linearGradient>
	<path class="st9" d="M4.8,258.1c-3.2-1.8-3.2-4.8,0-6.6l101.9-57.3c3.2-1.8,8.4-1.8,11.6-0.1l46,25.3c3.2,1.8,3.2,4.7,0,6.5
		L61.6,284c-3.2,1.8-8.4,1.8-11.6,0L4.8,258.1z"/>
	<linearGradient id="SVGID_12_" gradientUnits="userSpaceOnUse" x1="2.1934" y1="255.8148" x2="166.9957" y2="255.8148">
		<stop  offset="5.618000e-03" style="stop-color:#3F51B5"/>
		<stop  offset="1" style="stop-color:#009688"/>
	</linearGradient>
	<path class="st10" d="M2.4,255.6c0,0,0,1.1,0,2.5c0,1.4,2.6,4,5.8,5.9l42.1,24.3c3.2,1.8,8.4,1.8,11.5,0.1l99.1-56
		c3.2-1.8,5.8-4.9,5.8-6.8c0-1.9,0-3.5,0-3.5"/>
	<linearGradient id="SVGID_13_" gradientUnits="userSpaceOnUse" x1="30.7224" y1="264.6755" x2="48.1382" y2="264.6755">
		<stop  offset="5.618000e-03" style="stop-color:#3F51B5"/>
		<stop  offset="1" style="stop-color:#009688"/>
	</linearGradient>
	<linearGradient id="SVGID_14_" gradientUnits="userSpaceOnUse" x1="30.4724" y1="264.6755" x2="48.3882" y2="264.6755">
		<stop  offset="5.618000e-03" style="stop-color:#3F51B5"/>
		<stop  offset="1" style="stop-color:#009688"/>
	</linearGradient>
	<ellipse class="st11" cx="39.4" cy="264.7" rx="8.7" ry="3.6"/>
	
		<linearGradient id="SVGID_15_" gradientUnits="userSpaceOnUse" x1="120.3413" y1="211.3938" x2="136.4713" y2="211.3938" gradientTransform="matrix(0.9995 -3.221055e-02 3.221055e-02 0.9995 -3.4719 4.5493)">
		<stop  offset="5.618000e-03" style="stop-color:#3F51B5"/>
		<stop  offset="1" style="stop-color:#009688"/>
	</linearGradient>
	<line class="st12" x1="123.7" y1="207.3" x2="139.6" y2="216.1"/>
	<linearGradient id="SVGID_16_" gradientUnits="userSpaceOnUse" x1="140.9597" y1="217.424" x2="143.0362" y2="217.424">
		<stop  offset="5.618000e-03" style="stop-color:#3F51B5"/>
		<stop  offset="1" style="stop-color:#009688"/>
	</linearGradient>
	<path class="st13" d="M142,218c0.7,0,0.7-1.1,0-1.1C141.3,216.9,141.3,218,142,218z"/>
	<linearGradient id="SVGID_17_" gradientUnits="userSpaceOnUse" x1="23.8647" y1="237.2221" x2="151.9786" y2="237.2221">
		<stop  offset="5.618000e-03" style="stop-color:#3F51B5"/>
		<stop  offset="1" style="stop-color:#009688"/>
	</linearGradient>
	<linearGradient id="SVGID_18_" gradientUnits="userSpaceOnUse" x1="23.6147" y1="237.2221" x2="152.2286" y2="237.2221">
		<stop  offset="5.618000e-03" style="stop-color:#3F51B5"/>
		<stop  offset="1" style="stop-color:#009688"/>
	</linearGradient>
	<path class="st14" d="M23.9,241.7c18.2,10.6,36.4,21.2,54.6,31.8c24.5-13.9,49-27.8,73.5-41.7c-18.5-10.3-37.1-20.5-55.6-30.8
		C72.2,214.5,48,228.1,23.9,241.7z"/>
</g>
<g>
	<linearGradient id="SVGID_19_" gradientUnits="userSpaceOnUse" x1="2.1973" y1="332.1218" x2="166.9656" y2="332.1218">
		<stop  offset="5.618000e-03" style="stop-color:#3F51B5"/>
		<stop  offset="1" style="stop-color:#009688"/>
	</linearGradient>
	<path class="st15" d="M4.8,351.1c-3.2-1.8-3.2-4.8,0-6.6l101.9-57.3c3.2-1.8,8.4-1.8,11.6-0.1l46,25.3c3.2,1.8,3.2,4.7,0,6.5
		L61.6,377c-3.2,1.8-8.4,1.8-11.6,0L4.8,351.1z"/>
	<linearGradient id="SVGID_20_" gradientUnits="userSpaceOnUse" x1="2.1934" y1="348.8148" x2="166.9957" y2="348.8148">
		<stop  offset="5.618000e-03" style="stop-color:#3F51B5"/>
		<stop  offset="1" style="stop-color:#009688"/>
	</linearGradient>
	<path class="st16" d="M2.4,348.6c0,0,0,1.1,0,2.5c0,1.4,2.6,4,5.8,5.9l42.1,24.3c3.2,1.8,8.4,1.8,11.5,0.1l99.1-56
		c3.2-1.8,5.8-4.9,5.8-6.8c0-1.9,0-3.5,0-3.5"/>
	<linearGradient id="SVGID_21_" gradientUnits="userSpaceOnUse" x1="30.7224" y1="357.6755" x2="48.1382" y2="357.6755">
		<stop  offset="5.618000e-03" style="stop-color:#3F51B5"/>
		<stop  offset="1" style="stop-color:#009688"/>
	</linearGradient>
	<linearGradient id="SVGID_22_" gradientUnits="userSpaceOnUse" x1="30.4724" y1="357.6755" x2="48.3882" y2="357.6755">
		<stop  offset="5.618000e-03" style="stop-color:#3F51B5"/>
		<stop  offset="1" style="stop-color:#009688"/>
	</linearGradient>
	<ellipse class="st17" cx="39.4" cy="357.7" rx="8.7" ry="3.6"/>
	
		<linearGradient id="SVGID_23_" gradientUnits="userSpaceOnUse" x1="117.3457" y1="304.3456" x2="133.4758" y2="304.3456" gradientTransform="matrix(0.9995 -3.221055e-02 3.221055e-02 0.9995 -3.4719 4.5493)">
		<stop  offset="5.618000e-03" style="stop-color:#3F51B5"/>
		<stop  offset="1" style="stop-color:#009688"/>
	</linearGradient>
	<line class="st18" x1="123.7" y1="300.3" x2="139.6" y2="309.1"/>
	<linearGradient id="SVGID_24_" gradientUnits="userSpaceOnUse" x1="140.9597" y1="310.424" x2="143.0362" y2="310.424">
		<stop  offset="5.618000e-03" style="stop-color:#3F51B5"/>
		<stop  offset="1" style="stop-color:#009688"/>
	</linearGradient>
	<path class="st19" d="M142,311c0.7,0,0.7-1.1,0-1.1C141.3,309.9,141.3,311,142,311z"/>
	<linearGradient id="SVGID_25_" gradientUnits="userSpaceOnUse" x1="23.8647" y1="330.2221" x2="151.9786" y2="330.2221">
		<stop  offset="5.618000e-03" style="stop-color:#3F51B5"/>
		<stop  offset="1" style="stop-color:#009688"/>
	</linearGradient>
	<linearGradient id="SVGID_26_" gradientUnits="userSpaceOnUse" x1="23.6147" y1="330.2221" x2="152.2286" y2="330.2221">
		<stop  offset="5.618000e-03" style="stop-color:#3F51B5"/>
		<stop  offset="1" style="stop-color:#009688"/>
	</linearGradient>
	<path class="st20" d="M23.9,334.7c18.2,10.6,36.4,21.2,54.6,31.8c24.5-13.9,49-27.8,73.5-41.7c-18.5-10.3-37.1-20.5-55.6-30.8
		C72.2,307.5,48,321.1,23.9,334.7z"/>
</g>
<g>
	<g>
		<g class="st6">
			<defs>
				<polygon id="SVGID_27_" class="st6" points="50.8,235.8 85.3,215.7 120,235.8 85.5,255.8 				"/>
			</defs>
			<clipPath id="SVGID_28_">
				<use xlink:href="#SVGID_27_"  style="overflow:visible;"/>
			</clipPath>
			<g class="st21">
				<g>
					<g>
						<g>
							<path class="st8" d="M102.7,225.8c-0.5-0.3-1.3-0.5-2.1-0.5l-30.5,0c-1.6,0-2.9,0.8-2.9,1.7l0,6.6l0.3-0.2l0.2,0.1l0-6.6
								c0-0.8,1.1-1.4,2.4-1.4l30.5,0c0.7,0,1.3,0.2,1.7,0.4c0.4,0.3,0.7,0.6,0.7,1l0.1,10.5l0.4,0.2l-0.4,0.2l-0.1,0l0,6.7
								c0,0.8-1.1,1.4-2.4,1.4l-30.5,0l0,0.1l0-0.1c-0.7,0-1.3-0.2-1.7-0.4c-0.4-0.3-0.7-0.6-0.7-1L67.8,234l-0.5-0.3l0.1,10.9
								c0,0.5,0.3,0.9,0.9,1.2c0.5,0.3,1.3,0.5,2.1,0.5l30.5,0c1.6,0,2.9-0.8,2.9-1.7l-0.1-17.7
								C103.5,226.5,103.2,226.1,102.7,225.8"/>
							<path class="st8" d="M86.1,231.8l1.5-3.2l5.5-0.9l4.1,2.4l-1.5,3.2l-5.5,0.9L86.1,231.8 M97.7,230l-4.5-2.6l-6.1,1l-1.6,3.5
								l4.5,2.6l5.7-0.9l-0.1,0l0.4-0.2l0.1,0.1L97.7,230"/>
							<polyline class="st8" points="84.2,230.7 79.5,228 73.1,229 71.4,232.7 76.1,235.4 82.1,234.4 81.9,234.3 76.2,235.2 
								71.7,232.6 73.3,229.1 79.4,228.1 83.9,230.7 82.4,234.2 82.6,234.3 84.2,230.7 							"/>
							<polyline class="st8" points="83.4,230.8 79.3,228.5 73.7,229.3 72.3,232.5 76.4,234.9 81.9,234 83.4,230.8 							"/>
							<path class="st8" d="M72.3,232.5l1.5-3.2l5.5-0.9l4.1,2.4l-1.5,3.2l-5.5,0.9L72.3,232.5 M83.9,230.7l-4.5-2.6l-6.1,1
								l-1.6,3.5l4.5,2.6l5.7-0.9l-0.1,0l0.4-0.2l0.1,0.1L83.9,230.7"/>
							<polyline class="st8" points="98.6,239 94,236.3 87.8,237.3 88,237.4 93.9,236.5 98.4,239.1 96.8,242.6 90.7,243.6 86.2,241 
								87.7,237.7 87.5,237.5 85.9,241 90.6,243.7 97,242.7 98.6,239 							"/>
							<polyline class="st8" points="97.8,239.2 93.7,236.8 88.4,237.6 88.5,237.7 88.1,237.9 88.1,237.9 86.7,240.9 90.8,243.2 
								96.3,242.4 97.8,239.2 							"/>
							<polyline class="st8" points="98.4,239.1 93.9,236.5 88,237.4 88.4,237.6 93.7,236.8 97.8,239.2 96.3,242.4 90.8,243.2 
								86.7,240.9 88.1,237.9 87.7,237.7 86.2,241 90.7,243.6 96.8,242.6 98.4,239.1 							"/>
							<polyline class="st8" points="103.5,237.7 103.1,237.5 96.1,233.4 96,233.4 95.6,233.6 95.7,233.6 103.1,237.9 103.2,237.9 
								103.5,237.7 							"/>
							<path class="st8" d="M73.6,241.2l1.5-3.2l5.5-0.9l4.1,2.4l-1.5,3.2l-5.5,0.9L73.6,241.2 M85.2,239.4l-4.5-2.6l-5.7,0.9l0.1,0
								l-0.4,0.2l-0.1-0.1l-1.6,3.4l4.5,2.6l6.1-0.9L85.2,239.4"/>
							<polyline class="st8" points="75.1,237.8 75,237.7 67.8,233.5 67.5,233.4 67.3,233.6 67.2,233.6 67.3,233.7 67.8,234 
								74.6,237.9 74.7,238 75.1,237.8 							"/>
							<polyline class="st8" points="88.5,237.7 88.4,237.6 88,237.4 87.8,237.3 82.6,234.3 82.4,234.2 82.2,234.1 81.9,234.3 
								81.9,234.3 82.1,234.4 87.5,237.5 87.7,237.7 88.1,237.9 88.1,237.9 88.5,237.7 							"/>
						</g>
					</g>
				</g>
			</g>
		</g>
	</g>
</g>
<g>
	<g>
		<g class="st6">
			<defs>
				<polygon id="SVGID_29_" class="st6" points="52.4,329.3 85.8,309.9 119.4,329.3 86,348.8 				"/>
			</defs>
			<clipPath id="SVGID_30_">
				<use xlink:href="#SVGID_29_"  style="overflow:visible;"/>
			</clipPath>
			<g class="st22">
				<g>
					<g>
						<g>
							<path class="st8" d="M69.6,338.8c-9.1-5.2-9.1-13.8-0.1-19c9-5.2,23.7-5.2,32.8,0s9.1,13.8,0.1,19
								C93.3,344.1,78.6,344.1,69.6,338.8 M102.6,319.6c-9.3-5.3-24.3-5.4-33.5,0s-9.2,14.1,0.1,19.4c9.3,5.4,24.3,5.4,33.5,0
								C111.9,333.7,111.9,325,102.6,319.6"/>
							<path class="st8" d="M84.6,340.7c-3.9-0.2-7.7-1-10.9-2.5l-0.3,0.2c3.3,1.5,7.2,2.4,11.2,2.5L84.6,340.7 M66.3,329.8l-0.5,0
								c0.2,2.3,1.5,4.6,4.1,6.5l0.4-0.2C67.8,334.3,66.5,332.1,66.3,329.8 M72,320.9c-0.1,0.1-0.3,0.1-0.4,0.2
								c-2.9,1.7-4.7,3.7-5.4,5.8l0.5,0.1c0.7-2.1,2.5-4.1,5.3-5.7c0.1-0.1,0.2-0.1,0.4-0.2L72,320.9 M103.7,334.8l-0.4-0.1
								c-0.9,1-2,1.9-3.5,2.7c-2.9,1.7-6.5,2.7-10.3,3.1l0.1,0.3c3.9-0.4,7.6-1.5,10.6-3.2C101.6,336.7,102.8,335.8,103.7,334.8
								 M87.8,317.7c-4-0.2-8.1,0.2-11.7,1.4l0.2,0.3c3.5-1.1,7.5-1.6,11.4-1.4L87.8,317.7 M104.7,325.1l-0.5,0.1
								c1.4,2.2,1.7,4.5,0.8,6.7l0.5,0.1C106.4,329.8,106.1,327.4,104.7,325.1 M100.1,321.1c-2.2-1.2-4.7-2.2-7.4-2.7l-0.2,0.3
								c2.6,0.6,5.1,1.4,7.2,2.7c0.8,0.5,1.5,0.9,2.1,1.4l0.4-0.2C101.6,322.1,100.9,321.6,100.1,321.1"/>
							<path class="st8" d="M92.3,331.7l-5.8-3.3c0,0.1-0.1,0.1-0.2,0.2c0,0-0.1,0-0.1,0.1l5.4,3.1l-5.6,3.4l2.1,1.2
								c0,0,0.1-0.1,0.2-0.1c0.1,0,0.1-0.1,0.2-0.1l-1.8-1L92.3,331.7"/>
							<path class="st8" d="M88.6,336.9c-0.2-0.1-0.2-0.3,0-0.4c0.2-0.1,0.5-0.1,0.7,0c0.2,0.1,0.2,0.3,0,0.4
								C89.2,337,88.8,337,88.6,336.9 M89.7,336.3c-0.3-0.2-0.8-0.2-1.2-0.1c-0.1,0-0.1,0.1-0.2,0.1c-0.1,0-0.1,0.1-0.2,0.1
								c-0.2,0.2-0.2,0.5,0.2,0.7c0.4,0.2,1,0.2,1.4,0C90.1,336.8,90.1,336.5,89.7,336.3"/>
							<polyline class="st23" points="85.8,328.2 85.8,328.2 85.7,328.2 85.7,328.2 85.4,328.4 85.7,328.2 85.4,328.4 85.7,328.2 
								85.8,328.2 85.8,328.2 							"/>
							<path class="st8" d="M85.4,328.4l0.3-0.2l0-0.1h0.1l0,0l0,0.1l-0.1,0L85.4,328.4l0.3-0.2L85.4,328.4 M86.4,327.8
								c-0.2-0.1-0.4-0.2-0.7-0.2c-0.2,0-0.4,0.1-0.6,0.2c-0.4,0.2-0.4,0.5,0,0.8c0.3,0.2,0.8,0.2,1.2,0.1c0,0,0.1,0,0.1-0.1
								c0.1-0.1,0.2-0.1,0.2-0.2C86.7,328.2,86.7,328,86.4,327.8"/>
							<path class="st8" d="M87.5,331.3l-3.9-2.2l-4.1,2.3l-1.2-0.7c0,0-0.1,0.1-0.1,0.1c-0.1,0-0.1,0.1-0.2,0.1l1.5,0.9l4.1-2.3
								l3.5,2c0,0,0.1-0.1,0.1-0.1C87.3,331.4,87.4,331.3,87.5,331.3"/>
							<path class="st8" d="M77.4,330.6c-0.1-0.1-0.1-0.2,0-0.2c0.1-0.1,0.3-0.1,0.4,0c0.1,0.1,0.1,0.2,0,0.2
								C77.7,330.7,77.5,330.7,77.4,330.6 M78.2,330.2c-0.3-0.2-0.8-0.2-1.1,0c-0.3,0.2-0.3,0.5,0,0.6c0.2,0.1,0.6,0.2,0.9,0.1
								c0.1,0,0.1,0,0.2-0.1c0.1,0,0.1-0.1,0.1-0.1C78.4,330.5,78.4,330.3,78.2,330.2"/>
							<polyline class="st23" points="87.9,331.8 87.8,331.8 87.8,331.8 87.6,332 87.8,331.8 87.6,332 87.8,331.8 87.9,331.8 
								87.9,331.8 							"/>
							<path class="st8" d="M87.6,332l0.3-0.2l0-0.1l0.1,0l0,0.1l-0.1,0L87.6,332l0.3-0.2L87.6,332 M88.5,331.4
								c-0.3-0.2-0.7-0.2-1-0.1c-0.1,0-0.2,0.1-0.3,0.1c0,0-0.1,0.1-0.1,0.1c-0.1,0.1-0.2,0.2-0.2,0.3c0,0.2,0.1,0.3,0.3,0.4
								c0.4,0.2,0.9,0.2,1.3,0C88.9,332,88.9,331.6,88.5,331.4"/>
							<path class="st8" d="M75.7,332.2c-0.1,0-0.2-0.1-0.2-0.1c-0.1,0-0.1-0.1-0.1-0.1l-2.4,1.4l-3.1-1.7l-1.1,0.7
								c0.1,0,0.2,0,0.2,0.1c0.1,0,0.1,0.1,0.1,0.1l0.8-0.5l3.1,1.7L75.7,332.2"/>
							<path class="st8" d="M68.3,332.7C68.3,332.7,68.3,332.6,68.3,332.7l0.2-0.1l0,0.1C68.5,332.8,68.4,332.7,68.3,332.7
								 M68.9,332.4c-0.1,0-0.1-0.1-0.2-0.1c-0.2-0.1-0.5,0-0.7,0.1c-0.2,0.1-0.2,0.4,0,0.5c0.2,0.1,0.6,0.1,0.9,0
								c0.2-0.1,0.2-0.3,0.1-0.4C69,332.5,68.9,332.4,68.9,332.4"/>
							<polyline class="st23" points="76.1,331.7 76.1,331.7 76,331.7 76,331.7 75.8,331.9 76,331.7 75.8,331.9 76,331.7 
								76.1,331.7 76.1,331.7 							"/>
							<path class="st8" d="M75.8,331.9l0.3-0.2l0-0.1l0.1,0l0,0l0,0.1l-0.1,0L75.8,331.9l0.3-0.2L75.8,331.9 M76.7,331.3
								c-0.2-0.1-0.4-0.2-0.7-0.2c-0.2,0-0.4,0.1-0.6,0.2c-0.3,0.2-0.4,0.5-0.1,0.7c0,0,0.1,0.1,0.1,0.1c0.1,0,0.2,0.1,0.2,0.1
								c0.3,0.1,0.8,0.1,1.1-0.1c0.2-0.1,0.3-0.2,0.3-0.3C77,331.6,76.9,331.4,76.7,331.3"/>
							<path class="st8" d="M76.4,324.8l-2.4-1.4l-2.7,1.5l-0.7-0.4c0,0-0.1,0.1-0.1,0.1c-0.1,0-0.1,0.1-0.2,0.1l1,0.6l2.8-1.5
								L76,325c0,0,0.1-0.1,0.1-0.1C76.2,324.9,76.3,324.8,76.4,324.8"/>
							<path class="st8" d="M69.9,324.5C69.9,324.4,69.9,324.4,69.9,324.5l0.1-0.1l0,0.1C70,324.5,70,324.5,69.9,324.5 M70.4,324.2
								c-0.2-0.1-0.6-0.1-0.8,0c-0.2,0.1-0.2,0.4,0,0.5c0.2,0.1,0.4,0.1,0.6,0.1c0.1,0,0.2,0,0.2-0.1c0.1,0,0.1-0.1,0.1-0.1
								C70.6,324.4,70.6,324.3,70.4,324.2"/>
							<polyline class="st23" points="76.9,325.3 76.8,325.3 76.8,325.3 76.5,325.5 76.8,325.3 76.5,325.5 76.8,325.3 76.9,325.3 
								76.9,325.3 							"/>
							<path class="st8" d="M76.5,325.5l0.3-0.2l0-0.1l0.1,0l0,0.1l-0.1,0L76.5,325.5l0.3-0.2L76.5,325.5 M77.5,324.9
								c-0.3-0.2-0.7-0.2-1.1-0.1c-0.1,0-0.2,0.1-0.2,0.1c-0.1,0-0.1,0.1-0.1,0.1c-0.2,0.2-0.2,0.5,0.1,0.7c0.4,0.2,0.9,0.2,1.3,0
								C77.8,325.5,77.8,325.1,77.5,324.9"/>
							<path class="st8" d="M91.3,325.5l-1.4-0.8l-3.8,2.1l-3.2-1.8c0,0-0.1,0.1-0.1,0.1c-0.1,0-0.2,0.1-0.3,0.1l3.6,2.1l3.8-2.1
								l1,0.6c0,0,0.1-0.1,0.1-0.1C91.2,325.6,91.2,325.5,91.3,325.5"/>
							<path class="st8" d="M91.5,326c-0.1-0.1-0.1-0.1,0-0.2c0.1-0.1,0.2-0.1,0.3,0s0.1,0.1,0,0.2C91.7,326.1,91.6,326.1,91.5,326
								 M92.1,325.6c-0.2-0.1-0.6-0.2-0.8-0.1c-0.1,0-0.1,0-0.2,0.1c-0.1,0-0.1,0.1-0.1,0.1c-0.1,0.2-0.1,0.3,0.1,0.5
								c0.3,0.2,0.7,0.2,1,0C92.4,326,92.4,325.8,92.1,325.6"/>
							<polyline class="st23" points="82.2,324.7 82.1,324.7 82.1,324.7 81.8,324.9 82.1,324.7 81.8,324.9 82.1,324.7 82.1,324.7 
								82.2,324.7 82.2,324.7 							"/>
							<path class="st8" d="M81.8,324.9l0.3-0.2l0-0.1l0.1,0l0,0.1h-0.1l0,0L81.8,324.9l0.3-0.2L81.8,324.9 M82.8,324.3
								c-0.4-0.2-0.9-0.2-1.3,0c-0.4,0.2-0.4,0.5,0,0.8c0.3,0.2,0.7,0.2,1.1,0.1c0.1,0,0.2-0.1,0.3-0.1c0,0,0.1-0.1,0.1-0.1
								C83.2,324.8,83.1,324.5,82.8,324.3"/>
							<path class="st8" d="M85.1,319.9l-0.9-0.5c0,0-0.1,0.1-0.1,0.1c-0.1,0-0.1,0.1-0.2,0.1l0.6,0.3l-2.4,1.5l2.2,1.3
								c0,0,0.1-0.1,0.2-0.1c0.1,0,0.1-0.1,0.2-0.1l-1.9-1.1L85.1,319.9"/>
							<path class="st8" d="M83.6,319.2L83.6,319.2l0.1,0.1L83.6,319.2 M84,319c-0.2-0.1-0.6-0.1-0.8,0c-0.2,0.1-0.2,0.3,0,0.5
								c0.2,0.1,0.4,0.1,0.6,0.1c0.1,0,0.2,0,0.2-0.1c0.1,0,0.1-0.1,0.1-0.1C84.2,319.3,84.2,319.1,84,319"/>
							<polyline class="st23" points="85.1,322.9 85,322.9 85,322.9 84.7,323.1 85,322.9 84.7,323.1 85,322.9 85.1,322.9 
								85.1,322.9 							"/>
							<path class="st8" d="M84.7,323.1l0.3-0.2l0-0.1l0.1,0l0,0.1l-0.1,0L84.7,323.1l0.3-0.2L84.7,323.1 M85.7,322.5
								c-0.2-0.1-0.4-0.2-0.7-0.2c-0.2,0-0.3,0-0.4,0.1c-0.1,0-0.1,0-0.2,0.1c-0.1,0-0.1,0.1-0.2,0.1c-0.2,0.2-0.1,0.5,0.2,0.6
								c0.4,0.2,0.9,0.2,1.3,0C86,323.1,86,322.7,85.7,322.5"/>
							<path class="st8" d="M96.8,322.5c-0.1,0-0.2,0-0.2-0.1c-0.1,0-0.1-0.1-0.1-0.1l-1,0.6l2.6,1.6l-2.1,1.2c0.1,0,0.1,0,0.2,0.1
								c0.1,0,0.1,0.1,0.2,0.1l2.4-1.4l-2.6-1.6L96.8,322.5"/>
							<path class="st8" d="M96.9,322.2C96.9,322.2,96.9,322.2,96.9,322.2l0.1-0.1l0,0.1C97,322.2,96.9,322.2,96.9,322.2
								 M97.4,321.9c-0.2-0.1-0.6-0.1-0.8,0c-0.2,0.1-0.2,0.2-0.1,0.4c0,0,0.1,0.1,0.1,0.1c0.1,0,0.1,0.1,0.2,0.1
								c0.2,0,0.5,0,0.6-0.1C97.6,322.3,97.6,322.1,97.4,321.9"/>
							<polyline class="st23" points="95.5,326.1 95.4,326.1 95.4,326.2 95.2,326.3 95.4,326.2 95.2,326.3 95.4,326.2 95.5,326.2 
								95.5,326.1 							"/>
							<path class="st8" d="M95.2,326.3l0.3-0.2l0-0.1l0.1,0l0,0.1l-0.1,0L95.2,326.3l0.3-0.2L95.2,326.3 M96.1,325.8
								c-0.1,0-0.1-0.1-0.2-0.1c-0.2-0.1-0.4-0.1-0.6-0.1c-0.2,0-0.4,0.1-0.6,0.2c-0.4,0.2-0.4,0.5,0,0.8c0.4,0.2,0.9,0.2,1.3,0
								c0.3-0.2,0.4-0.4,0.2-0.6C96.3,325.8,96.2,325.8,96.1,325.8"/>
							<path class="st8" d="M97.5,336l-2.2-1.3c0,0-0.1,0.1-0.2,0.1c-0.1,0-0.1,0.1-0.2,0.1l1.9,1.1l-2.4,1.5l0.9,0.5
								c0,0,0.1-0.1,0.1-0.1c0.1,0,0.1-0.1,0.2-0.1l-0.6-0.3L97.5,336"/>
							<path class="st8" d="M95.8,338.1l0.1,0l0,0.1L95.8,338.1 M96.3,337.9c-0.2-0.1-0.4-0.1-0.6-0.1c-0.1,0-0.2,0-0.2,0.1
								c-0.1,0-0.1,0.1-0.1,0.1c-0.1,0.1,0,0.2,0.1,0.3c0.2,0.1,0.6,0.1,0.8,0C96.5,338.2,96.5,338,96.3,337.9"/>
							<polyline class="st23" points="94.5,334.4 94.4,334.4 94.4,334.5 94.2,334.6 94.4,334.5 94.2,334.6 94.4,334.5 94.5,334.5 
								94.5,334.4 							"/>
							<path class="st8" d="M94.2,334.6l0.3-0.2l0-0.1l0.1,0l0,0.1l-0.1,0L94.2,334.6l0.3-0.2L94.2,334.6 M95.1,334.1
								c-0.2-0.1-0.4-0.2-0.7-0.2c-0.2,0-0.4,0.1-0.6,0.2c-0.4,0.2-0.4,0.5,0,0.8c0.3,0.2,0.8,0.2,1.2,0.1c0.1,0,0.1,0,0.2-0.1
								c0.1,0,0.1-0.1,0.2-0.1C95.5,334.5,95.4,334.3,95.1,334.1"/>
							<path class="st8" d="M79.9,336l-2.2,1.3l2.4,1.5l-0.6,0.3c0.1,0,0.2,0,0.2,0.1c0.1,0,0.1,0.1,0.1,0.1l0.9-0.5l-2.4-1.5
								l1.8-1.1c-0.1,0-0.1,0-0.2-0.1C80,336.1,80,336,79.9,336"/>
							<path class="st8" d="M79.4,339.3l0.1,0L79.4,339.3L79.4,339.3 M79.8,339.1c-0.1,0-0.1-0.1-0.2-0.1c-0.2,0-0.4,0-0.6,0.1
								c-0.2,0.1-0.2,0.3,0,0.5c0.2,0.1,0.6,0.1,0.8,0c0.2-0.1,0.2-0.2,0.1-0.3C79.9,339.2,79.9,339.2,79.8,339.1"/>
							<polyline class="st23" points="80.8,335.7 80.7,335.7 80.7,335.7 80.5,335.9 80.7,335.7 80.5,335.9 80.7,335.7 80.8,335.8 
								80.8,335.7 							"/>
							<path class="st8" d="M80.5,335.9l0.3-0.2l0-0.1l0.1,0l0,0.1l-0.1,0L80.5,335.9l0.3-0.2L80.5,335.9 M81.4,335.3
								c-0.2-0.1-0.5-0.2-0.7-0.2c-0.2,0-0.4,0.1-0.6,0.2c-0.3,0.2-0.4,0.4-0.2,0.6c0,0,0.1,0.1,0.2,0.1c0.1,0,0.1,0.1,0.2,0.1
								c0.4,0.1,0.8,0.1,1.1-0.1C81.8,335.9,81.8,335.6,81.4,335.3"/>
							<path class="st8" d="M104.4,330.1c-0.1,0-0.2,0-0.2-0.1c-0.1,0-0.1-0.1-0.1-0.1l-0.6,0.3l-2.5-1.4l-2.2,1.3
								c0.1,0,0.2,0.1,0.2,0.1c0.1,0,0.1,0.1,0.1,0.1l1.8-1.1l2.5,1.4L104.4,330.1"/>
							<path class="st8" d="M104.5,329.7l0.1,0l0,0.1L104.5,329.7 M105,329.5c-0.2-0.1-0.6-0.1-0.8,0c-0.2,0.1-0.2,0.2-0.1,0.3
								c0,0,0.1,0.1,0.1,0.1c0.1,0,0.1,0.1,0.2,0.1c0.2,0,0.4,0,0.6-0.1C105.2,329.9,105.2,329.7,105,329.5"/>
							<polyline class="st23" points="98.3,330.5 98.2,330.5 98.2,330.6 98,330.7 98.2,330.6 98,330.7 98.2,330.6 98.3,330.6 
								98.3,330.5 							"/>
							<path class="st8" d="M98,330.7l0.3-0.2l0-0.1l0.1,0l0,0.1l-0.1,0L98,330.7l0.3-0.2L98,330.7 M98.9,330.2
								c-0.1,0-0.1-0.1-0.2-0.1c-0.1,0-0.3-0.1-0.5-0.1c-0.2,0-0.4,0.1-0.6,0.2c-0.4,0.2-0.4,0.5,0,0.8c0.4,0.2,0.9,0.2,1.3,0
								c0.3-0.2,0.4-0.5,0.1-0.7C99,330.2,99,330.2,98.9,330.2"/>
						</g>
					</g>
				</g>
			</g>
		</g>
	</g>
</g>
<g>
	<linearGradient id="SVGID_31_" gradientUnits="userSpaceOnUse" x1="1.1973" y1="48.1218" x2="165.9656" y2="48.1218">
		<stop  offset="5.618000e-03" style="stop-color:#3F51B5"/>
		<stop  offset="1" style="stop-color:#009688"/>
	</linearGradient>
	<path class="st24" d="M3.8,67.1c-3.2-1.8-3.2-4.8,0-6.6L105.7,3.2c3.2-1.8,8.4-1.8,11.6-0.1l46,25.3c3.2,1.8,3.2,4.7,0,6.5L60.6,93
		c-3.2,1.8-8.4,1.8-11.6,0L3.8,67.1z"/>
	<linearGradient id="SVGID_32_" gradientUnits="userSpaceOnUse" x1="1.1934" y1="64.8148" x2="165.9957" y2="64.8148">
		<stop  offset="5.618000e-03" style="stop-color:#3F51B5"/>
		<stop  offset="1" style="stop-color:#009688"/>
	</linearGradient>
	<path class="st25" d="M1.4,64.6c0,0,0,1.1,0,2.5c0,1.4,2.6,4,5.8,5.9l42.1,24.3c3.2,1.8,8.4,1.8,11.5,0.1l99.1-56
		c3.2-1.8,5.8-4.9,5.8-6.8c0-1.9,0-3.5,0-3.5"/>
	<linearGradient id="SVGID_33_" gradientUnits="userSpaceOnUse" x1="29.7224" y1="73.6755" x2="47.1382" y2="73.6755">
		<stop  offset="5.618000e-03" style="stop-color:#3F51B5"/>
		<stop  offset="1" style="stop-color:#009688"/>
	</linearGradient>
	<linearGradient id="SVGID_34_" gradientUnits="userSpaceOnUse" x1="29.4724" y1="73.6755" x2="47.3882" y2="73.6755">
		<stop  offset="5.618000e-03" style="stop-color:#3F51B5"/>
		<stop  offset="1" style="stop-color:#009688"/>
	</linearGradient>
	<ellipse class="st26" cx="38.4" cy="73.7" rx="8.7" ry="3.6"/>
	
		<linearGradient id="SVGID_35_" gradientUnits="userSpaceOnUse" x1="125.494" y1="20.4607" x2="141.6241" y2="20.4607" gradientTransform="matrix(0.9995 -3.221055e-02 3.221055e-02 0.9995 -3.4719 4.5493)">
		<stop  offset="5.618000e-03" style="stop-color:#3F51B5"/>
		<stop  offset="1" style="stop-color:#009688"/>
	</linearGradient>
	<line class="st27" x1="122.7" y1="16.3" x2="138.6" y2="25.1"/>
	<linearGradient id="SVGID_36_" gradientUnits="userSpaceOnUse" x1="139.9597" y1="26.424" x2="142.0362" y2="26.424">
		<stop  offset="5.618000e-03" style="stop-color:#3F51B5"/>
		<stop  offset="1" style="stop-color:#009688"/>
	</linearGradient>
	<path class="st28" d="M141,27c0.7,0,0.7-1.1,0-1.1C140.3,25.9,140.3,27,141,27z"/>
	<linearGradient id="SVGID_37_" gradientUnits="userSpaceOnUse" x1="22.8647" y1="46.2221" x2="150.9786" y2="46.2221">
		<stop  offset="5.618000e-03" style="stop-color:#3F51B5"/>
		<stop  offset="1" style="stop-color:#009688"/>
	</linearGradient>
	<linearGradient id="SVGID_38_" gradientUnits="userSpaceOnUse" x1="22.6147" y1="46.2221" x2="151.2286" y2="46.2221">
		<stop  offset="5.618000e-03" style="stop-color:#3F51B5"/>
		<stop  offset="1" style="stop-color:#009688"/>
	</linearGradient>
	<path class="st29" d="M22.9,50.7c18.2,10.6,36.4,21.2,54.6,31.8c24.5-13.9,49-27.8,73.5-41.7C132.4,30.5,113.9,20.2,95.4,10
		C71.2,23.5,47,37.1,22.9,50.7z"/>
</g>
<g>
	<g>
		<g class="st6">
			<defs>
				<polygon id="SVGID_39_" class="st6" points="56.3,52.6 102,26 123.8,38.6 78,65.2 				"/>
			</defs>
			<clipPath id="SVGID_40_">
				<use xlink:href="#SVGID_39_"  style="overflow:visible;"/>
			</clipPath>
			<g class="st30">
				<g>
					<g>
						<g>
							<path class="st8" d="M70.9,51.5l-3.7-0.3c-0.9-0.1-1.7-0.1-2.1,0c-0.5,0.1-0.9,0.2-1.3,0.4c-0.4,0.2-0.6,0.5-0.8,0.8
								c-0.1,0.3-0.1,0.8,0,1.3l0.5,2l3.7,0.3c0.9,0.1,1.6,0.1,2,0c0.5-0.1,0.9-0.2,1.3-0.4c0.4-0.2,0.7-0.5,0.8-0.8
								c0.1-0.3,0.1-0.8,0-1.3L70.9,51.5 M108.6,30.7c-2-1.1-4-1.8-6.1-2.1c-2-0.2-3.6,0-4.8,0.7c-0.6,0.3-0.9,0.7-0.9,1.1
								c0,0.4,0.2,0.7,0.7,1c0.1,0.1,0.7,0.3,4.1,0.8c2.6,0.4,4.7,1,6.2,1.9c2.2,1.3,3.3,2.7,3.4,4.3c0.1,1.6-0.9,3.1-3,4.3
								c-2.6,1.5-6.1,2.2-10.3,2.1c-4.1-0.1-8.5-1-13.3-2.7c-1.1,0.7-2.2,1.4-3.2,2.1c-1.2,0.7-2.4,1.5-3.5,2.1
								c-0.8,0.5-1.4,0.8-1.8,1c-0.3,0.1-0.5,0.3-0.8,0.4l1.6,0.9l1.1-0.6c2.7-1.6,5.5-2.1,8.2-1.5c0.3,0.1,0.6,0.1,0.7,0.2
								c6,1.2,10.8,1.7,14.2,1.5c3.3-0.2,6.4-1.1,9-2.6c3.4-2,5-4.5,4.8-7.3C114.7,35.5,112.5,32.9,108.6,30.7"/>
							<path class="st8" d="M63.5,55.8l-0.5-2c-0.1-0.5-0.1-1,0-1.3c0.1-0.3,0.4-0.6,0.8-0.8c0.4-0.2,0.8-0.4,1.3-0.4
								c0.5-0.1,1.2-0.1,2.1,0l3.7,0.3l0.5,2c0.1,0.5,0.1,1,0,1.3c-0.1,0.3-0.4,0.6-0.8,0.8c-0.4,0.2-0.8,0.4-1.3,0.4
								c-0.5,0.1-1.2,0.1-2,0L63.5,55.8 M71.8,50.9l-4.4-0.3c-1.1-0.1-1.9-0.1-2.5,0c-0.6,0.1-1.2,0.3-1.7,0.6
								c-0.5,0.3-0.8,0.7-1,1.1c-0.2,0.4-0.2,0.9,0,1.6l0.6,2.5l4.5,0.3c1,0.1,1.8,0.1,2.4,0c0.6-0.1,1.2-0.3,1.7-0.6
								c0.5-0.3,0.9-0.7,1.1-1.1c0.2-0.4,0.2-0.9,0-1.5L71.8,50.9 M97.6,31.5c-0.5-0.3-0.7-0.6-0.7-1c0-0.4,0.3-0.8,0.9-1.1
								c1.2-0.7,2.8-0.9,4.8-0.7c2,0.2,4.1,0.9,6.1,2.1c3.9,2.3,6,4.8,6.3,7.7c0.3,2.8-1.3,5.3-4.8,7.3c-2.7,1.5-5.7,2.4-9,2.6
								C97.8,48.5,93,48,87,46.8c-0.2,0-0.4-0.1-0.7-0.2c-2.7-0.6-5.5-0.1-8.2,1.5L77,48.7l-1.6-0.9c0.2-0.1,0.5-0.3,0.8-0.4
								c0.4-0.2,1-0.6,1.8-1c1.2-0.7,2.3-1.4,3.5-2.1c1.1-0.7,2.2-1.4,3.2-2.1c4.8,1.7,9.2,2.6,13.3,2.7c4.3,0.1,7.7-0.5,10.3-2.1
								c2.1-1.2,3.1-2.6,3-4.3c-0.1-1.6-1.2-3.1-3.4-4.3c-1.5-0.9-3.6-1.5-6.2-1.9C98.3,31.8,97.7,31.5,97.6,31.5 M109.3,30.3
								c-2.1-1.2-4.3-2-6.6-2.2c-2.3-0.3-4.2,0-5.7,0.9c-0.8,0.4-1.2,0.9-1.2,1.5c0,0.6,0.3,1.1,1,1.5c0.3,0.2,1.1,0.4,4.6,1
								c2.4,0.4,4.4,1,5.7,1.8c2,1.1,3,2.5,3.1,3.9c0.1,1.5-0.8,2.7-2.7,3.8c-2.4,1.4-5.6,2-9.6,1.9c-4-0.1-8.5-1.1-13.2-2.7
								l-0.4-0.1l-0.3,0.2c-1.1,0.8-2.3,1.6-3.5,2.3c-1.2,0.7-2.3,1.4-3.5,2.1c-0.8,0.5-1.4,0.8-1.8,1c-0.4,0.2-0.8,0.4-1.1,0.6
								L74,47.8l3,1.8l1.8-1c2.5-1.4,4.8-1.9,7.2-1.4c0.3,0.1,0.6,0.1,0.8,0.2c6.2,1.2,11.1,1.8,14.6,1.5c3.6-0.2,6.8-1.2,9.6-2.8
								c3.7-2.1,5.4-4.7,5-7.7C115.6,35.3,113.4,32.6,109.3,30.3"/>
						</g>
					</g>
				</g>
			</g>
		</g>
	</g>
</g>
</svg>
