<?xml version="1.0" encoding="utf-8"?>
<!-- Generator: Adobe Illustrator 22.0.0, SVG Export Plug-In . SVG Version: 6.00 Build 0)  -->
<svg version="1.1" id="Layer_1" xmlns="http://www.w3.org/2000/svg" xmlns:xlink="http://www.w3.org/1999/xlink" x="0px" y="0px"
	 viewBox="0 0 60 60" style="enable-background:new 0 0 60 60;" xml:space="preserve">
<style type="text/css">
	.st0{fill:url(#SVGID_1_);}
	.st1{fill:#FFFFFF;stroke:#FFFFFF;stroke-miterlimit:10;}
</style>
<g>
	<linearGradient id="SVGID_1_" gradientUnits="userSpaceOnUse" x1="0.4233" y1="30.5041" x2="59.4315" y2="30.5041">
		<stop  offset="0" style="stop-color:#009688"/>
		<stop  offset="0.9944" style="stop-color:#3F51B5"/>
	</linearGradient>
	<circle class="st0" cx="29.9" cy="30.5" r="29.5"/>
	<path class="st1" d="M36,39.1c0-1.1-0.2-1.9-0.5-2.6c-0.4-0.7-1-1.3-1.8-1.9c-0.8-0.6-2.1-1.2-3.7-1.8c-1.6-0.6-2.9-1.3-3.6-1.9
		c-0.8-0.6-1.4-1.3-1.7-2.1c-0.4-0.8-0.6-1.8-0.6-3c0-1.9,0.6-3.4,1.7-4.5c1.1-1.1,2.5-1.7,4.3-1.8l0-3.2l0.8,0l0,3.2
		c1.9,0.1,3.4,0.8,4.4,2.1c1,1.3,1.5,3.1,1.5,5.3l-0.8,0c0-2-0.5-3.6-1.5-4.7c-1-1.2-2.3-1.8-4.1-1.8c-1.7,0-3,0.5-4,1.5
		c-1,1-1.5,2.3-1.5,3.9c0,1.1,0.2,2,0.5,2.7c0.3,0.7,0.9,1.3,1.7,1.8c0.8,0.5,1.9,1.1,3.3,1.6s2.5,1,3.2,1.5
		c0.8,0.4,1.4,0.9,1.9,1.5c0.5,0.6,0.9,1.2,1.1,1.9c0.2,0.7,0.4,1.5,0.4,2.4c0,1.8-0.5,3.3-1.6,4.5c-1.1,1.1-2.5,1.8-4.3,1.9l0,3.3
		l-0.8,0l0-3.2c-2.2-0.1-3.9-0.8-5.1-2.1c-1.2-1.3-1.8-3.1-1.8-5.4l0.8,0c0,2,0.6,3.6,1.7,4.8c1.1,1.2,2.7,1.7,4.6,1.7
		c1.6,0,2.9-0.5,4-1.6C35.4,41.9,36,40.6,36,39.1z"/>
</g>
</svg>
