<?xml version="1.0" encoding="utf-8"?>
<!-- Generator: Adobe Illustrator 22.0.0, SVG Export Plug-In . SVG Version: 6.00 Build 0)  -->
<svg version="1.1" id="Layer_1" xmlns="http://www.w3.org/2000/svg" xmlns:xlink="http://www.w3.org/1999/xlink" x="0px" y="0px"
	 viewBox="0 0 60 60" style="enable-background:new 0 0 60 60;" xml:space="preserve">
<style type="text/css">
	.st0{fill:url(#SVGID_1_);}
	.st1{fill:#FFFFFF;stroke:#FFFFFF;stroke-miterlimit:10;}
</style>
<g>
	
		<linearGradient id="SVGID_1_" gradientUnits="userSpaceOnUse" x1="148.0038" y1="30.0442" x2="183.9431" y2="30.0442" gradientTransform="matrix(1.3421 1.228061e-04 1.228060e-04 1 -191.6818 -6.883290e-02)">
		<stop  offset="0" style="stop-color:#009688"/>
		<stop  offset="0.9944" style="stop-color:#3F51B5"/>
	</linearGradient>
	<path class="st0" d="M32.1,0.7c-0.6-0.9-1.5-0.9-2,0L7.8,38c-0.6,0.9-0.9,2.5-0.9,3.6c0,0,0.5,7.1,7.9,12.8
		c6.5,5.1,13.9,5.5,13.9,5.5c1.2,0.1,3.2,0.1,4.5,0c0,0,9.7-0.5,16.6-7.8c4.8-5,5.2-10.6,5.2-10.6c0.1-1-0.3-2.6-0.8-3.6L32.1,0.7z"
		/>
	<path class="st1" d="M37.8,43c0-1.1-0.2-2-0.6-2.7c-0.4-0.7-1-1.4-1.9-2c-0.9-0.6-2.2-1.2-3.9-1.9c-1.7-0.7-3-1.3-3.8-1.9
		c-0.8-0.6-1.4-1.4-1.8-2.2c-0.4-0.8-0.6-1.9-0.6-3.1c0-2,0.6-3.5,1.7-4.7c1.1-1.2,2.6-1.8,4.5-1.9l0-3.4l0.9,0l0,3.4
		c2,0.1,3.5,0.9,4.5,2.2c1.1,1.4,1.6,3.2,1.6,5.5l-0.9,0c0-2-0.5-3.7-1.5-4.9c-1-1.2-2.4-1.9-4.2-1.9c-1.7,0-3.1,0.5-4.2,1.6
		c-1,1-1.6,2.4-1.6,4.1c0,1.2,0.2,2.1,0.5,2.8c0.3,0.7,0.9,1.3,1.7,1.9c0.8,0.6,1.9,1.1,3.4,1.7s2.6,1.1,3.4,1.5
		c0.8,0.4,1.4,0.9,1.9,1.5c0.5,0.6,0.9,1.2,1.1,1.9s0.4,1.5,0.4,2.5c0,1.9-0.6,3.5-1.7,4.6c-1.1,1.2-2.6,1.8-4.4,2l0,3.4l-0.9,0
		l0-3.4c-2.3-0.1-4-0.8-5.3-2.2c-1.2-1.4-1.9-3.2-1.9-5.6l0.9,0c0,2.1,0.6,3.8,1.8,5c1.2,1.2,2.8,1.8,4.8,1.8c1.7,0,3.1-0.5,4.1-1.6
		C37.3,46,37.8,44.6,37.8,43z"/>
</g>
</svg>
