<?xml version="1.0" encoding="utf-8"?>
<!-- Generator: Adobe Illustrator 22.0.0, SVG Export Plug-In . SVG Version: 6.00 Build 0)  -->
<svg version="1.1" id="Layer_1" xmlns="http://www.w3.org/2000/svg" xmlns:xlink="http://www.w3.org/1999/xlink" x="0px" y="0px"
	 viewBox="0 0 60 60" style="enable-background:new 0 0 60 60;" xml:space="preserve">
<style type="text/css">
	.st0{fill:url(#SVGID_1_);}
	.st1{fill:url(#SVGID_2_);}
	.st2{fill:url(#SVGID_3_);}
	.st3{fill:url(#SVGID_4_);}
	.st4{fill:url(#SVGID_5_);}
	.st5{fill:url(#SVGID_6_);}
	.st6{fill:url(#SVGID_7_);}
	.st7{fill:url(#SVGID_8_);}
	.st8{fill:url(#SVGID_9_);}
	.st9{fill:url(#SVGID_10_);}
</style>
<g>
	<g>
		<linearGradient id="SVGID_1_" gradientUnits="userSpaceOnUse" x1="6.7611" y1="9.6197" x2="24.3667" y2="9.6197">
			<stop  offset="0" style="stop-color:#009688"/>
			<stop  offset="0.9944" style="stop-color:#3F51B5"/>
		</linearGradient>
		<ellipse class="st0" cx="15.6" cy="9.6" rx="8.8" ry="8.6"/>
		<linearGradient id="SVGID_2_" gradientUnits="userSpaceOnUse" x1="14.8302" y1="28.6926" x2="17.0302" y2="28.6926">
			<stop  offset="0" style="stop-color:#009688"/>
			<stop  offset="0.9944" style="stop-color:#3F51B5"/>
		</linearGradient>
		<polygon class="st1" points="17,21.2 17,21.2 16.3,36.2 16.3,36.2 15.6,36.2 15.6,36.2 14.8,21.2 14.8,21.2 		"/>
		<linearGradient id="SVGID_3_" gradientUnits="userSpaceOnUse" x1="14.8302" y1="28.6926" x2="17.0302" y2="28.6926">
			<stop  offset="0" style="stop-color:#009688"/>
			<stop  offset="0.9944" style="stop-color:#3F51B5"/>
		</linearGradient>
		<polygon class="st2" points="17,21.2 17,21.2 16.3,36.2 16.3,36.2 15.6,36.2 15.6,36.2 14.8,21.2 14.8,21.2 		"/>
		<linearGradient id="SVGID_4_" gradientUnits="userSpaceOnUse" x1="20.5941" y1="28.6651" x2="31.6555" y2="28.6651">
			<stop  offset="0" style="stop-color:#009688"/>
			<stop  offset="0.9944" style="stop-color:#3F51B5"/>
		</linearGradient>
		<path class="st3" d="M20.7,37.5c-0.3,0.5,0,0.9,0.6,0.9h9.4c0.6,0,1-0.5,1-1.1c0,0-0.6-13.4-0.6-13.9c0,0,0-1.1,0-1.2
			c0-0.2,0-0.2,0-0.2c0-0.2-0.4-0.6-1-0.8L24.2,19c-0.5-0.2-0.9,0.1-0.8,0.7c0,0,1,4.5,0.4,8.6C23.2,32.9,20.7,37.5,20.7,37.5z"/>
		<linearGradient id="SVGID_5_" gradientUnits="userSpaceOnUse" x1="0.65" y1="28.2983" x2="11.7107" y2="28.2983">
			<stop  offset="0" style="stop-color:#009688"/>
			<stop  offset="0.9944" style="stop-color:#3F51B5"/>
		</linearGradient>
		<path class="st4" d="M11.6,37.1c0.3,0.5,0,0.9-0.6,0.9H1.7c-0.6,0-1-0.5-1-1.1c0,0,0.6-13.4,0.6-13.9c0,0,0-1.1,0-1.2
			c0-0.2,0-0.2,0-0.2c0-0.2,0.4-0.6,1-0.8l5.9-2.2c0.5-0.2,0.9,0.1,0.8,0.7c0,0-1,4.5-0.4,8.6C9.1,32.5,11.6,37.1,11.6,37.1z"/>
		<linearGradient id="SVGID_6_" gradientUnits="userSpaceOnUse" x1="34.1055" y1="30.9826" x2="51.7112" y2="30.9826">
			<stop  offset="0" style="stop-color:#009688"/>
			<stop  offset="0.9944" style="stop-color:#3F51B5"/>
		</linearGradient>
		<path class="st5" d="M42.9,22.4c-4.9,0-8.8,3.9-8.8,8.6s3.9,8.6,8.8,8.6c4.9,0,8.8-3.9,8.8-8.6S47.8,22.4,42.9,22.4z"/>
		<linearGradient id="SVGID_7_" gradientUnits="userSpaceOnUse" x1="42.1747" y1="50.0552" x2="44.3746" y2="50.0552">
			<stop  offset="0" style="stop-color:#009688"/>
			<stop  offset="0.9944" style="stop-color:#3F51B5"/>
		</linearGradient>
		<polygon class="st6" points="44.4,42.5 44.4,42.5 43.6,57.6 43.6,57.6 42.9,57.6 42.9,57.6 42.2,42.5 42.2,42.5 		"/>
		<linearGradient id="SVGID_8_" gradientUnits="userSpaceOnUse" x1="42.1747" y1="50.0552" x2="44.3746" y2="50.0552">
			<stop  offset="0" style="stop-color:#009688"/>
			<stop  offset="0.9944" style="stop-color:#3F51B5"/>
		</linearGradient>
		<polygon class="st7" points="44.4,42.5 44.4,42.5 43.6,57.6 43.6,57.6 42.9,57.6 42.9,57.6 42.2,42.5 42.2,42.5 		"/>
		<linearGradient id="SVGID_9_" gradientUnits="userSpaceOnUse" x1="47.9384" y1="50.0277" x2="59" y2="50.0277">
			<stop  offset="0" style="stop-color:#009688"/>
			<stop  offset="0.9944" style="stop-color:#3F51B5"/>
		</linearGradient>
		<path class="st8" d="M48.1,58.8c-0.3,0.5,0,0.9,0.6,0.9H58c0.6,0,1-0.5,1-1.1c0,0-0.6-13.4-0.6-13.9c0,0,0-1.1,0-1.2
			c0-0.2,0-0.2,0-0.2c0-0.2-0.4-0.6-1-0.8l-5.9-2.2c-0.5-0.2-0.9,0.1-0.8,0.7c0,0,1,4.5,0.4,8.6C50.6,54.2,48.1,58.8,48.1,58.8z"/>
		<linearGradient id="SVGID_10_" gradientUnits="userSpaceOnUse" x1="27.9944" y1="49.6609" x2="39.0551" y2="49.6609">
			<stop  offset="0" style="stop-color:#009688"/>
			<stop  offset="0.9944" style="stop-color:#3F51B5"/>
		</linearGradient>
		<path class="st9" d="M38.9,58.5c0.3,0.5,0,0.9-0.6,0.9H29c-0.6,0-1-0.5-1-1.1c0,0,0.6-13.4,0.6-13.9c0,0,0-1.1,0-1.2
			c0-0.2,0-0.2,0-0.2c0-0.2,0.4-0.6,1-0.8l5.9-2.2c0.5-0.2,0.9,0.1,0.8,0.7c0,0-1,4.5-0.4,8.6C36.4,53.9,38.9,58.5,38.9,58.5z"/>
	</g>
</g>
</svg>
