<?xml version="1.0" encoding="utf-8"?>
<!-- Generator: Adobe Illustrator 22.0.0, SVG Export Plug-In . SVG Version: 6.00 Build 0)  -->
<svg version="1.1" id="Layer_1" xmlns="http://www.w3.org/2000/svg" xmlns:xlink="http://www.w3.org/1999/xlink" x="0px" y="0px"
	 viewBox="0 0 60 60" style="enable-background:new 0 0 60 60;" xml:space="preserve">
<style type="text/css">
	.st0{fill:url(#SVGID_1_);}
	.st1{fill:url(#SVGID_2_);}
	.st2{fill:url(#SVGID_3_);}
	.st3{fill:url(#SVGID_4_);}
	.st4{fill:url(#SVGID_5_);}
	.st5{fill:url(#SVGID_6_);}
	.st6{fill:url(#SVGID_7_);}
	.st7{fill:url(#SVGID_8_);}
	.st8{fill:url(#SVGID_9_);}
	.st9{fill:url(#SVGID_10_);}
	.st10{fill:url(#SVGID_11_);stroke:url(#SVGID_12_);stroke-width:5;stroke-miterlimit:10;}
	.st11{fill:none;stroke:url(#SVGID_13_);stroke-width:0.5;stroke-miterlimit:10;}
	.st12{fill:#3F51B5;}
	.st13{fill:#009688;}
	.st14{fill:url(#SVGID_14_);}
	.st15{fill:url(#SVGID_15_);}
	.st16{fill:url(#SVGID_16_);}
	.st17{fill:url(#SVGID_17_);}
	.st18{fill:url(#SVGID_18_);}
	.st19{fill:url(#SVGID_19_);}
</style>
<g>
	<g>
		<g>
			<linearGradient id="SVGID_1_" gradientUnits="userSpaceOnUse" x1="24.3555" y1="7.1269" x2="36.87" y2="7.1269">
				<stop  offset="0" style="stop-color:#009688"/>
				<stop  offset="0.9944" style="stop-color:#3F51B5"/>
			</linearGradient>
			<path class="st0" d="M30.6,1c-3.5,0-6.3,2.7-6.3,6.1c0,3.4,2.8,6.1,6.3,6.1s6.3-2.7,6.3-6.1C36.9,3.7,34.1,1,30.6,1z"/>
			<linearGradient id="SVGID_2_" gradientUnits="userSpaceOnUse" x1="30.0916" y1="20.6844" x2="31.6554" y2="20.6844">
				<stop  offset="0" style="stop-color:#009688"/>
				<stop  offset="0.9944" style="stop-color:#3F51B5"/>
			</linearGradient>
			<polygon class="st1" points="31.7,15.3 31.7,15.3 31.1,26 31.1,26 30.6,26 30.6,26 30.1,15.3 30.1,15.3 			"/>
			<linearGradient id="SVGID_3_" gradientUnits="userSpaceOnUse" x1="30.0916" y1="20.6844" x2="31.6554" y2="20.6844">
				<stop  offset="0" style="stop-color:#009688"/>
				<stop  offset="0.9944" style="stop-color:#3F51B5"/>
			</linearGradient>
			<polygon class="st2" points="31.7,15.3 31.7,15.3 31.1,26 31.1,26 30.6,26 30.6,26 30.1,15.3 30.1,15.3 			"/>
			<linearGradient id="SVGID_4_" gradientUnits="userSpaceOnUse" x1="34.0685" y1="20.6174" x2="42.0656" y2="20.6174">
				<stop  offset="0" style="stop-color:#009688"/>
				<stop  offset="0.9944" style="stop-color:#3F51B5"/>
			</linearGradient>
			<path class="st3" d="M34.1,27.2c-0.1,0.2,0,0.4,0.2,0.4h7.3c0.2,0,0.4-0.2,0.4-0.4c0,0-0.4-9.9-0.4-10.2c0,0,0-0.8,0-0.9
				c0-0.1,0-0.1,0-0.1c0-0.2-0.2-0.4-0.4-0.4l-4.8-1.8c-0.2-0.1-0.4,0-0.3,0.3c0,0,0.7,3.5,0.4,6.4C36.1,23.7,34.1,27.2,34.1,27.2z"
				/>
			<linearGradient id="SVGID_5_" gradientUnits="userSpaceOnUse" x1="19.9977" y1="20.3567" x2="27.9948" y2="20.3567">
				<stop  offset="0" style="stop-color:#009688"/>
				<stop  offset="0.9944" style="stop-color:#3F51B5"/>
			</linearGradient>
			<path class="st4" d="M27.9,27c0.1,0.2,0,0.4-0.2,0.4h-7.3c-0.2,0-0.4-0.2-0.4-0.4c0,0,0.4-9.9,0.4-10.2c0,0,0-0.8,0-0.9
				c0-0.1,0-0.1,0-0.1c0-0.2,0.2-0.4,0.4-0.4l4.8-1.8c0.2-0.1,0.4,0,0.3,0.3c0,0-0.7,3.5-0.4,6.4C26,23.4,27.9,27,27.9,27z"/>
		</g>
	</g>
	<g>
		<g>
			<linearGradient id="SVGID_6_" gradientUnits="userSpaceOnUse" x1="39.7376" y1="44.7966" x2="48.827" y2="44.7966">
				<stop  offset="0" style="stop-color:#009688"/>
				<stop  offset="0.9944" style="stop-color:#3F51B5"/>
			</linearGradient>
			<path class="st5" d="M44.3,40.3c-2.5,0-4.5,2-4.5,4.5c0,2.5,2,4.5,4.5,4.5c2.5,0,4.5-2,4.5-4.5C48.8,42.3,46.8,40.3,44.3,40.3z"
				/>
			<linearGradient id="SVGID_7_" gradientUnits="userSpaceOnUse" x1="43.9038" y1="54.6435" x2="45.0396" y2="54.6435">
				<stop  offset="0" style="stop-color:#009688"/>
				<stop  offset="0.9944" style="stop-color:#3F51B5"/>
			</linearGradient>
			<polygon class="st6" points="45,50.8 45,50.8 44.7,58.5 44.7,58.5 44.3,58.5 44.3,58.5 43.9,50.8 43.9,50.8 			"/>
			<linearGradient id="SVGID_8_" gradientUnits="userSpaceOnUse" x1="43.9038" y1="54.6435" x2="45.0396" y2="54.6435">
				<stop  offset="0" style="stop-color:#009688"/>
				<stop  offset="0.9944" style="stop-color:#3F51B5"/>
			</linearGradient>
			<polygon class="st7" points="45,50.8 45,50.8 44.7,58.5 44.7,58.5 44.3,58.5 44.3,58.5 43.9,50.8 43.9,50.8 			"/>
			<linearGradient id="SVGID_9_" gradientUnits="userSpaceOnUse" x1="46.7923" y1="54.5949" x2="52.6007" y2="54.5949">
				<stop  offset="0" style="stop-color:#009688"/>
				<stop  offset="0.9944" style="stop-color:#3F51B5"/>
			</linearGradient>
			<path class="st8" d="M46.8,59.4c-0.1,0.2,0,0.3,0.2,0.3h5.3c0.2,0,0.3-0.1,0.3-0.3c0,0-0.3-7.2-0.3-7.4c0,0,0-0.6,0-0.6
				c0-0.1,0-0.1,0-0.1c0-0.1-0.1-0.3-0.3-0.3l-3.5-1.3c-0.2-0.1-0.3,0-0.2,0.2c0,0,0.5,2.5,0.3,4.7C48.2,56.8,46.8,59.4,46.8,59.4z"
				/>
			<linearGradient id="SVGID_10_" gradientUnits="userSpaceOnUse" x1="36.5725" y1="54.4055" x2="42.3808" y2="54.4055">
				<stop  offset="0" style="stop-color:#009688"/>
				<stop  offset="0.9944" style="stop-color:#3F51B5"/>
			</linearGradient>
			<path class="st9" d="M42.3,59.2c0.1,0.2,0,0.3-0.2,0.3h-5.3c-0.2,0-0.3-0.1-0.3-0.3c0,0,0.3-7.2,0.3-7.4c0,0,0-0.6,0-0.6
				c0-0.1,0-0.1,0-0.1c0-0.1,0.1-0.3,0.3-0.3l3.5-1.3c0.2-0.1,0.3,0,0.2,0.2c0,0-0.5,2.5-0.3,4.7C40.9,56.6,42.3,59.2,42.3,59.2z"/>
		</g>
	</g>
	<linearGradient id="SVGID_11_" gradientUnits="userSpaceOnUse" x1="31.1079" y1="30.6072" x2="31.1079" y2="30.6072">
		<stop  offset="0" style="stop-color:#009688"/>
		<stop  offset="0.9944" style="stop-color:#3F51B5"/>
	</linearGradient>
	<linearGradient id="SVGID_12_" gradientUnits="userSpaceOnUse" x1="31.1079" y1="30.6072" x2="31.1079" y2="30.6072">
		<stop  offset="0" style="stop-color:#009688"/>
		<stop  offset="0.9944" style="stop-color:#3F51B5"/>
	</linearGradient>
	<path class="st10" d="M31.1,30.6"/>
	<linearGradient id="SVGID_13_" gradientUnits="userSpaceOnUse" x1="25.1345" y1="35.0895" x2="37.9906" y2="35.0895">
		<stop  offset="5.618000e-03" style="stop-color:#3F51B5"/>
		<stop  offset="1" style="stop-color:#009688"/>
	</linearGradient>
	<polyline class="st11" points="25.4,40.2 31.1,30.3 37.8,40.2 	"/>
	<g>
		<g>
			<path class="st12" d="M25.5,41.5c1.9,0,1.9-3,0-3C23.6,38.5,23.5,41.5,25.5,41.5L25.5,41.5z"/>
		</g>
	</g>
	<g>
		<g>
			<path class="st13" d="M37.5,41.5c1.9,0,1.9-3,0-3C35.6,38.5,35.6,41.5,37.5,41.5L37.5,41.5z"/>
		</g>
	</g>
	<g>
		<g>
			<linearGradient id="SVGID_14_" gradientUnits="userSpaceOnUse" x1="29.6659" y1="30.3823" x2="32.5411" y2="30.3823">
				<stop  offset="5.618000e-03" style="stop-color:#3F51B5"/>
				<stop  offset="1" style="stop-color:#009688"/>
			</linearGradient>
			<path class="st14" d="M31.1,31.9c1.9,0,1.9-3,0-3C29.2,28.9,29.2,31.9,31.1,31.9L31.1,31.9z"/>
		</g>
	</g>
	<g>
		<g>
			<linearGradient id="SVGID_15_" gradientUnits="userSpaceOnUse" x1="11.9192" y1="44.7966" x2="21.0086" y2="44.7966">
				<stop  offset="0" style="stop-color:#009688"/>
				<stop  offset="0.9944" style="stop-color:#3F51B5"/>
			</linearGradient>
			<path class="st15" d="M16.5,40.3c-2.5,0-4.5,2-4.5,4.5c0,2.5,2,4.5,4.5,4.5s4.5-2,4.5-4.5C21,42.3,19,40.3,16.5,40.3z"/>
			<linearGradient id="SVGID_16_" gradientUnits="userSpaceOnUse" x1="16.0854" y1="54.6435" x2="17.2212" y2="54.6435">
				<stop  offset="0" style="stop-color:#009688"/>
				<stop  offset="0.9944" style="stop-color:#3F51B5"/>
			</linearGradient>
			<polygon class="st16" points="17.2,50.8 17.2,50.8 16.8,58.5 16.8,58.5 16.5,58.5 16.5,58.5 16.1,50.8 16.1,50.8 			"/>
			<linearGradient id="SVGID_17_" gradientUnits="userSpaceOnUse" x1="16.0854" y1="54.6435" x2="17.2212" y2="54.6435">
				<stop  offset="0" style="stop-color:#009688"/>
				<stop  offset="0.9944" style="stop-color:#3F51B5"/>
			</linearGradient>
			<polygon class="st17" points="17.2,50.8 17.2,50.8 16.8,58.5 16.8,58.5 16.5,58.5 16.5,58.5 16.1,50.8 16.1,50.8 			"/>
			<linearGradient id="SVGID_18_" gradientUnits="userSpaceOnUse" x1="18.9739" y1="54.5949" x2="24.7823" y2="54.5949">
				<stop  offset="0" style="stop-color:#009688"/>
				<stop  offset="0.9944" style="stop-color:#3F51B5"/>
			</linearGradient>
			<path class="st18" d="M19,59.4c-0.1,0.2,0,0.3,0.2,0.3h5.3c0.2,0,0.3-0.1,0.3-0.3c0,0-0.3-7.2-0.3-7.4c0,0,0-0.6,0-0.6
				c0-0.1,0-0.1,0-0.1c0-0.1-0.1-0.3-0.3-0.3l-3.5-1.3c-0.2-0.1-0.3,0-0.2,0.2c0,0,0.5,2.5,0.3,4.7C20.4,56.8,19,59.4,19,59.4z"/>
			<linearGradient id="SVGID_19_" gradientUnits="userSpaceOnUse" x1="8.7541" y1="54.4055" x2="14.5624" y2="54.4055">
				<stop  offset="0" style="stop-color:#009688"/>
				<stop  offset="0.9944" style="stop-color:#3F51B5"/>
			</linearGradient>
			<path class="st19" d="M14.5,59.2c0.1,0.2,0,0.3-0.2,0.3H9.1c-0.2,0-0.3-0.1-0.3-0.3c0,0,0.3-7.2,0.3-7.4c0,0,0-0.6,0-0.6
				c0-0.1,0-0.1,0-0.1c0-0.1,0.1-0.3,0.3-0.3l3.5-1.3c0.2-0.1,0.3,0,0.2,0.2c0,0-0.5,2.5-0.3,4.7C13.1,56.6,14.5,59.2,14.5,59.2z"/>
		</g>
	</g>
</g>
</svg>
