<?xml version="1.0" encoding="utf-8"?>
<!-- Generator: Adobe Illustrator 22.0.0, SVG Export Plug-In . SVG Version: 6.00 Build 0)  -->
<svg version="1.1" id="Layer_1" xmlns="http://www.w3.org/2000/svg" xmlns:xlink="http://www.w3.org/1999/xlink" x="0px" y="0px"
	 viewBox="0 0 60 60" style="enable-background:new 0 0 60 60;" xml:space="preserve">
<style type="text/css">
	.st0{fill:none;stroke:url(#SVGID_1_);stroke-width:0.75;stroke-miterlimit:10;}
	.st1{fill:url(#SVGID_2_);}
	.st2{fill:none;stroke:url(#SVGID_3_);stroke-width:0.75;stroke-miterlimit:10;}
	.st3{fill:none;stroke:url(#SVGID_4_);stroke-width:0.75;stroke-miterlimit:10;}
	.st4{fill:none;stroke:url(#SVGID_5_);stroke-miterlimit:10;}
	.st5{fill:none;stroke:url(#SVGID_6_);stroke-width:0.75;stroke-miterlimit:10;}
	.st6{fill:none;stroke:url(#SVGID_7_);stroke-width:0.75;stroke-miterlimit:10;}
	.st7{fill:none;stroke:url(#SVGID_8_);stroke-width:0.75;stroke-miterlimit:10;}
	.st8{fill:url(#SVGID_9_);}
	.st9{fill:none;stroke:url(#SVGID_10_);stroke-miterlimit:10;}
	.st10{fill:url(#SVGID_11_);}
	.st11{fill:none;stroke:url(#SVGID_12_);stroke-miterlimit:10;}
</style>
<g>
	<g>
		<linearGradient id="SVGID_1_" gradientUnits="userSpaceOnUse" x1="37.5193" y1="17.9895" x2="52.0867" y2="17.9895">
			<stop  offset="0" style="stop-color:#009688"/>
			<stop  offset="0.9944" style="stop-color:#3F51B5"/>
		</linearGradient>
		<path class="st0" d="M51.8,18.7c-0.3-0.4-0.5-0.8-0.8-1.2c-4.5,0-9,0-13.5,0"/>
	</g>
	<g>
		<linearGradient id="SVGID_2_" gradientUnits="userSpaceOnUse" x1="8.3453" y1="52.7362" x2="23.3812" y2="52.7362">
			<stop  offset="0" style="stop-color:#009688"/>
			<stop  offset="0.9944" style="stop-color:#3F51B5"/>
		</linearGradient>
		<path class="st1" d="M23.4,52.8c-5-0.1-10-0.1-15-0.2C13.4,52.7,18.4,52.8,23.4,52.8z"/>
		<linearGradient id="SVGID_3_" gradientUnits="userSpaceOnUse" x1="8.3407" y1="52.7362" x2="23.3858" y2="52.7362">
			<stop  offset="0" style="stop-color:#009688"/>
			<stop  offset="0.9944" style="stop-color:#3F51B5"/>
		</linearGradient>
		<path class="st2" d="M23.4,52.8c-5-0.1-10-0.1-15-0.2C13.4,52.7,18.4,52.8,23.4,52.8z"/>
	</g>
	<g>
		<linearGradient id="SVGID_4_" gradientUnits="userSpaceOnUse" x1="7.7248" y1="51.9411" x2="22.8157" y2="51.9411">
			<stop  offset="0" style="stop-color:#009688"/>
			<stop  offset="0.9944" style="stop-color:#3F51B5"/>
		</linearGradient>
		<path class="st3" d="M8,52.6c0.3-0.4,0.5-0.8,0.8-1.2c4.7,0,9.3,0,14,0"/>
	</g>
	<linearGradient id="SVGID_5_" gradientUnits="userSpaceOnUse" x1="17.3297" y1="34.3721" x2="42.6579" y2="34.3721">
		<stop  offset="5.618000e-03" style="stop-color:#3F51B5"/>
		<stop  offset="1" style="stop-color:#009688"/>
	</linearGradient>
	<line class="st4" x1="17.3" y1="34.4" x2="42.7" y2="34.4"/>
	<g>
		<linearGradient id="SVGID_6_" gradientUnits="userSpaceOnUse" x1="18.5511" y1="17.9413" x2="37.9642" y2="17.9413">
			<stop  offset="5.618000e-03" style="stop-color:#3F51B5"/>
			<stop  offset="1" style="stop-color:#009688"/>
		</linearGradient>
		<path class="st5" d="M33,9.8c0,0-0.1-0.1-0.1-0.1l-9.3,0c-0.1,0-0.1,0-0.1,0.1l-4.5,8c0,0,0,0.1,0,0.2l4.5,8c0,0,0.1,0.1,0.1,0.1
			l9.3,0c0.1,0,0.1,0,0.1-0.1l4.5-8c0,0,0-0.1,0-0.2L33,9.8z"/>
	</g>
	<g>
		<linearGradient id="SVGID_7_" gradientUnits="userSpaceOnUse" x1="37.1186" y1="18.6942" x2="51.7567" y2="18.6942">
			<stop  offset="0" style="stop-color:#009688"/>
			<stop  offset="0.9944" style="stop-color:#3F51B5"/>
		</linearGradient>
		<path class="st6" d="M37.1,18.7l14.6,0L37.1,18.7z"/>
	</g>
	<g>
		<linearGradient id="SVGID_8_" gradientUnits="userSpaceOnUse" x1="22.2248" y1="51.318" x2="41.653" y2="51.318">
			<stop  offset="5.618000e-03" style="stop-color:#3F51B5"/>
			<stop  offset="1" style="stop-color:#009688"/>
		</linearGradient>
		<path class="st7" d="M27.2,43.2c0,0,0.1-0.1,0.1-0.1l9.3,0c0.1,0,0.1,0,0.1,0.1l4.5,8c0,0,0,0.1,0,0.2l-4.5,8c0,0-0.1,0.1-0.1,0.1
			l-9.3,0c-0.1,0-0.1,0-0.1-0.1l-4.5-8c0,0,0-0.1,0-0.2L27.2,43.2z"/>
	</g>
	<g>
		<linearGradient id="SVGID_9_" gradientUnits="userSpaceOnUse" x1="0.4806" y1="34.3972" x2="19.1536" y2="34.3972">
			<stop  offset="0" style="stop-color:#009688"/>
			<stop  offset="0.9944" style="stop-color:#3F51B5"/>
		</linearGradient>
		<path class="st8" d="M14.6,26.3c0,0-0.1-0.1-0.1-0.1l-9.3,0c-0.1,0-0.1,0-0.1,0.1l-4.5,8c0,0,0,0.1,0,0.2l4.5,8
			c0,0,0.1,0.1,0.1,0.1l9.3,0c0.1,0,0.1,0,0.1-0.1l4.5-8c0,0,0-0.1,0-0.2L14.6,26.3z"/>
		<linearGradient id="SVGID_10_" gradientUnits="userSpaceOnUse" x1="-1.937508e-02" y1="34.3972" x2="19.6536" y2="34.3972">
			<stop  offset="0" style="stop-color:#009688"/>
			<stop  offset="0.9944" style="stop-color:#3F51B5"/>
		</linearGradient>
		<path class="st9" d="M14.6,26.3c0,0-0.1-0.1-0.1-0.1l-9.3,0c-0.1,0-0.1,0-0.1,0.1l-4.5,8c0,0,0,0.1,0,0.2l4.5,8
			c0,0,0.1,0.1,0.1,0.1l9.3,0c0.1,0,0.1,0,0.1-0.1l4.5-8c0,0,0-0.1,0-0.2L14.6,26.3z"/>
	</g>
	<g>
		<linearGradient id="SVGID_11_" gradientUnits="userSpaceOnUse" x1="40.9117" y1="34.3961" x2="59.5847" y2="34.3961">
			<stop  offset="0" style="stop-color:#009688"/>
			<stop  offset="0.9944" style="stop-color:#3F51B5"/>
		</linearGradient>
		<path class="st10" d="M55,26.3c0,0-0.1-0.1-0.1-0.1l-9.3,0c-0.1,0-0.1,0-0.1,0.1l-4.5,8c0,0,0,0.1,0,0.2l4.5,8
			c0,0,0.1,0.1,0.1,0.1l9.3,0c0.1,0,0.1,0,0.1-0.1l4.5-8c0,0,0-0.1,0-0.2L55,26.3z"/>
		<linearGradient id="SVGID_12_" gradientUnits="userSpaceOnUse" x1="40.4117" y1="34.3961" x2="60.0847" y2="34.3961">
			<stop  offset="0" style="stop-color:#009688"/>
			<stop  offset="0.9944" style="stop-color:#3F51B5"/>
		</linearGradient>
		<path class="st11" d="M55,26.3c0,0-0.1-0.1-0.1-0.1l-9.3,0c-0.1,0-0.1,0-0.1,0.1l-4.5,8c0,0,0,0.1,0,0.2l4.5,8
			c0,0,0.1,0.1,0.1,0.1l9.3,0c0.1,0,0.1,0,0.1-0.1l4.5-8c0,0,0-0.1,0-0.2L55,26.3z"/>
	</g>
</g>
</svg>
