<?xml version="1.0" encoding="utf-8"?>
<!-- Generator: Adobe Illustrator 22.0.0, SVG Export Plug-In . SVG Version: 6.00 Build 0)  -->
<svg version="1.1" id="Layer_1" xmlns="http://www.w3.org/2000/svg" xmlns:xlink="http://www.w3.org/1999/xlink" x="0px" y="0px"
	 viewBox="0 0 60 60" style="enable-background:new 0 0 60 60;" xml:space="preserve">
<style type="text/css">
	.st0{fill:url(#SVGID_1_);}
	.st1{fill:none;stroke:#FFFFFF;stroke-width:0.25;stroke-miterlimit:10;stroke-dasharray:1,3;}
	.st2{fill:none;stroke:#FFFFFF;stroke-width:0.25;stroke-miterlimit:10;}
	.st3{fill:#FFFFFF;stroke:#FFFFFF;stroke-width:0.25;stroke-miterlimit:10;}
	.st4{fill:none;stroke:#FFFFFF;stroke-width:0.5;stroke-miterlimit:10;}
</style>
<g>
	<linearGradient id="SVGID_1_" gradientUnits="userSpaceOnUse" x1="0.8803" y1="30.2756" x2="59.4315" y2="30.2756">
		<stop  offset="0" style="stop-color:#009688"/>
		<stop  offset="0.9944" style="stop-color:#3F51B5"/>
	</linearGradient>
	<circle class="st0" cx="30.2" cy="30.3" r="29.3"/>
	<circle class="st1" cx="30.5" cy="30.5" r="24.4"/>
	<path class="st2" d="M28.7,28.4h9.3c0.1,3.1,0.1,6.2,0.2,9.3c1.1,0,2.2,0,3.4,0"/>
	<path class="st2" d="M43.2,37.7c0-0.5-0.4-0.8-0.8-0.8c-0.5,0-0.8,0.4-0.8,0.8c0,0.5,0.4,0.8,0.8,0.8
		C42.8,38.5,43.2,38.1,43.2,37.7z"/>
	<path class="st3" d="M28,29c0.6,0,0.6-1,0-1C27.4,28,27.4,29,28,29z"/>
	<path class="st2" d="M34.3,31.8h-6.5c-0.1,2.2-0.1,4.3-0.1,6.5c-0.8,0-1.6,0-2.4,0"/>
	<path class="st2" d="M24.1,38.2c0-0.3,0.3-0.6,0.6-0.6c0.3,0,0.6,0.3,0.6,0.6s-0.3,0.6-0.6,0.6C24.4,38.8,24.1,38.6,24.1,38.2z"/>
	<path class="st3" d="M34.7,32.3c0.6,0,0.6-1,0-1C34.1,31.3,34.1,32.3,34.7,32.3z"/>
	<path class="st2" d="M25.2,41.5v4.9c-1.6,0-3.2,0.1-4.9,0.1c0,0.6,0,1.2,0,1.8"/>
	<path class="st4" d="M20.3,49.1c0.2,0,0.4-0.2,0.4-0.4c0-0.2-0.2-0.4-0.4-0.4s-0.4,0.2-0.4,0.4C19.9,48.9,20.1,49.1,20.3,49.1z"/>
	<path class="st3" d="M25.1,41.6c0.6,0,0.6-1,0-1C24.5,40.6,24.5,41.6,25.1,41.6z"/>
	<path class="st2" d="M16.6,31.6h-4.3c0,1.4-0.1,2.9-0.1,4.3c-0.5,0-1,0-1.6,0"/>
	<path class="st2" d="M9.8,35.9c0-0.2,0.2-0.4,0.4-0.4c0.2,0,0.4,0.2,0.4,0.4c0,0.2-0.2,0.4-0.4,0.4C10,36.3,9.8,36.1,9.8,35.9z"/>
	<path class="st3" d="M16.9,32.1c0.6,0,0.6-1,0-1C16.3,31.2,16.3,32.1,16.9,32.1z"/>
	<path class="st2" d="M20.7,26.6h6c0-2,0.1-4,0.1-6c0.7,0,1.5,0,2.2,0"/>
	<path class="st2" d="M30.2,20.6c0,0.3-0.2,0.5-0.5,0.5c-0.3,0-0.5-0.2-0.5-0.5c0-0.3,0.2-0.5,0.5-0.5
		C29.9,20.1,30.2,20.3,30.2,20.6z"/>
	<path class="st3" d="M20.5,27c0.6-0.2,0.3-1.1-0.3-0.9C19.6,26.3,19.9,27.2,20.5,27z"/>
	<path class="st2" d="M19.9,21.8h-4c0-1.3-0.1-2.7-0.1-4c-0.5,0-1,0-1.4,0"/>
	<path class="st2" d="M13.7,17.8c0,0.2,0.2,0.4,0.4,0.4s0.4-0.2,0.4-0.4c0-0.2-0.2-0.4-0.4-0.4S13.7,17.6,13.7,17.8z"/>
	<path class="st3" d="M20.2,22.2c0.6,0,0.6-1,0-1C19.5,21.3,19.5,22.2,20.2,22.2z"/>
	<path class="st2" d="M33.1,17.5v-4.3c-1.4,0-2.9-0.1-4.3-0.1c0-0.5,0-1,0-1.6"/>
	<path class="st2" d="M28.7,10.7c0.2,0,0.4,0.2,0.4,0.4c0,0.2-0.2,0.4-0.4,0.4s-0.4-0.2-0.4-0.4C28.4,10.9,28.5,10.7,28.7,10.7z"/>
	<path class="st3" d="M33,18.3c0.6,0,0.6-1,0-1C32.4,17.3,32.4,18.3,33,18.3z"/>
	<path class="st2" d="M44,30.2h4c0,1.3,0.1,2.7,0.1,4c0.5,0,1,0,1.4,0"/>
	<circle class="st2" cx="49.9" cy="34.2" r="0.4"/>
	<path class="st3" d="M43.7,30.7c0.6,0,0.6-1,0-1C43.1,29.7,43.1,30.7,43.7,30.7z"/>
	<path class="st2" d="M34.4,43.3v4c1.3,0,2.7,0.1,4,0.1c0,0.5,0,1,0,1.4"/>
	<path class="st4" d="M38.4,49.5c-0.2,0-0.4-0.2-0.4-0.4c0-0.2,0.2-0.4,0.4-0.4s0.4,0.2,0.4,0.4C38.8,49.3,38.6,49.5,38.4,49.5z"/>
	<path class="st3" d="M34.5,43.5c0.6,0,0.6-1,0-1C33.8,42.5,33.8,43.5,34.5,43.5z"/>
	<path class="st2" d="M41.4,21.5v-4c1.3,0,2.7-0.1,4-0.1c0-0.5,0-1,0-1.5"/>
	<path class="st2" d="M45.3,15.2c-0.2,0-0.4,0.2-0.4,0.4c0,0.2,0.2,0.4,0.4,0.4c0.2,0,0.4-0.2,0.4-0.4
		C45.7,15.4,45.5,15.2,45.3,15.2z"/>
	<path class="st3" d="M41.4,22.2c0.6,0,0.6-1,0-1C40.8,21.2,40.8,22.2,41.4,22.2z"/>
</g>
</svg>
