<?xml version="1.0" encoding="utf-8"?>
<!-- Generator: Adobe Illustrator 22.0.0, SVG Export Plug-In . SVG Version: 6.00 Build 0)  -->
<svg version="1.1" id="Layer_1" xmlns="http://www.w3.org/2000/svg" xmlns:xlink="http://www.w3.org/1999/xlink" x="0px" y="0px"
	 viewBox="0 0 60.1 50.5" style="enable-background:new 0 0 60.1 50.5;" xml:space="preserve">
<style type="text/css">
	.st0{fill:none;stroke:#FFFFFF;stroke-width:0.75;stroke-miterlimit:10;}
	.st1{fill:url(#SVGID_1_);}
	.st2{fill:none;stroke:#FFFFFF;stroke-miterlimit:10;}
	.st3{fill:#FFFFFF;}
</style>
<g>
	<g>
		<path class="st0" d="M51.8,9.3c-0.3-0.4-0.5-0.8-0.8-1.2c-4.5,0-9,0-13.5,0"/>
	</g>
	<g>
		<linearGradient id="SVGID_1_" gradientUnits="userSpaceOnUse" x1="8.3647" y1="43.3593" x2="23.4006" y2="43.3593">
			<stop  offset="0" style="stop-color:#009688"/>
			<stop  offset="0.9944" style="stop-color:#3F51B5"/>
		</linearGradient>
		<path class="st1" d="M23.4,43.5c-5-0.1-10-0.1-15-0.2C13.4,43.3,18.4,43.4,23.4,43.5z"/>
		<path class="st0" d="M23.4,43.5c-5-0.1-10-0.1-15-0.2C13.4,43.3,18.4,43.4,23.4,43.5z"/>
	</g>
	<g>
		<path class="st0" d="M8.1,43.3c0.3-0.4,0.5-0.8,0.8-1.2c4.7,0,9.3,0,14,0"/>
	</g>
	<line class="st2" x1="17.3" y1="25" x2="42.7" y2="25"/>
	<g>
		<path class="st0" d="M33.1,0.5c0,0-0.1-0.1-0.1-0.1l-9.3,0c-0.1,0-0.1,0-0.1,0.1l-4.5,8c0,0,0,0.1,0,0.2l4.5,8
			c0,0,0.1,0.1,0.1,0.1l9.3,0c0.1,0,0.1,0,0.1-0.1l4.5-8c0,0,0-0.1,0-0.2L33.1,0.5z"/>
	</g>
	<g>
		<path class="st0" d="M37.1,9.3l14.6,0L37.1,9.3z"/>
	</g>
	<g>
		<path class="st0" d="M27.2,33.8c0,0,0.1-0.1,0.1-0.1l9.3,0c0.1,0,0.1,0,0.1,0.1l4.5,8c0,0,0,0.1,0,0.2l-4.5,8c0,0-0.1,0.1-0.1,0.1
			l-9.3,0c-0.1,0-0.1,0-0.1-0.1l-4.5-8c0,0,0-0.1,0-0.2L27.2,33.8z"/>
	</g>
	<g>
		<path class="st3" d="M14.6,16.9c0,0-0.1-0.1-0.1-0.1l-9.3,0c-0.1,0-0.1,0-0.1,0.1l-4.5,8c0,0,0,0.1,0,0.2l4.5,8
			c0,0,0.1,0.1,0.1,0.1l9.3,0c0.1,0,0.1,0,0.1-0.1l4.5-8c0,0,0-0.1,0-0.2L14.6,16.9z"/>
		<path class="st2" d="M14.6,16.9c0,0-0.1-0.1-0.1-0.1l-9.3,0c-0.1,0-0.1,0-0.1,0.1l-4.5,8c0,0,0,0.1,0,0.2l4.5,8
			c0,0,0.1,0.1,0.1,0.1l9.3,0c0.1,0,0.1,0,0.1-0.1l4.5-8c0,0,0-0.1,0-0.2L14.6,16.9z"/>
	</g>
	<g>
		<path class="st3" d="M55,16.9c0,0-0.1-0.1-0.1-0.1l-9.3,0c-0.1,0-0.1,0-0.1,0.1l-4.5,8c0,0,0,0.1,0,0.2l4.5,8c0,0,0.1,0.1,0.1,0.1
			l9.3,0c0.1,0,0.1,0,0.1-0.1l4.5-8c0,0,0-0.1,0-0.2L55,16.9z"/>
		<path class="st2" d="M55,16.9c0,0-0.1-0.1-0.1-0.1l-9.3,0c-0.1,0-0.1,0-0.1,0.1l-4.5,8c0,0,0,0.1,0,0.2l4.5,8c0,0,0.1,0.1,0.1,0.1
			l9.3,0c0.1,0,0.1,0,0.1-0.1l4.5-8c0,0,0-0.1,0-0.2L55,16.9z"/>
	</g>
</g>
</svg>
