<?xml version="1.0" encoding="utf-8"?>
<!-- Generator: Adobe Illustrator 22.0.0, SVG Export Plug-In . SVG Version: 6.00 Build 0)  -->
<svg version="1.1" id="Layer_1" xmlns="http://www.w3.org/2000/svg" xmlns:xlink="http://www.w3.org/1999/xlink" x="0px" y="0px"
	 viewBox="0 0 60 60" style="enable-background:new 0 0 60 60;" xml:space="preserve">
<style type="text/css">
	.st0{fill:url(#SVGID_1_);stroke:url(#SVGID_2_);stroke-width:0.5;stroke-miterlimit:10;}
	.st1{fill:none;stroke:url(#SVGID_3_);stroke-width:0.5;stroke-miterlimit:10;}
	.st2{fill:url(#SVGID_4_);stroke:url(#SVGID_5_);stroke-width:0.5;stroke-miterlimit:10;}
	.st3{fill:none;stroke:url(#SVGID_6_);stroke-width:0.75;stroke-miterlimit:10;}
	.st4{fill:url(#SVGID_7_);stroke:url(#SVGID_8_);stroke-width:0.5;stroke-miterlimit:10;}
	.st5{fill:url(#SVGID_9_);stroke:url(#SVGID_10_);stroke-width:0.25;stroke-miterlimit:10;}
	.st6{fill:url(#SVGID_11_);}
	.st7{fill:none;stroke:#FFFFFF;stroke-width:0.25;stroke-miterlimit:10;}
	.st8{fill:#3F51B5;stroke:#FFFFFF;stroke-width:0.25;stroke-miterlimit:10;}
</style>
<g>
	
		<linearGradient id="SVGID_1_" gradientUnits="userSpaceOnUse" x1="-291.0756" y1="-383.826" x2="-260.7311" y2="-383.826" gradientTransform="matrix(0.7071 -0.7071 0.7071 0.7071 480.6716 91.0202)">
		<stop  offset="0" style="stop-color:#009688"/>
		<stop  offset="0.9944" style="stop-color:#3F51B5"/>
	</linearGradient>
	<linearGradient id="SVGID_2_" gradientUnits="userSpaceOnUse" x1="3.2674" y1="14.7073" x2="25.0777" y2="14.7073">
		<stop  offset="0" style="stop-color:#009688"/>
		<stop  offset="0.9944" style="stop-color:#3F51B5"/>
	</linearGradient>
	<line class="st0" x1="3.4" y1="25.4" x2="24.9" y2="4"/>
	
		<linearGradient id="SVGID_3_" gradientUnits="userSpaceOnUse" x1="-290.7522" y1="-340.6539" x2="-260.5064" y2="-340.6539" gradientTransform="matrix(0.7071 -0.7071 0.7071 0.7071 480.6716 91.0202)">
		<stop  offset="0" style="stop-color:#009688"/>
		<stop  offset="0.9944" style="stop-color:#3F51B5"/>
	</linearGradient>
	<polyline class="st1" points="55.2,34.4 34.2,55.4 34.5,55.7 55.6,34.7 55.2,34.4 	"/>
	
		<linearGradient id="SVGID_4_" gradientUnits="userSpaceOnUse" x1="-291.0239" y1="-361.7773" x2="-260.2915" y2="-361.7773" gradientTransform="matrix(0.7071 -0.7071 0.7071 0.7071 480.6716 91.0202)">
		<stop  offset="0" style="stop-color:#009688"/>
		<stop  offset="0.9944" style="stop-color:#3F51B5"/>
	</linearGradient>
	<linearGradient id="SVGID_5_" gradientUnits="userSpaceOnUse" x1="0.5004" y1="30.1243" x2="59.3738" y2="30.1243">
		<stop  offset="0" style="stop-color:#009688"/>
		<stop  offset="0.9944" style="stop-color:#3F51B5"/>
	</linearGradient>
	<path class="st2" d="M2.5,17.5L17.3,2.7c0.9-0.9,2-1.3,3.1-1.3c1.1,0,2.3,0.4,3.1,1.3l31.7,31.7l0,0l0.3,0.3l0,0l1.8,1.8
		c0.9,0.9,1.3,2,1.3,3.1c0,1.1-0.4,2.3-1.3,3.1L42.5,57.6c-0.9,0.9-2,1.3-3.1,1.3c-1.1,0-2.3-0.4-3.1-1.3L2.5,23.8
		c-0.9-0.9-1.3-2-1.3-3.1C1.2,19.5,1.6,18.4,2.5,17.5L2.5,17.5 M17,2.4L2.2,17.2c-1.9,1.9-1.9,5,0,6.9L36,57.9c1.9,1.9,5,1.9,6.9,0
		l14.8-14.8c1.9-1.9,1.9-5,0-6.9L23.9,2.4C22,0.5,18.9,0.5,17,2.4"/>
	
		<linearGradient id="SVGID_6_" gradientUnits="userSpaceOnUse" x1="-277.6328" y1="-337.1126" x2="-273.4478" y2="-337.1126" gradientTransform="matrix(0.7071 -0.7071 0.7071 0.7071 480.6716 91.0202)">
		<stop  offset="0" style="stop-color:#009688"/>
		<stop  offset="0.9944" style="stop-color:#3F51B5"/>
	</linearGradient>
	<ellipse transform="matrix(0.7071 -0.7071 0.7071 0.7071 -19.674 47.4669)" class="st3" cx="47.5" cy="47.5" rx="1.7" ry="1.9"/>
	
		<linearGradient id="SVGID_7_" gradientUnits="userSpaceOnUse" x1="-279.0521" y1="-386.2928" x2="-273.3271" y2="-386.2928" gradientTransform="matrix(0.7071 -0.7071 0.7071 0.7071 480.6716 91.0202)">
		<stop  offset="0" style="stop-color:#009688"/>
		<stop  offset="0.9944" style="stop-color:#3F51B5"/>
	</linearGradient>
	
		<linearGradient id="SVGID_8_" gradientUnits="userSpaceOnUse" x1="-279.0521" y1="-386.2928" x2="-273.3271" y2="-386.2928" gradientTransform="matrix(0.7071 -0.7071 0.7071 0.7071 480.6716 91.0202)">
		<stop  offset="0" style="stop-color:#009688"/>
		<stop  offset="0.9944" style="stop-color:#3F51B5"/>
	</linearGradient>
	<line class="st4" x1="10.2" y1="15.2" x2="14.2" y2="11.1"/>
	
		<linearGradient id="SVGID_9_" gradientUnits="userSpaceOnUse" x1="-272.3282" y1="-386.3954" x2="-271.6542" y2="-386.3954" gradientTransform="matrix(0.7071 -0.7071 0.7071 0.7071 480.6716 91.0202)">
		<stop  offset="0" style="stop-color:#009688"/>
		<stop  offset="0.9944" style="stop-color:#3F51B5"/>
	</linearGradient>
	<linearGradient id="SVGID_10_" gradientUnits="userSpaceOnUse" x1="14.6478" y1="10.1242" x2="15.5961" y2="10.1242">
		<stop  offset="0" style="stop-color:#009688"/>
		<stop  offset="0.9944" style="stop-color:#3F51B5"/>
	</linearGradient>
	<path class="st5" d="M15.4,10.4c0.3-0.3-0.2-0.8-0.5-0.5C14.6,10.2,15.1,10.7,15.4,10.4z"/>
	
		<linearGradient id="SVGID_11_" gradientUnits="userSpaceOnUse" x1="-289.5118" y1="-362.2485" x2="-261.6923" y2="-362.2485" gradientTransform="matrix(0.7071 -0.7071 0.7071 0.7071 480.6716 91.0202)">
		<stop  offset="0" style="stop-color:#009688"/>
		<stop  offset="0.9944" style="stop-color:#3F51B5"/>
	</linearGradient>
	<polygon class="st6" points="54,34.4 34.3,54.1 5.3,25.1 25,5.4 	"/>
	<g>
		<path class="st7" d="M39.8,31.1L31.8,39c-1,1-2.7,1.1-3.7,0.1l-5.5-5.5c-0.5-0.5-0.7-1.2-0.7-1.8c0-0.2,0-0.4,0.1-0.4
			c0.1-0.7,0.5-1.2,0.8-1.4c2.6-2.6,5.3-5.3,7.9-7.9c1-1,2.7-1.1,3.7-0.1l5.5,5.5C40.9,28.3,40.8,30,39.8,31.1z"/>
		<path class="st7" d="M22,31.2l4.9-10.7c0.4-0.9,0.9-1.5,1.2-1.3c0.2,0.2,0.7,0.7,1.1,1.1c1.2,1.2,0.9,0.9,0.9,0.9"/>
		<path class="st7" d="M33.8,29.3c0.4,0.4,1.1,0.4,1.5,0l2.3-2.3c0.4-0.4,0.4-1.1,0-1.5l-0.3-0.3c-0.4-0.4-1.1-0.4-1.5,0l-2.3,2.3
			c-0.4,0.4-0.4,1.1,0,1.5L33.8,29.3z"/>
		<path class="st8" d="M35.2,28.4c0.4-0.4-0.2-1.1-0.6-0.6C34.1,28.2,34.8,28.8,35.2,28.4z"/>
	</g>
</g>
</svg>
