<?xml version="1.0" encoding="utf-8"?>
<!-- Generator: Adobe Illustrator 22.0.0, SVG Export Plug-In . SVG Version: 6.00 Build 0)  -->
<svg version="1.1" id="Layer_1" xmlns="http://www.w3.org/2000/svg" xmlns:xlink="http://www.w3.org/1999/xlink" x="0px" y="0px"
	 viewBox="0 0 60 60" style="enable-background:new 0 0 60 60;" xml:space="preserve">
<style type="text/css">
	.st0{fill:none;stroke:url(#SVGID_1_);stroke-width:3;stroke-miterlimit:10;}
	.st1{fill:url(#SVGID_2_);}
	.st2{fill:none;stroke:url(#SVGID_3_);stroke-width:3;stroke-miterlimit:10;}
	.st3{fill:#FFFFFF;}
</style>
<g>
	<linearGradient id="SVGID_1_" gradientUnits="userSpaceOnUse" x1="44.5586" y1="30.4701" x2="59.949" y2="30.4701">
		<stop  offset="5.618000e-03" style="stop-color:#3F51B5"/>
		<stop  offset="1" style="stop-color:#009688"/>
	</linearGradient>
	<path class="st0" d="M45.5,14.6c0.8-0.7,2.9-2.4,6.1-2.5c0.9,0,2.9-0.1,4.5,1.1c0.7,0.6,2.2,2.1,2.3,6.5c0.1,6.7-3,9.5-4.2,14.8
		c-0.7,3.3-0.9,8.2,2.3,15.2"/>
	<g>
		<linearGradient id="SVGID_2_" gradientUnits="userSpaceOnUse" x1="1.4955" y1="36.4789" x2="45.6648" y2="36.4789">
			<stop  offset="0" style="stop-color:#009688"/>
			<stop  offset="0.9944" style="stop-color:#3F51B5"/>
		</linearGradient>
		<path class="st1" d="M31,14.4c-0.5,0-1.3,0.3-1.7,0.7L1.8,43.8c-0.4,0.4-0.4,1,0,1.4l12.8,13c0.4,0.4,1,0.4,1.4,0L45,30
			c0.4-0.4,0.7-1.1,0.7-1.7V15.4c0-0.6-0.5-1-1-1H31z"/>
		<linearGradient id="SVGID_3_" gradientUnits="userSpaceOnUse" x1="-4.500430e-03" y1="36.4789" x2="47.1648" y2="36.4789">
			<stop  offset="0" style="stop-color:#009688"/>
			<stop  offset="0.9944" style="stop-color:#3F51B5"/>
		</linearGradient>
		<path class="st2" d="M31,14.4c-0.5,0-1.3,0.3-1.7,0.7L1.8,43.8c-0.4,0.4-0.4,1,0,1.4l12.8,13c0.4,0.4,1,0.4,1.4,0L45,30
			c0.4-0.4,0.7-1.1,0.7-1.7V15.4c0-0.6-0.5-1-1-1H31z"/>
	</g>
	<circle class="st3" cx="32.8" cy="27" r="4.5"/>
</g>
</svg>
