<svg width="50" height="45" xmlns="http://www.w3.org/2000/svg"><g fill="none" fill-rule="evenodd"><path d="M50 6.521a47.816 47.816 0 0 1-.986 5.28 49.601 49.601 0 0 1-1.495 5.047 40.983 40.983 0 0 0-9.2-4.533 39.556 39.556 0 0 0-4.9-1.353c-.021-.009-.052-.009-.082-.019a39.364 39.364 0 0 0-5.043-.717c-.376-.03-.762-.06-1.139-.08-.711-.03-1.433-.05-2.155-.05-.722 0-1.444.02-2.155.05-.377.02-.763.05-1.139.08a39.364 39.364 0 0 0-5.043.717c-.03.01-.06.01-.081.02a39.556 39.556 0 0 0-4.9 1.352 40.132 40.132 0 0 0-4.708 1.96 39.204 39.204 0 0 0-4.483 2.564A48.69 48.69 0 0 1 .986 11.81 50.993 50.993 0 0 1 0 6.521 48.825 48.825 0 0 1 4.85 4.13a47.98 47.98 0 0 1 4.96-1.837 52.427 52.427 0 0 1 5.033-1.282 51.793 51.793 0 0 1 5.063-.758h.02A49.477 49.477 0 0 1 25 0c1.718 0 3.406.08 5.073.252h.02c1.719.172 3.406.424 5.064.758 1.708.343 3.385.777 5.032 1.282a51.352 51.352 0 0 1 4.961 1.827A48.9 48.9 0 0 1 50 6.52" fill="#0A2052"/><path d="M46.196 22.067a45.18 45.18 0 0 1-1.463 2.876h-.01c-.307.575-.635 1.14-.962 1.695a57.57 57.57 0 0 1-1.851 2.835 35.07 35.07 0 0 1-1.023 1.419 47.699 47.699 0 0 1-2.302 2.865c-.317.37-.644.73-.971 1.09a47.738 47.738 0 0 1-2.875 2.887 48.748 48.748 0 0 1-4.347 3.626 50.581 50.581 0 0 1-4.849 3.205 49.188 49.188 0 0 1-4.838-3.205 47.467 47.467 0 0 1-4.357-3.626 47.58 47.58 0 0 1-2.864-2.888 43.852 43.852 0 0 1-.972-1.089 47.699 47.699 0 0 1-2.302-2.865 27.194 27.194 0 0 1-1.023-1.419 43.113 43.113 0 0 1-1.851-2.846 51.409 51.409 0 0 1-2.445-4.56 34.171 34.171 0 0 1 4.399-2.672 34.896 34.896 0 0 1 4.715-2.004 46.915 46.915 0 0 0 1.555 3.031c.307.525.624 1.049.941 1.563a43.466 43.466 0 0 0 1.882 2.743c.44.574.89 1.15 1.35 1.705.635.76 1.29 1.489 1.985 2.199a32.243 32.243 0 0 0 2.414 2.311c.46.422.93.821 1.411 1.202.481-.38.952-.78 1.412-1.202.839-.72 1.647-1.5 2.414-2.311.696-.71 1.35-1.44 1.985-2.199.46-.556.91-1.131 1.35-1.705a43.466 43.466 0 0 0 1.882-2.743 39.81 39.81 0 0 0 .94-1.572 42.052 42.052 0 0 0 1.556-3.022 34.896 34.896 0 0 1 4.715 2.004 34.171 34.171 0 0 1 4.399 2.672" fill="#31C7C3"/></g></svg>