<svg id="Layer_1" xmlns="http://www.w3.org/2000/svg" viewBox="0 0 1014.7 240"><style>.st0{fill:#fff}</style><switch><path class="st0" d="M25.8 10h28.3L99 144.3l1.6 7.1 1.6-7.1L147 10h28.3l18.4 167.2h-20.9L159.7 43.4l-.7-9.9-2.8 9.9L110.7 175H90.2L44.4 43.1l-3-9.7-.7 9.7-12.8 134.1H7.2L25.8 10zM218.8 117.7c0-10.6 1.6-19.7 4.8-27.5 3.2-7.7 7.4-14.1 12.7-19.2 5.2-5.1 11.2-8.8 17.8-11.3 6.7-2.5 13.4-3.7 20.1-3.7 8.7 0 16.6 1.6 23.5 4.8 6.9 3.2 12.7 7.6 17.5 13.1 4.8 5.5 8.4 12 10.8 19.5 2.5 7.5 3.7 15.6 3.7 24.2 0 10-1.5 18.8-4.5 26.6-3 7.7-7 14.2-12.1 19.4-5.1 5.2-11 9.2-17.7 11.8-6.7 2.7-13.8 4-21.2 4-7.7 0-14.9-1.3-21.6-4-6.7-2.7-12.6-6.6-17.6-11.8-5-5.2-8.9-11.7-11.8-19.4-3-7.7-4.4-16.6-4.4-26.5zm22.7 0c0 6.7.7 12.9 2.2 18.4 1.5 5.5 3.6 10.3 6.3 14.3 2.8 4 6.2 7.1 10.2 9.3 4.1 2.2 8.7 3.3 13.9 3.3 5.5 0 10.4-1.2 14.5-3.6 4.1-2.4 7.6-5.6 10.2-9.8 2.7-4.1 4.7-9 6-14.5 1.3-5.5 2-11.3 2-17.5 0-7.7-.9-14.3-2.6-20-1.8-5.7-4.1-10.4-7.1-14-3-3.7-6.5-6.4-10.5-8.3-4-1.8-8.1-2.8-12.4-2.8-4.4 0-8.6.9-12.5 2.8-3.9 1.8-7.4 4.6-10.4 8.3-3 3.7-5.4 8.4-7.1 14-1.8 5.7-2.7 12.4-2.7 20.1zM363.7 177.2h-22.3l35.4-51.8c3.1 3.7 5.1 8 6 13 .9 5-.2 9.9-3.5 14.8l-15.6 24zm57.5 0c-6.4-10.1-12.8-20-19.1-29.8-6.3-9.7-12.7-19.7-19.3-29.8l-39.3-59.3h24.1l24.6 41.2 1.4 4.8 1.6-4.8 25.1-41.2h22.5l-39.1 58.4 41.4 60.5h-23.9zM502.6 136.1c1.2 3.7 2 7.4 2.3 11.3.3 3.8.2 7.5-.2 10.9s-1.3 6.6-2.5 9.5c-1.2 2.9-2.7 5.3-4.4 7.1l-43-116.6h22.5l25.3 77.8zm-23.7 81.2c4.4 0 8.2-1.2 11.2-3.7s5.7-5.9 8.1-10.2c2.4-4.4 4.6-9.5 6.6-15.4s4.2-12.3 6.7-19.2L547 58.3h22.3l-42.1 116.4c-3.1 8.1-5.9 15.8-8.6 22.9-2.7 7.1-5.8 13.4-9.3 18.7-3.5 5.4-7.7 9.6-12.4 12.8-4.8 3.1-10.7 4.7-17.9 4.7-3.1-.2-6.3-.5-9.8-1-3.5-.5-6.8-1.3-10-2.4l5.5-15.2c5 1.4 9.8 2.1 14.2 2.1zM583.1 93.6c0-14.7 2.3-27.5 7-38.4 4.7-10.9 10.8-19.9 18.3-27.1 7.5-7.2 15.8-12.6 25-16.1 9.1-3.5 18.2-5.3 27.3-5.3 12.4 0 23.5 2.3 33.1 6.9 9.7 4.6 17.8 10.8 24.4 18.7 6.6 7.9 11.6 17.1 14.9 27.7 3.4 10.6 5.1 21.7 5.1 33.5 0 13.3-2.1 25.3-6.2 35.9-4.1 10.6-9.8 19.8-16.9 27.3s-15.4 13.4-24.7 17.5c-9.4 4.1-19.2 6.1-29.7 6.1-10.7 0-20.8-2-30.2-6-9.4-4-17.6-9.7-24.6-17.1-7-7.4-12.5-16.5-16.6-27.2-4.2-10.6-6.2-22.7-6.2-36.4zm23.4-.1c0 10.4 1.3 19.9 4 28.5 2.7 8.6 6.4 16 11.3 22.2 4.8 6.2 10.5 11 17.1 14.5 6.6 3.5 13.8 5.2 21.6 5.2 8.1 0 15.5-1.8 22.2-5.5 6.7-3.7 12.3-8.7 17-15 4.7-6.3 8.3-13.7 10.9-22.3 2.6-8.6 3.9-17.8 3.9-27.6 0-10.7-1.4-20.4-4.3-29.1-2.8-8.7-6.7-16.1-11.6-22.2-4.9-6.1-10.7-10.8-17.2-14-6.6-3.2-13.6-4.8-20.9-4.8-7.4 0-14.3 1.6-20.9 4.8-6.6 3.2-12.3 7.9-17.2 14-4.9 6.1-8.8 13.5-11.6 22.2-2.8 8.7-4.3 18.4-4.3 29.1zM787.3 58.3c3.7 4.1 6.1 8.2 7.2 12.3 1.1 4.1 1.7 8.4 1.7 13v93.6h-22.1V87.3c0-4.3-.3-8.9-.8-13.7-.5-4.8-1.4-9.9-2.6-15.3h16.6zm62.4 32.5c0-5.4-1.2-9.7-3.6-13.1-2.4-3.4-5.9-5.1-10.7-5.1-1.8 0-3.5.2-4.8.6-1.4.4-3.1.8-5.1 1.3-4.4 1.1-8.6 1.1-12.4.2-3.8-.9-7.4-3.1-10.6-6.4 8.1-4.8 15-8 20.5-9.7 5.5-1.7 10.4-2.5 14.5-2.5 4.6 0 9 .6 13.1 1.7s7.8 3.2 10.9 6.1c3.1 2.9 5.6 6.7 7.5 11.5 1.8 4.8 2.8 10.7 2.8 17.7v84.2h-22.1V90.8zM983.1 104.3c.5-4.4.2-8.6-.9-12.4-1.1-3.8-2.7-7.2-4.9-10.1-2.2-2.9-4.9-5.2-8.2-6.8-3.2-1.6-6.7-2.4-10.4-2.4-9.7 0-17.5 3.8-23.6 11.5-6.1 7.7-9.1 18.6-9.1 32.9 0 6.9.9 13.1 2.8 18.7 1.8 5.6 4.4 10.4 7.7 14.5s7.2 7.2 11.6 9.4c4.4 2.2 9.3 3.3 14.5 3.3 5.4 0 10.4-.5 15.1-1.6 4.7-1.1 10.3-3.3 16.9-6.7l5.8 15.2c-7.4 3.8-14.5 6.4-21.4 7.7-6.9 1.3-13.1 2-18.6 2-8.4 0-16.1-1.6-23-4.7-6.9-3.1-12.8-7.5-17.6-13.1-4.8-5.6-8.5-12.2-11.2-19.9-2.6-7.7-3.9-16-3.9-25.1 0-9.4 1.3-17.7 3.9-25.2 2.6-7.4 6.4-13.8 11.3-19.1 4.9-5.3 10.8-9.4 17.7-12.2 6.9-2.8 14.7-4.3 23.5-4.3 7.8 0 14.8 1.8 20.9 5.3 6.1 3.5 11 8.2 14.7 14.1 3.7 5.9 5.9 12.7 6.8 20.4.8 7.7 0 15.6-2.4 23.9h-66.7c1.7-4.4 4-8.1 6.9-11 2.9-2.9 7.1-4.4 12.6-4.4h29.2z"/></switch></svg>