<?xml version="1.0" encoding="utf-8"?>
<!-- Generator: Adobe Illustrator 22.0.0, SVG Export Plug-In . SVG Version: 6.00 Build 0)  -->
<svg version="1.1" id="Layer_1" xmlns="http://www.w3.org/2000/svg" xmlns:xlink="http://www.w3.org/1999/xlink" x="0px" y="0px"
	 viewBox="0 0 60 60" style="enable-background:new 0 0 60 60;" xml:space="preserve">
<style type="text/css">
	.st0{fill:none;stroke:url(#SVGID_1_);stroke-width:0.25;stroke-miterlimit:10;stroke-dasharray:1,0.5;}
	.st1{fill:none;stroke:url(#SVGID_2_);stroke-width:0.25;stroke-miterlimit:10;stroke-dasharray:1,0.5;}
	.st2{fill:url(#SVGID_3_);}
	.st3{fill:url(#SVGID_4_);}
	.st4{fill:#FFFFFF;}
	.st5{fill:url(#SVGID_5_);}
	.st6{fill:url(#SVGID_6_);}
	.st7{fill:url(#SVGID_7_);}
	.st8{fill:url(#SVGID_8_);}
	.st9{fill:none;stroke:url(#SVGID_9_);stroke-width:0.25;stroke-miterlimit:10;stroke-dasharray:1,0.5;}
	.st10{fill:url(#SVGID_10_);}
	.st11{fill:none;stroke:url(#SVGID_11_);stroke-width:0.25;stroke-miterlimit:10;stroke-dasharray:1,0.5;}
	.st12{fill:url(#SVGID_12_);}
	.st13{fill:url(#SVGID_13_);}
	.st14{fill:url(#SVGID_14_);}
	.st15{fill:none;stroke:url(#SVGID_15_);stroke-width:0.25;stroke-miterlimit:10;stroke-dasharray:1,0.5;}
	.st16{fill:none;stroke:url(#SVGID_16_);stroke-width:0.25;stroke-miterlimit:10;stroke-dasharray:1,0.5;}
	.st17{fill:none;}
	.st18{fill:url(#SVGID_17_);}
	.st19{fill:url(#SVGID_18_);}
</style>
<linearGradient id="SVGID_1_" gradientUnits="userSpaceOnUse" x1="33.7065" y1="33.4978" x2="49.4789" y2="33.4978" gradientTransform="matrix(-0.9752 2.320304e-02 2.628917e-02 1.1049 58.914 -7.2934)">
	<stop  offset="5.618000e-03" style="stop-color:#3F51B5"/>
	<stop  offset="1" style="stop-color:#009688"/>
</linearGradient>
<line class="st0" x1="11.4" y1="23.3" x2="27" y2="38"/>
<linearGradient id="SVGID_2_" gradientUnits="userSpaceOnUse" x1="35.0999" y1="32.7354" x2="50.8723" y2="32.7354" gradientTransform="matrix(0.9752 2.320304e-02 -2.628917e-02 1.1049 0.7936 -7.2934)">
	<stop  offset="5.618000e-03" style="stop-color:#3F51B5"/>
	<stop  offset="1" style="stop-color:#009688"/>
</linearGradient>
<line class="st1" x1="49.6" y1="22.5" x2="34.1" y2="37.2"/>
<linearGradient id="SVGID_3_" gradientUnits="userSpaceOnUse" x1="2.728484e-12" y1="17.8554" x2="14.3333" y2="17.8554">
	<stop  offset="0" style="stop-color:#009688"/>
	<stop  offset="0.9944" style="stop-color:#3F51B5"/>
</linearGradient>
<polygon class="st2" points="14.3,22 14.3,13.7 7.2,9.6 0,13.7 0,22 7.2,26.1 "/>
<radialGradient id="SVGID_4_" cx="3.6949" cy="19.9493" r="4.5193" gradientUnits="userSpaceOnUse">
	<stop  offset="0" style="stop-color:#3FA9F5"/>
	<stop  offset="1" style="stop-color:#E91E63"/>
</radialGradient>
<path class="st3" d="M0.4,21.7c2.2,1.2,4.4,2.5,6.6,3.7c0-2.5,0-5,0-7.5c-2.2-1.2-4.3-2.3-6.5-3.5C0.4,16.9,0.4,19.3,0.4,21.7z"/>
<path class="st4" d="M0.4,21.7c2.2,1.2,4.4,2.5,6.6,3.7c0-2.5,0-5,0-7.5c-2.2-1.2-4.3-2.3-6.5-3.5C0.4,16.9,0.4,19.3,0.4,21.7z"/>
<radialGradient id="SVGID_5_" cx="10.7138" cy="19.9554" r="4.5066" gradientUnits="userSpaceOnUse">
	<stop  offset="0" style="stop-color:#3FA9F5"/>
	<stop  offset="1" style="stop-color:#E91E63"/>
</radialGradient>
<path class="st5" d="M14,21.7c-2.2,1.2-4.4,2.5-6.5,3.7c0-2.5,0-5,0-7.5c2.2-1.2,4.4-2.3,6.5-3.5C14,16.9,14,19.3,14,21.7z"/>
<path class="st4" d="M14,21.7c-2.2,1.2-4.4,2.5-6.5,3.7c0-2.5,0-5,0-7.5c2.2-1.2,4.4-2.3,6.5-3.5C14,16.9,14,19.3,14,21.7z"/>
<linearGradient id="SVGID_6_" gradientUnits="userSpaceOnUse" x1="22.8332" y1="17.8751" x2="37.1667" y2="17.8751">
	<stop  offset="0" style="stop-color:#009688"/>
	<stop  offset="0.9944" style="stop-color:#3F51B5"/>
</linearGradient>
<polygon class="st6" points="37.2,22 37.2,13.7 30,9.6 22.8,13.7 22.8,22 30,26.1 "/>
<radialGradient id="SVGID_7_" cx="26.5282" cy="19.9691" r="4.5194" gradientUnits="userSpaceOnUse">
	<stop  offset="0" style="stop-color:#3FA9F5"/>
	<stop  offset="1" style="stop-color:#E91E63"/>
</radialGradient>
<path class="st7" d="M23.2,21.7c2.2,1.2,4.4,2.5,6.6,3.7c0-2.5,0-5,0-7.5c-2.2-1.2-4.3-2.3-6.5-3.5C23.3,16.9,23.3,19.3,23.2,21.7z"
	/>
<path class="st4" d="M23.2,21.7c2.2,1.2,4.4,2.5,6.6,3.7c0-2.5,0-5,0-7.5c-2.2-1.2-4.3-2.3-6.5-3.5C23.3,16.9,23.3,19.3,23.2,21.7z"
	/>
<radialGradient id="SVGID_8_" cx="33.5471" cy="19.9751" r="4.5066" gradientUnits="userSpaceOnUse">
	<stop  offset="0" style="stop-color:#3FA9F5"/>
	<stop  offset="1" style="stop-color:#E91E63"/>
</radialGradient>
<path class="st8" d="M36.8,21.7c-2.2,1.2-4.4,2.5-6.5,3.7c0-2.5,0-5,0-7.5c2.2-1.2,4.4-2.3,6.5-3.5C36.8,16.9,36.8,19.3,36.8,21.7z"
	/>
<path class="st4" d="M36.8,21.7c-2.2,1.2-4.4,2.5-6.5,3.7c0-2.5,0-5,0-7.5c2.2-1.2,4.4-2.3,6.5-3.5C36.8,16.9,36.8,19.3,36.8,21.7z"
	/>
<linearGradient id="SVGID_9_" gradientUnits="userSpaceOnUse" x1="14.4433" y1="17.9816" x2="22.7145" y2="17.9816">
	<stop  offset="5.618000e-03" style="stop-color:#3F51B5"/>
	<stop  offset="1" style="stop-color:#009688"/>
</linearGradient>
<line class="st9" x1="14.4" y1="18" x2="22.7" y2="18"/>
<g>
	<linearGradient id="SVGID_10_" gradientUnits="userSpaceOnUse" x1="45.6666" y1="17.7819" x2="60" y2="17.7819">
		<stop  offset="0" style="stop-color:#009688"/>
		<stop  offset="0.9944" style="stop-color:#3F51B5"/>
	</linearGradient>
	<polygon class="st10" points="60,21.9 60,13.7 52.8,9.5 45.7,13.6 45.7,21.9 52.8,26.1 	"/>
	<path class="st4" d="M46.1,21.6c2.2,1.2,4.4,2.5,6.6,3.7c0-2.5,0-5,0-7.5c-2.2-1.2-4.3-2.3-6.5-3.5C46.1,16.8,46.1,19.2,46.1,21.6z
		"/>
	<path class="st4" d="M59.6,21.6c-2.2,1.2-4.4,2.5-6.5,3.7c0-2.5,0-5,0-7.5c2.2-1.2,4.4-2.3,6.5-3.5C59.6,16.8,59.6,19.2,59.6,21.6z
		"/>
</g>
<linearGradient id="SVGID_11_" gradientUnits="userSpaceOnUse" x1="37.2766" y1="18.0014" x2="45.4604" y2="18.0014">
	<stop  offset="5.618000e-03" style="stop-color:#3F51B5"/>
	<stop  offset="1" style="stop-color:#009688"/>
</linearGradient>
<line class="st11" x1="37.3" y1="18" x2="45.5" y2="18"/>
<linearGradient id="SVGID_12_" gradientUnits="userSpaceOnUse" x1="11.4057" y1="30.4469" x2="25.7391" y2="30.4469">
	<stop  offset="0" style="stop-color:#009688"/>
	<stop  offset="0.9944" style="stop-color:#3F51B5"/>
</linearGradient>
<polygon class="st12" points="25.7,34.6 25.7,26.3 18.6,22.2 11.4,26.3 11.4,34.6 18.6,38.7 "/>
<radialGradient id="SVGID_13_" cx="15.1006" cy="32.5408" r="4.5194" gradientUnits="userSpaceOnUse">
	<stop  offset="0" style="stop-color:#3FA9F5"/>
	<stop  offset="1" style="stop-color:#E91E63"/>
</radialGradient>
<path class="st13" d="M11.8,34.3c2.2,1.2,4.4,2.5,6.6,3.7c0-2.5,0-5,0-7.5c-2.2-1.2-4.3-2.3-6.5-3.5C11.9,29.5,11.8,31.9,11.8,34.3z
	"/>
<path class="st4" d="M11.8,34.3c2.2,1.2,4.4,2.5,6.6,3.7c0-2.5,0-5,0-7.5c-2.2-1.2-4.3-2.3-6.5-3.5C11.9,29.5,11.8,31.9,11.8,34.3z"
	/>
<radialGradient id="SVGID_14_" cx="22.1195" cy="32.5469" r="4.5066" gradientUnits="userSpaceOnUse">
	<stop  offset="0" style="stop-color:#3FA9F5"/>
	<stop  offset="1" style="stop-color:#E91E63"/>
</radialGradient>
<path class="st14" d="M25.4,34.3c-2.2,1.2-4.4,2.5-6.5,3.7c0-2.5,0-5,0-7.5c2.2-1.2,4.4-2.3,6.5-3.5C25.4,29.5,25.4,31.9,25.4,34.3z
	"/>
<path class="st4" d="M25.4,34.3c-2.2,1.2-4.4,2.5-6.5,3.7c0-2.5,0-5,0-7.5c2.2-1.2,4.4-2.3,6.5-3.5C25.4,29.5,25.4,31.9,25.4,34.3z"
	/>
<linearGradient id="SVGID_15_" gradientUnits="userSpaceOnUse" x1="25.8327" y1="30.4816" x2="34.2953" y2="30.4816">
	<stop  offset="5.618000e-03" style="stop-color:#3F51B5"/>
	<stop  offset="1" style="stop-color:#009688"/>
</linearGradient>
<line class="st15" x1="25.8" y1="30.5" x2="34.3" y2="30.5"/>
<linearGradient id="SVGID_16_" gradientUnits="userSpaceOnUse" x1="29.9141" y1="30.5688" x2="30.1719" y2="30.5688">
	<stop  offset="5.618000e-03" style="stop-color:#3F51B5"/>
	<stop  offset="1" style="stop-color:#009688"/>
</linearGradient>
<line class="st16" x1="30" y1="26.2" x2="30" y2="34.9"/>
<line class="st17" x1="24.9" y1="23.3" x2="22.6" y2="24.3"/>
<line class="st17" x1="34.7" y1="23.8" x2="36.3" y2="24.8"/>
<g>
	<linearGradient id="SVGID_17_" gradientUnits="userSpaceOnUse" x1="34.2241" y1="30.262" x2="48.5575" y2="30.262">
		<stop  offset="0" style="stop-color:#009688"/>
		<stop  offset="0.9944" style="stop-color:#3F51B5"/>
	</linearGradient>
	<polygon class="st18" points="48.6,34.4 48.6,26.1 41.4,22 34.2,26.1 34.2,34.4 41.4,38.5 	"/>
	<path class="st4" d="M34.6,34.1c2.2,1.2,4.4,2.5,6.6,3.7c0-2.5,0-5,0-7.5c-2.2-1.2-4.3-2.3-6.5-3.5C34.7,29.3,34.6,31.7,34.6,34.1z
		"/>
	<path class="st4" d="M48.2,34.1c-2.2,1.2-4.4,2.5-6.5,3.7c0-2.5,0-5,0-7.5c2.2-1.2,4.4-2.3,6.5-3.5C48.2,29.3,48.2,31.7,48.2,34.1z
		"/>
</g>
<g>
	<linearGradient id="SVGID_18_" gradientUnits="userSpaceOnUse" x1="22.8973" y1="43.207" x2="37.2307" y2="43.207">
		<stop  offset="0" style="stop-color:#009688"/>
		<stop  offset="0.9944" style="stop-color:#3F51B5"/>
	</linearGradient>
	<polygon class="st19" points="37.2,47.3 37.2,39.1 30.1,34.9 22.9,39.1 22.9,47.3 30.1,51.5 	"/>
	<path class="st4" d="M23.3,47c2.2,1.2,4.4,2.5,6.6,3.7c0-2.5,0-5,0-7.5c-2.2-1.2-4.3-2.3-6.5-3.5C23.3,42.2,23.3,44.6,23.3,47z"/>
	<path class="st4" d="M36.9,47.1c-2.2,1.2-4.4,2.5-6.5,3.7c0-2.5,0-5,0-7.5c2.2-1.2,4.4-2.3,6.5-3.5C36.9,42.2,36.9,44.6,36.9,47.1z
		"/>
</g>
</svg>
