<svg id="Layer_1" xmlns="http://www.w3.org/2000/svg" viewBox="0 0 60 60"><style>.st3{fill:#fff}.st19{fill:none}</style><linearGradient id="SVGID_1_" gradientUnits="userSpaceOnUse" x1="11.403" y1="32.292" x2="13.844" y2="32.292"><stop offset=".006" stop-color="#3f51b5"/><stop offset="1" stop-color="#009688"/></linearGradient><path fill="none" stroke="url(#SVGID_1_)" stroke-width=".25" stroke-miterlimit="10" stroke-dasharray="1,.5" d="M11.5 31.7l2.3 1.2"/><linearGradient id="SVGID_2_" gradientUnits="userSpaceOnUse" y1="25.855" x2="14.333" y2="25.855"><stop offset="0" stop-color="#009688"/><stop offset=".994" stop-color="#3f51b5"/></linearGradient><path fill="url(#SVGID_2_)" d="M14.3 30v-8.3l-7.1-4.1L0 21.7V30l7.2 4.1z"/><radialGradient id="SVGID_3_" cx="3.695" cy="27.949" r="4.519" gradientUnits="userSpaceOnUse"><stop offset="0" stop-color="#3fa9f5"/><stop offset="1" stop-color="#e91e63"/></radialGradient><path d="M.4 29.7c2.2 1.2 4.4 2.5 6.6 3.7v-7.5c-2.2-1.2-4.3-2.3-6.5-3.5-.1 2.5-.1 4.9-.1 7.3z" fill="url(#SVGID_3_)"/><path class="st3" d="M.4 29.7c2.2 1.2 4.4 2.5 6.6 3.7v-7.5c-2.2-1.2-4.3-2.3-6.5-3.5-.1 2.5-.1 4.9-.1 7.3z"/><radialGradient id="SVGID_4_" cx="10.714" cy="27.955" r="4.507" gradientUnits="userSpaceOnUse"><stop offset="0" stop-color="#3fa9f5"/><stop offset="1" stop-color="#e91e63"/></radialGradient><path d="M14 29.7c-2.2 1.2-4.4 2.5-6.5 3.7v-7.5c2.2-1.2 4.4-2.3 6.5-3.5v7.3z" fill="url(#SVGID_4_)"/><path class="st3" d="M14 29.7c-2.2 1.2-4.4 2.5-6.5 3.7v-7.5c2.2-1.2 4.4-2.3 6.5-3.5v7.3z"/><linearGradient id="SVGID_5_" gradientUnits="userSpaceOnUse" x1="22.833" y1="25.875" x2="37.167" y2="25.875"><stop offset="0" stop-color="#009688"/><stop offset=".994" stop-color="#3f51b5"/></linearGradient><path fill="url(#SVGID_5_)" d="M37.2 30v-8.3L30 17.6l-7.2 4.1V30l7.2 4.1z"/><radialGradient id="SVGID_6_" cx="26.528" cy="27.969" r="4.519" gradientUnits="userSpaceOnUse"><stop offset="0" stop-color="#3fa9f5"/><stop offset="1" stop-color="#e91e63"/></radialGradient><path d="M23.2 29.7c2.2 1.2 4.4 2.5 6.6 3.7v-7.5c-2.2-1.2-4.3-2.3-6.5-3.5 0 2.5 0 4.9-.1 7.3z" fill="url(#SVGID_6_)"/><path class="st3" d="M23.2 29.7c2.2 1.2 4.4 2.5 6.6 3.7v-7.5c-2.2-1.2-4.3-2.3-6.5-3.5 0 2.5 0 4.9-.1 7.3z"/><radialGradient id="SVGID_7_" cx="33.547" cy="27.975" r="4.507" gradientUnits="userSpaceOnUse"><stop offset="0" stop-color="#3fa9f5"/><stop offset="1" stop-color="#e91e63"/></radialGradient><path d="M36.8 29.7c-2.2 1.2-4.4 2.5-6.5 3.7v-7.5c2.2-1.2 4.4-2.3 6.5-3.5v7.3z" fill="url(#SVGID_7_)"/><path class="st3" d="M36.8 29.7c-2.2 1.2-4.4 2.5-6.5 3.7v-7.5c2.2-1.2 4.4-2.3 6.5-3.5v7.3z"/><linearGradient id="SVGID_8_" gradientUnits="userSpaceOnUse" x1="14.443" y1="25.982" x2="22.715" y2="25.982"><stop offset=".006" stop-color="#3f51b5"/><stop offset="1" stop-color="#009688"/></linearGradient><path fill="none" stroke="url(#SVGID_8_)" stroke-width=".25" stroke-miterlimit="10" stroke-dasharray="1,.5" d="M14.4 26h8.3"/><linearGradient id="SVGID_9_" gradientUnits="userSpaceOnUse" x1="45.667" y1="25.782" x2="60" y2="25.782"><stop offset="0" stop-color="#009688"/><stop offset=".994" stop-color="#3f51b5"/></linearGradient><path fill="url(#SVGID_9_)" d="M60 29.9v-8.2l-7.2-4.2-7.1 4.1v8.3l7.1 4.2z"/><path class="st3" d="M46.1 29.6c2.2 1.2 4.4 2.5 6.6 3.7v-7.5c-2.2-1.2-4.3-2.3-6.5-3.5-.1 2.5-.1 4.9-.1 7.3zM59.6 29.6c-2.2 1.2-4.4 2.5-6.5 3.7v-7.5c2.2-1.2 4.4-2.3 6.5-3.5v7.3z"/><linearGradient id="SVGID_10_" gradientUnits="userSpaceOnUse" x1="37.277" y1="26.001" x2="45.46" y2="26.001"><stop offset=".006" stop-color="#3f51b5"/><stop offset="1" stop-color="#009688"/></linearGradient><path fill="none" stroke="url(#SVGID_10_)" stroke-width=".25" stroke-miterlimit="10" stroke-dasharray="1,.5" d="M37.3 26h8.2"/><linearGradient id="SVGID_11_" gradientUnits="userSpaceOnUse" x1="11.406" y1="38.447" x2="25.739" y2="38.447"><stop offset="0" stop-color="#009688"/><stop offset=".994" stop-color="#3f51b5"/></linearGradient><path fill="url(#SVGID_11_)" d="M25.7 42.6v-8.3l-7.1-4.1-7.2 4.1v8.3l7.2 4.1z"/><radialGradient id="SVGID_12_" cx="15.101" cy="40.541" r="4.519" gradientUnits="userSpaceOnUse"><stop offset="0" stop-color="#3fa9f5"/><stop offset="1" stop-color="#e91e63"/></radialGradient><path d="M11.8 42.3c2.2 1.2 4.4 2.5 6.6 3.7v-7.5c-2.2-1.2-4.3-2.3-6.5-3.5 0 2.5-.1 4.9-.1 7.3z" fill="url(#SVGID_12_)"/><path class="st3" d="M11.8 42.3c2.2 1.2 4.4 2.5 6.6 3.7v-7.5c-2.2-1.2-4.3-2.3-6.5-3.5 0 2.5-.1 4.9-.1 7.3z"/><radialGradient id="SVGID_13_" cx="22.119" cy="40.547" r="4.507" gradientUnits="userSpaceOnUse"><stop offset="0" stop-color="#3fa9f5"/><stop offset="1" stop-color="#e91e63"/></radialGradient><path d="M25.4 42.3c-2.2 1.2-4.4 2.5-6.5 3.7v-7.5c2.2-1.2 4.4-2.3 6.5-3.5v7.3z" fill="url(#SVGID_13_)"/><path class="st3" d="M25.4 42.3c-2.2 1.2-4.4 2.5-6.5 3.7v-7.5c2.2-1.2 4.4-2.3 6.5-3.5v7.3z"/><linearGradient id="SVGID_14_" gradientUnits="userSpaceOnUse" x1="25.833" y1="38.482" x2="34.179" y2="38.482"><stop offset=".006" stop-color="#3f51b5"/><stop offset="1" stop-color="#009688"/></linearGradient><path fill="none" stroke="url(#SVGID_14_)" stroke-width=".25" stroke-miterlimit="10" stroke-dasharray="1,.5" d="M25.8 38.5h8.4"/><linearGradient id="SVGID_15_" gradientUnits="userSpaceOnUse" x1="45.79" y1="32.057" x2="48.177" y2="32.057"><stop offset=".006" stop-color="#3f51b5"/><stop offset="1" stop-color="#009688"/></linearGradient><path fill="none" stroke="url(#SVGID_15_)" stroke-width=".25" stroke-miterlimit="10" stroke-dasharray="1,.5" d="M48.1 31.6l-2.3.9"/><linearGradient id="SVGID_16_" gradientUnits="userSpaceOnUse" x1="33.772" y1="44.522" x2="36.611" y2="44.522"><stop offset=".006" stop-color="#3f51b5"/><stop offset="1" stop-color="#009688"/></linearGradient><path fill="none" stroke="url(#SVGID_16_)" stroke-width=".25" stroke-miterlimit="10" stroke-dasharray="1,.5" d="M36.6 43.9l-2.8 1.2"/><linearGradient id="SVGID_17_" gradientUnits="userSpaceOnUse" x1="23.699" y1="44.511" x2="26.14" y2="44.511"><stop offset=".006" stop-color="#3f51b5"/><stop offset="1" stop-color="#009688"/></linearGradient><path fill="none" stroke="url(#SVGID_17_)" stroke-width=".25" stroke-miterlimit="10" stroke-dasharray="1,.5" d="M23.8 43.9l2.3 1.2"/><linearGradient id="SVGID_18_" gradientUnits="userSpaceOnUse" x1="29.914" y1="38.569" x2="30.172" y2="38.569"><stop offset=".006" stop-color="#3f51b5"/><stop offset="1" stop-color="#009688"/></linearGradient><path fill="none" stroke="url(#SVGID_18_)" stroke-width=".25" stroke-miterlimit="10" stroke-dasharray="1,.5" d="M30 34.2v8.7"/><path class="st19" d="M24.9 31.3l-2.3 1M34.7 31.8l1.6 1"/><g><linearGradient id="SVGID_19_" gradientUnits="userSpaceOnUse" x1="34.224" y1="38.262" x2="48.557" y2="38.262"><stop offset="0" stop-color="#009688"/><stop offset=".994" stop-color="#3f51b5"/></linearGradient><path fill="url(#SVGID_19_)" d="M48.6 42.4v-8.3L41.4 30l-7.2 4.1v8.3l7.2 4.1z"/><path class="st3" d="M34.6 42.1c2.2 1.2 4.4 2.5 6.6 3.7v-7.5c-2.2-1.2-4.3-2.3-6.5-3.5 0 2.5-.1 4.9-.1 7.3zM48.2 42.1c-2.2 1.2-4.4 2.5-6.5 3.7v-7.5c2.2-1.2 4.4-2.3 6.5-3.5v7.3z"/></g><g><linearGradient id="SVGID_20_" gradientUnits="userSpaceOnUse" x1="22.897" y1="51.207" x2="37.231" y2="51.207"><stop offset="0" stop-color="#009688"/><stop offset=".994" stop-color="#3f51b5"/></linearGradient><path fill="url(#SVGID_20_)" d="M37.2 55.3v-8.2l-7.1-4.2-7.2 4.2v8.2l7.2 4.2z"/><path class="st3" d="M23.3 55c2.2 1.2 4.4 2.5 6.6 3.7v-7.5c-2.2-1.2-4.3-2.3-6.5-3.5-.1 2.5-.1 4.9-.1 7.3zM36.9 55.1c-2.2 1.2-4.4 2.5-6.5 3.7v-7.5c2.2-1.2 4.4-2.3 6.5-3.5v7.3z"/></g></svg>