<svg xmlns="http://www.w3.org/2000/svg" viewBox="0 0 60 60"><linearGradient id="a" gradientUnits="userSpaceOnUse" x1="16.654" y1="14.468" x2="44.164" y2="14.468"><stop offset="0" stop-color="#009688"/><stop offset=".994" stop-color="#3f51b5"/></linearGradient><path d="M30.4 1c-7.6 0-13.8 6-13.8 13.5 0 7.4 6.2 13.5 13.8 13.5s13.8-6 13.8-13.5S38 1 30.4 1z" fill="url(#a)"/><linearGradient id="b" gradientUnits="userSpaceOnUse" x1="29.264" y1="44.27" x2="32.701" y2="44.27"><stop offset="0" stop-color="#009688"/><stop offset=".994" stop-color="#3f51b5"/></linearGradient><path fill="url(#b)" d="M32.7 32.5L31.6 56H30.4l-1.1-23.5z"/><linearGradient id="c" gradientUnits="userSpaceOnUse" x1="29.264" y1="44.27" x2="32.701" y2="44.27"><stop offset="0" stop-color="#009688"/><stop offset=".994" stop-color="#3f51b5"/></linearGradient><path fill="url(#c)" d="M32.7 32.5L31.6 56H30.4l-1.1-23.5z"/><linearGradient id="d" gradientUnits="userSpaceOnUse" x1="38.006" y1="44.123" x2="55.585" y2="44.123"><stop offset="0" stop-color="#009688"/><stop offset=".994" stop-color="#3f51b5"/></linearGradient><path d="M38.1 58.6c-.3.5 0 .8.5.8h16.1c.5 0 .9-.4.9-.9 0 0-1-21.7-1-22.5v-1.9-.3c0-.3-.4-.8-.9-1l-10.5-4c-.5-.2-.8.1-.7.6 0 0 1.6 7.7.8 14.1-.9 7.3-5.2 15.1-5.2 15.1z" fill="url(#d)"/><linearGradient id="e" gradientUnits="userSpaceOnUse" x1="7.075" y1="43.55" x2="24.654" y2="43.55"><stop offset="0" stop-color="#009688"/><stop offset=".994" stop-color="#3f51b5"/></linearGradient><path d="M24.6 58.1c.3.5 0 .8-.5.8H8c-.5 0-.9-.4-.9-.9 0 0 1-21.7 1-22.5v-1.9-.3c0-.3.4-.8.9-1l10.5-4c.5-.2.8.1.7.6 0 0-1.6 7.7-.8 14.1.9 7.2 5.2 15.1 5.2 15.1z" fill="url(#e)"/></svg>