<svg id="Layer_1" xmlns="http://www.w3.org/2000/svg" xmlns:xlink="http://www.w3.org/1999/xlink" viewBox="0 0 60 60"><style>.st0{enable-background:new}</style><g class="st0"><path d="M2.1 19.6c-.8.4-1.1 1.6-.8 2.5l7.9 23.3c.3 1 1.2 1.4 2 1l27.3-15.7c.8-.4 1.1-1.6.8-2.5l-8-23.4c-.3-1-1.2-1.4-2-1L2.1 19.6z" fill="#160c0c"/><g class="st0"><defs><path id="SVGID_1_" class="st0" d="M2.1 19.6c-.8.4-1.1 1.6-.8 2.5l7.9 23.3c.3 1 1.2 1.4 2 1l27.3-15.7c.8-.4 1.1-1.6.8-2.5l-8-23.4c-.3-1-1.2-1.4-2-1L2.1 19.6z"/></defs><clipPath id="SVGID_2_"><use xlink:href="#SVGID_1_" overflow="visible"/></clipPath><g clip-path="url(#SVGID_2_)"><linearGradient id="SVGID_3_" gradientUnits="userSpaceOnUse" x1="4.037" y1="15.793" x2="36.454" y2="34.509"><stop offset="0" stop-color="#5d278f"/><stop offset="1" stop-color="#292376"/></linearGradient><path d="M2.1 19.6c-.8.4-1.1 1.6-.8 2.5l7.9 23.3c.3 1 1.2 1.4 2 1l27.3-15.7c.8-.4 1.1-1.6.8-2.5l-8-23.4c-.3-1-1.2-1.4-2-1L2.1 19.6" fill="url(#SVGID_3_)"/></g></g><linearGradient id="SVGID_4_" gradientUnits="userSpaceOnUse" x1="30.789" y1="25.14" x2="-1.341" y2="25.14"><stop offset="0" stop-color="#dbf9ea"/><stop offset="1" stop-color="#c0dde2"/></linearGradient><path d="M2.1 19.6L29.3 3.9c.2-.1.4-.2.6-.2h-1c-.2 0-.4 0-.6.2L1.1 19.6C.3 20 0 21.2.3 22.1l7.9 23.3c.2.7.8 1.1 1.3 1.1h1c-.6 0-1.1-.4-1.3-1.1L1.3 22.1c-.3-.9 0-2.1.8-2.5z" fill="url(#SVGID_4_)"/></g><linearGradient id="SVGID_5_" gradientUnits="userSpaceOnUse" x1="2.664" y1="25.151" x2="37.826" y2="25.151"><stop offset="0" stop-color="#009688"/><stop offset=".994" stop-color="#3f51b5"/></linearGradient><path fill="url(#SVGID_5_)" d="M2.7 21.6L30 5.8l7.8 22.9-27.3 15.8-7.8-22.9"/><linearGradient id="SVGID_6_" gradientUnits="userSpaceOnUse" x1="10.725" y1="44.289" x2="59.831" y2="44.289"><stop offset="0" stop-color="#dbf9ea"/><stop offset="1" stop-color="#c0dde2"/></linearGradient><path d="M11.3 46.1c-.8.4-.8 1.1 0 1.6l18 10.5c.7.4 2 .4 2.7 0l27.3-15.7c.8-.4.8-1.1 0-1.6l-18-10.5c-.7-.4-2-.4-2.7 0L11.3 46.1z" fill="url(#SVGID_6_)"/><path d="M11.3 46.1c-.8.4-.8 1.1 0 1.6l18 10.5c.7.4 2 .4 2.7 0l27.3-15.7c.8-.4.8-1.1 0-1.6l-18-10.5c-.7-.4-2-.4-2.7 0L11.3 46.1z" fill="none"/><path d="M11.3 46.1c-.8.4-.8 1.1 0 1.6l18 10.5c.7.4 2 .4 2.7 0l27.3-15.7c.8-.4.8-1.1 0-1.6l-18-10.5c-.7-.4-2-.4-2.7 0L11.3 46.1" fill="#fff"/><defs><path id="XMLID_3_" d="M23.3 52.5l-8-4.7c-.1-.1-.2-.2-.2-.3 0-.1.1-.2.2-.3l25.2-14.6c.2-.1.5-.1.7 0l8 4.7c.1.1.2.2.2.3 0 .1-.1.2-.2.3L24 52.5c-.1.1-.2.1-.4.1s-.2 0-.3-.1z"/></defs><linearGradient id="XMLID_2_" gradientUnits="userSpaceOnUse" x1="49.48" y1="40.895" x2="12.597" y2="44.524"><stop offset="0" stop-color="#009688"/><stop offset=".994" stop-color="#3f51b5"/></linearGradient><use xlink:href="#XMLID_3_" overflow="visible" fill="url(#XMLID_2_)"/><clipPath id="XMLID_4_"><use xlink:href="#XMLID_3_" overflow="visible"/></clipPath><g class="st0" clip-path="url(#XMLID_4_)"><linearGradient id="SVGID_7_" gradientUnits="userSpaceOnUse" x1="15.278" y1="42.356" x2="49.251" y2="42.356"><stop offset="0" stop-color="#009688"/><stop offset=".994" stop-color="#3f51b5"/></linearGradient><path d="M15.4 47.1c-.1.1-.1.2 0 .3l8 4.7c.1.1.4.1.5 0l25.2-14.6c.1-.1.1-.2 0-.3l-8-4.7c-.1-.1-.4-.1-.5 0L15.4 47.1z" fill="url(#SVGID_7_)"/><linearGradient id="SVGID_8_" gradientUnits="userSpaceOnUse" x1="49.575" y1="40.956" x2="18.373" y2="50.388"><stop offset="0" stop-color="#009688"/><stop offset=".994" stop-color="#3f51b5"/></linearGradient><path d="M49.3 37.4c0 .1 0 .1-.1.2L23.9 52.1c-.1.1-.4.1-.5 0l-8-4.7c-.1 0-.1-.1-.1-.1v.6c0 .1 0 .1.1.1l8 4.7c.1.1.4.1.5 0l25.2-14.6c.1 0 .1-.1.1-.2l.1-.5z" fill="url(#SVGID_8_)"/></g><linearGradient id="SVGID_9_" gradientUnits="userSpaceOnUse" x1="58.072" y1="50.825" x2="11.216" y2="50.825"><stop offset="0" stop-color="#dbf9ea"/><stop offset="1" stop-color="#c0dde2"/></linearGradient><path d="M11.3 47.7l18 10.5c.7.4 2 .4 2.7 0l27.3-15.7c.4-.2.6-.5.6-.8v1.5c0 .3-.2.6-.6.8L32 59.7c-.8.4-2 .4-2.7 0l-18-10.5c-.4-.2-.6-.5-.6-.8v-1.5c0 .3.2.6.6.8z" fill="url(#SVGID_9_)"/><linearGradient id="SVGID_10_" gradientUnits="userSpaceOnUse" x1="31.173" y1="47.717" x2="51.152" y2="47.717"><stop offset="0" stop-color="#5d278f"/><stop offset="1" stop-color="#292376"/></linearGradient><path d="M31.4 49.1L43.6 42c.3-.2.8-.2 1 0l6.3 3.6c.3.2.3.4 0 .6l-12.2 7.1c-.3.2-.8.2-1 0l-6.3-3.6c-.3-.1-.3-.4 0-.6" opacity=".05" fill="url(#SVGID_10_)"/><linearGradient id="SVGID_11_" gradientUnits="userSpaceOnUse" x1="24.938" y1="23.74" x2="43.556" y2="33.171"><stop offset="0" stop-color="#5d278f"/><stop offset="1" stop-color="#292376"/></linearGradient><path d="M50.7 36.9l-.5.3c-.1.1-.4.1-.5 0l-9.5-5.5c-.1-.1-.1-.2 0-.3l.5-.3c.1-.1.4-.1.5 0l9.5 5.5c.2.1.2.2 0 .3" opacity=".05" fill="url(#SVGID_11_)"/><linearGradient id="SVGID_12_" gradientUnits="userSpaceOnUse" x1="12.783" y1="47.735" x2="31.4" y2="57.166"><stop offset="0" stop-color="#5d278f"/><stop offset="1" stop-color="#292376"/></linearGradient><path d="M12.3 47.4l.5-.3c.1-.1.4-.1.5 0l9.5 5.5c.1.1.1.2 0 .3l-.5.3c-.1.1-.4.1-.5 0l-9.5-5.5c-.1-.1-.1-.2 0-.3" opacity=".05" fill="url(#SVGID_12_)"/><linearGradient id="SVGID_13_" gradientUnits="userSpaceOnUse" x1="13.771" y1="39.529" x2="40.232" y2="39.529"><stop offset="0" stop-color="#009688"/><stop offset=".994" stop-color="#3f51b5"/></linearGradient><path d="M13.9 46.5L39.1 32c.1-.1.4-.1.5 0l.5.3c.1.1.1.2 0 .3L14.9 47.1c-.1.1-.4.1-.5 0l-.5-.3c-.2-.1-.2-.2 0-.3" fill="url(#SVGID_13_)"/><g><linearGradient id="SVGID_14_" gradientUnits="userSpaceOnUse" x1="4.001" y1="15.855" x2="20.728" y2="25.512"><stop offset="0" stop-color="#fff" stop-opacity=".25"/><stop offset="1" stop-color="#dbf9ea" stop-opacity="0"/></linearGradient><path d="M29.3 3.9L2.1 19.6c-.8.4-1.1 1.6-.8 2.5l7.9 23.3L29.3 3.9z" fill="url(#SVGID_14_)"/></g><path d="M13 34.8c-.2-3.3 0-6.8 1.8-7.6 1.7-.7 3.8 1.6 4.9.7 1.7-1.2-1.3-7.6-.3-8.2.9-.5 4.3 5.8 6.5 5.2 2-.5 1.6-6.1 3.1-6.4.8-.1 1.9 1.1 3.6 5.3L13 34.8z" fill="#fff" stroke="#fff" stroke-miterlimit="10"/></svg>