<svg id="Layer_1" xmlns="http://www.w3.org/2000/svg" xmlns:xlink="http://www.w3.org/1999/xlink" viewBox="0 0 60 60"><style>.st3{enable-background:new}.st5{fill:#fff}</style><linearGradient id="SVGID_1_" gradientUnits="userSpaceOnUse" x1=".002" y1="41.43" x2="60" y2="41.43"><stop offset="0" stop-color="#009688"/><stop offset=".994" stop-color="#3f51b5"/></linearGradient><path d="M59.4 38.6c.8.4.8 1.1 0 1.6L27.9 58.5c-.8.4-2 .4-2.7 0L.6 44.3c-.8-.4-.8-1.1 0-1.6l31.5-18.3c.8-.4 2-.4 2.7 0l24.6 14.2z" fill="url(#SVGID_1_)"/><linearGradient id="SVGID_2_" gradientUnits="userSpaceOnUse" y1="49.358" x2="60" y2="49.358"><stop offset="0" stop-color="#c0dde2"/><stop offset="1" stop-color="#dbf9ea"/></linearGradient><path d="M59.4 40.2L27.9 58.5c-.8.4-2 .4-2.7 0L.6 44.3c-.4-.2-.6-.5-.6-.8v.5c0 .3.2.6.6.8L25.2 59c.8.4 2 .4 2.7 0l31.5-18.3c.4-.2.6-.5.6-.8v-.5c0 .3-.2.5-.6.8z" fill="url(#SVGID_2_)"/><path d="M21.4 43.3c.2.1.2.3 0 .4l-7.5 4.4c-.2.1-.5.1-.7 0l-5.9-3.4c-.2-.1-.2-.3 0-.4l7.5-4.4c.2-.1.5-.1.7 0l5.9 3.4z" fill="#f2f2f2"/><g class="st3"><defs><path id="SVGID_3_" class="st3" d="M19.7 51.8V37.9l28-4v14z"/></defs><clipPath id="SVGID_4_"><use xlink:href="#SVGID_3_" overflow="visible"/></clipPath><g clip-path="url(#SVGID_4_)"><path class="st5" d="M47 34l-.3.2-.1.5c0 .1 0 .3-.1.4-.1-.1-.2-.1-.3-.2l-.4-.2-.3.2.9.5-.2 1.1.3-.2.1-.5c0-.1 0-.2.1-.4.1.1.2.1.3.2l.4.2.3-.2-.9-.5.2-1.1M45.4 34.9l-.3.2-.1.6c0 .1 0 .3-.1.4-.1-.1-.2-.1-.3-.2l-.4-.2-.3.2.9.5-.2 1.1.3-.2.1-.5c0-.1 0-.2.1-.4.1.1.2.1.3.2l.4.2.3-.2-.9-.5.2-1.2M43.9 35.9l-.3.2-.1.5c0 .1 0 .3-.1.4-.1-.1-.2-.1-.3-.2l-.4-.2-.3.2.9.5-.2 1.1.3-.2.1-.5c0-.1 0-.2.1-.4.1.1.2.1.3.2l.4.2.3-.2-.9-.5.2-1.1M42.3 36.8l-.3.2-.1.5c0 .1 0 .3-.1.4-.1-.1-.2-.1-.3-.2l-.4-.2-.3.2.9.5-.2 1.1.3-.2.1-.5c0-.1 0-.2.1-.4.1.1.2.1.3.2l.4.2.3-.2-.9-.4.2-1.2M40 38.1l-.3.2-.1.5c0 .1 0 .3-.1.4-.1-.1-.2-.1-.3-.2l-.4-.2-.3.2.9.5-.2 1.1.3-.2.1-.5c0-.1 0-.2.1-.4.1.1.2.1.3.2l.4.2.3-.2-.9-.5.2-1.1M38.4 39.1l-.3.2-.1.5c0 .1 0 .3-.1.4-.1-.1-.2-.1-.3-.2l-.4-.2-.3.2.9.5-.2 1.1.3-.2.1-.5c0-.1 0-.2.1-.4.1.1.2.1.3.2l.4.2.3-.2-.9-.5.2-1.1M36.8 40l-.3.2-.1.5c0 .1 0 .3-.1.4-.1-.1-.2-.1-.3-.2l-.4-.2-.3.2.9.5-.2 1.1.3-.2.1-.5v-.4c.1.1.2.1.3.2l.4.2.3-.2-.9-.5.3-1.1M35.3 40.9l-.3.2-.1.5c0 .1 0 .3-.1.4-.1-.1-.2-.1-.3-.2l-.4-.2-.3.2.9.5-.2 1.1.3-.2.1-.5v-.4c.1.1.2.1.3.2l.4.2.3-.2-.9-.4.3-1.2M33 42.3l-.3.2-.2.5c0 .1 0 .3-.1.4-.1-.1-.2-.1-.3-.2l-.4-.2-.3.2.9.5-.2 1.1.3-.2.1-.5v-.4c.1.1.2.1.3.2l.4.2.3-.2-.9-.5.4-1.1M31.4 43.2l-.4.2v.5c0 .1 0 .3-.1.4-.1-.1-.2-.1-.3-.2l-.4-.2-.3.2.9.5-.2 1.1.3-.2.1-.5v-.4c.1.1.2.1.3.2l.4.2.3-.2-.9-.5.3-1.1M29.8 44.1l-.3.2-.1.5c0 .1 0 .3-.1.4-.1-.1-.2-.1-.3-.2l-.4-.2-.3.2.9.5-.2 1.2.3-.2.1-.5v-.4c.1.1.2.1.3.2l.4.2.3-.2-.9-.5.3-1.2M28.2 45l-.3.2-.1.5c0 .1 0 .3-.1.4-.1-.1-.2-.1-.3-.2l-.4-.2-.3.2.9.5-.2 1.1.3-.2.1-.5v-.4c.1.1.2.1.3.2l.4.2.3-.2-.8-.4.2-1.2M25.9 46.4l-.3.2-.1.5c0 .1 0 .3-.1.4-.1-.1-.2-.1-.3-.2l-.4-.2-.3.2.9.5-.2 1.1.3-.2.1-.5v-.4c.1.1.2.1.3.2l.4.2.3-.2-.9-.5.3-1.1M24.3 47.3l-.3.2-.1.5c0 .1 0 .3-.1.4-.1-.1-.2-.1-.3-.2l-.3-.2-.3.2.9.5-.2 1.1.3-.2.1-.5v-.4c.1.1.2.1.3.2l.4.2.3-.1-.9-.5.2-1.2M22.8 48.2l-.3.2-.1.5c0 .1 0 .3-.1.4-.1-.1-.2-.1-.3-.2l-.4-.2-.3.2.9.5-.2 1.1.3-.2.1-.5c0-.1 0-.2.1-.4.1.1.2.1.3.2l.4.2.3-.2-.9-.5.2-1.1M21.2 49.1l-.3.2-.1.5c0 .1 0 .3-.1.4-.1-.1-.2-.1-.3-.2l-.4-.2-.3.2.9.5-.2 1.1.3-.2.1-.5c0-.1 0-.2.1-.4.1.1.2.1.3.2l.4.2.3-.2-.9-.5.2-1.1"/></g></g><path class="st5" d="M22.9 34.9c-.5.3-.5.7 0 .9l.2.1c.5.3 1.3.3 1.8 0l9.5-5.1c.5-.3.5-.7 0-1-.5-.3-1.2-.3-1.7-.1l-9.8 5.2zM28 35.9c-.5.3-.5.7 0 .9.5.3 1.2.2 1.7 0l7.7-4.2c.5-.3.5-.7.1-.9-.4-.3-1.1-.2-1.6 0L28 35.9zM29.9 51.3c-.5.3-.5.7 0 .9l.2.1c.5.3 1.3.3 1.8 0l9.5-5.1c.5-.3.5-.7 0-1-.5-.3-1.2-.3-1.7-.1l-9.8 5.2z"/><g><path class="st5" d="M43 43.9c-.5.3-.5.7 0 .9.5.3 1.2.2 1.7 0l7.7-4.2c.5-.3.5-.7.1-.9-.4-.3-1.1-.2-1.6 0L43 43.9z"/></g></svg>