<svg xmlns="http://www.w3.org/2000/svg" viewBox="0 0 60 60"><linearGradient id="a" gradientUnits="userSpaceOnUse" x1="4.198" y1="29.421" x2="11.444" y2="29.421"><stop offset=".006" stop-color="#3f51b5"/><stop offset="1" stop-color="#009688"/></linearGradient><path d="M11.1 33.5l-6.5-8.1 6.5 8.1z" fill="none" stroke="url(#a)" stroke-miterlimit="10"/><linearGradient id="b" gradientUnits="userSpaceOnUse" x1="40.256" y1="50.175" x2="57.217" y2="50.175"><stop offset=".006" stop-color="#3f51b5"/><stop offset="1" stop-color="#009688"/></linearGradient><path fill="none" stroke="url(#b)" stroke-miterlimit="10" d="M45 57.7l-4-14.5 16.1 3.2"/><linearGradient id="c" gradientUnits="userSpaceOnUse" x1="2.719" y1="41.718" x2="19.576" y2="41.718"><stop offset=".006" stop-color="#3f51b5"/><stop offset="1" stop-color="#009688"/></linearGradient><path fill="none" stroke="url(#c)" stroke-miterlimit="10" d="M19.1 48l-6.4-12.1L3 41.5"/><linearGradient id="d" gradientUnits="userSpaceOnUse" x1="28.635" y1="20.488" x2="38.508" y2="20.488"><stop offset=".006" stop-color="#3f51b5"/><stop offset="1" stop-color="#009688"/></linearGradient><path fill="none" stroke="url(#d)" stroke-miterlimit="10" d="M34.9 31l-5.7-10.5L38.1 10"/><linearGradient id="e" gradientUnits="userSpaceOnUse" x1="18.049" y1="16.936" x2="44.592" y2="16.936"><stop offset="0" stop-color="#009688"/><stop offset=".994" stop-color="#3f51b5"/></linearGradient><path fill="none" stroke="url(#e)" stroke-miterlimit="10" d="M44.6 20.5H29.2l-10.9-7.2"/><linearGradient id="f" gradientUnits="userSpaceOnUse" x1="11.596" y1="35.003" x2="41.792" y2="35.003"><stop offset=".006" stop-color="#3f51b5"/><stop offset="1" stop-color="#009688"/></linearGradient><path d="M29.6 21.2C24 26.1 18.3 31 12.7 35.9c9.4 2.1 18.8 4.2 28.1 6.4l-6.3 6.6" fill="none" stroke="url(#f)" stroke-miterlimit="10"/><linearGradient id="g" gradientUnits="userSpaceOnUse" x1="40.234" y1="40.803" x2="46.93" y2="40.803"><stop offset="0" stop-color="#009688"/><stop offset=".994" stop-color="#3f51b5"/></linearGradient><path fill="none" stroke="url(#g)" stroke-miterlimit="10" d="M40.6 43.3l6-5"/><linearGradient id="h" gradientUnits="userSpaceOnUse" x1="8.452" y1="35.751" x2="17.695" y2="35.751"><stop offset="0" stop-color="#009688"/><stop offset=".994" stop-color="#3f51b5"/></linearGradient><path d="M13.1 40.5c6.2 0 6.2-9.6 0-9.6-6.2.1-6.2 9.6 0 9.6z" fill="url(#h)"/><linearGradient id="i" gradientUnits="userSpaceOnUse" x1="24.75" y1="20.665" x2="33.993" y2="20.665"><stop offset="0" stop-color="#009688"/><stop offset=".994" stop-color="#3f51b5"/></linearGradient><path d="M29.4 25.4c6.2 0 6.2-9.6 0-9.6-6.2.1-6.2 9.6 0 9.6z" fill="url(#i)"/><linearGradient id="j" gradientUnits="userSpaceOnUse" x1="35.93" y1="43.294" x2="45.173" y2="43.294"><stop offset="0" stop-color="#009688"/><stop offset=".994" stop-color="#3f51b5"/></linearGradient><path d="M40.6 48.1c6.2 0 6.2-9.6 0-9.6s-6.2 9.6 0 9.6z" fill="url(#j)"/><linearGradient id="k" gradientUnits="userSpaceOnUse" x1="54.416" y1="46.258" x2="59.551" y2="46.258"><stop offset="0" stop-color="#009688"/><stop offset=".994" stop-color="#3f51b5"/></linearGradient><path d="M57 48.9c3.4 0 3.4-5.3 0-5.3s-3.4 5.3 0 5.3z" fill="url(#k)"/><g><linearGradient id="l" gradientUnits="userSpaceOnUse" x1="15.759" y1="12.879" x2="20.894" y2="12.879"><stop offset="0" stop-color="#009688"/><stop offset=".994" stop-color="#3f51b5"/></linearGradient><path d="M18.3 15.5c3.4 0 3.4-5.3 0-5.3s-3.4 5.3 0 5.3z" fill="url(#l)"/></g><g><linearGradient id="m" gradientUnits="userSpaceOnUse" x1="1.886" y1="24.976" x2="7.021" y2="24.976"><stop offset="0" stop-color="#009688"/><stop offset=".994" stop-color="#3f51b5"/></linearGradient><path d="M4.5 27.6c3.4 0 3.4-5.3 0-5.3-3.5 0-3.5 5.3 0 5.3z" fill="url(#m)"/></g><g><linearGradient id="n" gradientUnits="userSpaceOnUse" y1="41.678" x2="5.135" y2="41.678"><stop offset="0" stop-color="#009688"/><stop offset=".994" stop-color="#3f51b5"/></linearGradient><path d="M2.6 44.3C6 44.3 6 39 2.6 39c-3.5 0-3.5 5.3 0 5.3z" fill="url(#n)"/></g><g><linearGradient id="o" gradientUnits="userSpaceOnUse" x1="42.075" y1="57.302" x2="47.211" y2="57.302"><stop offset="0" stop-color="#009688"/><stop offset=".994" stop-color="#3f51b5"/></linearGradient><path d="M44.6 60c3.4 0 3.4-5.3 0-5.3-3.4-.1-3.4 5.3 0 5.3z" fill="url(#o)"/></g><g><linearGradient id="p" gradientUnits="userSpaceOnUse" x1="43.91" y1="37.906" x2="49.045" y2="37.906"><stop offset="0" stop-color="#009688"/><stop offset=".994" stop-color="#3f51b5"/></linearGradient><path d="M46.5 40.6c3.4 0 3.4-5.3 0-5.3-3.4-.1-3.4 5.3 0 5.3z" fill="url(#p)"/></g><g><linearGradient id="q" gradientUnits="userSpaceOnUse" x1="35.155" y1="10.159" x2="40.29" y2="10.159"><stop offset="0" stop-color="#009688"/><stop offset=".994" stop-color="#3f51b5"/></linearGradient><path d="M37.7 12.8c3.4 0 3.4-5.3 0-5.3s-3.4 5.3 0 5.3z" fill="url(#q)"/></g><g><linearGradient id="r" gradientUnits="userSpaceOnUse" x1="16.529" y1="48.143" x2="21.664" y2="48.143"><stop offset="0" stop-color="#009688"/><stop offset=".994" stop-color="#3f51b5"/></linearGradient><path d="M19.1 50.8c3.4 0 3.4-5.3 0-5.3s-3.4 5.3 0 5.3z" fill="url(#r)"/></g><g><linearGradient id="s" gradientUnits="userSpaceOnUse" x1="42.159" y1="20.665" x2="47.294" y2="20.665"><stop offset="0" stop-color="#009688"/><stop offset=".994" stop-color="#3f51b5"/></linearGradient><path d="M44.7 23.3c3.4 0 3.4-5.3 0-5.3s-3.4 5.3 0 5.3z" fill="url(#s)"/></g><g><linearGradient id="t" gradientUnits="userSpaceOnUse" x1="32.41" y1="30.902" x2="37.545" y2="30.902"><stop offset="0" stop-color="#009688"/><stop offset=".994" stop-color="#3f51b5"/></linearGradient><path d="M35 33.6c3.4 0 3.4-5.3 0-5.3-3.4-.1-3.4 5.3 0 5.3z" fill="url(#t)"/></g><g><linearGradient id="u" gradientUnits="userSpaceOnUse" x1="31.518" y1="49.221" x2="36.654" y2="49.221"><stop offset="0" stop-color="#009688"/><stop offset=".994" stop-color="#3f51b5"/></linearGradient><path d="M34.1 51.9c3.4 0 3.4-5.3 0-5.3s-3.4 5.3 0 5.3z" fill="url(#u)"/></g></svg>