<svg xmlns="http://www.w3.org/2000/svg" viewBox="0 0 60 60"><linearGradient id="a" gradientUnits="userSpaceOnUse" x1=".065" y1="38.64" x2="59.935" y2="38.64"><stop offset="0" stop-color="#009688"/><stop offset=".994" stop-color="#3f51b5"/></linearGradient><path d="M6 38.5c0 3.6.9 6.5 2.8 8.7 1.8 2.2 4.2 3.3 7.1 3.3 2.4 0 4.3-.7 5.8-2.1 1.5-1.4 2.8-3.2 3.8-5.4 1.1-2.1 2.1-4.5 3.1-7s2.1-4.9 3.5-7c1.3-2.1 3-3.9 5.1-5.4 2-1.4 4.7-2.1 7.9-2.1 2.4 0 4.5.5 6.3 1.5 1.8 1 3.4 2.3 4.7 3.9 1.3 1.6 2.2 3.4 2.9 5.5.7 2.1 1 4.2 1 6.4 0 2.3-.3 4.5-1 6.6-.7 2.1-1.7 3.9-2.9 5.5-1.3 1.6-2.8 2.8-4.7 3.8-1.9.8-4 1.3-6.4 1.3-2.7 0-5.2-.7-7.5-2.1-2.3-1.4-4.6-3.2-6.9-5.2-.7 1.3-1.5 2.5-2.4 3.6-.9 1.1-2 2.1-3.1 2.9-1.2.8-2.5 1.5-4 2s-3.2.7-5.2.7c-2.5 0-4.8-.5-6.8-1.6-2-1-3.6-2.5-5-4.3-1.3-1.8-2.4-3.9-3.1-6.2-.7-2.3-1-4.8-1-7.4 0-2.6.3-5.1 1-7.4.7-2.3 1.7-4.3 3.1-6.1 1.3-1.7 3-3.1 5-4.1 2-1 4.2-1.5 6.8-1.5.9 0 1.9.1 2.9.3 1 .2 2.1.5 3.2 1s2.3 1.2 3.6 2.1c1.3.9 2.7 2.1 4.3 3.5-1.3.9-2.8 1.6-4.4 1.9-1.6.4-3.1.2-4.5-.6-1.5-.8-2.9-1.2-4-1.2-1.7 0-3.2.3-4.6.9-1.4.8-2.6 1.7-3.5 2.7-.9 1.1-1.7 2.4-2.1 3.8-.5 1.5-.8 3.1-.8 4.8zm39.1-9.7c-1.6 0-3 .4-4.1 1.2-1.1.8-2.1 1.9-3 3.2-.9 1.3-1.7 2.8-2.4 4.5-.7 1.7-1.4 3.4-2.2 5.2 1.7 1.8 3.4 3.2 5 4.2 1.7 1 3.5 1.6 5.6 1.6 1.7 0 3.1-.3 4.3-.9 1.2-.6 2.3-1.3 3.1-2.3.8-1 1.4-2 1.9-3.2.4-1.2.6-2.4.6-3.6 0-1.3-.2-2.5-.6-3.7-.4-1.2-1-2.2-1.7-3.1-.7-.9-1.7-1.7-2.8-2.2-1.1-.6-2.4-.9-3.7-.9z" fill="url(#a)"/><linearGradient id="b" gradientUnits="userSpaceOnUse" y1="38.64" x2="60" y2="38.64"><stop offset="0" stop-color="#009688"/><stop offset=".994" stop-color="#3f51b5"/></linearGradient><path d="M15.9 57.9c-2.5 0-4.8-.5-6.8-1.6-2-1-3.7-2.5-5-4.3-1.3-1.8-2.4-3.9-3.1-6.2-.7-2.3-1-4.8-1-7.4 0-2.6.3-5.1 1-7.5.7-2.3 1.7-4.4 3.1-6.1 1.3-1.7 3-3.1 5-4.1 2-1 4.3-1.5 6.8-1.5.9 0 1.9.1 2.9.3 1 .2 2.1.5 3.2 1s2.4 1.2 3.6 2.1c1.3.9 2.7 2.1 4.3 3.5l.1.1h-.1c-1.3.9-2.8 1.6-4.4 2-1.6.4-3.1.1-4.6-.6-1.5-.8-2.9-1.1-4-1.1-1.7 0-3.2.3-4.6.9-1.3.7-2.4 1.5-3.3 2.6-1 1-1.7 2.3-2.2 3.7-.5 1.4-.7 3-.7 4.7 0 3.5.9 6.4 2.7 8.6 1.8 2.2 4.2 3.3 7.1 3.3 2.3 0 4.3-.7 5.7-2.1 1.5-1.4 2.8-3.2 3.8-5.3 1.1-2.1 2.1-4.5 3-7 1-2.5 2.1-4.9 3.5-7 1.3-2.1 3.1-4 5.1-5.4 2-1.4 4.7-2.2 8-2.2 2.4 0 4.5.5 6.3 1.5 1.8 1 3.4 2.3 4.7 3.9 1.3 1.6 2.3 3.5 2.9 5.6.7 2.1 1 4.3 1 6.5 0 2.3-.3 4.5-1 6.6-.7 2.1-1.7 3.9-2.9 5.5-1.3 1.6-2.8 2.8-4.7 3.8-1.8.9-4 1.4-6.3 1.4-2.7 0-5.2-.7-7.5-2.2-2.3-1.4-4.6-3.1-6.8-5.2-.7 1.2-1.5 2.4-2.4 3.5-.9 1.1-2 2.1-3.1 2.9-1.2.8-2.5 1.5-4.1 2-1.5.6-3.3.8-5.2.8zm0-38.4c-2.5 0-4.8.5-6.7 1.5-2 1-3.6 2.4-5 4.1-1.3 1.7-2.4 3.8-3 6-.7 2.3-1 4.8-1 7.4 0 2.6.3 5 1 7.4.7 2.3 1.7 4.4 3 6.2 1.3 1.8 3 3.2 5 4.2s4.2 1.6 6.7 1.6c1.9 0 3.6-.2 5.1-.7 1.5-.5 2.9-1.2 4-2 1.2-.8 2.2-1.8 3.1-2.9.9-1.1 1.7-2.3 2.4-3.6v-.1l.1.1c2.3 2 4.6 3.8 6.9 5.2 2.3 1.4 4.8 2.1 7.4 2.1 2.3 0 4.5-.5 6.3-1.4 1.8-.9 3.4-2.2 4.6-3.7 1.3-1.6 2.2-3.4 2.9-5.5.7-2.1 1-4.3 1-6.6 0-2.2-.3-4.3-1-6.4-.7-2.1-1.7-3.9-2.9-5.5-1.3-1.6-2.8-2.9-4.6-3.9-1.8-1-3.9-1.5-6.3-1.5-3.2 0-5.9.7-7.9 2.1-2 1.4-3.7 3.2-5.1 5.3-1.3 2.1-2.5 4.5-3.5 7s-2 4.9-3.1 7c-1.1 2.1-2.4 4-3.8 5.4-1.5 1.4-3.4 2.2-5.8 2.2-2.9 0-5.3-1.1-7.2-3.3-1.8-2.2-2.8-5.1-2.8-8.7 0-1.7.3-3.3.7-4.8.5-1.5 1.2-2.7 2.2-3.8.9-1.1 2.1-1.9 3.4-2.5 1.3-.6 2.9-.9 4.6-.9 1.2 0 2.5.4 4.1 1.2 1.4.8 2.9 1 4.5.6 1.6-.3 3-1 4.3-1.9-1.5-1.4-2.9-2.6-4.2-3.4-1.3-.9-2.5-1.6-3.6-2.1s-2.2-.8-3.2-1c-.7-.3-1.6-.4-2.6-.4zm28.2 29.3c-2.1 0-4-.5-5.7-1.6-1.7-1-3.3-2.5-5-4.2.8-1.8 1.5-3.5 2.2-5.2.7-1.7 1.5-3.2 2.4-4.5.9-1.3 1.9-2.4 3-3.2 1.1-.8 2.5-1.2 4.1-1.2 1.4 0 2.7.3 3.8.9 1.1.6 2.1 1.3 2.8 2.2.7.9 1.3 2 1.7 3.2.4 1.2.6 2.4.6 3.7 0 1.2-.2 2.4-.6 3.6-.4 1.2-1 2.3-1.9 3.2-.8 1-1.9 1.8-3.1 2.3-1.2.5-2.7.8-4.3.8zm-10.6-5.9c1.7 1.7 3.4 3.1 5 4.2 1.6 1 3.5 1.6 5.6 1.6 1.6 0 3.1-.3 4.3-.9 1.2-.6 2.3-1.3 3.1-2.3.8-1 1.4-2 1.8-3.2.4-1.2.6-2.4.6-3.6 0-1.3-.2-2.5-.6-3.7-.4-1.2-1-2.2-1.7-3.1-.7-.9-1.7-1.6-2.8-2.2-1.1-.6-2.4-.9-3.7-.9-1.6 0-2.9.4-4 1.2-1.1.8-2.1 1.9-3 3.2-.9 1.3-1.7 2.8-2.3 4.5-.8 1.7-1.6 3.5-2.3 5.2z" fill="url(#b)"/><linearGradient id="c" gradientUnits="userSpaceOnUse" x1="24.102" y1="26.443" x2="27.067" y2="26.443"><stop offset="0" stop-color="#009688"/><stop offset=".994" stop-color="#3f51b5"/></linearGradient><path d="M24.1 25.7c1 .5 2 1.1 3 1.6" fill="url(#c)"/><linearGradient id="d" gradientUnits="userSpaceOnUse" x1="14.092" y1="23.612" x2="29.96" y2="23.612"><stop offset="0" stop-color="#009688"/><stop offset=".994" stop-color="#3f51b5"/></linearGradient><path d="M18.4 33.1c-1.9.6-3.8 0-4.2-1.3-.4-1.3.8-2.9 2.8-3.4l4.2-1.3c1.9-.6 3-2.6 2.4-4.6l-1.3-4.2c-.6-1.9 0-3.8 1.3-4.2 1.3-.4 2.9.8 3.4 2.8l2.7 9c.6 1.9-.5 4-2.4 4.6l-8.9 2.6z" fill="url(#d)"/><linearGradient id="e" gradientUnits="userSpaceOnUse" x1="32.011" y1="47.3" x2="34.838" y2="47.3"><stop offset="0" stop-color="#009688"/><stop offset=".994" stop-color="#3f51b5"/></linearGradient><path d="M34.8 48.2c-.9-.6-1.8-1.2-2.8-1.8" fill="url(#e)"/><linearGradient id="f" gradientUnits="userSpaceOnUse" x1="29.082" y1="50.528" x2="45.275" y2="50.528"><stop offset="0" stop-color="#009688"/><stop offset=".994" stop-color="#3f51b5"/></linearGradient><path d="M41.1 41.3c2-.4 3.8.3 4.1 1.6.3 1.3-1.1 2.8-3 3.2l-4.3.9c-2 .4-3.2 2.4-2.8 4.4l.9 4.3c.4 2-.3 3.8-1.6 4.1-1.3.3-2.8-1.1-3.2-3l-2-9.2c-.4-2 .8-3.9 2.8-4.4l9.1-1.9z" fill="url(#f)"/></svg>