<svg id="Layer_1" xmlns="http://www.w3.org/2000/svg" xmlns:xlink="http://www.w3.org/1999/xlink" viewBox="0 0 170 385"><style>.st6{enable-background:new}.st8{fill:#fff}.st23{fill:#3f51b5}</style><linearGradient id="SVGID_1_" gradientUnits="userSpaceOnUse" x1="2.199" y1="141.518" x2="167.971" y2="141.518"><stop offset=".006" stop-color="#3f51b5"/><stop offset="1" stop-color="#009688"/></linearGradient><path d="M4.8 160.6c-3.2-1.8-3.2-4.8 0-6.6l102.5-57.6c3.2-1.8 8.5-1.8 11.7-.1l46.3 25.4c3.2 1.8 3.2 4.7 0 6.5L61.9 186.7c-3.2 1.8-8.4 1.8-11.6 0L4.8 160.6z" fill="none" stroke="url(#SVGID_1_)" stroke-width=".5" stroke-linecap="round" stroke-linejoin="round"/><linearGradient id="SVGID_2_" gradientUnits="userSpaceOnUse" x1="2.195" y1="158.313" x2="168.001" y2="158.313"><stop offset=".006" stop-color="#3f51b5"/><stop offset="1" stop-color="#009688"/></linearGradient><path d="M2.4 158.1v2.6c0 1.4 2.6 4.1 5.8 5.9L50.6 191c3.2 1.8 8.4 1.9 11.6.1l99.7-56.3c3.2-1.8 5.8-4.9 5.8-6.9v-3.6" fill="none" stroke="url(#SVGID_2_)" stroke-width=".5" stroke-linecap="round" stroke-linejoin="round"/><linearGradient id="SVGID_3_" gradientUnits="userSpaceOnUse" x1="30.897" y1="167.228" x2="48.419" y2="167.228"><stop offset=".006" stop-color="#3f51b5"/><stop offset="1" stop-color="#009688"/></linearGradient><linearGradient id="SVGID_4_" gradientUnits="userSpaceOnUse" x1="30.647" y1="167.228" x2="48.669" y2="167.228"><stop offset=".006" stop-color="#3f51b5"/><stop offset="1" stop-color="#009688"/></linearGradient><ellipse cx="39.7" cy="167.2" rx="8.8" ry="3.6" fill="url(#SVGID_3_)" stroke="url(#SVGID_4_)" stroke-width=".5" stroke-linecap="round" stroke-linejoin="round"/><linearGradient id="SVGID_5_" gradientUnits="userSpaceOnUse" x1="124.234" y1="113.699" x2="140.459" y2="113.699" gradientTransform="rotate(-1.848 139.463 110.041) scale(1.00002)"><stop offset=".006" stop-color="#3f51b5"/><stop offset="1" stop-color="#009688"/></linearGradient><path fill="none" stroke="url(#SVGID_5_)" stroke-width=".5" stroke-linecap="round" stroke-linejoin="round" d="M124.5 109.5l16 8.8"/><linearGradient id="SVGID_6_" gradientUnits="userSpaceOnUse" x1="141.811" y1="119.688" x2="143.894" y2="119.688"><stop offset=".006" stop-color="#3f51b5"/><stop offset="1" stop-color="#009688"/></linearGradient><path d="M142.9 120.2c.7 0 .7-1.1 0-1.1-.8 0-.8 1.1 0 1.1z" fill="#3f51b5" stroke="url(#SVGID_6_)" stroke-miterlimit="10"/><linearGradient id="SVGID_7_" gradientUnits="userSpaceOnUse" x1="23.997" y1="139.607" x2="152.894" y2="139.607"><stop offset=".006" stop-color="#3f51b5"/><stop offset="1" stop-color="#009688"/></linearGradient><linearGradient id="SVGID_8_" gradientUnits="userSpaceOnUse" x1="23.747" y1="139.607" x2="153.144" y2="139.607"><stop offset=".006" stop-color="#3f51b5"/><stop offset="1" stop-color="#009688"/></linearGradient><path d="M24 144.1c18.3 10.7 36.6 21.3 55 32 24.6-14 49.3-28 73.9-42-18.7-10.3-37.3-20.7-56-31-24.3 13.7-48.6 27.3-72.9 41z" fill="url(#SVGID_7_)" stroke="url(#SVGID_8_)" stroke-width=".5" stroke-linecap="round" stroke-linejoin="round"/><g class="st6"><defs><path id="SVGID_9_" class="st6" d="M60.5 136.2l21.2-12.3 30.4 17.5-21.3 12.3z"/></defs><clipPath id="SVGID_10_"><use xlink:href="#SVGID_9_" overflow="visible"/></clipPath><g clip-path="url(#SVGID_10_)"><path class="st8" d="M68.2 132.1l12.6-7.3c.5-.3 1.4-.3 1.9 0l27.7 16c.5.3.5.8 0 1.1l-12.6 7.3.2.1-2.8 1.6-.2-.1-3.2 1.9c-.5.3-1.4.3-1.9 0l-27.7-16c-.5-.3-.5-.8 0-1.1l3.2-1.9-.2-.1L68 132l.2.1m42.5 8.5l-27.7-16c-.7-.4-1.9-.4-2.6 0l-18.6 10.8c-.7.4-.7 1.1 0 1.5l27.7 16c.7.4 1.9.4 2.6 0l18.6-10.8c.8-.4.8-1.1 0-1.5"/><path class="st8" d="M98 149.3l-.2-.1-29.6-17.1-.2-.1-2.8 1.7.2.1L95 150.9l.2.1 2.8-1.7"/></g></g><g><linearGradient id="SVGID_11_" gradientUnits="userSpaceOnUse" x1="2.197" y1="239.122" x2="166.966" y2="239.122"><stop offset=".006" stop-color="#3f51b5"/><stop offset="1" stop-color="#009688"/></linearGradient><path d="M4.8 258.1c-3.2-1.8-3.2-4.8 0-6.6l101.9-57.3c3.2-1.8 8.4-1.8 11.6-.1l46 25.3c3.2 1.8 3.2 4.7 0 6.5L61.6 284c-3.2 1.8-8.4 1.8-11.6 0L4.8 258.1z" fill="none" stroke="url(#SVGID_11_)" stroke-width=".5" stroke-linecap="round" stroke-linejoin="round"/><linearGradient id="SVGID_12_" gradientUnits="userSpaceOnUse" x1="2.193" y1="255.815" x2="166.996" y2="255.815"><stop offset=".006" stop-color="#3f51b5"/><stop offset="1" stop-color="#009688"/></linearGradient><path d="M2.4 255.6v2.5c0 1.4 2.6 4 5.8 5.9l42.1 24.3c3.2 1.8 8.4 1.8 11.5.1l99.1-56c3.2-1.8 5.8-4.9 5.8-6.8v-3.5" fill="none" stroke="url(#SVGID_12_)" stroke-width=".5" stroke-linecap="round" stroke-linejoin="round"/><linearGradient id="SVGID_13_" gradientUnits="userSpaceOnUse" x1="30.722" y1="264.675" x2="48.138" y2="264.675"><stop offset=".006" stop-color="#3f51b5"/><stop offset="1" stop-color="#009688"/></linearGradient><linearGradient id="SVGID_14_" gradientUnits="userSpaceOnUse" x1="30.472" y1="264.675" x2="48.388" y2="264.675"><stop offset=".006" stop-color="#3f51b5"/><stop offset="1" stop-color="#009688"/></linearGradient><ellipse cx="39.4" cy="264.7" rx="8.7" ry="3.6" fill="url(#SVGID_13_)" stroke="url(#SVGID_14_)" stroke-width=".5" stroke-linecap="round" stroke-linejoin="round"/><linearGradient id="SVGID_15_" gradientUnits="userSpaceOnUse" x1="120.341" y1="211.394" x2="136.471" y2="211.394" gradientTransform="rotate(-1.848 139.463 110.041) scale(1.00002)"><stop offset=".006" stop-color="#3f51b5"/><stop offset="1" stop-color="#009688"/></linearGradient><path fill="none" stroke="url(#SVGID_15_)" stroke-width=".5" stroke-linecap="round" stroke-linejoin="round" d="M123.7 207.3l15.9 8.8"/><linearGradient id="SVGID_16_" gradientUnits="userSpaceOnUse" x1="140.96" y1="217.424" x2="143.036" y2="217.424"><stop offset=".006" stop-color="#3f51b5"/><stop offset="1" stop-color="#009688"/></linearGradient><path d="M142 218c.7 0 .7-1.1 0-1.1s-.7 1.1 0 1.1z" fill="#3f51b5" stroke="url(#SVGID_16_)" stroke-miterlimit="10"/><linearGradient id="SVGID_17_" gradientUnits="userSpaceOnUse" x1="23.865" y1="237.222" x2="151.979" y2="237.222"><stop offset=".006" stop-color="#3f51b5"/><stop offset="1" stop-color="#009688"/></linearGradient><linearGradient id="SVGID_18_" gradientUnits="userSpaceOnUse" x1="23.615" y1="237.222" x2="152.229" y2="237.222"><stop offset=".006" stop-color="#3f51b5"/><stop offset="1" stop-color="#009688"/></linearGradient><path d="M23.9 241.7l54.6 31.8 73.5-41.7c-18.5-10.3-37.1-20.5-55.6-30.8-24.2 13.5-48.4 27.1-72.5 40.7z" fill="url(#SVGID_17_)" stroke="url(#SVGID_18_)" stroke-width=".5" stroke-linecap="round" stroke-linejoin="round"/></g><g><linearGradient id="SVGID_19_" gradientUnits="userSpaceOnUse" x1="2.197" y1="332.122" x2="166.966" y2="332.122"><stop offset=".006" stop-color="#3f51b5"/><stop offset="1" stop-color="#009688"/></linearGradient><path d="M4.8 351.1c-3.2-1.8-3.2-4.8 0-6.6l101.9-57.3c3.2-1.8 8.4-1.8 11.6-.1l46 25.3c3.2 1.8 3.2 4.7 0 6.5L61.6 377c-3.2 1.8-8.4 1.8-11.6 0L4.8 351.1z" fill="none" stroke="url(#SVGID_19_)" stroke-width=".5" stroke-linecap="round" stroke-linejoin="round"/><linearGradient id="SVGID_20_" gradientUnits="userSpaceOnUse" x1="2.193" y1="348.815" x2="166.996" y2="348.815"><stop offset=".006" stop-color="#3f51b5"/><stop offset="1" stop-color="#009688"/></linearGradient><path d="M2.4 348.6v2.5c0 1.4 2.6 4 5.8 5.9l42.1 24.3c3.2 1.8 8.4 1.8 11.5.1l99.1-56c3.2-1.8 5.8-4.9 5.8-6.8v-3.5" fill="none" stroke="url(#SVGID_20_)" stroke-width=".5" stroke-linecap="round" stroke-linejoin="round"/><linearGradient id="SVGID_21_" gradientUnits="userSpaceOnUse" x1="30.722" y1="357.675" x2="48.138" y2="357.675"><stop offset=".006" stop-color="#3f51b5"/><stop offset="1" stop-color="#009688"/></linearGradient><linearGradient id="SVGID_22_" gradientUnits="userSpaceOnUse" x1="30.472" y1="357.675" x2="48.388" y2="357.675"><stop offset=".006" stop-color="#3f51b5"/><stop offset="1" stop-color="#009688"/></linearGradient><ellipse cx="39.4" cy="357.7" rx="8.7" ry="3.6" fill="url(#SVGID_21_)" stroke="url(#SVGID_22_)" stroke-width=".5" stroke-linecap="round" stroke-linejoin="round"/><linearGradient id="SVGID_23_" gradientUnits="userSpaceOnUse" x1="117.346" y1="304.346" x2="133.476" y2="304.346" gradientTransform="rotate(-1.848 139.463 110.041) scale(1.00002)"><stop offset=".006" stop-color="#3f51b5"/><stop offset="1" stop-color="#009688"/></linearGradient><path fill="none" stroke="url(#SVGID_23_)" stroke-width=".5" stroke-linecap="round" stroke-linejoin="round" d="M123.7 300.3l15.9 8.8"/><linearGradient id="SVGID_24_" gradientUnits="userSpaceOnUse" x1="140.96" y1="310.424" x2="143.036" y2="310.424"><stop offset=".006" stop-color="#3f51b5"/><stop offset="1" stop-color="#009688"/></linearGradient><path d="M142 311c.7 0 .7-1.1 0-1.1s-.7 1.1 0 1.1z" fill="#3f51b5" stroke="url(#SVGID_24_)" stroke-miterlimit="10"/><linearGradient id="SVGID_25_" gradientUnits="userSpaceOnUse" x1="23.865" y1="330.222" x2="151.979" y2="330.222"><stop offset=".006" stop-color="#3f51b5"/><stop offset="1" stop-color="#009688"/></linearGradient><linearGradient id="SVGID_26_" gradientUnits="userSpaceOnUse" x1="23.615" y1="330.222" x2="152.229" y2="330.222"><stop offset=".006" stop-color="#3f51b5"/><stop offset="1" stop-color="#009688"/></linearGradient><path d="M23.9 334.7l54.6 31.8 73.5-41.7c-18.5-10.3-37.1-20.5-55.6-30.8-24.2 13.5-48.4 27.1-72.5 40.7z" fill="url(#SVGID_25_)" stroke="url(#SVGID_26_)" stroke-width=".5" stroke-linecap="round" stroke-linejoin="round"/></g><g><g class="st6"><defs><path id="SVGID_27_" class="st6" d="M50.8 235.8l34.5-20.1 34.7 20.1-34.5 20z"/></defs><clipPath id="SVGID_28_"><use xlink:href="#SVGID_27_" overflow="visible"/></clipPath><g clip-path="url(#SVGID_28_)"><path class="st8" d="M102.7 225.8c-.5-.3-1.3-.5-2.1-.5H70.1c-1.6 0-2.9.8-2.9 1.7v6.6l.3-.2.2.1v-6.6c0-.8 1.1-1.4 2.4-1.4h30.5c.7 0 1.3.2 1.7.4.4.3.7.6.7 1l.1 10.5.4.2-.4.2h-.1v6.7c0 .8-1.1 1.4-2.4 1.4H70.1v.1-.1c-.7 0-1.3-.2-1.7-.4-.4-.3-.7-.6-.7-1l.1-10.5-.5-.3.1 10.9c0 .5.3.9.9 1.2.5.3 1.3.5 2.1.5h30.5c1.6 0 2.9-.8 2.9-1.7l-.1-17.7c-.2-.4-.5-.8-1-1.1"/><path class="st8" d="M86.1 231.8l1.5-3.2 5.5-.9 4.1 2.4-1.5 3.2-5.5.9-4.1-2.4m11.6-1.8l-4.5-2.6-6.1 1-1.6 3.5 4.5 2.6 5.7-.9h-.1l.4-.2.1.1 1.6-3.5M84.2 230.7l-4.7-2.7-6.4 1-1.7 3.7 4.7 2.7 6-1-.2-.1-5.7.9-4.5-2.6 1.6-3.5 6.1-1 4.5 2.6-1.5 3.5.2.1 1.6-3.6"/><path class="st8" d="M83.4 230.8l-4.1-2.3-5.6.8-1.4 3.2 4.1 2.4 5.5-.9 1.5-3.2"/><path class="st8" d="M72.3 232.5l1.5-3.2 5.5-.9 4.1 2.4-1.5 3.2-5.5.9-4.1-2.4m11.6-1.8l-4.5-2.6-6.1 1-1.6 3.5 4.5 2.6 5.7-.9h-.1l.4-.2.1.1 1.6-3.5M98.6 239l-4.6-2.7-6.2 1 .2.1 5.9-.9 4.5 2.6-1.6 3.5-6.1 1-4.5-2.6 1.5-3.3-.2-.2-1.6 3.5 4.7 2.7 6.4-1 1.6-3.7"/><path class="st8" d="M97.8 239.2l-4.1-2.4-5.3.8.1.1-.4.2-1.4 3 4.1 2.3 5.5-.8 1.5-3.2"/><path class="st8" d="M98.4 239.1l-4.5-2.6-5.9.9.4.2 5.3-.8 4.1 2.4-1.5 3.2-5.5.8-4.1-2.3 1.4-3-.4-.2-1.5 3.3 4.5 2.6 6.1-1 1.6-3.5M103.5 237.7l-.4-.2-7-4.1H96l-.4.2h.1l7.4 4.3h.1l.3-.2M73.6 241.2l1.5-3.2 5.5-.9 4.1 2.4-1.5 3.2-5.5.9-4.1-2.4m11.6-1.8l-4.5-2.6-5.7.9h.1l-.4.2-.1-.1-1.6 3.4 4.5 2.6 6.1-.9 1.6-3.5"/><path class="st8" d="M75.1 237.8l-.1-.1-7.2-4.2-.3-.1-.2.2h-.1l.1.1.5.3 6.8 3.9.1.1.4-.2M88.5 237.7l-.1-.1-.4-.2-.2-.1-5.2-3-.2-.1-.2-.1-.3.2.2.1 5.4 3.1.2.2.4.2.4-.2"/></g></g></g><g><g class="st6"><defs><path id="SVGID_29_" class="st6" d="M52.4 329.3l33.4-19.4 33.6 19.4L86 348.8z"/></defs><clipPath id="SVGID_30_"><use xlink:href="#SVGID_29_" overflow="visible"/></clipPath><g clip-path="url(#SVGID_30_)"><path class="st8" d="M69.6 338.8c-9.1-5.2-9.1-13.8-.1-19 9-5.2 23.7-5.2 32.8 0s9.1 13.8.1 19c-9.1 5.3-23.8 5.3-32.8 0m33-19.2c-9.3-5.3-24.3-5.4-33.5 0s-9.2 14.1.1 19.4c9.3 5.4 24.3 5.4 33.5 0 9.2-5.3 9.2-14-.1-19.4"/><path class="st8" d="M84.6 340.7c-3.9-.2-7.7-1-10.9-2.5l-.3.2c3.3 1.5 7.2 2.4 11.2 2.5v-.2m-18.3-10.9h-.5c.2 2.3 1.5 4.6 4.1 6.5l.4-.2c-2.5-1.8-3.8-4-4-6.3m5.7-8.9c-.1.1-.3.1-.4.2-2.9 1.7-4.7 3.7-5.4 5.8l.5.1c.7-2.1 2.5-4.1 5.3-5.7.1-.1.2-.1.4-.2l-.4-.2m31.7 13.9l-.4-.1c-.9 1-2 1.9-3.5 2.7-2.9 1.7-6.5 2.7-10.3 3.1l.1.3c3.9-.4 7.6-1.5 10.6-3.2 1.4-.9 2.6-1.8 3.5-2.8m-15.9-17.1c-4-.2-8.1.2-11.7 1.4l.2.3c3.5-1.1 7.5-1.6 11.4-1.4l.1-.3m16.9 7.4l-.5.1c1.4 2.2 1.7 4.5.8 6.7l.5.1c.9-2.2.6-4.6-.8-6.9m-4.6-4c-2.2-1.2-4.7-2.2-7.4-2.7l-.2.3c2.6.6 5.1 1.4 7.2 2.7.8.5 1.5.9 2.1 1.4l.4-.2c-.6-.5-1.3-1-2.1-1.5M92.3 331.7l-5.8-3.3c0 .1-.1.1-.2.2 0 0-.1 0-.1.1l5.4 3.1-5.6 3.4 2.1 1.2s.1-.1.2-.1.1-.1.2-.1l-1.8-1 5.6-3.5M88.6 336.9c-.2-.1-.2-.3 0-.4.2-.1.5-.1.7 0 .2.1.2.3 0 .4-.1.1-.5.1-.7 0m1.1-.6c-.3-.2-.8-.2-1.2-.1-.1 0-.1.1-.2.1s-.1.1-.2.1c-.2.2-.2.5.2.7.4.2 1 .2 1.4 0 .4-.3.4-.6 0-.8"/><path class="st23" d="M85.8 328.2h-.1l-.3.2.3-.2-.3.2.3-.2h.1"/><path class="st8" d="M85.4 328.4l.3-.2v-.1h.1v.1h-.1l-.3.2.3-.2-.3.2m1-.6c-.2-.1-.4-.2-.7-.2-.2 0-.4.1-.6.2-.4.2-.4.5 0 .8.3.2.8.2 1.2.1 0 0 .1 0 .1-.1.1-.1.2-.1.2-.2.1-.2.1-.4-.2-.6M87.5 331.3l-3.9-2.2-4.1 2.3-1.2-.7-.1.1c-.1 0-.1.1-.2.1l1.5.9 4.1-2.3 3.5 2 .1-.1c.1 0 .2-.1.3-.1"/><path class="st8" d="M77.4 330.6c-.1-.1-.1-.2 0-.2.1-.1.3-.1.4 0 .1.1.1.2 0 .2-.1.1-.3.1-.4 0m.8-.4c-.3-.2-.8-.2-1.1 0-.3.2-.3.5 0 .6.2.1.6.2.9.1.1 0 .1 0 .2-.1.1 0 .1-.1.1-.1.1-.2.1-.4-.1-.5"/><path class="st23" d="M87.9 331.8h-.1l-.2.2.2-.2-.2.2.2-.2h.1"/><path class="st8" d="M87.6 332l.3-.2v-.1h.1v.1h-.1l-.3.2.3-.2-.3.2m.9-.6c-.3-.2-.7-.2-1-.1-.1 0-.2.1-.3.1l-.1.1c-.1.1-.2.2-.2.3 0 .2.1.3.3.4.4.2.9.2 1.3 0s.4-.6 0-.8M75.7 332.2c-.1 0-.2-.1-.2-.1-.1 0-.1-.1-.1-.1l-2.4 1.4-3.1-1.7-1.1.7c.1 0 .2 0 .2.1.1 0 .1.1.1.1l.8-.5 3.1 1.7 2.7-1.6"/><path class="st8" d="M68.3 332.7s0-.1 0 0l.2-.1v.1c0 .1-.1 0-.2 0m.6-.3c-.1 0-.1-.1-.2-.1-.2-.1-.5 0-.7.1-.2.1-.2.4 0 .5.2.1.6.1.9 0 .2-.1.2-.3.1-.4l-.1-.1"/><path class="st23" d="M76.1 331.7H76l-.2.2.2-.2-.2.2.2-.2h.1"/><path class="st8" d="M75.8 331.9l.3-.2v-.1h.1v.1h-.1l-.3.2.3-.2-.3.2m.9-.6c-.2-.1-.4-.2-.7-.2-.2 0-.4.1-.6.2-.3.2-.4.5-.1.7l.1.1c.1 0 .2.1.2.1.3.1.8.1 1.1-.1.2-.1.3-.2.3-.3 0-.2-.1-.4-.3-.5M76.4 324.8l-2.4-1.4-2.7 1.5-.7-.4-.1.1c-.1 0-.1.1-.2.1l1 .6 2.8-1.5L76 325l.1-.1c.1 0 .2-.1.3-.1"/><path class="st8" d="M69.9 324.5c0-.1 0-.1 0 0l.1-.1v.1h-.1m.5-.3c-.2-.1-.6-.1-.8 0-.2.1-.2.4 0 .5.2.1.4.1.6.1.1 0 .2 0 .2-.1.1 0 .1-.1.1-.1.1-.2.1-.3-.1-.4"/><path class="st23" d="M76.9 325.3h-.1l-.3.2.3-.2-.3.2.3-.2h.1"/><path class="st8" d="M76.5 325.5l.3-.2v-.1h.1v.1h-.1l-.3.2.3-.2-.3.2m1-.6c-.3-.2-.7-.2-1.1-.1-.1 0-.2.1-.2.1-.1 0-.1.1-.1.1-.2.2-.2.5.1.7.4.2.9.2 1.3 0 .3-.2.3-.6 0-.8M91.3 325.5l-1.4-.8-3.8 2.1-3.2-1.8-.1.1c-.1 0-.2.1-.3.1l3.6 2.1 3.8-2.1 1 .6.1-.1c.2-.1.2-.2.3-.2"/><path class="st8" d="M91.5 326c-.1-.1-.1-.1 0-.2s.2-.1.3 0 .1.1 0 .2-.2.1-.3 0m.6-.4c-.2-.1-.6-.2-.8-.1-.1 0-.1 0-.2.1-.1 0-.1.1-.1.1-.1.2-.1.3.1.5.3.2.7.2 1 0 .3-.2.3-.4 0-.6"/><path class="st23" d="M82.2 324.7h-.1l-.3.2.3-.2-.3.2.3-.2h.1"/><path class="st8" d="M81.8 324.9l.3-.2v-.1h.1v.1h-.1l-.3.2.3-.2-.3.2m1-.6c-.4-.2-.9-.2-1.3 0s-.4.5 0 .8c.3.2.7.2 1.1.1.1 0 .2-.1.3-.1l.1-.1c.2-.2.1-.5-.2-.7M85.1 319.9l-.9-.5-.1.1c-.1 0-.1.1-.2.1l.6.3-2.4 1.5 2.2 1.3s.1-.1.2-.1.1-.1.2-.1l-1.9-1.1 2.3-1.5"/><path class="st8" d="M83.6 319.2l.1.1-.1-.1m.4-.2c-.2-.1-.6-.1-.8 0-.2.1-.2.3 0 .5.2.1.4.1.6.1.1 0 .2 0 .2-.1.1 0 .1-.1.1-.1.1-.1.1-.3-.1-.4"/><path class="st23" d="M85.1 322.9H85l-.3.2.3-.2-.3.2.3-.2h.1"/><path class="st8" d="M84.7 323.1l.3-.2v-.1h.1v.1H85l-.3.2.3-.2-.3.2m1-.6c-.2-.1-.4-.2-.7-.2-.2 0-.3 0-.4.1-.1 0-.1 0-.2.1-.1 0-.1.1-.2.1-.2.2-.1.5.2.6.4.2.9.2 1.3 0 .3-.1.3-.5 0-.7M96.8 322.5c-.1 0-.2 0-.2-.1-.1 0-.1-.1-.1-.1l-1 .6 2.6 1.6-2.1 1.2c.1 0 .1 0 .2.1.1 0 .1.1.2.1l2.4-1.4-2.6-1.6.6-.4"/><path class="st8" d="M96.9 322.2l.1-.1v.1h-.1m.5-.3c-.2-.1-.6-.1-.8 0-.2.1-.2.2-.1.4l.1.1c.1 0 .1.1.2.1.2 0 .5 0 .6-.1.2-.1.2-.3 0-.5"/><path class="st23" d="M95.5 326.1h-.1v.1l-.2.1.2-.1-.2.1.2-.1h.1v-.1"/><path class="st8" d="M95.2 326.3l.3-.2v-.1h.1v.1h-.1l-.3.2.3-.2-.3.2m.9-.5c-.1 0-.1-.1-.2-.1-.2-.1-.4-.1-.6-.1-.2 0-.4.1-.6.2-.4.2-.4.5 0 .8.4.2.9.2 1.3 0 .3-.2.4-.4.2-.6.1-.2 0-.2-.1-.2M97.5 336l-2.2-1.3s-.1.1-.2.1-.1.1-.2.1l1.9 1.1-2.4 1.5.9.5.1-.1c.1 0 .1-.1.2-.1l-.6-.3 2.5-1.5"/><path class="st8" d="M95.8 338.1h.1v.1l-.1-.1m.5-.2c-.2-.1-.4-.1-.6-.1-.1 0-.2 0-.2.1-.1 0-.1.1-.1.1-.1.1 0 .2.1.3.2.1.6.1.8 0 .2-.1.2-.3 0-.4"/><path class="st23" d="M94.5 334.4h-.1v.1l-.2.1.2-.1-.2.1.2-.1h.1v-.1"/><path class="st8" d="M94.2 334.6l.3-.2v-.1h.1v.1h-.1l-.3.2.3-.2-.3.2m.9-.5c-.2-.1-.4-.2-.7-.2-.2 0-.4.1-.6.2-.4.2-.4.5 0 .8.3.2.8.2 1.2.1.1 0 .1 0 .2-.1.1 0 .1-.1.2-.1.1-.3 0-.5-.3-.7M79.9 336l-2.2 1.3 2.4 1.5-.6.3c.1 0 .2 0 .2.1.1 0 .1.1.1.1l.9-.5-2.4-1.5 1.8-1.1c-.1 0-.1 0-.2-.1.1 0 .1-.1 0-.1"/><path class="st8" d="M79.4 339.3h.1-.1m.4-.2c-.1 0-.1-.1-.2-.1-.2 0-.4 0-.6.1-.2.1-.2.3 0 .5.2.1.6.1.8 0 .2-.1.2-.2.1-.3 0-.1 0-.1-.1-.2"/><path class="st23" d="M80.8 335.7h-.1l-.2.2.2-.2-.2.2.2-.2.1.1v-.1"/><path class="st8" d="M80.5 335.9l.3-.2v-.1h.1v.1h-.1l-.3.2.3-.2-.3.2m.9-.6c-.2-.1-.5-.2-.7-.2-.2 0-.4.1-.6.2-.3.2-.4.4-.2.6 0 0 .1.1.2.1s.1.1.2.1c.4.1.8.1 1.1-.1.4-.1.4-.4 0-.7M104.4 330.1c-.1 0-.2 0-.2-.1-.1 0-.1-.1-.1-.1l-.6.3-2.5-1.4-2.2 1.3c.1 0 .2.1.2.1.1 0 .1.1.1.1l1.8-1.1 2.5 1.4 1-.5M104.5 329.7h.1v.1l-.1-.1m.5-.2c-.2-.1-.6-.1-.8 0-.2.1-.2.2-.1.3l.1.1c.1 0 .1.1.2.1.2 0 .4 0 .6-.1.2 0 .2-.2 0-.4"/><path class="st23" d="M98.3 330.5h-.1v.1l-.2.1.2-.1-.2.1.2-.1h.1v-.1"/><path class="st8" d="M98 330.7l.3-.2v-.1h.1v.1h-.1l-.3.2.3-.2-.3.2m.9-.5c-.1 0-.1-.1-.2-.1s-.3-.1-.5-.1-.4.1-.6.2c-.4.2-.4.5 0 .8.4.2.9.2 1.3 0 .3-.2.4-.5.1-.7 0-.1 0-.1-.1-.1"/></g></g></g><g><linearGradient id="SVGID_31_" gradientUnits="userSpaceOnUse" x1="1.197" y1="48.122" x2="165.966" y2="48.122"><stop offset=".006" stop-color="#3f51b5"/><stop offset="1" stop-color="#009688"/></linearGradient><path d="M3.8 67.1c-3.2-1.8-3.2-4.8 0-6.6L105.7 3.2c3.2-1.8 8.4-1.8 11.6-.1l46 25.3c3.2 1.8 3.2 4.7 0 6.5L60.6 93c-3.2 1.8-8.4 1.8-11.6 0L3.8 67.1z" fill="none" stroke="url(#SVGID_31_)" stroke-width=".5" stroke-linecap="round" stroke-linejoin="round"/><linearGradient id="SVGID_32_" gradientUnits="userSpaceOnUse" x1="1.193" y1="64.815" x2="165.996" y2="64.815"><stop offset=".006" stop-color="#3f51b5"/><stop offset="1" stop-color="#009688"/></linearGradient><path d="M1.4 64.6v2.5c0 1.4 2.6 4 5.8 5.9l42.1 24.3c3.2 1.8 8.4 1.8 11.5.1l99.1-56c3.2-1.8 5.8-4.9 5.8-6.8v-3.5" fill="none" stroke="url(#SVGID_32_)" stroke-width=".5" stroke-linecap="round" stroke-linejoin="round"/><linearGradient id="SVGID_33_" gradientUnits="userSpaceOnUse" x1="29.722" y1="73.675" x2="47.138" y2="73.675"><stop offset=".006" stop-color="#3f51b5"/><stop offset="1" stop-color="#009688"/></linearGradient><linearGradient id="SVGID_34_" gradientUnits="userSpaceOnUse" x1="29.472" y1="73.675" x2="47.388" y2="73.675"><stop offset=".006" stop-color="#3f51b5"/><stop offset="1" stop-color="#009688"/></linearGradient><ellipse cx="38.4" cy="73.7" rx="8.7" ry="3.6" fill="url(#SVGID_33_)" stroke="url(#SVGID_34_)" stroke-width=".5" stroke-linecap="round" stroke-linejoin="round"/><linearGradient id="SVGID_35_" gradientUnits="userSpaceOnUse" x1="125.494" y1="20.461" x2="141.624" y2="20.461" gradientTransform="rotate(-1.848 139.463 110.041) scale(1.00002)"><stop offset=".006" stop-color="#3f51b5"/><stop offset="1" stop-color="#009688"/></linearGradient><path fill="none" stroke="url(#SVGID_35_)" stroke-width=".5" stroke-linecap="round" stroke-linejoin="round" d="M122.7 16.3l15.9 8.8"/><linearGradient id="SVGID_36_" gradientUnits="userSpaceOnUse" x1="139.96" y1="26.424" x2="142.036" y2="26.424"><stop offset=".006" stop-color="#3f51b5"/><stop offset="1" stop-color="#009688"/></linearGradient><path d="M141 27c.7 0 .7-1.1 0-1.1s-.7 1.1 0 1.1z" fill="#3f51b5" stroke="url(#SVGID_36_)" stroke-miterlimit="10"/><linearGradient id="SVGID_37_" gradientUnits="userSpaceOnUse" x1="22.865" y1="46.222" x2="150.979" y2="46.222"><stop offset=".006" stop-color="#3f51b5"/><stop offset="1" stop-color="#009688"/></linearGradient><linearGradient id="SVGID_38_" gradientUnits="userSpaceOnUse" x1="22.615" y1="46.222" x2="151.229" y2="46.222"><stop offset=".006" stop-color="#3f51b5"/><stop offset="1" stop-color="#009688"/></linearGradient><path d="M22.9 50.7l54.6 31.8L151 40.8C132.4 30.5 113.9 20.2 95.4 10 71.2 23.5 47 37.1 22.9 50.7z" fill="url(#SVGID_37_)" stroke="url(#SVGID_38_)" stroke-width=".5" stroke-linecap="round" stroke-linejoin="round"/></g><g><g class="st6"><defs><path id="SVGID_39_" class="st6" d="M56.3 52.6L102 26l21.8 12.6L78 65.2z"/></defs><clipPath id="SVGID_40_"><use xlink:href="#SVGID_39_" overflow="visible"/></clipPath><g clip-path="url(#SVGID_40_)"><path class="st8" d="M70.9 51.5l-3.7-.3c-.9-.1-1.7-.1-2.1 0-.5.1-.9.2-1.3.4s-.6.5-.8.8c-.1.3-.1.8 0 1.3l.5 2 3.7.3c.9.1 1.6.1 2 0 .5-.1.9-.2 1.3-.4s.7-.5.8-.8c.1-.3.1-.8 0-1.3l-.4-2m37.7-20.8c-2-1.1-4-1.8-6.1-2.1-2-.2-3.6 0-4.8.7-.6.3-.9.7-.9 1.1 0 .4.2.7.7 1 .1.1.7.3 4.1.8 2.6.4 4.7 1 6.2 1.9 2.2 1.3 3.3 2.7 3.4 4.3.1 1.6-.9 3.1-3 4.3-2.6 1.5-6.1 2.2-10.3 2.1-4.1-.1-8.5-1-13.3-2.7-1.1.7-2.2 1.4-3.2 2.1-1.2.7-2.4 1.5-3.5 2.1-.8.5-1.4.8-1.8 1-.3.1-.5.3-.8.4l1.6.9L78 48c2.7-1.6 5.5-2.1 8.2-1.5.3.1.6.1.7.2 6 1.2 10.8 1.7 14.2 1.5 3.3-.2 6.4-1.1 9-2.6 3.4-2 5-4.5 4.8-7.3-.2-2.8-2.4-5.4-6.3-7.6"/><path class="st8" d="M63.5 55.8l-.5-2c-.1-.5-.1-1 0-1.3.1-.3.4-.6.8-.8.4-.2.8-.4 1.3-.4.5-.1 1.2-.1 2.1 0l3.7.3.5 2c.1.5.1 1 0 1.3-.1.3-.4.6-.8.8-.4.2-.8.4-1.3.4-.5.1-1.2.1-2 0l-3.8-.3m8.3-4.9l-4.4-.3c-1.1-.1-1.9-.1-2.5 0-.6.1-1.2.3-1.7.6s-.8.7-1 1.1c-.2.4-.2.9 0 1.6l.6 2.5 4.5.3c1 .1 1.8.1 2.4 0 .6-.1 1.2-.3 1.7-.6s.9-.7 1.1-1.1c.2-.4.2-.9 0-1.5l-.7-2.6m25.8-19.4c-.5-.3-.7-.6-.7-1s.3-.8.9-1.1c1.2-.7 2.8-.9 4.8-.7 2 .2 4.1.9 6.1 2.1 3.9 2.3 6 4.8 6.3 7.7.3 2.8-1.3 5.3-4.8 7.3-2.7 1.5-5.7 2.4-9 2.6-3.4.1-8.2-.4-14.2-1.6-.2 0-.4-.1-.7-.2-2.7-.6-5.5-.1-8.2 1.5l-1.1.6-1.6-.9c.2-.1.5-.3.8-.4.4-.2 1-.6 1.8-1 1.2-.7 2.3-1.4 3.5-2.1 1.1-.7 2.2-1.4 3.2-2.1 4.8 1.7 9.2 2.6 13.3 2.7 4.3.1 7.7-.5 10.3-2.1 2.1-1.2 3.1-2.6 3-4.3-.1-1.6-1.2-3.1-3.4-4.3-1.5-.9-3.6-1.5-6.2-1.9-3.4-.5-4-.8-4.1-.8m11.7-1.2c-2.1-1.2-4.3-2-6.6-2.2-2.3-.3-4.2 0-5.7.9-.8.4-1.2.9-1.2 1.5s.3 1.1 1 1.5c.3.2 1.1.4 4.6 1 2.4.4 4.4 1 5.7 1.8 2 1.1 3 2.5 3.1 3.9.1 1.5-.8 2.7-2.7 3.8-2.4 1.4-5.6 2-9.6 1.9-4-.1-8.5-1.1-13.2-2.7l-.4-.1-.3.2c-1.1.8-2.3 1.6-3.5 2.3-1.2.7-2.3 1.4-3.5 2.1-.8.5-1.4.8-1.8 1-.4.2-.8.4-1.1.6H74l3 1.8 1.8-1c2.5-1.4 4.8-1.9 7.2-1.4.3.1.6.1.8.2 6.2 1.2 11.1 1.8 14.6 1.5 3.6-.2 6.8-1.2 9.6-2.8 3.7-2.1 5.4-4.7 5-7.7-.4-3.1-2.6-5.8-6.7-8.1"/></g></g></g></svg>