<svg id="Layer_1" xmlns="http://www.w3.org/2000/svg" viewBox="0 0 170 385"><style>.st1{stroke-width:.75}.st1,.st3{fill:none;stroke:#fff;stroke-miterlimit:10}.st4{fill:#fff}</style><linearGradient id="SVGID_1_" gradientUnits="userSpaceOnUse" x1=".242" y1="202.08" x2="169.781" y2="202.08"><stop offset="0" stop-color="#3f51b5"/><stop offset=".593" stop-color="#177d99"/><stop offset="1" stop-color="#009688"/></linearGradient><path d="M57 280l-18.6-.2c.2-2.6.3-5.5.4-8.8.1-3.3.1-8.1.1-14.4 0-9.5-.2-19.1-.6-29-.4-9.9-1-19.9-1.8-30.2 31.5-7.5 56-19.1 73.6-34.7s26.4-33.7 26.4-54.1c0-16-5.5-29.2-16.6-39.8C108.8 58.2 94.8 53 78 53c-11.7 0-24 3.7-36.9 11.2-12.9 7.5-20.8 11.3-23.7 11.3-4.9 0-9-1.8-12.2-5.3-3.3-3.5-4.9-8-4.9-13.3C.3 46.1 5.5 37.3 16 30.4 26.4 23.5 40 20 56.6 20c32.3 0 59.2 9.7 80.9 29 21.6 19.3 32.4 43.4 32.4 72.3 0 22.3-6.3 41.2-18.8 56.6-12.6 15.4-35.5 31.2-68.7 47.3-1 .5-2.4 1.1-4.2 2-14 6.5-21 20.3-21 41.3V280zm-8.6 36.9l17.1 13.2c4.6 3.4 7.9 6.8 9.9 10 2 3.3 3.1 6.8 3.1 10.5 0 3.8-.8 7-2.4 9.8-1.6 2.8-4.6 5.8-9.1 9.1l-18.6 14.7-17.6-13.5c-4.6-3.6-7.9-7-9.9-10.3-2-3.3-3.1-6.7-3.1-10.3 0-3.7.8-7 2.4-9.8 1.6-2.8 4.8-5.9 9.5-9.3l18.7-14.1z" fill="url(#SVGID_1_)"/><path class="st1" d="M61 341c-.2-.2-.3-.5-.5-.7h-7.9"/><linearGradient id="SVGID_2_" gradientUnits="userSpaceOnUse" x1="35.585" y1="360.889" x2="44.388" y2="360.889"><stop offset="0" stop-color="#009688"/><stop offset=".994" stop-color="#3f51b5"/></linearGradient><path d="M44.4 360.9c-2.9 0-5.9-.1-8.8-.1 2.9.1 5.9.1 8.8.1z" fill="url(#SVGID_2_)"/><path class="st1" d="M44.4 360.9c-2.9 0-5.9-.1-8.8-.1 2.9.1 5.9.1 8.8.1zM35.4 360.8c.2-.2.3-.5.5-.7h8.2"/><path class="st3" d="M40.8 350.1h14.9"/><path class="st1" d="M50 335.8c0-.1 0-.1 0 0h-5.5-.1l-2.7 4.7v.1l2.7 4.7H50l2.7-4.7v-.1l-2.7-4.7zM52.4 341H61h-8.6zM46.6 355.3s.1 0 0 0h5.6l2.7 4.7v.1l-2.7 4.7h-5.5-.1l-2.7-4.7v-.1l2.7-4.7z"/><g><path class="st4" d="M39.2 345.4h-5.5-.1l-2.7 4.7v.1l2.7 4.7h5.6l2.7-4.7v-.1l-2.7-4.7z"/><path class="st3" d="M39.2 345.4h-5.5-.1l-2.7 4.7v.1l2.7 4.7h5.6l2.7-4.7v-.1l-2.7-4.7z"/></g><g><path class="st4" d="M62.9 345.4h-5.5-.1l-2.7 4.7v.1l2.7 4.7h5.6l2.7-4.7v-.1l-2.7-4.7z"/><path class="st3" d="M62.9 345.4h-5.5-.1l-2.7 4.7v.1l2.7 4.7h5.6l2.7-4.7v-.1l-2.7-4.7z"/></g><path d="M30.4 321.8c.6 0 1-.5 1-1 0-.6-.5-1-1-1s-1 .5-1 1c0 .6.5 1 1 1z" fill="none" stroke="#fff" stroke-width=".5" stroke-miterlimit="10"/></svg>