<svg xmlns="http://www.w3.org/2000/svg" viewBox="0 0 60 60"><linearGradient id="a" gradientUnits="userSpaceOnUse" x1=".927" y1="30" x2="58.927" y2="30"><stop offset="0" stop-color="#009688"/><stop offset=".994" stop-color="#3f51b5"/></linearGradient><circle cx="29.9" cy="30" r="29" fill="url(#a)"/><path d="M35.9 36.4c0-1-.2-1.9-.5-2.6-.3-.7-.9-1.3-1.8-1.9-.8-.6-2.1-1.2-3.7-1.8-1.6-.6-2.8-1.2-3.6-1.8-.8-.6-1.3-1.3-1.7-2.1-.4-.8-.6-1.8-.6-2.9 0-1.9.5-3.3 1.6-4.5 1.1-1.1 2.5-1.7 4.2-1.8v-3.2h.8V17c1.9.1 3.3.8 4.3 2.1s1.5 3 1.5 5.2h-.8c0-1.9-.5-3.5-1.5-4.7-1-1.2-2.3-1.8-4-1.8-1.6 0-2.9.5-3.9 1.5s-1.5 2.3-1.5 3.8c0 1.1.2 2 .5 2.6.3.6.9 1.2 1.6 1.8.8.5 1.8 1.1 3.2 1.6s2.4 1 3.2 1.4c.7.4 1.3.9 1.8 1.4.5.5.8 1.2 1.1 1.8s.4 1.5.4 2.4c0 1.8-.5 3.3-1.6 4.4-1 1.1-2.4 1.7-4.2 1.8v3.2h-.8v-3.2c-2.1-.1-3.8-.8-5-2.1-1.2-1.3-1.8-3-1.8-5.3h.8c0 2 .6 3.6 1.7 4.7s2.6 1.7 4.6 1.7c1.6 0 2.9-.5 3.9-1.5 1.2-.6 1.8-1.9 1.8-3.4z" fill="#fff" stroke="#fff" stroke-miterlimit="10"/></svg>