<svg xmlns="http://www.w3.org/2000/svg" viewBox="0 0 60 60"><linearGradient id="a" gradientUnits="userSpaceOnUse" x1="148.004" y1="30.044" x2="183.943" y2="30.044" gradientTransform="matrix(1.3421 .00012 .00012 1 -191.682 -.069)"><stop offset="0" stop-color="#009688"/><stop offset=".994" stop-color="#3f51b5"/></linearGradient><path d="M32.1.7c-.6-.9-1.5-.9-2 0L7.8 38c-.6.9-.9 2.5-.9 3.6 0 0 .5 7.1 7.9 12.8 6.5 5.1 13.9 5.5 13.9 5.5 1.2.1 3.2.1 4.5 0 0 0 9.7-.5 16.6-7.8 4.8-5 5.2-10.6 5.2-10.6.1-1-.3-2.6-.8-3.6L32.1.7z" fill="url(#a)"/><path d="M37.8 43c0-1.1-.2-2-.6-2.7-.4-.7-1-1.4-1.9-2-.9-.6-2.2-1.2-3.9-1.9-1.7-.7-3-1.3-3.8-1.9-.8-.6-1.4-1.4-1.8-2.2-.4-.8-.6-1.9-.6-3.1 0-2 .6-3.5 1.7-4.7 1.1-1.2 2.6-1.8 4.5-1.9v-3.4h.9v3.4c2 .1 3.5.9 4.5 2.2 1.1 1.4 1.6 3.2 1.6 5.5h-.9c0-2-.5-3.7-1.5-4.9-1-1.2-2.4-1.9-4.2-1.9-1.7 0-3.1.5-4.2 1.6-1 1-1.6 2.4-1.6 4.1 0 1.2.2 2.1.5 2.8.3.7.9 1.3 1.7 1.9.8.6 1.9 1.1 3.4 1.7s2.6 1.1 3.4 1.5c.8.4 1.4.9 1.9 1.5s.9 1.2 1.1 1.9.4 1.5.4 2.5c0 1.9-.6 3.5-1.7 4.6-1.1 1.2-2.6 1.8-4.4 2V53h-.9v-3.4c-2.3-.1-4-.8-5.3-2.2-1.2-1.4-1.9-3.2-1.9-5.6h.9c0 2.1.6 3.8 1.8 5 1.2 1.2 2.8 1.8 4.8 1.8 1.7 0 3.1-.5 4.1-1.6 1.5-1 2-2.4 2-4z" fill="#fff" stroke="#fff" stroke-miterlimit="10"/></svg>