<svg xmlns="http://www.w3.org/2000/svg" viewBox="0 0 60 60"><linearGradient id="a" gradientUnits="userSpaceOnUse" x1="6.761" y1="9.62" x2="24.367" y2="9.62"><stop offset="0" stop-color="#009688"/><stop offset=".994" stop-color="#3f51b5"/></linearGradient><ellipse cx="15.6" cy="9.6" rx="8.8" ry="8.6" fill="url(#a)"/><linearGradient id="b" gradientUnits="userSpaceOnUse" x1="14.83" y1="28.693" x2="17.03" y2="28.693"><stop offset="0" stop-color="#009688"/><stop offset=".994" stop-color="#3f51b5"/></linearGradient><path fill="url(#b)" d="M17 21.2l-.7 15h-.7l-.8-15z"/><linearGradient id="c" gradientUnits="userSpaceOnUse" x1="14.83" y1="28.693" x2="17.03" y2="28.693"><stop offset="0" stop-color="#009688"/><stop offset=".994" stop-color="#3f51b5"/></linearGradient><path fill="url(#c)" d="M17 21.2l-.7 15h-.7l-.8-15z"/><linearGradient id="d" gradientUnits="userSpaceOnUse" x1="20.594" y1="28.665" x2="31.655" y2="28.665"><stop offset="0" stop-color="#009688"/><stop offset=".994" stop-color="#3f51b5"/></linearGradient><path d="M20.7 37.5c-.3.5 0 .9.6.9h9.4c.6 0 1-.5 1-1.1 0 0-.6-13.4-.6-13.9v-1.2-.2c0-.2-.4-.6-1-.8L24.2 19c-.5-.2-.9.1-.8.7 0 0 1 4.5.4 8.6-.6 4.6-3.1 9.2-3.1 9.2z" fill="url(#d)"/><linearGradient id="e" gradientUnits="userSpaceOnUse" x1=".65" y1="28.298" x2="11.711" y2="28.298"><stop offset="0" stop-color="#009688"/><stop offset=".994" stop-color="#3f51b5"/></linearGradient><path d="M11.6 37.1c.3.5 0 .9-.6.9H1.7c-.6 0-1-.5-1-1.1 0 0 .6-13.4.6-13.9v-1.2-.2c0-.2.4-.6 1-.8l5.9-2.2c.5-.2.9.1.8.7 0 0-1 4.5-.4 8.6.5 4.6 3 9.2 3 9.2z" fill="url(#e)"/><linearGradient id="f" gradientUnits="userSpaceOnUse" x1="34.105" y1="30.983" x2="51.711" y2="30.983"><stop offset="0" stop-color="#009688"/><stop offset=".994" stop-color="#3f51b5"/></linearGradient><path d="M42.9 22.4c-4.9 0-8.8 3.9-8.8 8.6s3.9 8.6 8.8 8.6 8.8-3.9 8.8-8.6-3.9-8.6-8.8-8.6z" fill="url(#f)"/><linearGradient id="g" gradientUnits="userSpaceOnUse" x1="42.175" y1="50.055" x2="44.375" y2="50.055"><stop offset="0" stop-color="#009688"/><stop offset=".994" stop-color="#3f51b5"/></linearGradient><path fill="url(#g)" d="M44.4 42.5l-.8 15.1h-.7l-.7-15.1z"/><linearGradient id="h" gradientUnits="userSpaceOnUse" x1="42.175" y1="50.055" x2="44.375" y2="50.055"><stop offset="0" stop-color="#009688"/><stop offset=".994" stop-color="#3f51b5"/></linearGradient><path fill="url(#h)" d="M44.4 42.5l-.8 15.1h-.7l-.7-15.1z"/><linearGradient id="i" gradientUnits="userSpaceOnUse" x1="47.938" y1="50.028" x2="59" y2="50.028"><stop offset="0" stop-color="#009688"/><stop offset=".994" stop-color="#3f51b5"/></linearGradient><path d="M48.1 58.8c-.3.5 0 .9.6.9H58c.6 0 1-.5 1-1.1 0 0-.6-13.4-.6-13.9v-1.2-.2c0-.2-.4-.6-1-.8l-5.9-2.2c-.5-.2-.9.1-.8.7 0 0 1 4.5.4 8.6-.5 4.6-3 9.2-3 9.2z" fill="url(#i)"/><linearGradient id="j" gradientUnits="userSpaceOnUse" x1="27.994" y1="49.661" x2="39.055" y2="49.661"><stop offset="0" stop-color="#009688"/><stop offset=".994" stop-color="#3f51b5"/></linearGradient><path d="M38.9 58.5c.3.5 0 .9-.6.9H29c-.6 0-1-.5-1-1.1 0 0 .6-13.4.6-13.9v-1.2-.2c0-.2.4-.6 1-.8l5.9-2.2c.5-.2.9.1.8.7 0 0-1 4.5-.4 8.6.5 4.6 3 9.2 3 9.2z" fill="url(#j)"/></svg>