<svg xmlns="http://www.w3.org/2000/svg" viewBox="0 0 60 60"><linearGradient id="a" gradientUnits="userSpaceOnUse" x1="24.355" y1="7.127" x2="36.87" y2="7.127"><stop offset="0" stop-color="#009688"/><stop offset=".994" stop-color="#3f51b5"/></linearGradient><path d="M30.6 1c-3.5 0-6.3 2.7-6.3 6.1 0 3.4 2.8 6.1 6.3 6.1s6.3-2.7 6.3-6.1c0-3.4-2.8-6.1-6.3-6.1z" fill="url(#a)"/><linearGradient id="b" gradientUnits="userSpaceOnUse" x1="30.092" y1="20.684" x2="31.655" y2="20.684"><stop offset="0" stop-color="#009688"/><stop offset=".994" stop-color="#3f51b5"/></linearGradient><path fill="url(#b)" d="M31.7 15.3L31.1 26h-.5l-.5-10.7z"/><linearGradient id="c" gradientUnits="userSpaceOnUse" x1="30.092" y1="20.684" x2="31.655" y2="20.684"><stop offset="0" stop-color="#009688"/><stop offset=".994" stop-color="#3f51b5"/></linearGradient><path fill="url(#c)" d="M31.7 15.3L31.1 26h-.5l-.5-10.7z"/><linearGradient id="d" gradientUnits="userSpaceOnUse" x1="34.069" y1="20.617" x2="42.066" y2="20.617"><stop offset="0" stop-color="#009688"/><stop offset=".994" stop-color="#3f51b5"/></linearGradient><path d="M34.1 27.2c-.1.2 0 .4.2.4h7.3c.2 0 .4-.2.4-.4 0 0-.4-9.9-.4-10.2v-.9-.1c0-.2-.2-.4-.4-.4l-4.8-1.8c-.2-.1-.4 0-.3.3 0 0 .7 3.5.4 6.4-.4 3.2-2.4 6.7-2.4 6.7z" fill="url(#d)"/><linearGradient id="e" gradientUnits="userSpaceOnUse" x1="19.998" y1="20.357" x2="27.995" y2="20.357"><stop offset="0" stop-color="#009688"/><stop offset=".994" stop-color="#3f51b5"/></linearGradient><path d="M27.9 27c.1.2 0 .4-.2.4h-7.3c-.2 0-.4-.2-.4-.4 0 0 .4-9.9.4-10.2v-.9-.1c0-.2.2-.4.4-.4l4.8-1.8c.2-.1.4 0 .3.3 0 0-.7 3.5-.4 6.4.5 3.1 2.4 6.7 2.4 6.7z" fill="url(#e)"/><g><linearGradient id="f" gradientUnits="userSpaceOnUse" x1="39.738" y1="44.797" x2="48.827" y2="44.797"><stop offset="0" stop-color="#009688"/><stop offset=".994" stop-color="#3f51b5"/></linearGradient><path d="M44.3 40.3c-2.5 0-4.5 2-4.5 4.5s2 4.5 4.5 4.5 4.5-2 4.5-4.5-2-4.5-4.5-4.5z" fill="url(#f)"/><linearGradient id="g" gradientUnits="userSpaceOnUse" x1="43.904" y1="54.644" x2="45.04" y2="54.644"><stop offset="0" stop-color="#009688"/><stop offset=".994" stop-color="#3f51b5"/></linearGradient><path fill="url(#g)" d="M45 50.8l-.3 7.7h-.4l-.4-7.7z"/><linearGradient id="h" gradientUnits="userSpaceOnUse" x1="43.904" y1="54.644" x2="45.04" y2="54.644"><stop offset="0" stop-color="#009688"/><stop offset=".994" stop-color="#3f51b5"/></linearGradient><path fill="url(#h)" d="M45 50.8l-.3 7.7h-.4l-.4-7.7z"/><linearGradient id="i" gradientUnits="userSpaceOnUse" x1="46.792" y1="54.595" x2="52.601" y2="54.595"><stop offset="0" stop-color="#009688"/><stop offset=".994" stop-color="#3f51b5"/></linearGradient><path d="M46.8 59.4c-.1.2 0 .3.2.3h5.3c.2 0 .3-.1.3-.3 0 0-.3-7.2-.3-7.4v-.6-.1c0-.1-.1-.3-.3-.3l-3.5-1.3c-.2-.1-.3 0-.2.2 0 0 .5 2.5.3 4.7-.4 2.2-1.8 4.8-1.8 4.8z" fill="url(#i)"/><linearGradient id="j" gradientUnits="userSpaceOnUse" x1="36.572" y1="54.406" x2="42.381" y2="54.406"><stop offset="0" stop-color="#009688"/><stop offset=".994" stop-color="#3f51b5"/></linearGradient><path d="M42.3 59.2c.1.2 0 .3-.2.3h-5.3c-.2 0-.3-.1-.3-.3 0 0 .3-7.2.3-7.4v-.6-.1c0-.1.1-.3.3-.3l3.5-1.3c.2-.1.3 0 .2.2 0 0-.5 2.5-.3 4.7.4 2.2 1.8 4.8 1.8 4.8z" fill="url(#j)"/></g><linearGradient id="k" gradientUnits="userSpaceOnUse" x1="31.108" y1="30.607" x2="31.108" y2="30.607"><stop offset="0" stop-color="#009688"/><stop offset=".994" stop-color="#3f51b5"/></linearGradient><linearGradient id="l" gradientUnits="userSpaceOnUse" x1="31.108" y1="30.607" x2="31.108" y2="30.607"><stop offset="0" stop-color="#009688"/><stop offset=".994" stop-color="#3f51b5"/></linearGradient><linearGradient id="m" gradientUnits="userSpaceOnUse" x1="25.134" y1="35.09" x2="37.991" y2="35.09"><stop offset=".006" stop-color="#3f51b5"/><stop offset="1" stop-color="#009688"/></linearGradient><path fill="none" stroke="url(#m)" stroke-width=".5" stroke-miterlimit="10" d="M25.4 40.2l5.7-9.9 6.7 9.9"/><g><path d="M25.5 41.5c1.9 0 1.9-3 0-3s-2 3 0 3z" fill="#3f51b5"/></g><g><path d="M37.5 41.5c1.9 0 1.9-3 0-3s-1.9 3 0 3z" fill="#009688"/></g><g><linearGradient id="n" gradientUnits="userSpaceOnUse" x1="29.666" y1="30.382" x2="32.541" y2="30.382"><stop offset=".006" stop-color="#3f51b5"/><stop offset="1" stop-color="#009688"/></linearGradient><path d="M31.1 31.9c1.9 0 1.9-3 0-3s-1.9 3 0 3z" fill="url(#n)"/></g><g><linearGradient id="o" gradientUnits="userSpaceOnUse" x1="11.919" y1="44.797" x2="21.009" y2="44.797"><stop offset="0" stop-color="#009688"/><stop offset=".994" stop-color="#3f51b5"/></linearGradient><path d="M16.5 40.3c-2.5 0-4.5 2-4.5 4.5s2 4.5 4.5 4.5 4.5-2 4.5-4.5-2-4.5-4.5-4.5z" fill="url(#o)"/><linearGradient id="p" gradientUnits="userSpaceOnUse" x1="16.085" y1="54.644" x2="17.221" y2="54.644"><stop offset="0" stop-color="#009688"/><stop offset=".994" stop-color="#3f51b5"/></linearGradient><path fill="url(#p)" d="M17.2 50.8l-.4 7.7h-.3l-.4-7.7z"/><linearGradient id="q" gradientUnits="userSpaceOnUse" x1="16.085" y1="54.644" x2="17.221" y2="54.644"><stop offset="0" stop-color="#009688"/><stop offset=".994" stop-color="#3f51b5"/></linearGradient><path fill="url(#q)" d="M17.2 50.8l-.4 7.7h-.3l-.4-7.7z"/><linearGradient id="r" gradientUnits="userSpaceOnUse" x1="18.974" y1="54.595" x2="24.782" y2="54.595"><stop offset="0" stop-color="#009688"/><stop offset=".994" stop-color="#3f51b5"/></linearGradient><path d="M19 59.4c-.1.2 0 .3.2.3h5.3c.2 0 .3-.1.3-.3 0 0-.3-7.2-.3-7.4v-.6-.1c0-.1-.1-.3-.3-.3l-3.5-1.3c-.2-.1-.3 0-.2.2 0 0 .5 2.5.3 4.7-.4 2.2-1.8 4.8-1.8 4.8z" fill="url(#r)"/><linearGradient id="s" gradientUnits="userSpaceOnUse" x1="8.754" y1="54.406" x2="14.562" y2="54.406"><stop offset="0" stop-color="#009688"/><stop offset=".994" stop-color="#3f51b5"/></linearGradient><path d="M14.5 59.2c.1.2 0 .3-.2.3H9.1c-.2 0-.3-.1-.3-.3 0 0 .3-7.2.3-7.4v-.6-.1c0-.1.1-.3.3-.3l3.5-1.3c.2-.1.3 0 .2.2 0 0-.5 2.5-.3 4.7.3 2.2 1.7 4.8 1.7 4.8z" fill="url(#s)"/></g></svg>