<svg xmlns="http://www.w3.org/2000/svg" viewBox="0 0 60 60"><linearGradient id="a" gradientUnits="userSpaceOnUse" x1="37.519" y1="17.989" x2="52.087" y2="17.989"><stop offset="0" stop-color="#009688"/><stop offset=".994" stop-color="#3f51b5"/></linearGradient><path d="M51.8 18.7c-.3-.4-.5-.8-.8-1.2H37.5" fill="none" stroke="url(#a)" stroke-width=".75" stroke-miterlimit="10"/><linearGradient id="b" gradientUnits="userSpaceOnUse" x1="8.345" y1="52.736" x2="23.381" y2="52.736"><stop offset="0" stop-color="#009688"/><stop offset=".994" stop-color="#3f51b5"/></linearGradient><path d="M23.4 52.8c-5-.1-10-.1-15-.2 5 .1 10 .2 15 .2z" fill="url(#b)"/><linearGradient id="c" gradientUnits="userSpaceOnUse" x1="8.341" y1="52.736" x2="23.386" y2="52.736"><stop offset="0" stop-color="#009688"/><stop offset=".994" stop-color="#3f51b5"/></linearGradient><path d="M23.4 52.8c-5-.1-10-.1-15-.2 5 .1 10 .2 15 .2z" fill="none" stroke="url(#c)" stroke-width=".75" stroke-miterlimit="10"/><linearGradient id="d" gradientUnits="userSpaceOnUse" x1="7.725" y1="51.941" x2="22.816" y2="51.941"><stop offset="0" stop-color="#009688"/><stop offset=".994" stop-color="#3f51b5"/></linearGradient><path d="M8 52.6c.3-.4.5-.8.8-1.2h14" fill="none" stroke="url(#d)" stroke-width=".75" stroke-miterlimit="10"/><linearGradient id="e" gradientUnits="userSpaceOnUse" x1="17.33" y1="34.372" x2="42.658" y2="34.372"><stop offset=".006" stop-color="#3f51b5"/><stop offset="1" stop-color="#009688"/></linearGradient><path fill="none" stroke="url(#e)" stroke-miterlimit="10" d="M17.3 34.4h25.4"/><g><linearGradient id="f" gradientUnits="userSpaceOnUse" x1="18.551" y1="17.941" x2="37.964" y2="17.941"><stop offset=".006" stop-color="#3f51b5"/><stop offset="1" stop-color="#009688"/></linearGradient><path d="M33 9.8l-.1-.1h-9.3c-.1 0-.1 0-.1.1l-4.5 8v.2l4.5 8 .1.1h9.3c.1 0 .1 0 .1-.1l4.5-8v-.2l-4.5-8z" fill="none" stroke="url(#f)" stroke-width=".75" stroke-miterlimit="10"/></g><g><linearGradient id="g" gradientUnits="userSpaceOnUse" x1="37.119" y1="18.694" x2="51.757" y2="18.694"><stop offset="0" stop-color="#009688"/><stop offset=".994" stop-color="#3f51b5"/></linearGradient><path d="M37.1 18.7h14.6-14.6z" fill="none" stroke="url(#g)" stroke-width=".75" stroke-miterlimit="10"/></g><g><linearGradient id="h" gradientUnits="userSpaceOnUse" x1="22.225" y1="51.318" x2="41.653" y2="51.318"><stop offset=".006" stop-color="#3f51b5"/><stop offset="1" stop-color="#009688"/></linearGradient><path d="M27.2 43.2l.1-.1h9.3c.1 0 .1 0 .1.1l4.5 8v.2l-4.5 8-.1.1h-9.3c-.1 0-.1 0-.1-.1l-4.5-8v-.2l4.5-8z" fill="none" stroke="url(#h)" stroke-width=".75" stroke-miterlimit="10"/></g><g><linearGradient id="i" gradientUnits="userSpaceOnUse" x1=".481" y1="34.397" x2="19.154" y2="34.397"><stop offset="0" stop-color="#009688"/><stop offset=".994" stop-color="#3f51b5"/></linearGradient><path d="M14.6 26.3l-.1-.1H5.2c-.1 0-.1 0-.1.1l-4.5 8v.2l4.5 8 .1.1h9.3c.1 0 .1 0 .1-.1l4.5-8v-.2l-4.5-8z" fill="url(#i)"/><linearGradient id="j" gradientUnits="userSpaceOnUse" x1="-.019" y1="34.397" x2="19.654" y2="34.397"><stop offset="0" stop-color="#009688"/><stop offset=".994" stop-color="#3f51b5"/></linearGradient><path d="M14.6 26.3l-.1-.1H5.2c-.1 0-.1 0-.1.1l-4.5 8v.2l4.5 8 .1.1h9.3c.1 0 .1 0 .1-.1l4.5-8v-.2l-4.5-8z" fill="none" stroke="url(#j)" stroke-miterlimit="10"/></g><g><linearGradient id="k" gradientUnits="userSpaceOnUse" x1="40.912" y1="34.396" x2="59.585" y2="34.396"><stop offset="0" stop-color="#009688"/><stop offset=".994" stop-color="#3f51b5"/></linearGradient><path d="M55 26.3l-.1-.1h-9.3c-.1 0-.1 0-.1.1l-4.5 8v.2l4.5 8 .1.1h9.3c.1 0 .1 0 .1-.1l4.5-8v-.2l-4.5-8z" fill="url(#k)"/><linearGradient id="l" gradientUnits="userSpaceOnUse" x1="40.412" y1="34.396" x2="60.085" y2="34.396"><stop offset="0" stop-color="#009688"/><stop offset=".994" stop-color="#3f51b5"/></linearGradient><path d="M55 26.3l-.1-.1h-9.3c-.1 0-.1 0-.1.1l-4.5 8v.2l4.5 8 .1.1h9.3c.1 0 .1 0 .1-.1l4.5-8v-.2l-4.5-8z" fill="none" stroke="url(#l)" stroke-miterlimit="10"/></g></svg>