<svg id="Layer_1" xmlns="http://www.w3.org/2000/svg" viewBox="0 0 60.1 50.5"><style>.st0{stroke-width:.75}.st0,.st2{fill:none;stroke:#fff;stroke-miterlimit:10}.st3{fill:#fff}</style><path class="st0" d="M51.8 9.3c-.3-.4-.5-.8-.8-1.2H37.5"/><linearGradient id="SVGID_1_" gradientUnits="userSpaceOnUse" x1="8.365" y1="43.359" x2="23.401" y2="43.359"><stop offset="0" stop-color="#009688"/><stop offset=".994" stop-color="#3f51b5"/></linearGradient><path d="M23.4 43.5c-5-.1-10-.1-15-.2 5 0 10 .1 15 .2z" fill="url(#SVGID_1_)"/><path class="st0" d="M23.4 43.5c-5-.1-10-.1-15-.2 5 0 10 .1 15 .2zM8.1 43.3c.3-.4.5-.8.8-1.2h14"/><path class="st2" d="M17.3 25h25.4"/><path class="st0" d="M33.1.5L33 .4h-9.3c-.1 0-.1 0-.1.1l-4.5 8v.2l4.5 8 .1.1H33c.1 0 .1 0 .1-.1l4.5-8v-.2l-4.5-8zM37.1 9.3h14.6-14.6zM27.2 33.8l.1-.1h9.3c.1 0 .1 0 .1.1l4.5 8v.2l-4.5 8-.1.1h-9.3c-.1 0-.1 0-.1-.1l-4.5-8v-.2l4.5-8z"/><g><path class="st3" d="M14.6 16.9l-.1-.1H5.2c-.1 0-.1 0-.1.1l-4.5 8v.2l4.5 8 .1.1h9.3c.1 0 .1 0 .1-.1l4.5-8v-.2l-4.5-8z"/><path class="st2" d="M14.6 16.9l-.1-.1H5.2c-.1 0-.1 0-.1.1l-4.5 8v.2l4.5 8 .1.1h9.3c.1 0 .1 0 .1-.1l4.5-8v-.2l-4.5-8z"/></g><g><path class="st3" d="M55 16.9l-.1-.1h-9.3c-.1 0-.1 0-.1.1l-4.5 8v.2l4.5 8 .1.1h9.3c.1 0 .1 0 .1-.1l4.5-8v-.2l-4.5-8z"/><path class="st2" d="M55 16.9l-.1-.1h-9.3c-.1 0-.1 0-.1.1l-4.5 8v.2l4.5 8 .1.1h9.3c.1 0 .1 0 .1-.1l4.5-8v-.2l-4.5-8z"/></g></svg>