<svg id="Layer_1" xmlns="http://www.w3.org/2000/svg" viewBox="0 0 60 60"><style>.st2,.st3,.st4{fill:none;stroke:#fff;stroke-width:.25;stroke-miterlimit:10}.st3,.st4{fill:#fff}.st4{fill:none;stroke-width:.5}</style><linearGradient id="SVGID_1_" gradientUnits="userSpaceOnUse" x1=".88" y1="30.276" x2="59.431" y2="30.276"><stop offset="0" stop-color="#009688"/><stop offset=".994" stop-color="#3f51b5"/></linearGradient><circle cx="30.2" cy="30.3" r="29.3" fill="url(#SVGID_1_)"/><circle cx="30.5" cy="30.5" r="24.4" fill="none" stroke="#fff" stroke-width=".25" stroke-miterlimit="10" stroke-dasharray="1,3"/><path class="st2" d="M28.7 28.4H38c.1 3.1.1 6.2.2 9.3h3.4M43.2 37.7c0-.5-.4-.8-.8-.8-.5 0-.8.4-.8.8 0 .5.4.8.8.8s.8-.4.8-.8z"/><path class="st3" d="M28 29c.6 0 .6-1 0-1s-.6 1 0 1z"/><path class="st2" d="M34.3 31.8h-6.5c-.1 2.2-.1 4.3-.1 6.5h-2.4M24.1 38.2c0-.3.3-.6.6-.6s.6.3.6.6-.3.6-.6.6-.6-.2-.6-.6z"/><path class="st3" d="M34.7 32.3c.6 0 .6-1 0-1s-.6 1 0 1z"/><path class="st2" d="M25.2 41.5v4.9c-1.6 0-3.2.1-4.9.1v1.8"/><path class="st4" d="M20.3 49.1c.2 0 .4-.2.4-.4s-.2-.4-.4-.4-.4.2-.4.4.2.4.4.4z"/><path class="st3" d="M25.1 41.6c.6 0 .6-1 0-1s-.6 1 0 1z"/><path class="st2" d="M16.6 31.6h-4.3c0 1.4-.1 2.9-.1 4.3h-1.6M9.8 35.9c0-.2.2-.4.4-.4s.4.2.4.4-.2.4-.4.4-.4-.2-.4-.4z"/><path class="st3" d="M16.9 32.1c.6 0 .6-1 0-1-.6.1-.6 1 0 1z"/><path class="st2" d="M20.7 26.6h6c0-2 .1-4 .1-6H29M30.2 20.6c0 .3-.2.5-.5.5s-.5-.2-.5-.5.2-.5.5-.5c.2 0 .5.2.5.5z"/><path class="st3" d="M20.5 27c.6-.2.3-1.1-.3-.9-.6.2-.3 1.1.3.9z"/><path class="st2" d="M19.9 21.8h-4c0-1.3-.1-2.7-.1-4h-1.4"/><path class="st2" d="M13.7 17.8c0 .2.2.4.4.4s.4-.2.4-.4-.2-.4-.4-.4-.4.2-.4.4z"/><path class="st3" d="M20.2 22.2c.6 0 .6-1 0-1-.7.1-.7 1 0 1z"/><path class="st2" d="M33.1 17.5v-4.3c-1.4 0-2.9-.1-4.3-.1v-1.6M28.7 10.7c.2 0 .4.2.4.4s-.2.4-.4.4-.4-.2-.4-.4c.1-.2.2-.4.4-.4z"/><path class="st3" d="M33 18.3c.6 0 .6-1 0-1s-.6 1 0 1z"/><path class="st2" d="M44 30.2h4c0 1.3.1 2.7.1 4h1.4"/><circle class="st2" cx="49.9" cy="34.2" r=".4"/><path class="st3" d="M43.7 30.7c.6 0 .6-1 0-1s-.6 1 0 1z"/><path class="st2" d="M34.4 43.3v4c1.3 0 2.7.1 4 .1v1.4"/><path class="st4" d="M38.4 49.5c-.2 0-.4-.2-.4-.4s.2-.4.4-.4.4.2.4.4-.2.4-.4.4z"/><path class="st3" d="M34.5 43.5c.6 0 .6-1 0-1-.7 0-.7 1 0 1z"/><path class="st2" d="M41.4 21.5v-4c1.3 0 2.7-.1 4-.1v-1.5"/><path class="st2" d="M45.3 15.2c-.2 0-.4.2-.4.4s.2.4.4.4.4-.2.4-.4-.2-.4-.4-.4z"/><path class="st3" d="M41.4 22.2c.6 0 .6-1 0-1s-.6 1 0 1z"/></svg>