<svg id="Layer_1" xmlns="http://www.w3.org/2000/svg" viewBox="0 0 60 60"><style>.st7{fill:none;stroke:#fff;stroke-width:.25;stroke-miterlimit:10}</style><linearGradient id="SVGID_1_" gradientUnits="userSpaceOnUse" x1="-291.076" y1="-383.826" x2="-260.731" y2="-383.826" gradientTransform="rotate(-45.001 350.215 -534.71)"><stop offset="0" stop-color="#009688"/><stop offset=".994" stop-color="#3f51b5"/></linearGradient><linearGradient id="SVGID_2_" gradientUnits="userSpaceOnUse" x1="3.267" y1="14.707" x2="25.078" y2="14.707"><stop offset="0" stop-color="#009688"/><stop offset=".994" stop-color="#3f51b5"/></linearGradient><path fill="url(#SVGID_1_)" stroke="url(#SVGID_2_)" stroke-width=".5" stroke-miterlimit="10" d="M3.4 25.4L24.9 4"/><linearGradient id="SVGID_3_" gradientUnits="userSpaceOnUse" x1="-290.752" y1="-340.654" x2="-260.506" y2="-340.654" gradientTransform="rotate(-45.001 350.215 -534.71)"><stop offset="0" stop-color="#009688"/><stop offset=".994" stop-color="#3f51b5"/></linearGradient><path fill="none" stroke="url(#SVGID_3_)" stroke-width=".5" stroke-miterlimit="10" d="M55.2 34.4l-21 21 .3.3 21.1-21-.4-.3"/><linearGradient id="SVGID_4_" gradientUnits="userSpaceOnUse" x1="-291.024" y1="-361.777" x2="-260.291" y2="-361.777" gradientTransform="rotate(-45.001 350.215 -534.71)"><stop offset="0" stop-color="#009688"/><stop offset=".994" stop-color="#3f51b5"/></linearGradient><linearGradient id="SVGID_5_" gradientUnits="userSpaceOnUse" x1=".5" y1="30.124" x2="59.374" y2="30.124"><stop offset="0" stop-color="#009688"/><stop offset=".994" stop-color="#3f51b5"/></linearGradient><path d="M2.5 17.5L17.3 2.7c.9-.9 2-1.3 3.1-1.3s2.3.4 3.1 1.3l31.7 31.7.3.3 1.8 1.8c.9.9 1.3 2 1.3 3.1s-.4 2.3-1.3 3.1L42.5 57.6c-.9.9-2 1.3-3.1 1.3s-2.3-.4-3.1-1.3L2.5 23.8c-.9-.9-1.3-2-1.3-3.1 0-1.2.4-2.3 1.3-3.2M17 2.4L2.2 17.2c-1.9 1.9-1.9 5 0 6.9L36 57.9c1.9 1.9 5 1.9 6.9 0l14.8-14.8c1.9-1.9 1.9-5 0-6.9L23.9 2.4C22 .5 18.9.5 17 2.4" fill="url(#SVGID_4_)" stroke="url(#SVGID_5_)" stroke-width=".5" stroke-miterlimit="10"/><linearGradient id="SVGID_6_" gradientUnits="userSpaceOnUse" x1="-277.633" y1="-337.113" x2="-273.448" y2="-337.113" gradientTransform="rotate(-45.001 350.215 -534.71)"><stop offset="0" stop-color="#009688"/><stop offset=".994" stop-color="#3f51b5"/></linearGradient><ellipse transform="rotate(-45.001 47.46 47.483)" cx="47.5" cy="47.5" rx="1.7" ry="1.9" fill="none" stroke="url(#SVGID_6_)" stroke-width=".75" stroke-miterlimit="10"/><linearGradient id="SVGID_7_" gradientUnits="userSpaceOnUse" x1="-279.052" y1="-386.293" x2="-273.327" y2="-386.293" gradientTransform="rotate(-45.001 350.215 -534.71)"><stop offset="0" stop-color="#009688"/><stop offset=".994" stop-color="#3f51b5"/></linearGradient><linearGradient id="SVGID_8_" gradientUnits="userSpaceOnUse" x1="-279.052" y1="-386.293" x2="-273.327" y2="-386.293" gradientTransform="rotate(-45.001 350.215 -534.71)"><stop offset="0" stop-color="#009688"/><stop offset=".994" stop-color="#3f51b5"/></linearGradient><path fill="url(#SVGID_7_)" stroke="url(#SVGID_8_)" stroke-width=".5" stroke-miterlimit="10" d="M10.2 15.2l4-4.1"/><linearGradient id="SVGID_9_" gradientUnits="userSpaceOnUse" x1="-272.328" y1="-386.395" x2="-271.654" y2="-386.395" gradientTransform="rotate(-45.001 350.215 -534.71)"><stop offset="0" stop-color="#009688"/><stop offset=".994" stop-color="#3f51b5"/></linearGradient><linearGradient id="SVGID_10_" gradientUnits="userSpaceOnUse" x1="14.648" y1="10.124" x2="15.596" y2="10.124"><stop offset="0" stop-color="#009688"/><stop offset=".994" stop-color="#3f51b5"/></linearGradient><path d="M15.4 10.4c.3-.3-.2-.8-.5-.5-.3.3.2.8.5.5z" fill="url(#SVGID_9_)" stroke="url(#SVGID_10_)" stroke-width=".25" stroke-miterlimit="10"/><linearGradient id="SVGID_11_" gradientUnits="userSpaceOnUse" x1="-289.512" y1="-362.248" x2="-261.692" y2="-362.248" gradientTransform="rotate(-45.001 350.215 -534.71)"><stop offset="0" stop-color="#009688"/><stop offset=".994" stop-color="#3f51b5"/></linearGradient><path fill="url(#SVGID_11_)" d="M54 34.4L34.3 54.1l-29-29L25 5.4z"/><path class="st7" d="M39.8 31.1l-8 7.9c-1 1-2.7 1.1-3.7.1l-5.5-5.5c-.5-.5-.7-1.2-.7-1.8 0-.2 0-.4.1-.4.1-.7.5-1.2.8-1.4l7.9-7.9c1-1 2.7-1.1 3.7-.1l5.5 5.5c1 .8.9 2.5-.1 3.6z"/><path class="st7" d="M22 31.2l4.9-10.7c.4-.9.9-1.5 1.2-1.3l1.1 1.1.9.9M33.8 29.3c.4.4 1.1.4 1.5 0l2.3-2.3c.4-.4.4-1.1 0-1.5l-.3-.3c-.4-.4-1.1-.4-1.5 0l-2.3 2.3c-.4.4-.4 1.1 0 1.5l.3.3z"/><path d="M35.2 28.4c.4-.4-.2-1.1-.6-.6-.5.4.2 1 .6.6z" fill="#3f51b5" stroke="#fff" stroke-width=".25" stroke-miterlimit="10"/></svg>