<svg xmlns="http://www.w3.org/2000/svg" viewBox="0 0 60 60"><linearGradient id="a" gradientUnits="userSpaceOnUse" x1="44.559" y1="30.47" x2="59.949" y2="30.47"><stop offset=".006" stop-color="#3f51b5"/><stop offset="1" stop-color="#009688"/></linearGradient><path d="M45.5 14.6c.8-.7 2.9-2.4 6.1-2.5.9 0 2.9-.1 4.5 1.1.7.6 2.2 2.1 2.3 6.5.1 6.7-3 9.5-4.2 14.8-.7 3.3-.9 8.2 2.3 15.2" fill="none" stroke="url(#a)" stroke-width="3" stroke-miterlimit="10"/><linearGradient id="b" gradientUnits="userSpaceOnUse" x1="1.496" y1="36.479" x2="45.665" y2="36.479"><stop offset="0" stop-color="#009688"/><stop offset=".994" stop-color="#3f51b5"/></linearGradient><path d="M31 14.4c-.5 0-1.3.3-1.7.7L1.8 43.8c-.4.4-.4 1 0 1.4l12.8 13c.4.4 1 .4 1.4 0L45 30c.4-.4.7-1.1.7-1.7V15.4c0-.6-.5-1-1-1H31z" fill="url(#b)"/><linearGradient id="c" gradientUnits="userSpaceOnUse" x1="-.005" y1="36.479" x2="47.165" y2="36.479"><stop offset="0" stop-color="#009688"/><stop offset=".994" stop-color="#3f51b5"/></linearGradient><path d="M31 14.4c-.5 0-1.3.3-1.7.7L1.8 43.8c-.4.4-.4 1 0 1.4l12.8 13c.4.4 1 .4 1.4 0L45 30c.4-.4.7-1.1.7-1.7V15.4c0-.6-.5-1-1-1H31z" fill="none" stroke="url(#c)" stroke-width="3" stroke-miterlimit="10"/><circle cx="32.8" cy="27" r="4.5" fill="#fff"/></svg>